<svg width="50" height="50" viewBox="0 0 50 50" fill="none" xmlns="http://www.w3.org/2000/svg">
<g clip-path="url(#clip0_4_21994)">
<path d="M25 50C38.8071 50 50 38.8071 50 25C50 11.1929 38.8071 0 25 0C11.1929 0 0 11.1929 0 25C0 38.8071 11.1929 50 25 50Z" fill="#366EDD"/>
<path d="M25.0002 41.6666C15.7945 41.6666 8.3335 34.2057 8.3335 25.0001C8.3335 15.7944 15.7945 8.33337 25.0002 8.33337C34.2058 8.33337 41.6668 15.7944 41.6668 25.0001C41.6668 29.4203 39.9108 33.6594 36.7852 36.785C33.6596 39.9107 29.4204 41.6666 25.0002 41.6666ZM24.0072 18.8157C23.0953 18.8609 22.2333 19.2453 21.5903 19.8936C20.9473 20.5418 20.5699 21.4069 20.5321 22.3192C20.5321 24.0355 21.5817 25.1561 23.8087 25.6242L25.369 25.993C26.8867 26.3476 27.5108 26.8582 27.5108 27.7234C27.5108 28.5887 26.4186 29.4397 25.0002 29.4397C24.4963 29.486 23.9897 29.3894 23.5382 29.1611C23.0866 28.9329 22.7085 28.5821 22.447 28.149C22.3695 27.9847 22.2472 27.8455 22.0941 27.7477C21.941 27.6498 21.7634 27.5972 21.5817 27.5958H20.7448C20.6805 27.6077 20.6191 27.6322 20.5643 27.668C20.5094 27.7037 20.4622 27.7499 20.4253 27.804C20.3884 27.858 20.3625 27.9188 20.3492 27.9829C20.3359 28.047 20.3354 28.1131 20.3477 28.1773C20.5515 29.0093 21.0255 29.7502 21.6954 30.2841C22.3653 30.818 23.1933 31.1147 24.0498 31.1277V32.3191C24.0498 32.5844 24.1552 32.8388 24.3427 33.0263C24.5302 33.2138 24.7846 33.3191 25.0498 33.3191C25.315 33.3191 25.5694 33.2138 25.7569 33.0263C25.9444 32.8388 26.0498 32.5844 26.0498 32.3191V31.1135C27.0183 31.1025 27.9442 30.7139 28.6304 30.0303C29.3166 29.3468 29.7088 28.4224 29.7236 27.4539C29.7236 25.6525 28.6881 24.6171 26.2342 24.0922L24.8157 23.7802C23.3973 23.4256 22.7307 22.9575 22.7307 22.1632C22.7307 21.3688 23.5817 20.4894 25.0002 20.4894C25.4469 20.4427 25.8976 20.5264 26.2977 20.7303C26.698 20.9342 27.0306 21.2496 27.2555 21.6383C27.3466 21.8325 27.491 21.9968 27.6717 22.1123C27.8525 22.2278 28.0622 22.2897 28.2767 22.2908H28.9434C29.095 22.2537 29.226 22.1587 29.3082 22.0261C29.3904 21.8934 29.4173 21.7338 29.3831 21.5816C29.191 20.8134 28.7611 20.1256 28.1549 19.6161C27.5487 19.1067 26.797 18.8017 26.0072 18.7447V17.766C26.0072 17.5008 25.9019 17.2464 25.7143 17.0589C25.5268 16.8714 25.2725 16.766 25.0072 16.766C24.742 16.766 24.4877 16.8714 24.3002 17.0589C24.1126 17.2464 24.0072 17.5008 24.0072 17.766V18.8157ZM12.5037 25.0001C12.5053 27.6129 13.3278 30.1593 14.8549 32.2794C16.382 34.3994 18.5366 35.9863 21.0143 36.8157H21.2129C21.3822 36.8157 21.5446 36.7485 21.6643 36.6288C21.784 36.5091 21.8512 36.3466 21.8512 36.1772V35.8794C21.8517 35.6153 21.7737 35.3572 21.6273 35.1375C21.4808 34.9178 21.2724 34.7466 21.0285 34.6453C19.0989 33.8666 17.446 32.5288 16.2821 30.8038C15.1182 29.0789 14.4963 27.0455 14.4963 24.9646C14.4963 22.8837 15.1182 20.8502 16.2821 19.1253C17.446 17.4004 19.0989 16.0626 21.0285 15.2837C21.2713 15.1851 21.4792 15.0164 21.6257 14.7992C21.7723 14.5819 21.8508 14.3259 21.8512 14.0639V13.7376C21.8522 13.6418 21.8299 13.5472 21.7865 13.4619C21.7431 13.3765 21.6797 13.3028 21.6018 13.2472C21.5238 13.1915 21.4336 13.1554 21.3387 13.142C21.2439 13.1286 21.1472 13.1383 21.0569 13.1702C18.5689 13.9931 16.4034 15.5789 14.868 17.7025C13.3326 19.8261 12.5053 22.3795 12.5037 25.0001ZM37.4965 25.0001C37.4921 22.3896 36.6683 19.8464 35.1412 17.7292C33.6143 15.6118 31.4615 14.0272 28.986 13.1986H28.7732C28.5964 13.1986 28.4268 13.2689 28.3018 13.3939C28.1768 13.5189 28.1065 13.6885 28.1065 13.8653V14.0781C28.1123 14.3516 28.197 14.6177 28.3505 14.8442C28.504 15.0707 28.7198 15.248 28.9718 15.3547C30.897 16.1358 32.5455 17.4737 33.7058 19.197C34.8665 20.9203 35.4865 22.9507 35.4865 25.0284C35.4865 27.1061 34.8665 29.1365 33.7058 30.8598C32.5455 32.5832 30.897 33.921 28.9718 34.7022C28.7246 34.81 28.5133 34.986 28.3625 35.2094C28.2118 35.4332 28.1279 35.695 28.1207 35.9647V36.2057C28.1219 36.311 28.148 36.4144 28.1968 36.5075C28.2456 36.6007 28.3157 36.681 28.4015 36.7416C28.4873 36.8025 28.5862 36.8422 28.6903 36.8575C28.7943 36.8728 28.9005 36.8635 29.0002 36.8297C31.4774 35.9972 33.6308 34.4072 35.1552 32.2844C36.6799 30.1618 37.499 27.6136 37.4965 25.0001Z" fill="white"/>
</g>
<defs>
<clipPath id="clip0_4_21994">
<rect width="50" height="50" fill="white"/>
</clipPath>
</defs>
</svg>
