<svg width="1021" height="600" viewBox="0 0 1021 600" fill="none" xmlns="http://www.w3.org/2000/svg">
<g clip-path="url(#clip0_198_14305)">
<path d="M-334.635 592.125V642.203M-334.635 642.203L-360.444 616.405M-334.635 642.203L-308.825 616.405M-248.098 592.125L-248.098 642.203M-248.098 642.203L-273.907 616.405M-248.098 642.203L-222.288 616.405M-292.125 642.203V692.282M-292.125 692.282L-317.935 666.484M-292.125 692.282L-266.316 666.484M-292.125 545.081V595.16M-292.125 595.16L-317.935 569.362M-292.125 595.16L-266.316 569.362M-109.942 542.046V592.125M-109.942 592.125L-135.751 566.327M-109.942 592.125L-84.1325 566.327M-23.4047 542.046V592.125M-23.4047 592.125L-49.214 566.327M-23.4047 592.125L2.40465 566.327M-67.4323 592.125L-67.4323 642.203M-67.4323 642.203L-93.2416 616.405M-67.4323 642.203L-41.623 616.405M-67.4323 495.003V545.081M-67.4323 545.081L-93.2416 519.283M-67.4323 545.081L-41.623 519.283M-196.479 642.203V692.282M-196.479 692.282L-222.288 666.484M-196.479 692.282L-170.67 666.484M-109.942 642.203V692.282M-109.942 692.282L-135.751 666.484M-109.942 692.282L-84.1325 666.484M-153.969 692.282V742.36M-153.969 742.36L-179.779 716.562M-153.969 742.36L-128.16 716.562M-153.969 595.16L-153.969 645.238M-153.969 645.238L-179.779 619.44M-153.969 645.238L-128.16 619.44M22.1412 592.125V642.203M22.1412 642.203L-3.66813 616.405M22.1412 642.203L47.9505 616.405M108.678 592.125V642.203M108.678 642.203L82.869 616.405M108.678 642.203L134.488 616.405M64.6506 642.203V692.282M64.6506 692.282L38.8413 666.484M64.6506 692.282L90.46 666.484M64.6506 545.081V595.16M64.6506 595.16L38.8413 569.362M64.6506 595.16L90.46 569.362M-67.4323 689.247V739.325M-67.4323 739.325L-93.2416 713.527M-67.4323 739.325L-41.623 713.527M19.1048 689.247V739.325M19.1048 739.325L-6.70452 713.527M19.1048 739.325L44.9141 713.527M-24.9229 739.325V789.404M-24.9229 789.404L-50.7322 763.606M-24.9229 789.404L0.886457 763.606M-24.9229 642.203V692.282M-24.9229 692.282L-50.7322 666.484M-24.9229 692.282L0.886457 666.484M-240.507 495.003V545.081M-240.507 545.081L-266.316 519.283M-240.507 545.081L-214.697 519.283M-153.969 495.003V545.081M-153.969 545.081L-179.779 519.283M-153.969 545.081L-128.16 519.283M-197.997 545.081V595.16M-197.997 595.16L-223.806 569.362M-197.997 595.16L-172.188 569.362M-197.997 447.959V498.038M-197.997 498.038L-223.806 472.24M-197.997 498.038L-172.188 472.24M-21.8865 443.407V493.485M-21.8865 493.485L-47.6958 467.687M-21.8865 493.485L3.92285 467.687M64.6506 443.407V493.485M64.6506 493.485L38.8413 467.687M64.6506 493.485L90.46 467.687M20.623 493.485V543.564M20.623 543.564L-5.18632 517.766M20.623 543.564L46.4323 517.766M20.623 396.363V446.442M20.623 446.442L-5.18632 420.644M20.623 446.442L46.4323 420.644M149.67 643.721V693.799M149.67 693.799L123.86 668.001M149.67 693.799L175.479 668.001M236.207 643.721V693.799M236.207 693.799L210.397 668.001M236.207 693.799L262.016 668.001M192.179 693.799V743.878M192.179 743.878L166.37 718.08M192.179 743.878L217.988 718.08M192.179 596.677V646.756M192.179 646.756L166.37 620.958M192.179 646.756L217.988 620.958M374.362 593.642V643.721M374.362 643.721L348.553 617.923M374.362 643.721L400.172 617.923M460.9 593.642V643.721M460.9 643.721L435.09 617.923M460.9 643.721L486.709 617.923M416.872 643.721V693.799M416.872 693.799L391.063 668.001M416.872 693.799L442.681 668.001M416.872 546.599V596.677M416.872 596.677L391.063 570.879M416.872 596.677L442.681 570.879M287.825 693.799V743.878M287.825 743.878L262.016 718.08M287.825 743.878L313.635 718.08M374.362 693.799V743.878M374.362 743.878L348.553 718.08M374.362 743.878L400.172 718.08M330.335 743.878V793.957M330.335 793.957L304.525 768.158M330.335 793.957L356.144 768.158M330.335 646.756V696.835M330.335 696.835L304.525 671.036M330.335 696.835L356.144 671.036M506.445 643.721V693.799M506.445 693.799L480.636 668.001M506.445 693.799L532.255 668.001M592.983 643.721V693.799M592.983 693.799L567.173 668.001M592.983 693.799L618.792 668.001M548.955 693.799V743.878M548.955 743.878L523.146 718.08M548.955 743.878L574.764 718.08M548.955 596.677V646.756M548.955 646.756L523.146 620.958M548.955 646.756L574.764 620.958M416.872 740.843V790.921M416.872 790.921L391.063 765.123M416.872 790.921L442.681 765.123M503.409 740.843V790.921M503.409 790.921L477.6 765.123M503.409 790.921L529.218 765.123M459.381 790.921V841M459.381 841L433.572 815.202M459.381 841L485.191 815.202M459.381 693.799V743.878M459.381 743.878L433.572 718.08M459.381 743.878L485.191 718.08M243.798 546.599V596.677M243.798 596.677L217.988 570.879M243.798 596.677L269.607 570.879M330.335 546.599V596.677M330.335 596.677L304.525 570.879M330.335 596.677L356.144 570.879M286.307 596.677V646.756M286.307 646.756L260.498 620.958M286.307 646.756L312.116 620.958M286.307 499.555V549.634M286.307 549.634L260.498 523.836M286.307 549.634L312.116 523.836M462.418 495.003V545.081M462.418 545.081L436.608 519.283M462.418 545.081L488.227 519.283M548.955 495.003V545.081M548.955 545.081L523.146 519.283M548.955 545.081L574.764 519.283M504.927 545.081V595.16M504.927 595.16L479.118 569.362M504.927 595.16L530.737 569.362M504.927 447.959V498.038M504.927 498.038L479.118 472.24M504.927 498.038L530.737 472.24M-419.654 297.724V347.802M-419.654 347.802L-445.463 322.004M-419.654 347.802L-393.844 322.004M-333.116 297.724V347.802M-333.116 347.802L-358.926 322.004M-333.116 347.802L-307.307 322.004M-377.144 347.802V397.881M-377.144 397.881L-402.953 372.083M-377.144 397.881L-351.335 372.083M-377.144 250.68L-377.144 300.759M-377.144 300.759L-402.953 274.961M-377.144 300.759L-351.335 274.961M-194.961 247.645V297.724M-194.961 297.724L-220.77 271.926M-194.961 297.724L-169.151 271.926M-108.424 247.645V297.724M-108.424 297.724L-134.233 271.926M-108.424 297.724L-82.6143 271.926M-152.451 297.724V347.802M-152.451 347.802L-178.261 322.004M-152.451 347.802L-126.642 322.004M-152.451 200.602V250.68M-152.451 250.68L-178.261 224.882M-152.451 250.68L-126.642 224.882M-281.498 347.802V397.881M-281.498 397.881L-307.307 372.083M-281.498 397.881L-255.689 372.083M-194.961 347.802V397.881M-194.961 397.881L-220.77 372.083M-194.961 397.881L-169.151 372.083M-238.988 397.881V447.959M-238.988 447.959L-264.798 422.161M-238.988 447.959L-213.179 422.161M-238.988 300.759V350.837M-238.988 350.837L-264.798 325.039M-238.988 350.837L-213.179 325.039M-377.144 444.924L-377.144 495.003M-377.144 495.003L-402.953 469.205M-377.144 495.003L-351.335 469.205M-290.607 444.924L-290.607 495.003M-290.607 495.003L-316.416 469.205M-290.607 495.003L-264.798 469.205M-334.635 495.003V545.081M-334.635 545.081L-360.444 519.283M-334.635 545.081L-308.825 519.283M-334.635 397.881V447.959M-334.635 447.959L-360.444 422.161M-334.635 447.959L-308.825 422.161M-62.8777 297.724V347.802M-62.8777 347.802L-88.6871 322.004M-62.8777 347.802L-37.0684 322.004M23.6594 297.724V347.802M23.6594 347.802L-2.14993 322.004M23.6594 347.802L49.4687 322.004M-20.3683 347.802V397.881M-20.3683 397.881L-46.1776 372.083M-20.3683 397.881L5.44104 372.083M-20.3683 250.68V300.759M-20.3683 300.759L-46.1776 274.961M-20.3683 300.759L5.44104 274.961M-152.451 394.846V444.924M-152.451 444.924L-178.261 419.126M-152.451 444.924L-126.642 419.126M-65.9141 394.846V444.924M-65.9141 444.924L-91.7234 419.126M-65.9141 444.924L-40.1048 419.126M-109.942 444.924V495.003M-109.942 495.003L-135.751 469.205M-109.942 495.003L-84.1325 469.205M-109.942 347.802V397.881M-109.942 397.881L-135.751 372.083M-109.942 397.881L-84.1325 372.083M-325.525 200.602V250.68M-325.525 250.68L-351.335 224.882M-325.525 250.68L-299.716 224.882M-238.988 200.602V250.68M-238.988 250.68L-264.798 224.882M-238.988 250.68L-213.179 224.882M-283.016 250.68L-283.016 300.759M-283.016 300.759L-308.825 274.961M-283.016 300.759L-257.207 274.961M-283.016 153.558V203.637M-283.016 203.637L-308.825 177.839M-283.016 203.637L-257.207 177.839M-106.905 149.006V199.084M-106.905 199.084L-132.715 173.286M-106.905 199.084L-81.0961 173.286M-20.3683 149.006V199.084M-20.3683 199.084L-46.1776 173.286M-20.3683 199.084L5.44104 173.286M-64.3959 199.084V249.163M-64.3959 249.163L-90.2052 223.365M-64.3959 249.163L-38.5866 223.365M-64.3959 101.962L-64.3959 152.041M-64.3959 152.041L-90.2052 126.243M-64.3959 152.041L-38.5866 126.243M600.573 545.081V595.16M600.573 595.16L574.764 569.362M600.573 595.16L626.383 569.362M687.111 545.081V595.16M687.111 595.16L661.301 569.362M687.111 595.16L712.92 569.362M643.083 595.16V645.238M643.083 645.238L617.274 619.44M643.083 645.238L668.892 619.44M643.083 498.038V548.116M643.083 548.116L617.274 522.318M643.083 548.116L668.892 522.318M825.266 495.003V545.081M825.266 545.081L799.457 519.283M825.266 545.081L851.076 519.283M911.803 495.003V545.081M911.803 545.081L885.994 519.283M911.803 545.081L937.613 519.283M867.776 545.081V595.16M867.776 595.16L841.967 569.362M867.776 595.16L893.585 569.362M867.776 447.959V498.038M867.776 498.038L841.967 472.24M867.776 498.038L893.585 472.24M738.729 595.16V645.238M738.729 645.238L712.92 619.44M738.729 645.238L764.539 619.44M825.266 595.16V645.238M825.266 645.238L799.457 619.44M825.266 645.238L851.076 619.44M781.239 645.238V695.317M781.239 695.317L755.429 669.519M781.239 695.317L807.048 669.519M781.239 548.116V598.195M781.239 598.195L755.429 572.397M781.239 598.195L807.048 572.397M957.349 545.081V595.16M957.349 595.16L931.54 569.362M957.349 595.16L983.159 569.362M1043.89 545.081V595.16M1043.89 595.16L1018.08 569.362M1043.89 595.16L1069.7 569.362M999.859 595.16V645.238M999.859 645.238L974.049 619.44M999.859 645.238L1025.67 619.44M999.859 498.038V548.116M999.859 548.116L974.049 522.318M999.859 548.116L1025.67 522.318M867.776 642.203V692.282M867.776 692.282L841.967 666.484M867.776 692.282L893.585 666.484M954.313 642.203V692.282M954.313 692.282L928.504 666.484M954.313 692.282L980.122 666.484M910.285 692.282V742.36M910.285 742.36L884.476 716.562M910.285 742.36L936.095 716.562M910.285 595.16V645.238M910.285 645.238L884.476 619.44M910.285 645.238L936.095 619.44M694.702 447.959V498.038M694.702 498.038L668.892 472.24M694.702 498.038L720.511 472.24M781.239 447.959V498.038M781.239 498.038L755.429 472.24M781.239 498.038L807.048 472.24M737.211 498.038V548.116M737.211 548.116L711.402 522.318M737.211 548.116L763.02 522.318M737.211 400.916V450.994M737.211 450.994L711.402 425.196M737.211 450.994L763.02 425.196M913.322 396.363V446.442M913.322 446.442L887.512 420.644M913.322 446.442L939.131 420.644M999.859 396.363V446.442M999.859 446.442L974.049 420.644M999.859 446.442L1025.67 420.644M955.831 446.442V496.52M955.831 496.52L930.022 470.722M955.831 496.52L981.64 470.722M955.831 349.32V399.398M955.831 399.398L930.022 373.6M955.831 399.398L981.64 373.6M1084.88 596.677V646.756M1084.88 646.756L1059.07 620.958M1084.88 646.756L1110.69 620.958M1171.41 596.677V646.756M1171.41 646.756L1145.61 620.958M1171.41 646.756L1197.22 620.958M1127.39 646.756V696.835M1127.39 696.835L1101.58 671.036M1127.39 696.835L1153.2 671.036M1127.39 549.634V599.712M1127.39 599.712L1101.58 573.914M1127.39 599.712L1153.2 573.914M1309.57 546.599V596.677M1309.57 596.677L1283.76 570.879M1309.57 596.677L1335.38 570.879M1396.11 546.599V596.677M1396.11 596.677L1370.3 570.879M1396.11 596.677L1421.92 570.879M1352.08 596.677V646.756M1352.08 646.756L1326.27 620.958M1352.08 646.756L1377.89 620.958M1352.08 499.555V549.634M1352.08 549.634L1326.27 523.836M1352.08 549.634L1377.89 523.836M1223.03 646.756V696.835M1223.03 696.835L1197.22 671.036M1223.03 696.835L1248.84 671.036M1309.57 646.756V696.835M1309.57 696.835L1283.76 671.036M1309.57 696.835L1335.38 671.036M1265.54 696.835V746.913M1265.54 746.913L1239.73 721.115M1265.54 746.913L1291.35 721.115M1265.54 599.712V649.791M1265.54 649.791L1239.73 623.993M1265.54 649.791L1291.35 623.993M1441.65 596.677V646.756M1441.65 646.756L1415.84 620.958M1441.65 646.756L1467.46 620.958M1528.19 596.677V646.756M1528.19 646.756L1502.38 620.958M1528.19 646.756L1554 620.958M1484.16 646.756V696.835M1484.16 696.835L1458.35 671.036M1484.16 696.835L1509.97 671.036M1484.16 549.634V599.712M1484.16 599.712L1458.35 573.914M1484.16 599.712L1509.97 573.914M1352.08 693.799V743.878M1352.08 743.878L1326.27 718.08M1352.08 743.878L1377.89 718.08M1438.62 693.799V743.878M1438.62 743.878L1412.81 718.08M1438.62 743.878L1464.43 718.08M1394.59 743.878V793.957M1394.59 793.957L1368.78 768.158M1394.59 793.957L1420.4 768.158M1394.59 646.756V696.835M1394.59 696.835L1368.78 671.036M1394.59 696.835L1420.4 671.036M1179.01 499.555V549.634M1179.01 549.634L1153.2 523.836M1179.01 549.634L1204.82 523.836M1265.54 499.555V549.634M1265.54 549.634L1239.73 523.836M1265.54 549.634L1291.35 523.836M1221.52 549.634V599.712M1221.52 599.712L1195.71 573.914M1221.52 599.712L1247.32 573.914M1221.52 452.512V502.59M1221.52 502.59L1195.71 476.792M1221.52 502.59L1247.32 476.792M1397.63 447.959V498.038M1397.63 498.038L1371.82 472.24M1397.63 498.038L1423.44 472.24M1484.16 447.959V498.038M1484.16 498.038L1458.35 472.24M1484.16 498.038L1509.97 472.24M1440.14 498.038V548.116M1440.14 548.116L1414.33 522.318M1440.14 548.116L1465.94 522.318M1440.14 400.916V450.994M1440.14 450.994L1414.33 425.196M1440.14 450.994L1465.94 425.196M515.555 250.68V300.759M515.555 300.759L489.745 274.961M515.555 300.759L541.364 274.961M602.092 250.68V300.759M602.092 300.759L576.282 274.961M602.092 300.759L627.901 274.961M558.064 300.759V350.837M558.064 350.837L532.255 325.039M558.064 350.837L583.873 325.039M558.064 203.637V253.715M558.064 253.715L532.255 227.917M558.064 253.715L583.873 227.917M740.247 200.602V250.68M740.247 250.68L714.438 224.882M740.247 250.68L766.057 224.882M826.785 200.602V250.68M826.785 250.68L800.975 224.882M826.785 250.68L852.594 224.882M782.757 250.68V300.759M782.757 300.759L756.948 274.961M782.757 300.759L808.566 274.961M782.757 153.558V203.637M782.757 203.637L756.948 177.839M782.757 203.637L808.566 177.839M653.71 300.759V350.837M653.71 350.837L627.901 325.039M653.71 350.837L679.52 325.039M740.247 300.759V350.837M740.247 350.837L714.438 325.039M740.247 350.837L766.057 325.039M696.22 350.837V400.916M696.22 400.916L670.41 375.118M696.22 400.916L722.029 375.118M696.22 253.715V303.794M696.22 303.794L670.41 277.996M696.22 303.794L722.029 277.996M558.064 397.881V447.959M558.064 447.959L532.255 422.161M558.064 447.959L583.873 422.161M644.601 397.881V447.959M644.601 447.959L618.792 422.161M644.601 447.959L670.41 422.161M600.573 447.959V498.038M600.573 498.038L574.764 472.24M600.573 498.038L626.383 472.24M600.573 350.837V400.916M600.573 400.916L574.764 375.118M600.573 400.916L626.383 375.118M872.33 250.68V300.759M872.33 300.759L846.521 274.961M872.33 300.759L898.14 274.961M958.868 250.68V300.759M958.868 300.759L933.058 274.961M958.868 300.759L984.677 274.961M914.84 300.759V350.837M914.84 350.837L889.031 325.039M914.84 350.837L940.649 325.039M914.84 203.637V253.715M914.84 253.715L889.031 227.917M914.84 253.715L940.649 227.917M782.757 347.802V397.881M782.757 397.881L756.948 372.083M782.757 397.881L808.566 372.083M869.294 347.802V397.881M869.294 397.881L843.485 372.083M869.294 397.881L895.103 372.083M825.266 397.881V447.959M825.266 447.959L799.457 422.161M825.266 447.959L851.076 422.161M825.266 300.759V350.837M825.266 350.837L799.457 325.039M825.266 350.837L851.076 325.039M609.683 153.558V203.637M609.683 203.637L583.873 177.839M609.683 203.637L635.492 177.839M696.22 153.558V203.637M696.22 203.637L670.41 177.839M696.22 203.637L722.029 177.839M652.192 203.637V253.715M652.192 253.715L626.383 227.917M652.192 253.715L678.001 227.917M652.192 106.515V156.593M652.192 156.593L626.383 130.795M652.192 156.593L678.001 130.795M828.303 101.962V152.041M828.303 152.041L802.493 126.243M828.303 152.041L854.112 126.243M914.84 101.962V152.041M914.84 152.041L889.031 126.243M914.84 152.041L940.649 126.243M870.812 152.041V202.119M870.812 202.119L845.003 176.321M870.812 202.119L896.622 176.321M870.812 54.9187V104.997M870.812 104.997L845.003 79.1992M870.812 104.997L896.622 79.1992M999.859 302.276V352.355M999.859 352.355L974.049 326.557M999.859 352.355L1025.67 326.557M1086.4 302.276V352.355M1086.4 352.355L1060.59 326.557M1086.4 352.355L1112.21 326.557M1042.37 352.355V402.433M1042.37 402.433L1016.56 376.635M1042.37 402.433L1068.18 376.635M1042.37 255.233V305.311M1042.37 305.311L1016.56 279.513M1042.37 305.311L1068.18 279.513M1224.55 252.198V302.276M1224.55 302.276L1198.74 276.478M1224.55 302.276L1250.36 276.478M1311.09 252.198V302.276M1311.09 302.276L1285.28 276.478M1311.09 302.276L1336.9 276.478M1267.06 302.276V352.355M1267.06 352.355L1241.25 326.557M1267.06 352.355L1292.87 326.557M1267.06 205.154V255.233M1267.06 255.233L1241.25 229.435M1267.06 255.233L1292.87 229.435M1138.01 352.355V402.433M1138.01 402.433L1112.21 376.635M1138.01 402.433L1163.82 376.635M1224.55 352.355V402.433M1224.55 402.433L1198.74 376.635M1224.55 402.433L1250.36 376.635M1180.52 402.433V452.512M1180.52 452.512L1154.71 426.714M1180.52 452.512L1206.33 426.714M1180.52 305.311V355.39M1180.52 355.39L1154.71 329.592M1180.52 355.39L1206.33 329.592M1042.37 449.477V499.555M1042.37 499.555L1016.56 473.757M1042.37 499.555L1068.18 473.757M1128.91 449.477V499.555M1128.91 499.555L1103.1 473.757M1128.91 499.555L1154.71 473.757M1084.88 499.555V549.634M1084.88 549.634L1059.07 523.836M1084.88 549.634L1110.69 523.836M1084.88 402.433V452.512M1084.88 452.512L1059.07 426.714M1084.88 452.512L1110.69 426.714M1356.63 302.276V352.355M1356.63 352.355L1330.83 326.557M1356.63 352.355L1382.44 326.557M1443.17 302.276V352.355M1443.17 352.355L1417.36 326.557M1443.17 352.355L1468.98 326.557M1399.14 352.355V402.433M1399.14 402.433L1373.33 376.635M1399.14 402.433L1424.95 376.635M1399.14 255.233V305.311M1399.14 305.311L1373.33 279.513M1399.14 305.311L1424.95 279.513M1267.06 399.398V449.477M1267.06 449.477L1241.25 423.679M1267.06 449.477L1292.87 423.679M1353.6 399.398V449.477M1353.6 449.477L1327.79 423.679M1353.6 449.477L1379.41 423.679M1309.57 449.477V499.555M1309.57 499.555L1283.76 473.757M1309.57 499.555L1335.38 473.757M1309.57 352.355V402.433M1309.57 402.433L1283.76 376.635M1309.57 402.433L1335.38 376.635M1093.99 205.154V255.233M1093.99 255.233L1068.18 229.435M1093.99 255.233L1119.8 229.435M1180.52 205.154V255.233M1180.52 255.233L1154.71 229.435M1180.52 255.233L1206.33 229.435M1136.5 255.233V305.311M1136.5 305.311L1110.69 279.513M1136.5 305.311L1162.31 279.513M1136.5 158.111V208.189M1136.5 208.189L1110.69 182.391M1136.5 208.189L1162.31 182.391M1312.61 153.558V203.637M1312.61 203.637L1286.8 177.839M1312.61 203.637L1338.42 177.839M1399.14 153.558V203.637M1399.14 203.637L1373.33 177.839M1399.14 203.637L1424.95 177.839M1355.12 203.637V253.715M1355.12 253.715L1329.31 227.917M1355.12 253.715L1380.93 227.917M1355.12 106.515V156.593M1355.12 156.593L1329.31 130.795M1355.12 156.593L1380.93 130.795M429.017 -45.2384V4.84014M429.017 4.84014L403.208 -20.9579M429.017 4.84014L454.827 -20.9579M515.555 -45.2384V4.84014M515.555 4.84014L489.745 -20.9579M515.555 4.84014L541.364 -20.9579M471.527 4.84014V54.9187M471.527 54.9187L445.718 29.1206M471.527 54.9187L497.336 29.1206M471.527 -92.2819V-42.2033M471.527 -42.2033L445.718 -68.0014M471.527 -42.2033L497.336 -68.0014M653.71 -95.3169L653.71 -45.2384M653.71 -45.2384L627.901 -71.0364M653.71 -45.2384L679.52 -71.0364M740.247 -95.3169L740.247 -45.2384M740.247 -45.2384L714.438 -71.0364M740.247 -45.2384L766.057 -71.0364M696.22 -45.2384V4.84014M696.22 4.84014L670.41 -20.9579M696.22 4.84014L722.029 -20.9579M696.22 -142.36V-92.2819M696.22 -92.2819L670.41 -118.08M696.22 -92.2819L722.029 -118.08M567.173 4.84014V54.9187M567.173 54.9187L541.364 29.1206M567.173 54.9187L592.983 29.1206M653.71 4.84014V54.9187M653.71 54.9187L627.901 29.1206M653.71 54.9187L679.52 29.1206M609.683 54.9187V104.997M609.683 104.997L583.873 79.1992M609.683 104.997L635.492 79.1992M609.683 -42.2033V7.8752M609.683 7.8752L583.873 -17.9228M609.683 7.8752L635.492 -17.9228M471.527 101.962V152.041M471.527 152.041L445.718 126.243M471.527 152.041L497.336 126.243M558.064 101.962V152.041M558.064 152.041L532.255 126.243M558.064 152.041L583.873 126.243M514.036 152.041V202.119M514.036 202.119L488.227 176.321M514.036 202.119L539.846 176.321M514.036 54.9187V104.997M514.036 104.997L488.227 79.1992M514.036 104.997L539.846 79.1992M785.793 -45.2384V4.84014M785.793 4.84014L759.984 -20.9579M785.793 4.84014L811.603 -20.9579M872.33 -45.2384V4.84014M872.33 4.84014L846.521 -20.9579M872.33 4.84014L898.14 -20.9579M828.303 4.84014V54.9187M828.303 54.9187L802.493 29.1206M828.303 54.9187L854.112 29.1206M828.303 -92.2819L828.303 -42.2033M828.303 -42.2033L802.493 -68.0014M828.303 -42.2033L854.112 -68.0014M696.22 51.8836V101.962M696.22 101.962L670.41 76.1641M696.22 101.962L722.029 76.1641M782.757 51.8836V101.962M782.757 101.962L756.948 76.1641M782.757 101.962L808.566 76.1641M738.729 101.962V152.041M738.729 152.041L712.92 126.243M738.729 152.041L764.539 126.243M738.729 4.84014V54.9187M738.729 54.9187L712.92 29.1206M738.729 54.9187L764.539 29.1206M523.146 -142.36V-92.2819M523.146 -92.2819L497.336 -118.08M523.146 -92.2819L548.955 -118.08M609.683 -142.36V-92.2819M609.683 -92.2819L583.873 -118.08M609.683 -92.2819L635.492 -118.08M565.655 -92.2819L565.655 -42.2033M565.655 -42.2033L539.846 -68.0014M565.655 -42.2033L591.464 -68.0014M565.655 -189.404V-139.325M565.655 -139.325L539.846 -165.123M565.655 -139.325L591.464 -165.123M741.766 -193.956V-143.878M741.766 -143.878L715.956 -169.676M741.766 -143.878L767.575 -169.676M828.303 -193.956V-143.878M828.303 -143.878L802.493 -169.676M828.303 -143.878L854.112 -169.676M784.275 -143.878V-93.7994M784.275 -93.7994L758.466 -119.597M784.275 -93.7994L810.084 -119.597M784.275 -241V-190.921M784.275 -190.921L758.466 -216.719M784.275 -190.921L810.084 -216.719M913.322 6.35767V56.4362M913.322 56.4362L887.512 30.6382M913.322 56.4362L939.131 30.6382M999.859 6.35767V56.4362M999.859 56.4362L974.049 30.6382M999.859 56.4362L1025.67 30.6382M955.831 56.4362V106.515M955.831 106.515L930.022 80.7167M955.831 106.515L981.64 80.7167M955.831 -40.6858V9.39273M955.831 9.39273L930.022 -16.4053M955.831 9.39273L981.64 -16.4053M1138.01 -43.7209V6.35767M1138.01 6.35767L1112.21 -19.4404M1138.01 6.35767L1163.82 -19.4404M1224.55 -43.7209V6.35767M1224.55 6.35767L1198.74 -19.4404M1224.55 6.35767L1250.36 -19.4404M1180.52 6.35767V56.4362M1180.52 56.4362L1154.71 30.6382M1180.52 56.4362L1206.33 30.6382M1180.52 -90.7643L1180.52 -40.6858M1180.52 -40.6858L1154.71 -66.4838M1180.52 -40.6858L1206.33 -66.4838M1051.48 56.4362V106.515M1051.48 106.515L1025.67 80.7167M1051.48 106.515L1077.29 80.7167M1138.01 56.4362V106.515M1138.01 106.515L1112.21 80.7167M1138.01 106.515L1163.82 80.7167M1093.99 106.515V156.593M1093.99 156.593L1068.18 130.795M1093.99 156.593L1119.8 130.795M1093.99 9.39273V59.4713M1093.99 59.4713L1068.18 33.6732M1093.99 59.4713L1119.8 33.6732M955.831 153.558V203.637M955.831 203.637L930.022 177.839M955.831 203.637L981.64 177.839M1042.37 153.558V203.637M1042.37 203.637L1016.56 177.839M1042.37 203.637L1068.18 177.839M998.341 203.637V253.715M998.341 253.715L972.531 227.917M998.341 253.715L1024.15 227.917M998.341 106.515V156.593M998.341 156.593L972.531 130.795M998.341 156.593L1024.15 130.795M1270.1 6.35767V56.4362M1270.1 56.4362L1244.29 30.6382M1270.1 56.4362L1295.91 30.6382M1356.63 6.35767V56.4362M1356.63 56.4362L1330.83 30.6382M1356.63 56.4362L1382.44 30.6382M1312.61 56.4362V106.515M1312.61 106.515L1286.8 80.7167M1312.61 106.515L1338.42 80.7167M1312.61 -40.6858V9.39273M1312.61 9.39273L1286.8 -16.4053M1312.61 9.39273L1338.42 -16.4053M1180.52 103.48V153.558M1180.52 153.558L1154.71 127.76M1180.52 153.558L1206.33 127.76M1267.06 103.48V153.558M1267.06 153.558L1241.25 127.76M1267.06 153.558L1292.87 127.76M1223.03 153.558V203.637M1223.03 203.637L1197.22 177.839M1223.03 203.637L1248.84 177.839M1223.03 56.4362V106.515M1223.03 106.515L1197.22 80.7167M1223.03 106.515L1248.84 80.7167M1007.45 -90.7643L1007.45 -40.6858M1007.45 -40.6858L981.64 -66.4838M1007.45 -40.6858L1033.26 -66.4838M1093.99 -90.7643L1093.99 -40.6858M1093.99 -40.6858L1068.18 -66.4838M1093.99 -40.6858L1119.8 -66.4838M1049.96 -40.6858V9.39273M1049.96 9.39273L1024.15 -16.4053M1049.96 9.39273L1075.77 -16.4053M1049.96 -137.808V-87.7293M1049.96 -87.7293L1024.15 -113.527M1049.96 -87.7293L1075.77 -113.527M1226.07 -142.36V-92.2819M1226.07 -92.2819L1200.26 -118.08M1226.07 -92.2819L1251.88 -118.08M1312.61 -142.36V-92.2819M1312.61 -92.2819L1286.8 -118.08M1312.61 -92.2819L1338.42 -118.08M1268.58 -92.2819L1268.58 -42.2033M1268.58 -42.2033L1242.77 -68.0014M1268.58 -42.2033L1294.39 -68.0014M1268.58 -189.404V-139.325M1268.58 -139.325L1242.77 -165.123M1268.58 -139.325L1294.39 -165.123M64.6506 349.32L64.6506 399.398M64.6506 399.398L38.8413 373.6M64.6506 399.398L90.46 373.6M151.188 349.32L151.188 399.398M151.188 399.398L125.378 373.6M151.188 399.398L176.997 373.6M107.16 399.398V449.477M107.16 449.477L81.3508 423.679M107.16 449.477L132.969 423.679M107.16 302.276V352.355M107.16 352.355L81.3508 326.557M107.16 352.355L132.969 326.557M289.344 299.241V349.32M289.344 349.32L263.534 323.522M289.344 349.32L315.153 323.522M375.881 299.241V349.32M375.881 349.32L350.071 323.522M375.881 349.32L401.69 323.522M331.853 349.32L331.853 399.398M331.853 399.398L306.044 373.6M331.853 399.398L357.662 373.6M331.853 252.198V302.276M331.853 302.276L306.044 276.478M331.853 302.276L357.662 276.478M202.806 399.398V449.477M202.806 449.477L176.997 423.679M202.806 449.477L228.616 423.679M289.344 399.398V449.477M289.344 449.477L263.534 423.679M289.344 449.477L315.153 423.679M245.316 449.477V499.555M245.316 499.555L219.507 473.757M245.316 499.555L271.125 473.757M245.316 352.355L245.316 402.433M245.316 402.433L219.507 376.635M245.316 402.433L271.125 376.635M107.16 496.52V546.599M107.16 546.599L81.3508 520.801M107.16 546.599L132.969 520.801M193.697 496.52V546.599M193.697 546.599L167.888 520.801M193.697 546.599L219.507 520.801M149.67 546.599V596.677M149.67 596.677L123.86 570.879M149.67 596.677L175.479 570.879M149.67 449.477V499.555M149.67 499.555L123.86 473.757M149.67 499.555L175.479 473.757M421.426 349.32L421.426 399.398M421.426 399.398L395.617 373.6M421.426 399.398L447.236 373.6M507.964 349.32V399.398M507.964 399.398L482.154 373.6M507.964 399.398L533.773 373.6M463.936 399.398V449.477M463.936 449.477L438.127 423.679M463.936 449.477L489.745 423.679M463.936 302.276V352.355M463.936 352.355L438.127 326.557M463.936 352.355L489.745 326.557M331.853 446.442V496.52M331.853 496.52L306.044 470.722M331.853 496.52L357.662 470.722M418.39 446.442V496.52M418.39 496.52L392.581 470.722M418.39 496.52L444.199 470.722M374.362 496.52V546.599M374.362 546.599L348.553 520.801M374.362 546.599L400.172 520.801M374.362 399.398V449.477M374.362 449.477L348.553 423.679M374.362 449.477L400.172 423.679M158.779 252.198V302.276M158.779 302.276L132.969 276.478M158.779 302.276L184.588 276.478M245.316 252.198V302.276M245.316 302.276L219.507 276.478M245.316 302.276L271.125 276.478M201.288 302.276V352.355M201.288 352.355L175.479 326.557M201.288 352.355L227.098 326.557M201.288 205.154V255.233M201.288 255.233L175.479 229.435M201.288 255.233L227.098 229.435M377.399 200.602V250.68M377.399 250.68L351.59 224.882M377.399 250.68L403.208 224.882M463.936 200.602V250.68M463.936 250.68L438.127 224.882M463.936 250.68L489.745 224.882M419.908 250.68V300.759M419.908 300.759L394.099 274.961M419.908 300.759L445.718 274.961M419.908 153.558V203.637M419.908 203.637L394.099 177.839M419.908 203.637L445.718 177.839M-506.191 1.80507V51.8836M-506.191 51.8836L-532 26.0856M-506.191 51.8836L-480.381 26.0856M-419.654 1.80507V51.8836M-419.654 51.8836L-445.463 26.0856M-419.654 51.8836L-393.844 26.0856M-463.681 51.8836V101.962M-463.681 101.962L-489.491 76.1641M-463.681 101.962L-437.872 76.1641M-463.681 -45.2384V4.84014M-463.681 4.84014L-489.491 -20.9579M-463.681 4.84014L-437.872 -20.9579M-281.498 -48.2735V1.80507M-281.498 1.80507L-307.307 -23.993M-281.498 1.80507L-255.689 -23.993M-194.961 -48.2735V1.80507M-194.961 1.80507L-220.77 -23.993M-194.961 1.80507L-169.151 -23.993M-238.988 1.80507V51.8836M-238.988 51.8836L-264.798 26.0856M-238.988 51.8836L-213.179 26.0856M-238.988 -95.3169V-45.2384M-238.988 -45.2384L-264.798 -71.0364M-238.988 -45.2384L-213.179 -71.0364M-368.035 51.8836V101.962M-368.035 101.962L-393.844 76.1641M-368.035 101.962L-342.226 76.1641M-281.498 51.8836V101.962M-281.498 101.962L-307.307 76.1641M-281.498 101.962L-255.689 76.1641M-325.525 101.962V152.041M-325.525 152.041L-351.335 126.243M-325.525 152.041L-299.716 126.243M-325.525 4.84014V54.9187M-325.525 54.9187L-351.335 29.1206M-325.525 54.9187L-299.716 29.1206M-463.681 149.006V199.084M-463.681 199.084L-489.491 173.286M-463.681 199.084L-437.872 173.286M-377.144 149.006V199.084M-377.144 199.084L-402.953 173.286M-377.144 199.084L-351.335 173.286M-421.172 199.084L-421.172 249.163M-421.172 249.163L-446.981 223.365M-421.172 249.163L-395.362 223.365M-421.172 101.962V152.041M-421.172 152.041L-446.981 126.243M-421.172 152.041L-395.362 126.243M-149.415 1.80507V51.8836M-149.415 51.8836L-175.224 26.0856M-149.415 51.8836L-123.606 26.0856M-62.8777 1.80507V51.8836M-62.8777 51.8836L-88.6871 26.0856M-62.8777 51.8836L-37.0684 26.0856M-106.905 51.8836V101.962M-106.905 101.962L-132.715 76.1641M-106.905 101.962L-81.0961 76.1641M-106.905 -45.2384V4.84014M-106.905 4.84014L-132.715 -20.9579M-106.905 4.84014L-81.0961 -20.9579M-238.988 98.9271L-238.988 149.006M-238.988 149.006L-264.798 123.208M-238.988 149.006L-213.179 123.208M-152.451 98.9271L-152.451 149.006M-152.451 149.006L-178.261 123.208M-152.451 149.006L-126.642 123.208M-196.479 149.006V199.084M-196.479 199.084L-222.288 173.286M-196.479 199.084L-170.67 173.286M-196.479 51.8836V101.962M-196.479 101.962L-222.288 76.1641M-196.479 101.962L-170.67 76.1641M-412.063 -95.3169V-45.2384M-412.063 -45.2384L-437.872 -71.0364M-412.063 -45.2384L-386.253 -71.0364M-325.525 -95.3169V-45.2384M-325.525 -45.2384L-351.335 -71.0364M-325.525 -45.2384L-299.716 -71.0364M-369.553 -45.2384V4.84014M-369.553 4.84014L-395.362 -20.9579M-369.553 4.84014L-343.744 -20.9579M-369.553 -142.36V-92.2819M-369.553 -92.2819L-395.362 -118.08M-369.553 -92.2819L-343.744 -118.08M-193.443 -146.913V-96.8345M-193.443 -96.8345L-219.252 -122.633M-193.443 -96.8345L-167.633 -122.633M-106.905 -146.913V-96.8345M-106.905 -96.8345L-132.715 -122.633M-106.905 -96.8345L-81.0961 -122.633M-150.933 -96.8345V-46.7559M-150.933 -46.7559L-176.742 -72.554M-150.933 -46.7559L-125.124 -72.554M-150.933 -193.956V-143.878M-150.933 -143.878L-176.742 -169.676M-150.933 -143.878L-125.124 -169.676M-21.8865 53.4011V103.48M-21.8865 103.48L-47.6958 77.6816M-21.8865 103.48L3.92285 77.6816M64.6506 53.4011V103.48M64.6506 103.48L38.8413 77.6816M64.6506 103.48L90.46 77.6816M20.623 103.48V153.558M20.623 153.558L-5.18632 127.76M20.623 153.558L46.4323 127.76M20.623 6.35767V56.4362M20.623 56.4362L-5.18632 30.6382M20.623 56.4362L46.4323 30.6382M202.806 3.3226V53.4011M202.806 53.4011L176.997 27.6031M202.806 53.4011L228.616 27.6031M289.344 3.3226V53.4011M289.344 53.4011L263.534 27.6031M289.344 53.4011L315.153 27.6031M245.316 53.4011V103.48M245.316 103.48L219.507 77.6816M245.316 103.48L271.125 77.6816M245.316 -43.7209V6.35767M245.316 6.35767L219.507 -19.4404M245.316 6.35767L271.125 -19.4404M116.269 103.48V153.558M116.269 153.558L90.46 127.76M116.269 153.558L142.079 127.76M202.806 103.48V153.558M202.806 153.558L176.997 127.76M202.806 153.558L228.616 127.76M158.779 153.558V203.637M158.779 203.637L132.969 177.839M158.779 203.637L184.588 177.839M158.779 56.4362V106.515M158.779 106.515L132.969 80.7167M158.779 106.515L184.588 80.7167M20.623 200.602V250.68M20.623 250.68L-5.18632 224.882M20.623 250.68L46.4323 224.882M107.16 200.602V250.68M107.16 250.68L81.3508 224.882M107.16 250.68L132.969 224.882M63.1325 250.68V300.759M63.1325 300.759L37.3231 274.961M63.1325 300.759L88.9418 274.961M63.1325 153.558V203.637M63.1325 203.637L37.3231 177.839M63.1325 203.637L88.9418 177.839M334.889 53.4011V103.48M334.889 103.48L309.08 77.6816M334.889 103.48L360.699 77.6816M421.426 53.4011V103.48M421.426 103.48L395.617 77.6816M421.426 103.48L447.236 77.6816M377.399 103.48V153.558M377.399 153.558L351.59 127.76M377.399 153.558L403.208 127.76M377.399 6.35767V56.4362M377.399 56.4362L351.59 30.6382M377.399 56.4362L403.208 30.6382M245.316 150.523V200.602M245.316 200.602L219.507 174.804M245.316 200.602L271.125 174.804M331.853 150.523V200.602M331.853 200.602L306.044 174.804M331.853 200.602L357.662 174.804M287.825 200.602V250.68M287.825 250.68L262.016 224.882M287.825 250.68L313.635 224.882M287.825 103.48V153.558M287.825 153.558L262.016 127.76M287.825 153.558L313.635 127.76M72.2416 -43.7209V6.35767M72.2416 6.35767L46.4323 -19.4404M72.2416 6.35767L98.0509 -19.4404M158.779 -43.7209V6.35767M158.779 6.35767L132.969 -19.4404M158.779 6.35767L184.588 -19.4404M114.751 6.35767V56.4362M114.751 56.4362L88.9418 30.6382M114.751 56.4362L140.56 30.6382M114.751 -90.7643V-40.6858M114.751 -40.6858L88.9418 -66.4838M114.751 -40.6858L140.56 -66.4838M290.862 -95.3169V-45.2384M290.862 -45.2384L265.052 -71.0364M290.862 -45.2384L316.671 -71.0364M377.399 -95.3169V-45.2384M377.399 -45.2384L351.59 -71.0364M377.399 -45.2384L403.208 -71.0364M333.371 -45.2384V4.84014M333.371 4.84014L307.562 -20.9579M333.371 4.84014L359.18 -20.9579M333.371 -142.36V-92.2819M333.371 -92.2819L307.562 -118.08M333.371 -92.2819L359.18 -118.08" stroke="url(#paint0_radial_198_14305)"/>
</g>
<defs>
<radialGradient id="paint0_radial_198_14305" cx="0" cy="0" r="1" gradientUnits="userSpaceOnUse" gradientTransform="translate(756.947 617.923) rotate(-88.8607) scale(992.662 1905.94)">
<stop stop-color="#49497B"/>
<stop offset="1" stop-color="#393961"/>
</radialGradient>
<clipPath id="clip0_198_14305">
<rect width="1021" height="600" fill="white"/>
</clipPath>
</defs>
</svg>
