<svg width="1012" height="506" viewBox="0 0 1012 506" fill="none" xmlns="http://www.w3.org/2000/svg">
<g clip-path="url(#clip0_4_133)">
<g opacity="0.5">
<mask id="path-1-inside-1_4_133" fill="white">
<path d="M310.713 686H287.287L293.97 668.726H304.02L310.713 686Z"/>
<path d="M311.728 681.019H286.262L293.538 662.841H304.462L311.728 681.019Z"/>
<path d="M312.834 675.776H285.156L293.056 656.645H304.935L312.834 675.776Z"/>
<path d="M314.04 670.263H283.95L292.543 650.117H305.457L314.04 670.263Z"/>
<path d="M315.346 664.448H282.644L291.98 643.248H306.01L315.346 664.448Z"/>
<path d="M316.773 658.332H281.227L291.377 636.017H306.623L316.773 658.332Z"/>
<path d="M318.321 651.905H279.679L290.714 628.404H307.286L318.321 651.905Z"/>
<path d="M319.999 645.126H278.001L289.99 620.4H308.01L319.999 645.126Z"/>
<path d="M321.818 637.995H276.172L289.206 611.964H308.794L321.818 637.995Z"/>
<path d="M323.808 630.493H274.192L288.352 603.086H309.638L323.808 630.493Z"/>
<path d="M325.969 622.589H272.031L287.427 593.746H310.573L325.969 622.589Z"/>
<path d="M328.31 614.274H269.689L286.422 583.915H311.577L328.31 614.274Z"/>
<path d="M330.863 605.517H267.137L285.327 573.56H312.673L330.863 605.517Z"/>
<path d="M333.627 596.297H264.363L284.141 562.664H313.859L333.627 596.297Z"/>
<path d="M336.642 586.596H261.358L282.845 551.185H315.145L336.642 586.596Z"/>
<path d="M339.918 576.392H258.082L281.438 539.113H316.552L339.918 576.392Z"/>
<path d="M343.476 565.637H254.524L279.92 526.399H318.08L343.476 565.637Z"/>
<path d="M347.335 554.328H250.655L278.252 513.022H319.738L347.335 554.328Z"/>
<path d="M351.546 542.418H246.454L276.453 498.942H321.547L351.546 542.418Z"/>
<path d="M356.109 529.874H241.881L274.493 484.119H323.507L356.109 529.874Z"/>
<path d="M361.073 516.678H236.916L272.363 468.512H325.637L361.073 516.678Z"/>
<path d="M366.48 502.789H231.52L270.051 452.082H327.949L366.48 502.789Z"/>
<path d="M372.34 488.166H225.651L267.529 434.788H330.471L372.34 488.166Z"/>
<path d="M378.721 472.781H219.279L264.795 416.591H333.205L378.721 472.781Z"/>
<path d="M385.656 456.571H212.344L261.82 397.429H336.18L385.656 456.571Z"/>
<path d="M393.193 439.519H204.807L258.584 377.263H339.416L393.193 439.519Z"/>
<path d="M401.384 421.572H196.616L255.067 356.033H342.923L401.384 421.572Z"/>
<path d="M410.278 402.672H187.712L251.248 333.687H346.742L410.278 402.672Z"/>
<path d="M419.956 382.777H178.034L247.097 310.167H350.903L419.956 382.777Z"/>
<path d="M430.478 361.837H167.522L242.585 285.411H355.415L430.478 361.837Z"/>
<path d="M441.915 339.803H156.085L237.68 259.34H360.32L441.915 339.803Z"/>
<path d="M454.337 316.604H143.663L232.344 231.913H365.646L454.337 316.604Z"/>
<path d="M467.844 292.18H130.156L226.555 203.03H371.445L467.844 292.18Z"/>
<path d="M482.527 266.47H115.473L220.254 172.63H377.746L482.527 266.47Z"/>
<path d="M498.486 239.405H99.5136L213.41 140.634H384.59L498.486 239.405Z"/>
<path d="M515.832 210.924H82.1673L205.963 106.95H392.037L515.832 210.924Z"/>
<path d="M534.686 180.946H63.3039L197.873 71.4888H400.128L534.686 180.946Z"/>
<path d="M555.188 149.381H42.8117L189.079 34.1697H408.921L555.188 149.381Z"/>
<path d="M577.459 116.159H20.5413L179.521 -5.11793H418.479L577.459 116.159Z"/>
<path d="M601.679 81.1901H-3.67941L169.129 -46.4744H428.86L601.679 81.1901Z"/>
<path d="M628 44.3732H-30L157.833 -90H440.156L628 44.3732Z"/>
</mask>
<path d="M310.713 686H287.287L293.97 668.726H304.02L310.713 686Z" stroke="url(#paint0_radial_4_133)" stroke-width="2" mask="url(#path-1-inside-1_4_133)"/>
<path d="M311.728 681.019H286.262L293.538 662.841H304.462L311.728 681.019Z" stroke="url(#paint1_radial_4_133)" stroke-width="2" mask="url(#path-1-inside-1_4_133)"/>
<path d="M312.834 675.776H285.156L293.056 656.645H304.935L312.834 675.776Z" stroke="url(#paint2_radial_4_133)" stroke-width="2" mask="url(#path-1-inside-1_4_133)"/>
<path d="M314.04 670.263H283.95L292.543 650.117H305.457L314.04 670.263Z" stroke="url(#paint3_radial_4_133)" stroke-width="2" mask="url(#path-1-inside-1_4_133)"/>
<path d="M315.346 664.448H282.644L291.98 643.248H306.01L315.346 664.448Z" stroke="url(#paint4_radial_4_133)" stroke-width="2" mask="url(#path-1-inside-1_4_133)"/>
<path d="M316.773 658.332H281.227L291.377 636.017H306.623L316.773 658.332Z" stroke="url(#paint5_radial_4_133)" stroke-width="2" mask="url(#path-1-inside-1_4_133)"/>
<path d="M318.321 651.905H279.679L290.714 628.404H307.286L318.321 651.905Z" stroke="url(#paint6_radial_4_133)" stroke-width="2" mask="url(#path-1-inside-1_4_133)"/>
<path d="M319.999 645.126H278.001L289.99 620.4H308.01L319.999 645.126Z" stroke="url(#paint7_radial_4_133)" stroke-width="2" mask="url(#path-1-inside-1_4_133)"/>
<path d="M321.818 637.995H276.172L289.206 611.964H308.794L321.818 637.995Z" stroke="url(#paint8_radial_4_133)" stroke-width="2" mask="url(#path-1-inside-1_4_133)"/>
<path d="M323.808 630.493H274.192L288.352 603.086H309.638L323.808 630.493Z" stroke="url(#paint9_radial_4_133)" stroke-width="2" mask="url(#path-1-inside-1_4_133)"/>
<path d="M325.969 622.589H272.031L287.427 593.746H310.573L325.969 622.589Z" stroke="url(#paint10_radial_4_133)" stroke-width="2" mask="url(#path-1-inside-1_4_133)"/>
<path d="M328.31 614.274H269.689L286.422 583.915H311.577L328.31 614.274Z" stroke="url(#paint11_radial_4_133)" stroke-width="2" mask="url(#path-1-inside-1_4_133)"/>
<path d="M330.863 605.517H267.137L285.327 573.56H312.673L330.863 605.517Z" stroke="url(#paint12_radial_4_133)" stroke-width="2" mask="url(#path-1-inside-1_4_133)"/>
<path d="M333.627 596.297H264.363L284.141 562.664H313.859L333.627 596.297Z" stroke="url(#paint13_radial_4_133)" stroke-width="2" mask="url(#path-1-inside-1_4_133)"/>
<path d="M336.642 586.596H261.358L282.845 551.185H315.145L336.642 586.596Z" stroke="url(#paint14_radial_4_133)" stroke-width="2" mask="url(#path-1-inside-1_4_133)"/>
<path d="M339.918 576.392H258.082L281.438 539.113H316.552L339.918 576.392Z" stroke="url(#paint15_radial_4_133)" stroke-width="2" mask="url(#path-1-inside-1_4_133)"/>
<path d="M343.476 565.637H254.524L279.92 526.399H318.08L343.476 565.637Z" stroke="url(#paint16_radial_4_133)" stroke-width="2" mask="url(#path-1-inside-1_4_133)"/>
<path d="M347.335 554.328H250.655L278.252 513.022H319.738L347.335 554.328Z" stroke="url(#paint17_radial_4_133)" stroke-width="2" mask="url(#path-1-inside-1_4_133)"/>
<path d="M351.546 542.418H246.454L276.453 498.942H321.547L351.546 542.418Z" stroke="url(#paint18_radial_4_133)" stroke-width="2" mask="url(#path-1-inside-1_4_133)"/>
<path d="M356.109 529.874H241.881L274.493 484.119H323.507L356.109 529.874Z" stroke="url(#paint19_radial_4_133)" stroke-width="2" mask="url(#path-1-inside-1_4_133)"/>
<path d="M361.073 516.678H236.916L272.363 468.512H325.637L361.073 516.678Z" stroke="url(#paint20_radial_4_133)" stroke-width="2" mask="url(#path-1-inside-1_4_133)"/>
<path d="M366.48 502.789H231.52L270.051 452.082H327.949L366.48 502.789Z" stroke="url(#paint21_radial_4_133)" stroke-width="2" mask="url(#path-1-inside-1_4_133)"/>
<path d="M372.34 488.166H225.651L267.529 434.788H330.471L372.34 488.166Z" stroke="url(#paint22_radial_4_133)" stroke-width="2" mask="url(#path-1-inside-1_4_133)"/>
<path d="M378.721 472.781H219.279L264.795 416.591H333.205L378.721 472.781Z" stroke="url(#paint23_radial_4_133)" stroke-width="2" mask="url(#path-1-inside-1_4_133)"/>
<path d="M385.656 456.571H212.344L261.82 397.429H336.18L385.656 456.571Z" stroke="url(#paint24_radial_4_133)" stroke-width="2" mask="url(#path-1-inside-1_4_133)"/>
<path d="M393.193 439.519H204.807L258.584 377.263H339.416L393.193 439.519Z" stroke="url(#paint25_radial_4_133)" stroke-width="2" mask="url(#path-1-inside-1_4_133)"/>
<path d="M401.384 421.572H196.616L255.067 356.033H342.923L401.384 421.572Z" stroke="url(#paint26_radial_4_133)" stroke-width="2" mask="url(#path-1-inside-1_4_133)"/>
<path d="M410.278 402.672H187.712L251.248 333.687H346.742L410.278 402.672Z" stroke="url(#paint27_radial_4_133)" stroke-width="2" mask="url(#path-1-inside-1_4_133)"/>
<path d="M419.956 382.777H178.034L247.097 310.167H350.903L419.956 382.777Z" stroke="url(#paint28_radial_4_133)" stroke-width="2" mask="url(#path-1-inside-1_4_133)"/>
<path d="M430.478 361.837H167.522L242.585 285.411H355.415L430.478 361.837Z" stroke="url(#paint29_radial_4_133)" stroke-width="2" mask="url(#path-1-inside-1_4_133)"/>
<path d="M441.915 339.803H156.085L237.68 259.34H360.32L441.915 339.803Z" stroke="url(#paint30_radial_4_133)" stroke-width="2" mask="url(#path-1-inside-1_4_133)"/>
<path d="M454.337 316.604H143.663L232.344 231.913H365.646L454.337 316.604Z" stroke="url(#paint31_radial_4_133)" stroke-width="2" mask="url(#path-1-inside-1_4_133)"/>
<path d="M467.844 292.18H130.156L226.555 203.03H371.445L467.844 292.18Z" stroke="url(#paint32_radial_4_133)" stroke-width="2" mask="url(#path-1-inside-1_4_133)"/>
<path d="M482.527 266.47H115.473L220.254 172.63H377.746L482.527 266.47Z" stroke="url(#paint33_radial_4_133)" stroke-width="2" mask="url(#path-1-inside-1_4_133)"/>
<path d="M498.486 239.405H99.5136L213.41 140.634H384.59L498.486 239.405Z" stroke="url(#paint34_radial_4_133)" stroke-width="2" mask="url(#path-1-inside-1_4_133)"/>
<path d="M515.832 210.924H82.1673L205.963 106.95H392.037L515.832 210.924Z" stroke="url(#paint35_radial_4_133)" stroke-width="2" mask="url(#path-1-inside-1_4_133)"/>
<path d="M534.686 180.946H63.3039L197.873 71.4888H400.128L534.686 180.946Z" stroke="url(#paint36_radial_4_133)" stroke-width="2" mask="url(#path-1-inside-1_4_133)"/>
<path d="M555.188 149.381H42.8117L189.079 34.1697H408.921L555.188 149.381Z" stroke="url(#paint37_radial_4_133)" stroke-width="2" mask="url(#path-1-inside-1_4_133)"/>
<path d="M577.459 116.159H20.5413L179.521 -5.11793H418.479L577.459 116.159Z" stroke="url(#paint38_radial_4_133)" stroke-width="2" mask="url(#path-1-inside-1_4_133)"/>
<path d="M601.679 81.1901H-3.67941L169.129 -46.4744H428.86L601.679 81.1901Z" stroke="url(#paint39_radial_4_133)" stroke-width="2" mask="url(#path-1-inside-1_4_133)"/>
<path d="M628 44.3732H-30L157.833 -90H440.156L628 44.3732Z" stroke="url(#paint40_radial_4_133)" stroke-width="2" mask="url(#path-1-inside-1_4_133)"/>
</g>
<g opacity="0.5">
<mask id="path-2-inside-2_4_133" fill="white">
<path d="M701.287 -90H724.713L718.03 -72.7263H707.98L701.287 -90Z"/>
<path d="M700.272 -85.0187H725.738L718.462 -66.8412H707.538L700.272 -85.0187Z"/>
<path d="M699.166 -79.7764H726.844L718.944 -60.6448H707.065L699.166 -79.7764Z"/>
<path d="M697.96 -74.2629H728.05L719.457 -54.1171H706.543L697.96 -74.2629Z"/>
<path d="M696.654 -68.4479H729.356L720.02 -47.2476H705.99L696.654 -68.4479Z"/>
<path d="M695.227 -62.3322H730.773L720.623 -40.0169H705.377L695.227 -62.3322Z"/>
<path d="M693.679 -55.9045H732.321L721.286 -32.4044H704.714L693.679 -55.9045Z"/>
<path d="M692.001 -49.1256H733.999L722.01 -24.4002H703.99L692.001 -49.1256Z"/>
<path d="M690.182 -41.9954H735.828L722.794 -15.9644H703.206L690.182 -41.9954Z"/>
<path d="M688.192 -34.4932H737.808L723.648 -7.0863H702.362L688.192 -34.4932Z"/>
<path d="M686.031 -26.5894H739.969L724.573 2.2536H701.427L686.031 -26.5894Z"/>
<path d="M683.69 -18.2741H742.311L725.578 12.0854H700.423L683.69 -18.2741Z"/>
<path d="M681.137 -9.51672H744.863L726.673 22.4396H699.327L681.137 -9.51672Z"/>
<path d="M678.373 -0.297302H747.637L727.859 33.3361H698.141L678.373 -0.297302Z"/>
<path d="M675.358 9.40381H750.642L729.155 44.8149H696.855L675.358 9.40381Z"/>
<path d="M672.082 19.6075H753.918L730.562 56.8866H695.448L672.082 19.6075Z"/>
<path d="M668.524 30.3633H757.476L732.08 69.6006H693.92L668.524 30.3633Z"/>
<path d="M664.665 41.6716H761.345L733.748 82.9777H692.262L664.665 41.6716Z"/>
<path d="M660.454 53.5823H765.546L735.547 97.0579H690.453L660.454 53.5823Z"/>
<path d="M655.891 66.1259H770.119L737.507 111.881H688.493L655.891 66.1259Z"/>
<path d="M650.927 79.3224H775.084L739.637 127.488H686.363L650.927 79.3224Z"/>
<path d="M645.52 93.2114H780.48L741.949 143.918H684.051L645.52 93.2114Z"/>
<path d="M639.66 107.834H786.349L744.471 161.212H681.529L639.66 107.834Z"/>
<path d="M633.279 123.219H792.721L747.205 179.409H678.795L633.279 123.219Z"/>
<path d="M626.344 139.429H799.656L750.18 198.571H675.82L626.344 139.429Z"/>
<path d="M618.807 156.481H807.193L753.416 218.737H672.584L618.807 156.481Z"/>
<path d="M610.616 174.428H815.384L756.933 239.967H669.077L610.616 174.428Z"/>
<path d="M601.722 193.328H824.288L760.752 262.313H665.258L601.722 193.328Z"/>
<path d="M592.044 213.223H833.966L764.903 285.833H661.097L592.044 213.223Z"/>
<path d="M581.522 234.163H844.478L769.415 310.589H656.585L581.522 234.163Z"/>
<path d="M570.085 256.197H855.915L774.32 336.66H651.68L570.085 256.197Z"/>
<path d="M557.663 279.396H868.337L779.656 364.087H646.354L557.663 279.396Z"/>
<path d="M544.156 303.82H881.844L785.445 392.97H640.555L544.156 303.82Z"/>
<path d="M529.473 329.53H896.527L791.746 423.37H634.254L529.473 329.53Z"/>
<path d="M513.514 356.595H912.486L798.59 455.366H627.41L513.514 356.595Z"/>
<path d="M496.168 385.076H929.833L806.037 489.05H619.963L496.168 385.076Z"/>
<path d="M477.314 415.054H948.696L814.127 524.511H611.872L477.314 415.054Z"/>
<path d="M456.812 446.619H969.188L822.921 561.83H603.079L456.812 446.619Z"/>
<path d="M434.541 479.841H991.459L832.479 601.118H593.521L434.541 479.841Z"/>
<path d="M410.321 514.81H1015.68L842.871 642.474H583.14L410.321 514.81Z"/>
<path d="M384 551.627H1042L854.167 686H571.844L384 551.627Z"/>
</mask>
<path d="M701.287 -90H724.713L718.03 -72.7263H707.98L701.287 -90Z" stroke="url(#paint41_radial_4_133)" stroke-width="2" mask="url(#path-2-inside-2_4_133)"/>
<path d="M700.272 -85.0187H725.738L718.462 -66.8412H707.538L700.272 -85.0187Z" stroke="url(#paint42_radial_4_133)" stroke-width="2" mask="url(#path-2-inside-2_4_133)"/>
<path d="M699.166 -79.7764H726.844L718.944 -60.6448H707.065L699.166 -79.7764Z" stroke="url(#paint43_radial_4_133)" stroke-width="2" mask="url(#path-2-inside-2_4_133)"/>
<path d="M697.96 -74.2629H728.05L719.457 -54.1171H706.543L697.96 -74.2629Z" stroke="url(#paint44_radial_4_133)" stroke-width="2" mask="url(#path-2-inside-2_4_133)"/>
<path d="M696.654 -68.4479H729.356L720.02 -47.2476H705.99L696.654 -68.4479Z" stroke="url(#paint45_radial_4_133)" stroke-width="2" mask="url(#path-2-inside-2_4_133)"/>
<path d="M695.227 -62.3322H730.773L720.623 -40.0169H705.377L695.227 -62.3322Z" stroke="url(#paint46_radial_4_133)" stroke-width="2" mask="url(#path-2-inside-2_4_133)"/>
<path d="M693.679 -55.9045H732.321L721.286 -32.4044H704.714L693.679 -55.9045Z" stroke="url(#paint47_radial_4_133)" stroke-width="2" mask="url(#path-2-inside-2_4_133)"/>
<path d="M692.001 -49.1256H733.999L722.01 -24.4002H703.99L692.001 -49.1256Z" stroke="url(#paint48_radial_4_133)" stroke-width="2" mask="url(#path-2-inside-2_4_133)"/>
<path d="M690.182 -41.9954H735.828L722.794 -15.9644H703.206L690.182 -41.9954Z" stroke="url(#paint49_radial_4_133)" stroke-width="2" mask="url(#path-2-inside-2_4_133)"/>
<path d="M688.192 -34.4932H737.808L723.648 -7.0863H702.362L688.192 -34.4932Z" stroke="url(#paint50_radial_4_133)" stroke-width="2" mask="url(#path-2-inside-2_4_133)"/>
<path d="M686.031 -26.5894H739.969L724.573 2.2536H701.427L686.031 -26.5894Z" stroke="url(#paint51_radial_4_133)" stroke-width="2" mask="url(#path-2-inside-2_4_133)"/>
<path d="M683.69 -18.2741H742.311L725.578 12.0854H700.423L683.69 -18.2741Z" stroke="url(#paint52_radial_4_133)" stroke-width="2" mask="url(#path-2-inside-2_4_133)"/>
<path d="M681.137 -9.51672H744.863L726.673 22.4396H699.327L681.137 -9.51672Z" stroke="url(#paint53_radial_4_133)" stroke-width="2" mask="url(#path-2-inside-2_4_133)"/>
<path d="M678.373 -0.297302H747.637L727.859 33.3361H698.141L678.373 -0.297302Z" stroke="url(#paint54_radial_4_133)" stroke-width="2" mask="url(#path-2-inside-2_4_133)"/>
<path d="M675.358 9.40381H750.642L729.155 44.8149H696.855L675.358 9.40381Z" stroke="url(#paint55_radial_4_133)" stroke-width="2" mask="url(#path-2-inside-2_4_133)"/>
<path d="M672.082 19.6075H753.918L730.562 56.8866H695.448L672.082 19.6075Z" stroke="url(#paint56_radial_4_133)" stroke-width="2" mask="url(#path-2-inside-2_4_133)"/>
<path d="M668.524 30.3633H757.476L732.08 69.6006H693.92L668.524 30.3633Z" stroke="url(#paint57_radial_4_133)" stroke-width="2" mask="url(#path-2-inside-2_4_133)"/>
<path d="M664.665 41.6716H761.345L733.748 82.9777H692.262L664.665 41.6716Z" stroke="url(#paint58_radial_4_133)" stroke-width="2" mask="url(#path-2-inside-2_4_133)"/>
<path d="M660.454 53.5823H765.546L735.547 97.0579H690.453L660.454 53.5823Z" stroke="url(#paint59_radial_4_133)" stroke-width="2" mask="url(#path-2-inside-2_4_133)"/>
<path d="M655.891 66.1259H770.119L737.507 111.881H688.493L655.891 66.1259Z" stroke="url(#paint60_radial_4_133)" stroke-width="2" mask="url(#path-2-inside-2_4_133)"/>
<path d="M650.927 79.3224H775.084L739.637 127.488H686.363L650.927 79.3224Z" stroke="url(#paint61_radial_4_133)" stroke-width="2" mask="url(#path-2-inside-2_4_133)"/>
<path d="M645.52 93.2114H780.48L741.949 143.918H684.051L645.52 93.2114Z" stroke="url(#paint62_radial_4_133)" stroke-width="2" mask="url(#path-2-inside-2_4_133)"/>
<path d="M639.66 107.834H786.349L744.471 161.212H681.529L639.66 107.834Z" stroke="url(#paint63_radial_4_133)" stroke-width="2" mask="url(#path-2-inside-2_4_133)"/>
<path d="M633.279 123.219H792.721L747.205 179.409H678.795L633.279 123.219Z" stroke="url(#paint64_radial_4_133)" stroke-width="2" mask="url(#path-2-inside-2_4_133)"/>
<path d="M626.344 139.429H799.656L750.18 198.571H675.82L626.344 139.429Z" stroke="url(#paint65_radial_4_133)" stroke-width="2" mask="url(#path-2-inside-2_4_133)"/>
<path d="M618.807 156.481H807.193L753.416 218.737H672.584L618.807 156.481Z" stroke="url(#paint66_radial_4_133)" stroke-width="2" mask="url(#path-2-inside-2_4_133)"/>
<path d="M610.616 174.428H815.384L756.933 239.967H669.077L610.616 174.428Z" stroke="url(#paint67_radial_4_133)" stroke-width="2" mask="url(#path-2-inside-2_4_133)"/>
<path d="M601.722 193.328H824.288L760.752 262.313H665.258L601.722 193.328Z" stroke="url(#paint68_radial_4_133)" stroke-width="2" mask="url(#path-2-inside-2_4_133)"/>
<path d="M592.044 213.223H833.966L764.903 285.833H661.097L592.044 213.223Z" stroke="url(#paint69_radial_4_133)" stroke-width="2" mask="url(#path-2-inside-2_4_133)"/>
<path d="M581.522 234.163H844.478L769.415 310.589H656.585L581.522 234.163Z" stroke="url(#paint70_radial_4_133)" stroke-width="2" mask="url(#path-2-inside-2_4_133)"/>
<path d="M570.085 256.197H855.915L774.32 336.66H651.68L570.085 256.197Z" stroke="url(#paint71_radial_4_133)" stroke-width="2" mask="url(#path-2-inside-2_4_133)"/>
<path d="M557.663 279.396H868.337L779.656 364.087H646.354L557.663 279.396Z" stroke="url(#paint72_radial_4_133)" stroke-width="2" mask="url(#path-2-inside-2_4_133)"/>
<path d="M544.156 303.82H881.844L785.445 392.97H640.555L544.156 303.82Z" stroke="url(#paint73_radial_4_133)" stroke-width="2" mask="url(#path-2-inside-2_4_133)"/>
<path d="M529.473 329.53H896.527L791.746 423.37H634.254L529.473 329.53Z" stroke="url(#paint74_radial_4_133)" stroke-width="2" mask="url(#path-2-inside-2_4_133)"/>
<path d="M513.514 356.595H912.486L798.59 455.366H627.41L513.514 356.595Z" stroke="url(#paint75_radial_4_133)" stroke-width="2" mask="url(#path-2-inside-2_4_133)"/>
<path d="M496.168 385.076H929.833L806.037 489.05H619.963L496.168 385.076Z" stroke="url(#paint76_radial_4_133)" stroke-width="2" mask="url(#path-2-inside-2_4_133)"/>
<path d="M477.314 415.054H948.696L814.127 524.511H611.872L477.314 415.054Z" stroke="url(#paint77_radial_4_133)" stroke-width="2" mask="url(#path-2-inside-2_4_133)"/>
<path d="M456.812 446.619H969.188L822.921 561.83H603.079L456.812 446.619Z" stroke="url(#paint78_radial_4_133)" stroke-width="2" mask="url(#path-2-inside-2_4_133)"/>
<path d="M434.541 479.841H991.459L832.479 601.118H593.521L434.541 479.841Z" stroke="url(#paint79_radial_4_133)" stroke-width="2" mask="url(#path-2-inside-2_4_133)"/>
<path d="M410.321 514.81H1015.68L842.871 642.474H583.14L410.321 514.81Z" stroke="url(#paint80_radial_4_133)" stroke-width="2" mask="url(#path-2-inside-2_4_133)"/>
<path d="M384 551.627H1042L854.167 686H571.844L384 551.627Z" stroke="url(#paint81_radial_4_133)" stroke-width="2" mask="url(#path-2-inside-2_4_133)"/>
</g>
</g>
<defs>
<radialGradient id="paint0_radial_4_133" cx="0" cy="0" r="1" gradientUnits="userSpaceOnUse" gradientTransform="translate(299.007 114.321) rotate(90.8693) scale(401.584 356.112)">
<stop stop-color="#3C3C65"/>
<stop offset="1" stop-color="#181829"/>
</radialGradient>
<radialGradient id="paint1_radial_4_133" cx="0" cy="0" r="1" gradientUnits="userSpaceOnUse" gradientTransform="translate(299.007 114.321) rotate(90.8693) scale(401.584 356.112)">
<stop stop-color="#3C3C65"/>
<stop offset="1" stop-color="#181829"/>
</radialGradient>
<radialGradient id="paint2_radial_4_133" cx="0" cy="0" r="1" gradientUnits="userSpaceOnUse" gradientTransform="translate(299.007 114.321) rotate(90.8693) scale(401.584 356.112)">
<stop stop-color="#3C3C65"/>
<stop offset="1" stop-color="#181829"/>
</radialGradient>
<radialGradient id="paint3_radial_4_133" cx="0" cy="0" r="1" gradientUnits="userSpaceOnUse" gradientTransform="translate(299.007 114.321) rotate(90.8693) scale(401.584 356.112)">
<stop stop-color="#3C3C65"/>
<stop offset="1" stop-color="#181829"/>
</radialGradient>
<radialGradient id="paint4_radial_4_133" cx="0" cy="0" r="1" gradientUnits="userSpaceOnUse" gradientTransform="translate(299.007 114.321) rotate(90.8693) scale(401.584 356.112)">
<stop stop-color="#3C3C65"/>
<stop offset="1" stop-color="#181829"/>
</radialGradient>
<radialGradient id="paint5_radial_4_133" cx="0" cy="0" r="1" gradientUnits="userSpaceOnUse" gradientTransform="translate(299.007 114.321) rotate(90.8693) scale(401.584 356.112)">
<stop stop-color="#3C3C65"/>
<stop offset="1" stop-color="#181829"/>
</radialGradient>
<radialGradient id="paint6_radial_4_133" cx="0" cy="0" r="1" gradientUnits="userSpaceOnUse" gradientTransform="translate(299.007 114.321) rotate(90.8693) scale(401.584 356.112)">
<stop stop-color="#3C3C65"/>
<stop offset="1" stop-color="#181829"/>
</radialGradient>
<radialGradient id="paint7_radial_4_133" cx="0" cy="0" r="1" gradientUnits="userSpaceOnUse" gradientTransform="translate(299.007 114.321) rotate(90.8693) scale(401.584 356.112)">
<stop stop-color="#3C3C65"/>
<stop offset="1" stop-color="#181829"/>
</radialGradient>
<radialGradient id="paint8_radial_4_133" cx="0" cy="0" r="1" gradientUnits="userSpaceOnUse" gradientTransform="translate(299.007 114.321) rotate(90.8693) scale(401.584 356.112)">
<stop stop-color="#3C3C65"/>
<stop offset="1" stop-color="#181829"/>
</radialGradient>
<radialGradient id="paint9_radial_4_133" cx="0" cy="0" r="1" gradientUnits="userSpaceOnUse" gradientTransform="translate(299.007 114.321) rotate(90.8693) scale(401.584 356.112)">
<stop stop-color="#3C3C65"/>
<stop offset="1" stop-color="#181829"/>
</radialGradient>
<radialGradient id="paint10_radial_4_133" cx="0" cy="0" r="1" gradientUnits="userSpaceOnUse" gradientTransform="translate(299.007 114.321) rotate(90.8693) scale(401.584 356.112)">
<stop stop-color="#3C3C65"/>
<stop offset="1" stop-color="#181829"/>
</radialGradient>
<radialGradient id="paint11_radial_4_133" cx="0" cy="0" r="1" gradientUnits="userSpaceOnUse" gradientTransform="translate(299.007 114.321) rotate(90.8693) scale(401.584 356.112)">
<stop stop-color="#3C3C65"/>
<stop offset="1" stop-color="#181829"/>
</radialGradient>
<radialGradient id="paint12_radial_4_133" cx="0" cy="0" r="1" gradientUnits="userSpaceOnUse" gradientTransform="translate(299.007 114.321) rotate(90.8693) scale(401.584 356.112)">
<stop stop-color="#3C3C65"/>
<stop offset="1" stop-color="#181829"/>
</radialGradient>
<radialGradient id="paint13_radial_4_133" cx="0" cy="0" r="1" gradientUnits="userSpaceOnUse" gradientTransform="translate(299.007 114.321) rotate(90.8693) scale(401.584 356.112)">
<stop stop-color="#3C3C65"/>
<stop offset="1" stop-color="#181829"/>
</radialGradient>
<radialGradient id="paint14_radial_4_133" cx="0" cy="0" r="1" gradientUnits="userSpaceOnUse" gradientTransform="translate(299.007 114.321) rotate(90.8693) scale(401.584 356.112)">
<stop stop-color="#3C3C65"/>
<stop offset="1" stop-color="#181829"/>
</radialGradient>
<radialGradient id="paint15_radial_4_133" cx="0" cy="0" r="1" gradientUnits="userSpaceOnUse" gradientTransform="translate(299.007 114.321) rotate(90.8693) scale(401.584 356.112)">
<stop stop-color="#3C3C65"/>
<stop offset="1" stop-color="#181829"/>
</radialGradient>
<radialGradient id="paint16_radial_4_133" cx="0" cy="0" r="1" gradientUnits="userSpaceOnUse" gradientTransform="translate(299.007 114.321) rotate(90.8693) scale(401.584 356.112)">
<stop stop-color="#3C3C65"/>
<stop offset="1" stop-color="#181829"/>
</radialGradient>
<radialGradient id="paint17_radial_4_133" cx="0" cy="0" r="1" gradientUnits="userSpaceOnUse" gradientTransform="translate(299.007 114.321) rotate(90.8693) scale(401.584 356.112)">
<stop stop-color="#3C3C65"/>
<stop offset="1" stop-color="#181829"/>
</radialGradient>
<radialGradient id="paint18_radial_4_133" cx="0" cy="0" r="1" gradientUnits="userSpaceOnUse" gradientTransform="translate(299.007 114.321) rotate(90.8693) scale(401.584 356.112)">
<stop stop-color="#3C3C65"/>
<stop offset="1" stop-color="#181829"/>
</radialGradient>
<radialGradient id="paint19_radial_4_133" cx="0" cy="0" r="1" gradientUnits="userSpaceOnUse" gradientTransform="translate(299.007 114.321) rotate(90.8693) scale(401.584 356.112)">
<stop stop-color="#3C3C65"/>
<stop offset="1" stop-color="#181829"/>
</radialGradient>
<radialGradient id="paint20_radial_4_133" cx="0" cy="0" r="1" gradientUnits="userSpaceOnUse" gradientTransform="translate(299.007 114.321) rotate(90.8693) scale(401.584 356.112)">
<stop stop-color="#3C3C65"/>
<stop offset="1" stop-color="#181829"/>
</radialGradient>
<radialGradient id="paint21_radial_4_133" cx="0" cy="0" r="1" gradientUnits="userSpaceOnUse" gradientTransform="translate(299.007 114.321) rotate(90.8693) scale(401.584 356.112)">
<stop stop-color="#3C3C65"/>
<stop offset="1" stop-color="#181829"/>
</radialGradient>
<radialGradient id="paint22_radial_4_133" cx="0" cy="0" r="1" gradientUnits="userSpaceOnUse" gradientTransform="translate(299.007 114.321) rotate(90.8693) scale(401.584 356.112)">
<stop stop-color="#3C3C65"/>
<stop offset="1" stop-color="#181829"/>
</radialGradient>
<radialGradient id="paint23_radial_4_133" cx="0" cy="0" r="1" gradientUnits="userSpaceOnUse" gradientTransform="translate(299.007 114.321) rotate(90.8693) scale(401.584 356.112)">
<stop stop-color="#3C3C65"/>
<stop offset="1" stop-color="#181829"/>
</radialGradient>
<radialGradient id="paint24_radial_4_133" cx="0" cy="0" r="1" gradientUnits="userSpaceOnUse" gradientTransform="translate(299.007 114.321) rotate(90.8693) scale(401.584 356.112)">
<stop stop-color="#3C3C65"/>
<stop offset="1" stop-color="#181829"/>
</radialGradient>
<radialGradient id="paint25_radial_4_133" cx="0" cy="0" r="1" gradientUnits="userSpaceOnUse" gradientTransform="translate(299.007 114.321) rotate(90.8693) scale(401.584 356.112)">
<stop stop-color="#3C3C65"/>
<stop offset="1" stop-color="#181829"/>
</radialGradient>
<radialGradient id="paint26_radial_4_133" cx="0" cy="0" r="1" gradientUnits="userSpaceOnUse" gradientTransform="translate(299.007 114.321) rotate(90.8693) scale(401.584 356.112)">
<stop stop-color="#3C3C65"/>
<stop offset="1" stop-color="#181829"/>
</radialGradient>
<radialGradient id="paint27_radial_4_133" cx="0" cy="0" r="1" gradientUnits="userSpaceOnUse" gradientTransform="translate(299.007 114.321) rotate(90.8693) scale(401.584 356.112)">
<stop stop-color="#3C3C65"/>
<stop offset="1" stop-color="#181829"/>
</radialGradient>
<radialGradient id="paint28_radial_4_133" cx="0" cy="0" r="1" gradientUnits="userSpaceOnUse" gradientTransform="translate(299.007 114.321) rotate(90.8693) scale(401.584 356.112)">
<stop stop-color="#3C3C65"/>
<stop offset="1" stop-color="#181829"/>
</radialGradient>
<radialGradient id="paint29_radial_4_133" cx="0" cy="0" r="1" gradientUnits="userSpaceOnUse" gradientTransform="translate(299.007 114.321) rotate(90.8693) scale(401.584 356.112)">
<stop stop-color="#3C3C65"/>
<stop offset="1" stop-color="#181829"/>
</radialGradient>
<radialGradient id="paint30_radial_4_133" cx="0" cy="0" r="1" gradientUnits="userSpaceOnUse" gradientTransform="translate(299.007 114.321) rotate(90.8693) scale(401.584 356.112)">
<stop stop-color="#3C3C65"/>
<stop offset="1" stop-color="#181829"/>
</radialGradient>
<radialGradient id="paint31_radial_4_133" cx="0" cy="0" r="1" gradientUnits="userSpaceOnUse" gradientTransform="translate(299.007 114.321) rotate(90.8693) scale(401.584 356.112)">
<stop stop-color="#3C3C65"/>
<stop offset="1" stop-color="#181829"/>
</radialGradient>
<radialGradient id="paint32_radial_4_133" cx="0" cy="0" r="1" gradientUnits="userSpaceOnUse" gradientTransform="translate(299.007 114.321) rotate(90.8693) scale(401.584 356.112)">
<stop stop-color="#3C3C65"/>
<stop offset="1" stop-color="#181829"/>
</radialGradient>
<radialGradient id="paint33_radial_4_133" cx="0" cy="0" r="1" gradientUnits="userSpaceOnUse" gradientTransform="translate(299.007 114.321) rotate(90.8693) scale(401.584 356.112)">
<stop stop-color="#3C3C65"/>
<stop offset="1" stop-color="#181829"/>
</radialGradient>
<radialGradient id="paint34_radial_4_133" cx="0" cy="0" r="1" gradientUnits="userSpaceOnUse" gradientTransform="translate(299.007 114.321) rotate(90.8693) scale(401.584 356.112)">
<stop stop-color="#3C3C65"/>
<stop offset="1" stop-color="#181829"/>
</radialGradient>
<radialGradient id="paint35_radial_4_133" cx="0" cy="0" r="1" gradientUnits="userSpaceOnUse" gradientTransform="translate(299.007 114.321) rotate(90.8693) scale(401.584 356.112)">
<stop stop-color="#3C3C65"/>
<stop offset="1" stop-color="#181829"/>
</radialGradient>
<radialGradient id="paint36_radial_4_133" cx="0" cy="0" r="1" gradientUnits="userSpaceOnUse" gradientTransform="translate(299.007 114.321) rotate(90.8693) scale(401.584 356.112)">
<stop stop-color="#3C3C65"/>
<stop offset="1" stop-color="#181829"/>
</radialGradient>
<radialGradient id="paint37_radial_4_133" cx="0" cy="0" r="1" gradientUnits="userSpaceOnUse" gradientTransform="translate(299.007 114.321) rotate(90.8693) scale(401.584 356.112)">
<stop stop-color="#3C3C65"/>
<stop offset="1" stop-color="#181829"/>
</radialGradient>
<radialGradient id="paint38_radial_4_133" cx="0" cy="0" r="1" gradientUnits="userSpaceOnUse" gradientTransform="translate(299.007 114.321) rotate(90.8693) scale(401.584 356.112)">
<stop stop-color="#3C3C65"/>
<stop offset="1" stop-color="#181829"/>
</radialGradient>
<radialGradient id="paint39_radial_4_133" cx="0" cy="0" r="1" gradientUnits="userSpaceOnUse" gradientTransform="translate(299.007 114.321) rotate(90.8693) scale(401.584 356.112)">
<stop stop-color="#3C3C65"/>
<stop offset="1" stop-color="#181829"/>
</radialGradient>
<radialGradient id="paint40_radial_4_133" cx="0" cy="0" r="1" gradientUnits="userSpaceOnUse" gradientTransform="translate(299.007 114.321) rotate(90.8693) scale(401.584 356.112)">
<stop stop-color="#3C3C65"/>
<stop offset="1" stop-color="#181829"/>
</radialGradient>
<radialGradient id="paint41_radial_4_133" cx="0" cy="0" r="1" gradientUnits="userSpaceOnUse" gradientTransform="translate(712.993 481.679) rotate(-89.1307) scale(401.584 356.112)">
<stop stop-color="#3C3C65"/>
<stop offset="1" stop-color="#181829"/>
</radialGradient>
<radialGradient id="paint42_radial_4_133" cx="0" cy="0" r="1" gradientUnits="userSpaceOnUse" gradientTransform="translate(712.993 481.679) rotate(-89.1307) scale(401.584 356.112)">
<stop stop-color="#3C3C65"/>
<stop offset="1" stop-color="#181829"/>
</radialGradient>
<radialGradient id="paint43_radial_4_133" cx="0" cy="0" r="1" gradientUnits="userSpaceOnUse" gradientTransform="translate(712.993 481.679) rotate(-89.1307) scale(401.584 356.112)">
<stop stop-color="#3C3C65"/>
<stop offset="1" stop-color="#181829"/>
</radialGradient>
<radialGradient id="paint44_radial_4_133" cx="0" cy="0" r="1" gradientUnits="userSpaceOnUse" gradientTransform="translate(712.993 481.679) rotate(-89.1307) scale(401.584 356.112)">
<stop stop-color="#3C3C65"/>
<stop offset="1" stop-color="#181829"/>
</radialGradient>
<radialGradient id="paint45_radial_4_133" cx="0" cy="0" r="1" gradientUnits="userSpaceOnUse" gradientTransform="translate(712.993 481.679) rotate(-89.1307) scale(401.584 356.112)">
<stop stop-color="#3C3C65"/>
<stop offset="1" stop-color="#181829"/>
</radialGradient>
<radialGradient id="paint46_radial_4_133" cx="0" cy="0" r="1" gradientUnits="userSpaceOnUse" gradientTransform="translate(712.993 481.679) rotate(-89.1307) scale(401.584 356.112)">
<stop stop-color="#3C3C65"/>
<stop offset="1" stop-color="#181829"/>
</radialGradient>
<radialGradient id="paint47_radial_4_133" cx="0" cy="0" r="1" gradientUnits="userSpaceOnUse" gradientTransform="translate(712.993 481.679) rotate(-89.1307) scale(401.584 356.112)">
<stop stop-color="#3C3C65"/>
<stop offset="1" stop-color="#181829"/>
</radialGradient>
<radialGradient id="paint48_radial_4_133" cx="0" cy="0" r="1" gradientUnits="userSpaceOnUse" gradientTransform="translate(712.993 481.679) rotate(-89.1307) scale(401.584 356.112)">
<stop stop-color="#3C3C65"/>
<stop offset="1" stop-color="#181829"/>
</radialGradient>
<radialGradient id="paint49_radial_4_133" cx="0" cy="0" r="1" gradientUnits="userSpaceOnUse" gradientTransform="translate(712.993 481.679) rotate(-89.1307) scale(401.584 356.112)">
<stop stop-color="#3C3C65"/>
<stop offset="1" stop-color="#181829"/>
</radialGradient>
<radialGradient id="paint50_radial_4_133" cx="0" cy="0" r="1" gradientUnits="userSpaceOnUse" gradientTransform="translate(712.993 481.679) rotate(-89.1307) scale(401.584 356.112)">
<stop stop-color="#3C3C65"/>
<stop offset="1" stop-color="#181829"/>
</radialGradient>
<radialGradient id="paint51_radial_4_133" cx="0" cy="0" r="1" gradientUnits="userSpaceOnUse" gradientTransform="translate(712.993 481.679) rotate(-89.1307) scale(401.584 356.112)">
<stop stop-color="#3C3C65"/>
<stop offset="1" stop-color="#181829"/>
</radialGradient>
<radialGradient id="paint52_radial_4_133" cx="0" cy="0" r="1" gradientUnits="userSpaceOnUse" gradientTransform="translate(712.993 481.679) rotate(-89.1307) scale(401.584 356.112)">
<stop stop-color="#3C3C65"/>
<stop offset="1" stop-color="#181829"/>
</radialGradient>
<radialGradient id="paint53_radial_4_133" cx="0" cy="0" r="1" gradientUnits="userSpaceOnUse" gradientTransform="translate(712.993 481.679) rotate(-89.1307) scale(401.584 356.112)">
<stop stop-color="#3C3C65"/>
<stop offset="1" stop-color="#181829"/>
</radialGradient>
<radialGradient id="paint54_radial_4_133" cx="0" cy="0" r="1" gradientUnits="userSpaceOnUse" gradientTransform="translate(712.993 481.679) rotate(-89.1307) scale(401.584 356.112)">
<stop stop-color="#3C3C65"/>
<stop offset="1" stop-color="#181829"/>
</radialGradient>
<radialGradient id="paint55_radial_4_133" cx="0" cy="0" r="1" gradientUnits="userSpaceOnUse" gradientTransform="translate(712.993 481.679) rotate(-89.1307) scale(401.584 356.112)">
<stop stop-color="#3C3C65"/>
<stop offset="1" stop-color="#181829"/>
</radialGradient>
<radialGradient id="paint56_radial_4_133" cx="0" cy="0" r="1" gradientUnits="userSpaceOnUse" gradientTransform="translate(712.993 481.679) rotate(-89.1307) scale(401.584 356.112)">
<stop stop-color="#3C3C65"/>
<stop offset="1" stop-color="#181829"/>
</radialGradient>
<radialGradient id="paint57_radial_4_133" cx="0" cy="0" r="1" gradientUnits="userSpaceOnUse" gradientTransform="translate(712.993 481.679) rotate(-89.1307) scale(401.584 356.112)">
<stop stop-color="#3C3C65"/>
<stop offset="1" stop-color="#181829"/>
</radialGradient>
<radialGradient id="paint58_radial_4_133" cx="0" cy="0" r="1" gradientUnits="userSpaceOnUse" gradientTransform="translate(712.993 481.679) rotate(-89.1307) scale(401.584 356.112)">
<stop stop-color="#3C3C65"/>
<stop offset="1" stop-color="#181829"/>
</radialGradient>
<radialGradient id="paint59_radial_4_133" cx="0" cy="0" r="1" gradientUnits="userSpaceOnUse" gradientTransform="translate(712.993 481.679) rotate(-89.1307) scale(401.584 356.112)">
<stop stop-color="#3C3C65"/>
<stop offset="1" stop-color="#181829"/>
</radialGradient>
<radialGradient id="paint60_radial_4_133" cx="0" cy="0" r="1" gradientUnits="userSpaceOnUse" gradientTransform="translate(712.993 481.679) rotate(-89.1307) scale(401.584 356.112)">
<stop stop-color="#3C3C65"/>
<stop offset="1" stop-color="#181829"/>
</radialGradient>
<radialGradient id="paint61_radial_4_133" cx="0" cy="0" r="1" gradientUnits="userSpaceOnUse" gradientTransform="translate(712.993 481.679) rotate(-89.1307) scale(401.584 356.112)">
<stop stop-color="#3C3C65"/>
<stop offset="1" stop-color="#181829"/>
</radialGradient>
<radialGradient id="paint62_radial_4_133" cx="0" cy="0" r="1" gradientUnits="userSpaceOnUse" gradientTransform="translate(712.993 481.679) rotate(-89.1307) scale(401.584 356.112)">
<stop stop-color="#3C3C65"/>
<stop offset="1" stop-color="#181829"/>
</radialGradient>
<radialGradient id="paint63_radial_4_133" cx="0" cy="0" r="1" gradientUnits="userSpaceOnUse" gradientTransform="translate(712.993 481.679) rotate(-89.1307) scale(401.584 356.112)">
<stop stop-color="#3C3C65"/>
<stop offset="1" stop-color="#181829"/>
</radialGradient>
<radialGradient id="paint64_radial_4_133" cx="0" cy="0" r="1" gradientUnits="userSpaceOnUse" gradientTransform="translate(712.993 481.679) rotate(-89.1307) scale(401.584 356.112)">
<stop stop-color="#3C3C65"/>
<stop offset="1" stop-color="#181829"/>
</radialGradient>
<radialGradient id="paint65_radial_4_133" cx="0" cy="0" r="1" gradientUnits="userSpaceOnUse" gradientTransform="translate(712.993 481.679) rotate(-89.1307) scale(401.584 356.112)">
<stop stop-color="#3C3C65"/>
<stop offset="1" stop-color="#181829"/>
</radialGradient>
<radialGradient id="paint66_radial_4_133" cx="0" cy="0" r="1" gradientUnits="userSpaceOnUse" gradientTransform="translate(712.993 481.679) rotate(-89.1307) scale(401.584 356.112)">
<stop stop-color="#3C3C65"/>
<stop offset="1" stop-color="#181829"/>
</radialGradient>
<radialGradient id="paint67_radial_4_133" cx="0" cy="0" r="1" gradientUnits="userSpaceOnUse" gradientTransform="translate(712.993 481.679) rotate(-89.1307) scale(401.584 356.112)">
<stop stop-color="#3C3C65"/>
<stop offset="1" stop-color="#181829"/>
</radialGradient>
<radialGradient id="paint68_radial_4_133" cx="0" cy="0" r="1" gradientUnits="userSpaceOnUse" gradientTransform="translate(712.993 481.679) rotate(-89.1307) scale(401.584 356.112)">
<stop stop-color="#3C3C65"/>
<stop offset="1" stop-color="#181829"/>
</radialGradient>
<radialGradient id="paint69_radial_4_133" cx="0" cy="0" r="1" gradientUnits="userSpaceOnUse" gradientTransform="translate(712.993 481.679) rotate(-89.1307) scale(401.584 356.112)">
<stop stop-color="#3C3C65"/>
<stop offset="1" stop-color="#181829"/>
</radialGradient>
<radialGradient id="paint70_radial_4_133" cx="0" cy="0" r="1" gradientUnits="userSpaceOnUse" gradientTransform="translate(712.993 481.679) rotate(-89.1307) scale(401.584 356.112)">
<stop stop-color="#3C3C65"/>
<stop offset="1" stop-color="#181829"/>
</radialGradient>
<radialGradient id="paint71_radial_4_133" cx="0" cy="0" r="1" gradientUnits="userSpaceOnUse" gradientTransform="translate(712.993 481.679) rotate(-89.1307) scale(401.584 356.112)">
<stop stop-color="#3C3C65"/>
<stop offset="1" stop-color="#181829"/>
</radialGradient>
<radialGradient id="paint72_radial_4_133" cx="0" cy="0" r="1" gradientUnits="userSpaceOnUse" gradientTransform="translate(712.993 481.679) rotate(-89.1307) scale(401.584 356.112)">
<stop stop-color="#3C3C65"/>
<stop offset="1" stop-color="#181829"/>
</radialGradient>
<radialGradient id="paint73_radial_4_133" cx="0" cy="0" r="1" gradientUnits="userSpaceOnUse" gradientTransform="translate(712.993 481.679) rotate(-89.1307) scale(401.584 356.112)">
<stop stop-color="#3C3C65"/>
<stop offset="1" stop-color="#181829"/>
</radialGradient>
<radialGradient id="paint74_radial_4_133" cx="0" cy="0" r="1" gradientUnits="userSpaceOnUse" gradientTransform="translate(712.993 481.679) rotate(-89.1307) scale(401.584 356.112)">
<stop stop-color="#3C3C65"/>
<stop offset="1" stop-color="#181829"/>
</radialGradient>
<radialGradient id="paint75_radial_4_133" cx="0" cy="0" r="1" gradientUnits="userSpaceOnUse" gradientTransform="translate(712.993 481.679) rotate(-89.1307) scale(401.584 356.112)">
<stop stop-color="#3C3C65"/>
<stop offset="1" stop-color="#181829"/>
</radialGradient>
<radialGradient id="paint76_radial_4_133" cx="0" cy="0" r="1" gradientUnits="userSpaceOnUse" gradientTransform="translate(712.993 481.679) rotate(-89.1307) scale(401.584 356.112)">
<stop stop-color="#3C3C65"/>
<stop offset="1" stop-color="#181829"/>
</radialGradient>
<radialGradient id="paint77_radial_4_133" cx="0" cy="0" r="1" gradientUnits="userSpaceOnUse" gradientTransform="translate(712.993 481.679) rotate(-89.1307) scale(401.584 356.112)">
<stop stop-color="#3C3C65"/>
<stop offset="1" stop-color="#181829"/>
</radialGradient>
<radialGradient id="paint78_radial_4_133" cx="0" cy="0" r="1" gradientUnits="userSpaceOnUse" gradientTransform="translate(712.993 481.679) rotate(-89.1307) scale(401.584 356.112)">
<stop stop-color="#3C3C65"/>
<stop offset="1" stop-color="#181829"/>
</radialGradient>
<radialGradient id="paint79_radial_4_133" cx="0" cy="0" r="1" gradientUnits="userSpaceOnUse" gradientTransform="translate(712.993 481.679) rotate(-89.1307) scale(401.584 356.112)">
<stop stop-color="#3C3C65"/>
<stop offset="1" stop-color="#181829"/>
</radialGradient>
<radialGradient id="paint80_radial_4_133" cx="0" cy="0" r="1" gradientUnits="userSpaceOnUse" gradientTransform="translate(712.993 481.679) rotate(-89.1307) scale(401.584 356.112)">
<stop stop-color="#3C3C65"/>
<stop offset="1" stop-color="#181829"/>
</radialGradient>
<radialGradient id="paint81_radial_4_133" cx="0" cy="0" r="1" gradientUnits="userSpaceOnUse" gradientTransform="translate(712.993 481.679) rotate(-89.1307) scale(401.584 356.112)">
<stop stop-color="#3C3C65"/>
<stop offset="1" stop-color="#181829"/>
</radialGradient>
<clipPath id="clip0_4_133">
<rect width="1012" height="506" fill="white"/>
</clipPath>
</defs>
</svg>
