<svg width="1021" height="600" viewBox="0 0 1021 600" fill="none" xmlns="http://www.w3.org/2000/svg">
<g clip-path="url(#clip0_198_14302)">
<path d="M1125 318.686L1075.45 257.94M1125 318.686L1045.81 318.824M1125 318.686L1080.17 370.88M1075.45 257.94L1033.43 206.428M1075.45 257.94L1002.68 257.934M1033.43 206.428L997.347 162.191M1033.43 206.428L966.117 206.318M997.347 162.191L966.024 123.79M997.347 162.191L934.728 162.006M966.024 123.79L938.58 90.1455M966.024 123.79L907.491 123.55M938.58 90.1455L914.336 60.4208M938.58 90.1455L883.628 89.8635M914.336 60.4208L892.76 33.9732M914.336 60.4208L862.551 60.1113M892.76 33.9732L873.437 10.2835M892.76 33.9732L843.802 33.6396M873.437 10.2835L856.03 -11.0541M873.437 10.2835L827.011 9.93272M856.03 -11.0541L840.27 -30.3766M856.03 -11.0541L811.887 -11.4152M840.27 -30.3766L825.931 -47.9556M840.27 -30.3766L798.195 -30.7445M825.931 -47.9556L812.833 -64.0146M825.931 -47.9556L785.741 -48.3269M812.833 -64.0146L800.816 -78.7429M812.833 -64.0146L774.366 -64.3894M800.816 -78.7429L789.758 -92.302L754.328 -92.6768M800.816 -78.7429L763.931 -79.1177M754.328 -92.6768L718.822 -93.0516M754.328 -92.6768L763.931 -79.1177M718.822 -93.0516L683.241 -93.4264M718.822 -93.0516L726.963 -79.4925M683.241 -93.4264L647.584 -93.8047M683.241 -93.4264L689.913 -79.8708M647.584 -93.8047L611.851 -94.183M647.584 -93.8047L652.781 -80.2491M611.851 -94.183L576.043 -94.5578M611.851 -94.183L615.566 -80.6239M576.043 -94.5578L540.159 -94.9395M576.043 -94.5578L578.271 -81.0056M540.159 -94.9395L504.195 -95.3178M540.159 -94.9395L540.891 -81.3839M504.195 -95.3178L468.157 -95.6995M504.195 -95.3178L503.428 -81.7656M468.157 -95.6995L432.042 -96.0812M468.157 -95.6995L465.883 -82.1473M432.042 -96.0812L395.849 -96.4629M432.042 -96.0812L428.252 -82.529M395.849 -96.4629L359.579 -96.8446M395.849 -96.4629L390.538 -82.9107M359.579 -96.8446L323.231 -97.2297M359.579 -96.8446L352.742 -83.2958M323.231 -97.2297L286.803 -97.6149M323.231 -97.2297L314.859 -83.681M286.803 -97.6149L250.3 -98L238.84 -84.4512M286.803 -97.6149L276.894 -84.0661M238.84 -84.4512L226.375 -69.7127M238.84 -84.4512L276.894 -84.0661M226.375 -69.7127L212.762 -53.6227M226.375 -69.7127L266.112 -69.3275M212.762 -53.6227L197.838 -35.9783M212.762 -53.6227L254.338 -53.2375M197.838 -35.9783L181.401 -16.5527M197.838 -35.9783L241.433 -35.6M181.401 -16.5527L163.213 4.94995M181.401 -16.5527L227.225 -16.1779M163.213 4.94995L142.978 28.87M163.213 4.94995L211.5 5.31101M142.978 28.87L120.326 55.6443M142.978 28.87L194.01 29.2174M120.326 55.6443L94.8016 85.8195M120.326 55.6443L174.436 55.971M94.8016 85.8195L65.8172 120.083M94.8016 85.8195L152.382 86.1153M65.8172 120.083L32.6194 159.327M65.8172 120.083L127.346 120.334M32.6194 159.327L-5.77892 204.722M32.6194 159.327L98.6745 159.523M-5.77892 204.722L-50.7122 257.837M-5.77892 204.722L65.5179 204.839M-50.7122 257.837L-104 320.829M-50.7122 257.837L26.7379 257.844M-104 320.829L-19.2341 320.681M-104 320.829L-56.0434 374.649M-19.2341 320.681L65.1121 320.533M-19.2341 320.681L22.1187 374.391M-19.2341 320.681L26.7379 257.844M65.1121 320.533L149.042 320.388M65.1121 320.533L99.9299 374.133M65.1121 320.533L103.841 257.851M149.042 320.388L232.566 320.241M149.042 320.388L177.387 373.875M149.042 320.388L180.596 257.858M232.566 320.241L315.678 320.096M232.566 320.241L254.49 373.621M232.566 320.241L257.007 257.865M315.678 320.096L398.387 319.952M315.678 320.096L331.248 373.366M315.678 320.096L333.075 257.872M398.387 319.952L480.69 319.811M398.387 319.952L407.66 373.112M398.387 319.952L408.805 257.878M480.69 319.811L562.598 319.666M480.69 319.811L483.727 372.861M480.69 319.811L484.198 257.885M562.598 319.666L644.106 319.525M562.598 319.666L559.451 372.606M562.598 319.666L559.255 257.892M644.106 319.525L725.223 319.381M644.106 319.525L634.84 372.359M644.106 319.525L633.977 257.899M725.223 319.381L805.951 319.24M725.223 319.381L709.89 372.108M725.223 319.381L708.369 257.906M805.951 319.24L886.287 319.102M805.951 319.24L784.606 371.86M805.951 319.24L782.435 257.913M886.287 319.102L966.241 318.961M886.287 319.102L858.991 371.616M886.287 319.102L856.174 257.92M966.241 318.961L1045.81 318.824M966.241 318.961L933.043 371.368M966.241 318.961L929.586 257.927M1045.81 318.824L1006.77 371.124M1045.81 318.824L1002.68 257.934M1080.17 370.88L1041.53 415.866M1080.17 370.88L1006.77 371.124M1041.53 415.866L1007.89 455.037M1041.53 415.866L973.133 416.186M1007.89 455.037L978.33 489.452M1007.89 455.037L943.853 455.412M978.33 489.452L952.153 519.93M978.33 489.452L918.136 489.868M952.153 519.93L928.809 547.11M952.153 519.93L895.363 520.374M928.809 547.11L907.866 571.498M928.809 547.11L875.06 547.571M907.866 571.498L888.966 593.503M907.866 571.498L856.848 571.972M888.966 593.503L871.824 613.461M888.966 593.503L840.414 593.987M871.824 613.461L856.208 631.639M871.824 613.461L825.515 613.95M856.208 631.639L841.924 648.272M856.208 631.639L811.942 632.134M841.924 648.272L828.806 663.544M841.924 648.272L799.529 648.764M828.806 663.544L816.72 677.618M828.806 663.544L788.128 664.035M816.72 677.618L805.545 690.627L767.917 691.112M816.72 677.618L777.627 678.107M767.917 691.112L730.203 691.597M767.917 691.112L777.627 678.107M730.203 691.597L692.403 692.082M730.203 691.597L738.441 678.595M692.403 692.082L654.521 692.57M692.403 692.082L699.162 679.083M654.521 692.57L616.549 693.058M654.521 692.57L659.79 679.575M616.549 693.058L578.495 693.547M616.549 693.058L620.329 680.067M578.495 693.547L540.355 694.039M578.495 693.547L580.775 680.559M540.355 694.039L502.125 694.527M540.355 694.039L541.125 681.054M502.125 694.527L463.809 695.022M502.125 694.527L501.382 681.549M463.809 695.022L425.407 695.514M463.809 695.022L461.546 682.047M425.407 695.514L386.92 696.009M425.407 695.514L421.617 682.543M386.92 696.009L348.339 696.504M386.92 696.009L381.592 683.045M348.339 696.504L309.676 697.003M348.339 696.504L341.474 683.543M309.676 697.003L270.92 697.501M309.676 697.003L301.26 684.045M270.92 697.501L232.078 698L220.542 685.05M270.92 697.501L260.949 684.547M220.542 685.05L208.043 671.026M220.542 685.05L260.949 684.547M208.043 671.026L194.46 655.782M208.043 671.026L250.146 670.517M194.46 655.782L179.643 639.152M194.46 655.782L238.403 655.273M179.643 639.152L163.419 620.944M179.643 639.152L225.601 638.643M163.419 620.944L145.572 600.917M163.419 620.944L211.579 620.435M145.572 600.917L125.853 578.785M145.572 600.917L196.163 600.411M125.853 578.785L103.944 554.197M125.853 578.785L179.127 578.289M103.944 554.197L79.4616 526.722M103.944 554.197L160.203 553.713M79.4616 526.722L51.9251 495.817M79.4616 526.722L139.061 526.257M51.9251 495.817L20.7257 460.804M51.9251 495.817L115.287 495.384M20.7257 460.804L-14.9245 420.797M20.7257 460.804L88.3561 460.408M-14.9245 420.797L-56.0434 374.649M-14.9245 420.797L57.5934 420.457M-56.0434 374.649L22.1187 374.391M777.627 678.107L738.441 678.595M777.627 678.107L788.128 664.035M738.441 678.595L699.162 679.083M738.441 678.595L747.349 664.527M699.162 679.083L659.79 679.575M699.162 679.083L706.474 665.019M659.79 679.575L620.329 680.067M659.79 679.575L665.496 665.514M620.329 680.067L580.775 680.559M620.329 680.067L624.419 666.009M580.775 680.559L541.125 681.054M580.775 680.559L583.238 666.504M541.125 681.054L501.382 681.549M541.125 681.054L541.961 667.003M501.382 681.549L461.546 682.047M501.382 681.549L500.581 667.502M461.546 682.047L421.617 682.543M461.546 682.047L459.097 668M421.617 682.543L381.592 683.045M421.617 682.543L417.514 668.502M381.592 683.045L341.474 683.543M381.592 683.045L375.824 669.004M341.474 683.543L301.26 684.045M341.474 683.543L334.034 669.506M301.26 684.045L260.949 684.547M301.26 684.045L292.141 670.012M260.949 684.547L250.146 670.517M250.146 670.517L238.403 655.273M250.146 670.517L292.141 670.012M238.403 655.273L225.601 638.643M238.403 655.273L282.236 654.764M225.601 638.643L211.579 620.435M225.601 638.643L271.432 638.134M211.579 620.435L196.163 600.411M211.579 620.435L259.604 619.93M196.163 600.411L179.127 578.289M196.163 600.411L246.599 599.909M179.127 578.289L160.203 553.713M179.127 578.289L232.233 577.794M160.203 553.713L139.061 526.257M160.203 553.713L216.277 553.231M139.061 526.257L115.287 495.384M139.061 526.257L198.454 525.797M115.287 495.384L88.3561 460.408M115.287 495.384L178.415 494.951M88.3561 460.408L57.5934 420.457M88.3561 460.408L155.722 460.016M57.5934 420.457L22.1187 374.391M57.5934 420.457L129.805 420.12M22.1187 374.391L99.9299 374.133M26.7379 257.844L65.5179 204.839M26.7379 257.844L103.841 257.851M65.5179 204.839L98.6745 159.523M65.5179 204.839L136.522 204.956M98.6745 159.523L127.346 120.334M98.6745 159.523L164.472 159.719M127.346 120.334L152.382 86.1153M127.346 120.334L188.651 120.589M152.382 86.1153L174.436 55.971M152.382 86.1153L209.77 86.4076M174.436 55.971L194.01 29.2174M174.436 55.971L228.374 56.2942M194.01 29.2174L211.5 5.31101M194.01 29.2174L244.89 29.5647M211.5 5.31101L227.225 -16.1779M211.5 5.31101L259.652 5.67209M227.225 -16.1779L241.433 -35.6M227.225 -16.1779L272.922 -15.8065M241.433 -35.6L254.338 -53.2375M241.433 -35.6L284.919 -35.2218M254.338 -53.2375L266.112 -69.3275M254.338 -53.2375L295.815 -52.8558M266.112 -69.3275L276.894 -84.0661M266.112 -69.3275L305.755 -68.9424M276.894 -84.0661L314.859 -83.681M292.141 670.012L282.236 654.764M292.141 670.012L334.034 669.506M282.236 654.764L271.432 638.134M282.236 654.764L325.955 654.255M271.432 638.134L259.604 619.93M271.432 638.134L317.143 637.625M259.604 619.93L246.599 599.909M259.604 619.93L307.495 619.421M246.599 599.909L232.233 577.794M246.599 599.909L296.891 599.407M232.233 577.794L216.277 553.231M232.233 577.794L285.177 577.299M216.277 553.231L198.454 525.797M216.277 553.231L272.168 552.753M198.454 525.797L178.415 494.951M198.454 525.797L257.64 525.336M178.415 494.951L155.722 460.016M178.415 494.951L241.313 494.518M155.722 460.016L129.805 420.12M155.722 460.016L222.822 459.624M129.805 420.12L99.9299 374.133M129.805 420.12L201.711 419.786M99.9299 374.133L177.387 373.875M103.841 257.851L136.522 204.956M103.841 257.851L180.596 257.858M136.522 204.956L164.472 159.719M136.522 204.956L207.231 205.073M164.472 159.719L188.651 120.589M164.472 159.719L230.018 159.911M188.651 120.589L209.77 86.4076M188.651 120.589L249.736 120.84M209.77 86.4076L228.374 56.2942M209.77 86.4076L266.961 86.7033M228.374 56.2942L244.89 29.5647M228.374 56.2942L282.143 56.6175M244.89 29.5647L259.652 5.67209M244.89 29.5647L295.619 29.9085M259.652 5.67209L272.922 -15.8065M259.652 5.67209L307.667 6.03316M272.922 -15.8065L284.919 -35.2218M272.922 -15.8065L318.498 -15.4351M284.919 -35.2218L295.815 -52.8558M284.919 -35.2218L328.294 -34.8435M295.815 -52.8558L305.755 -68.9424M295.815 -52.8558L337.188 -52.4707M305.755 -68.9424L314.859 -83.681M305.755 -68.9424L345.305 -68.5572M314.859 -83.681L352.742 -83.2958M334.034 669.506L325.955 654.255M334.034 669.506L375.824 669.004M325.955 654.255L317.143 637.625M325.955 654.255L369.561 653.75M317.143 637.625L307.495 619.421M317.143 637.625L362.73 637.12M307.495 619.421L296.891 599.407M307.495 619.421L355.252 618.919M296.891 599.407L285.177 577.299M296.891 599.407L347.032 598.908M285.177 577.299L272.168 552.753M285.177 577.299L337.955 576.807M272.168 552.753L257.64 525.336M272.168 552.753L327.874 552.272M257.64 525.336L241.313 494.518M257.64 525.336L316.624 524.875M241.313 494.518L222.822 459.624M241.313 494.518L303.973 494.088M222.822 459.624L201.711 419.786M222.822 459.624L289.658 459.232M201.711 419.786L177.387 373.875M201.711 419.786L273.317 419.453M177.387 373.875L254.49 373.621M180.596 257.858L207.231 205.073M180.596 257.858L257.007 257.865M207.231 205.073L230.018 159.911M207.231 205.073L277.648 205.186M230.018 159.911L249.736 120.84M230.018 159.911L295.313 160.107M249.736 120.84L266.961 86.7033M249.736 120.84L310.601 121.091M266.961 86.7033L282.143 56.6175M266.961 86.7033L323.964 86.9956M282.143 56.6175L295.619 29.9085M282.143 56.6175L335.74 56.9407M295.619 29.9085L307.667 6.03316M295.619 29.9085L346.196 30.2524M307.667 6.03316L318.498 -15.4351M307.667 6.03316L355.545 6.39423M318.498 -15.4351L328.294 -34.8435M318.498 -15.4351L363.954 -15.0637M328.294 -34.8435L337.188 -52.4707M328.294 -34.8435L371.556 -34.4653M337.188 -52.4707L345.305 -68.5572M337.188 -52.4707L378.462 -52.089M345.305 -68.5572L352.742 -83.2958M345.305 -68.5572L384.767 -68.1755M352.742 -83.2958L390.538 -82.9107M375.824 669.004L369.561 653.75M375.824 669.004L417.514 668.502M369.561 653.75L362.73 637.12M369.561 653.75L413.053 653.244M362.73 637.12L355.252 618.919M362.73 637.12L408.193 636.614M355.252 618.919L347.032 598.908M355.252 618.919L402.872 618.413M347.032 598.908L337.955 576.807M347.032 598.908L397.025 598.41M337.955 576.807L327.874 552.272M337.955 576.807L390.569 576.319M327.874 552.272L316.624 524.875M327.874 552.272L383.401 551.797M316.624 524.875L303.973 494.088M316.624 524.875L375.397 524.418M303.973 494.088L289.658 459.232M303.973 494.088L366.407 493.658M289.658 459.232L273.317 419.453M289.658 459.232L356.233 458.844M273.317 419.453L254.49 373.621M273.317 419.453L344.621 419.119M254.49 373.621L331.248 373.366M257.007 257.865L277.648 205.186M257.007 257.865L333.075 257.872M277.648 205.186L295.313 160.107M277.648 205.186L347.775 205.303M295.313 160.107L310.601 121.091M295.313 160.107L360.357 160.3M310.601 121.091L323.964 86.9956M310.601 121.091L371.249 121.342M323.964 86.9956L335.74 56.9407M323.964 86.9956L380.773 87.2845M335.74 56.9407L346.196 30.2524M335.74 56.9407L389.166 57.264M346.196 30.2524L355.545 6.39423M346.196 30.2524L396.622 30.5963M355.545 6.39423L363.954 -15.0637M355.545 6.39423L403.292 6.75186M363.954 -15.0637L371.556 -34.4653M363.954 -15.0637L409.287 -14.6958M371.556 -34.4653L378.462 -52.089M371.556 -34.4653L414.711 -34.087M378.462 -52.089L384.767 -68.1755M378.462 -52.089L419.636 -51.7107M384.767 -68.1755L390.538 -82.9107M384.767 -68.1755L424.131 -67.7904M390.538 -82.9107L428.252 -82.529M417.514 668.502L413.053 653.244M417.514 668.502L459.097 668M413.053 653.244L408.193 636.614M413.053 653.244L456.435 652.742M408.193 636.614L402.872 618.413M408.193 636.614L453.535 636.112M402.872 618.413L397.025 598.41M402.872 618.413L450.361 617.911M397.025 598.41L390.569 576.319M397.025 598.41L446.87 597.911M390.569 576.319L383.401 551.797M390.569 576.319L443.018 575.827M383.401 551.797L375.397 524.418M383.401 551.797L438.746 551.319M375.397 524.418L366.407 493.658M375.397 524.418L433.972 523.964M366.407 493.658L356.233 458.844M366.407 493.658L428.61 493.231M356.233 458.844L344.621 419.119M356.233 458.844L422.546 458.455M344.621 419.119L331.248 373.366M344.621 419.119L415.626 418.789M331.248 373.366L407.66 373.112M333.075 257.872L347.775 205.303M333.075 257.872L408.805 257.878M347.775 205.303L360.357 160.3M347.775 205.303L417.614 205.417M360.357 160.3L371.249 121.342M360.357 160.3L425.153 160.492M371.249 121.342L380.773 87.2845M371.249 121.342L431.684 121.59M380.773 87.2845L389.166 57.264M380.773 87.2845L437.394 87.5767M389.166 57.264L396.622 30.5963M389.166 57.264L442.426 57.5838M396.622 30.5963L403.292 6.75186M396.622 30.5963L446.901 30.9367M403.292 6.75186L409.287 -14.6958M403.292 6.75186L450.901 7.1095M409.287 -14.6958L414.711 -34.087M409.287 -14.6958L454.498 -14.3278M414.711 -34.087L419.636 -51.7107M414.711 -34.087L457.752 -33.7122M419.636 -51.7107L424.131 -67.7904M419.636 -51.7107L460.71 -51.329M424.131 -67.7904L428.252 -82.529M424.131 -67.7904L463.41 -67.4087M428.252 -82.529L465.883 -82.1473M459.097 668L456.435 652.742M459.097 668L500.581 667.502M456.435 652.742L453.535 636.112M456.435 652.742L499.707 652.24M453.535 636.112L450.361 617.911M453.535 636.112L498.754 635.61M450.361 617.911L446.87 597.911M450.361 617.911L497.715 617.412M446.87 597.911L443.018 575.827M446.87 597.911L496.57 597.416M443.018 575.827L438.746 551.319M443.018 575.827L495.308 575.342M438.746 551.319L433.972 523.964M438.746 551.319L493.908 550.848M433.972 523.964L428.61 493.231M433.972 523.964L492.343 523.51M428.61 493.231L422.546 458.455M428.61 493.231L490.585 492.805M422.546 458.455L415.626 418.789M422.546 458.455L488.601 458.07M415.626 418.789L407.66 373.112M415.626 418.789L486.334 418.459M407.66 373.112L483.727 372.861M408.805 257.878L417.614 205.417M408.805 257.878L484.198 257.885M417.614 205.417L425.153 160.492M417.614 205.417L487.163 205.53M425.153 160.492L431.684 121.59M425.153 160.492L489.701 160.685M431.684 121.59L437.394 87.5767M431.684 121.59L491.899 121.837M437.394 87.5767L442.426 57.5838M437.394 87.5767L493.825 87.8656M442.426 57.5838L446.901 30.9367M442.426 57.5838L495.521 57.9036M446.901 30.9367L450.901 7.1095M446.901 30.9367L497.028 31.2772M450.901 7.1095L454.498 -14.3278M450.901 7.1095L498.376 7.46713M454.498 -14.3278L457.752 -33.7122M454.498 -14.3278L499.59 -13.9599M457.752 -33.7122L460.71 -51.329M457.752 -33.7122L500.687 -33.3373M460.71 -51.329L463.41 -67.4087M460.71 -51.329L501.685 -50.9507M463.41 -67.4087L465.883 -82.1473M463.41 -67.4087L502.593 -67.0304M465.883 -82.1473L503.428 -81.7656M500.581 667.502L499.707 652.24M500.581 667.502L541.961 667.003M499.707 652.24L498.754 635.61M499.707 652.24L542.865 651.742M498.754 635.61L497.715 617.412M498.754 635.61L543.856 635.108M497.715 617.412L496.57 597.416M497.715 617.412L544.936 616.914M496.57 597.416L495.308 575.342M496.57 597.416L546.123 596.921M495.308 575.342L493.908 550.848M495.308 575.342L547.437 574.858M493.908 550.848L492.343 523.51M493.908 550.848L548.891 550.374M492.343 523.51L490.585 492.805M492.343 523.51L550.511 523.056M490.585 492.805L488.601 458.07M490.585 492.805L552.334 492.382M488.601 458.07L486.334 418.459M488.601 458.07L554.398 457.685M486.334 418.459L483.727 372.861M486.334 418.459L556.747 418.129M483.727 372.861L559.451 372.606M484.198 257.885L487.163 205.53M484.198 257.885L559.255 257.892M487.163 205.53L489.701 160.685M487.163 205.53L556.427 205.644M489.701 160.685L491.899 121.837M489.701 160.685L554.002 160.874M491.899 121.837L493.825 87.8656M491.899 121.837L551.904 122.085M493.825 87.8656L495.521 57.9036M493.825 87.8656L550.068 88.1545M495.521 57.9036L497.028 31.2772M495.521 57.9036L548.448 58.22M497.028 31.2772L498.376 7.46713M497.028 31.2772L547.007 31.6176M498.376 7.46713L499.59 -13.9599M498.376 7.46713L545.72 7.82132M499.59 -13.9599L500.687 -33.3373M499.59 -13.9599L544.561 -13.5919M500.687 -33.3373L501.685 -50.9507M500.687 -33.3373L543.512 -32.966M501.685 -50.9507L502.593 -67.0304M501.685 -50.9507L542.559 -50.5725M502.593 -67.0304L503.428 -81.7656M502.593 -67.0304L541.689 -66.6487M503.428 -81.7656L540.891 -81.3839M541.961 667.003L542.865 651.742M541.961 667.003L583.238 666.504M542.865 651.742L543.856 635.108M542.865 651.742L585.917 651.24M543.856 635.108L544.936 616.914M543.856 635.108L588.834 634.61M544.936 616.914L546.123 596.921M544.936 616.914L592.026 616.415M546.123 596.921L547.437 574.858M546.123 596.921L595.531 596.429M547.437 574.858L548.891 550.374M547.437 574.858L599.4 574.373M548.891 550.374L550.511 523.056M548.891 550.374L603.693 549.902M550.511 523.056L552.334 492.382M550.511 523.056L608.484 522.605M552.334 492.382L554.398 457.685M552.334 492.382L613.86 491.959M554.398 457.685L556.747 418.129M554.398 457.685L619.937 457.303M556.747 418.129L559.451 372.606M556.747 418.129L626.868 417.802M559.451 372.606L634.84 372.359M559.255 257.892L556.427 205.644M559.255 257.892L633.977 257.899M556.427 205.644L554.002 160.874M556.427 205.644L625.406 205.757M554.002 160.874L551.904 122.085M554.002 160.874L618.059 161.063M551.904 122.085L550.068 88.1545M551.904 122.085L611.693 122.332M550.068 88.1545L548.448 58.22M550.068 88.1545L606.124 88.4399M548.448 58.22L547.007 31.6176M548.448 58.22L601.209 58.5398M547.007 31.6176L545.72 7.82132M547.007 31.6176L596.838 31.9581M545.72 7.82132L544.561 -13.5919M545.72 7.82132L592.93 8.17552M544.561 -13.5919L543.512 -32.966M544.561 -13.5919L589.412 -13.2274M543.512 -32.966L542.559 -50.5725M543.512 -32.966L586.227 -32.5911M542.559 -50.5725L541.689 -66.6487M542.559 -50.5725L583.334 -50.1976M541.689 -66.6487L540.891 -81.3839M541.689 -66.6487L580.693 -66.2705M540.891 -81.3839L578.271 -81.0056M583.238 666.504L585.917 651.24M583.238 666.504L624.419 666.009M585.917 651.24L588.834 634.61M585.917 651.24L628.856 650.744M588.834 634.61L592.026 616.415M588.834 634.61L633.695 634.111M592.026 616.415L595.531 596.429M592.026 616.415L638.985 615.92M595.531 596.429L599.4 574.373M595.531 596.429L644.794 595.937M599.4 574.373L603.693 549.902M599.4 574.373L651.209 573.888M603.693 549.902L608.484 522.605M603.693 549.902L658.318 549.435M608.484 522.605L613.86 491.959M608.484 522.605L666.253 522.155M613.86 491.959L619.937 457.303M613.86 491.959L675.158 491.536M619.937 457.303L626.868 417.802M619.937 457.303L685.225 456.921M626.868 417.802L634.84 372.359M626.868 417.802L696.696 417.475M634.84 372.359L709.89 372.108M633.977 257.899L625.406 205.757M633.977 257.899L708.369 257.906M625.406 205.757L618.059 161.063M625.406 205.757L694.106 205.87M618.059 161.063L611.693 122.332M618.059 161.063L681.875 161.252M611.693 122.332L606.124 88.4399M611.693 122.332L671.271 122.577M606.124 88.4399L601.209 58.5398M606.124 88.4399L661.992 88.7287M601.209 58.5398L596.838 31.9581M601.209 58.5398L653.802 58.8561M596.838 31.9581L592.93 8.17552M596.838 31.9581L646.524 32.2951M592.93 8.17552L589.412 -13.2274M592.93 8.17552L640.006 8.52971M589.412 -13.2274L586.227 -32.5911M589.412 -13.2274L634.142 -12.8629M586.227 -32.5911L583.334 -50.1976M586.227 -32.5911L628.835 -32.2197M583.334 -50.1976L580.693 -66.2705M583.334 -50.1976L624.013 -49.8194M580.693 -66.2705L578.271 -81.0056M580.693 -66.2705L619.607 -65.8922M578.271 -81.0056L615.566 -80.6239M624.419 666.009L628.856 650.744M624.419 666.009L665.496 665.514M628.856 650.744L633.695 634.111M628.856 650.744L671.688 650.246M633.695 634.111L638.985 615.92M633.695 634.111L678.432 633.616M638.985 615.92L644.794 595.937M638.985 615.92L685.813 615.425M644.794 595.937L651.209 573.888M644.794 595.937L693.913 595.449M651.209 573.888L658.318 549.435M651.209 573.888L702.856 573.406M658.318 549.435L666.253 522.155M658.318 549.435L712.769 548.967M666.253 522.155L675.158 491.536M666.253 522.155L723.827 521.708M675.158 491.536L685.225 456.921M675.158 491.536L736.233 491.117M685.225 456.921L696.696 417.475M685.225 456.921L750.259 456.543M696.696 417.475L709.89 372.108M696.696 417.475L766.235 417.152M709.89 372.108L784.606 371.86M708.369 257.906L694.106 205.87M708.369 257.906L782.435 257.913M694.106 205.87L681.875 161.252M694.106 205.87L762.524 205.981M681.875 161.252L671.271 122.577M681.875 161.252L745.447 161.442M671.271 122.577L661.992 88.7287M671.271 122.577L730.64 122.821M661.992 88.7287L653.802 58.8561M661.992 88.7287L717.677 89.0142M653.802 58.8561L646.524 32.2951M653.802 58.8561L706.234 59.1691M646.524 32.2951L640.006 8.52971M646.524 32.2951L696.06 32.6321M640.006 8.52971L634.142 -12.8629M640.006 8.52971L686.955 8.88046M634.142 -12.8629L628.835 -32.2197M634.142 -12.8629L678.756 -12.4984M628.835 -32.2197L624.013 -49.8194M628.835 -32.2197L671.337 -31.8518M624.013 -49.8194L619.607 -65.8922M624.013 -49.8194L664.592 -49.4445M619.607 -65.8922L615.566 -80.6239M619.607 -65.8922L658.428 -65.5139M615.566 -80.6239L652.781 -80.2491M665.496 665.514L671.688 650.246M665.496 665.514L706.474 665.019M671.688 650.246L678.432 633.616M671.688 650.246L714.409 649.751M678.432 633.616L685.813 615.425M678.432 633.616L723.056 633.121M685.813 615.425L693.913 595.449M685.813 615.425L732.508 614.933M693.913 595.449L702.856 573.406M693.913 595.449L742.892 594.961M702.856 573.406L712.769 548.967M702.856 573.406L754.345 572.928M712.769 548.967L723.827 521.708M712.769 548.967L767.04 548.499M723.827 521.708L736.233 491.117M723.827 521.708L781.2 521.261M736.233 491.117L750.259 456.543M736.233 491.117L797.087 490.7M750.259 456.543L766.235 417.152M750.259 456.543L815.038 456.165M766.235 417.152L784.606 371.86M766.235 417.152L835.486 416.829M784.606 371.86L858.991 371.616M782.435 257.913L762.524 205.981M782.435 257.913L856.174 257.92M762.524 205.981L745.447 161.442M762.524 205.981L830.663 206.094M745.447 161.442L730.64 122.821M745.447 161.442L808.782 161.631M730.64 122.821L717.677 89.0142M730.64 122.821L789.799 123.065M717.677 89.0142L706.234 59.1691M717.677 89.0142L773.176 89.2961M706.234 59.1691L696.06 32.6321M706.234 59.1691L758.503 59.4854M696.06 32.6321L686.955 8.88046M696.06 32.6321L745.454 32.9691M686.955 8.88046L678.756 -12.4984M686.955 8.88046L733.77 9.23465M678.756 -12.4984L671.337 -31.8518M678.756 -12.4984L723.252 -12.1373M671.337 -31.8518L664.592 -49.4445M671.337 -31.8518L713.732 -31.4804M664.592 -49.4445L658.428 -65.5139M664.592 -49.4445L705.071 -49.0732M658.428 -65.5139L652.781 -80.2491M658.428 -65.5139L697.164 -65.1391M652.781 -80.2491L689.913 -79.8708M706.474 665.019L714.409 649.751M706.474 665.019L747.349 664.527M714.409 649.751L723.056 633.121M714.409 649.751L757.024 649.255M723.056 633.121L732.508 614.933M723.056 633.121L767.559 632.625M732.508 614.933L742.892 594.961M732.508 614.933L779.078 614.441M742.892 594.961L754.345 572.928M742.892 594.961L791.725 594.472M754.345 572.928L767.04 548.499M754.345 572.928L805.672 572.45M767.04 548.499L781.2 521.261M767.04 548.499L821.14 548.035M781.2 521.261L797.087 490.7M781.2 521.261L838.378 520.817M797.087 490.7L815.038 456.165M797.087 490.7L857.722 490.281M815.038 456.165L835.486 416.829M815.038 456.165L879.573 455.787M835.486 416.829L858.991 371.616M835.486 416.829L904.454 416.506M858.991 371.616L933.043 371.368M856.174 257.92L830.663 206.094M856.174 257.92L929.586 257.927M830.663 206.094L808.782 161.631M830.663 206.094L898.528 206.204M808.782 161.631L789.799 123.065M808.782 161.631L871.872 161.82M789.799 123.065L773.176 89.2961M789.799 123.065L848.748 123.309M773.176 89.2961L758.503 59.4854M773.176 89.2961L828.493 89.5816M758.503 59.4854L745.454 32.9691M758.503 59.4854L810.608 59.7984M745.454 32.9691L733.77 9.23465M745.454 32.9691L794.7 33.3026M733.77 9.23465L723.252 -12.1373M733.77 9.23465L780.454 9.58541M723.252 -12.1373L713.732 -31.4804M723.252 -12.1373L767.628 -11.7762M713.732 -31.4804L705.071 -49.0732M713.732 -31.4804L756.017 -31.1125M705.071 -49.0732L697.164 -65.1391M705.071 -49.0732L745.454 -48.6983M697.164 -65.1391L689.913 -79.8708M697.164 -65.1391L735.81 -64.7643M689.913 -79.8708L726.963 -79.4925M747.349 664.527L757.024 649.255M747.349 664.527L788.128 664.035M757.024 649.255L767.559 632.625M757.024 649.255L799.529 648.764M767.559 632.625L779.078 614.441M767.559 632.625L811.942 632.134M779.078 614.441L791.725 594.472M779.078 614.441L825.515 613.95M791.725 594.472L805.672 572.45M791.725 594.472L840.414 593.987M805.672 572.45L821.14 548.035M805.672 572.45L856.848 571.972M821.14 548.035L838.378 520.817M821.14 548.035L875.06 547.571M838.378 520.817L857.722 490.281M838.378 520.817L895.363 520.374M857.722 490.281L879.573 455.787M857.722 490.281L918.136 489.868M879.573 455.787L904.454 416.506M879.573 455.787L943.853 455.412M904.454 416.506L933.043 371.368M904.454 416.506L973.133 416.186M933.043 371.368L1006.77 371.124M929.586 257.927L898.528 206.204M929.586 257.927L1002.68 257.934M898.528 206.204L871.872 161.82M898.528 206.204L966.117 206.318M871.872 161.82L848.748 123.309M871.872 161.82L934.728 162.006M848.748 123.309L828.493 89.5816M848.748 123.309L907.491 123.55M828.493 89.5816L810.608 59.7984M828.493 89.5816L883.628 89.8635M810.608 59.7984L794.7 33.3026M810.608 59.7984L862.551 60.1113M794.7 33.3026L780.454 9.58541M794.7 33.3026L843.802 33.6396M780.454 9.58541L767.628 -11.7762M780.454 9.58541L827.011 9.93272M767.628 -11.7762L756.017 -31.1125M767.628 -11.7762L811.887 -11.4152M756.017 -31.1125L745.454 -48.6983M756.017 -31.1125L798.195 -30.7445M745.454 -48.6983L735.81 -64.7643M745.454 -48.6983L785.741 -48.3269M735.81 -64.7643L726.963 -79.4925M735.81 -64.7643L774.366 -64.3894M726.963 -79.4925L763.931 -79.1177M788.128 664.035L799.529 648.764M799.529 648.764L811.942 632.134M811.942 632.134L825.515 613.95M825.515 613.95L840.414 593.987M840.414 593.987L856.848 571.972M856.848 571.972L875.06 547.571M875.06 547.571L895.363 520.374M895.363 520.374L918.136 489.868M918.136 489.868L943.853 455.412M943.853 455.412L973.133 416.186M973.133 416.186L1006.77 371.124M1002.68 257.934L966.117 206.318M966.117 206.318L934.728 162.006M934.728 162.006L907.491 123.55M907.491 123.55L883.628 89.8635M883.628 89.8635L862.551 60.1113M862.551 60.1113L843.802 33.6396M843.802 33.6396L827.011 9.93272M827.011 9.93272L811.887 -11.4152M811.887 -11.4152L798.195 -30.7445M798.195 -30.7445L785.741 -48.3269M785.741 -48.3269L774.366 -64.3894M774.366 -64.3894L763.931 -79.1177" stroke="url(#paint0_radial_198_14302)" stroke-width="1.5" stroke-linecap="round" stroke-linejoin="round"/>
</g>
<defs>
<radialGradient id="paint0_radial_198_14302" cx="0" cy="0" r="1" gradientUnits="userSpaceOnUse" gradientTransform="translate(543.133 315.74) rotate(-91.7759) scale(356.947 783.332)">
<stop stop-color="#3F3F6B4D"/>
<stop offset="1" stop-color="#1A1A2C33"/>
<stop offset="1" stop-color="#1A1A2C1A"/>
</radialGradient>
<clipPath id="clip0_198_14302">
<rect width="1021" height="600" fill="white"/>
</clipPath>
</defs>
</svg>
