<svg width="1021" height="600" viewBox="0 0 1021 600" fill="none" xmlns="http://www.w3.org/2000/svg">
<g clip-path="url(#clip0_4_897)">
<path d="M-335.481 1070.08H-361H-229.712M-335.481 1070.08V1124M-335.481 1070.08H-282.595M-282.595 1070.08L-282.595 1124M-282.595 1070.08H-229.712M-229.712 1070.08V1124V1097.57M-229.712 1070.08V1097.57M-229.712 1070.08H-203.269M-229.712 1070.08V850.115M-229.712 1070.08V960.093M-229.712 1070.08H-123.943M-229.712 1097.57H-203.269M-203.269 1097.57V1124M-203.269 1097.57V1070.08M-203.269 1097.57H-176.826M-203.269 1070.08H-176.826M-176.826 1070.08V1097.57M-176.826 1070.08H-150.383M-176.826 1097.57V1124M-176.826 1097.57H-150.383M-150.383 1097.57V1124M-150.383 1097.57V1070.08M-150.383 1097.57H-123.943M-150.383 1070.08H-123.943M-123.943 1070.08V1097.57M-123.943 1070.08H-97.4998M-123.943 1070.08V960.093M-123.943 1070.08V1042.58M-123.943 1097.57V1124M-123.943 1097.57H-97.4998M-97.4998 1097.57V1124M-97.4998 1097.57V1070.08M-97.4998 1097.57H-71.0567M-97.4998 1070.08H-71.0567M-97.4998 1070.08V1042.58M-71.0567 1070.08V1097.57M-71.0567 1070.08H-44.6136M-71.0567 1070.08V1042.58M-71.0567 1097.57V1124M-71.0567 1097.57H-44.6136M-44.6136 1097.57V1124M-44.6136 1097.57V1070.08M-44.6136 1097.57H-18.174M-44.6136 1070.08H-18.174M-44.6136 1070.08V1042.58M-18.174 1070.08L-18.174 1097.57M-18.174 1070.08H8.26914M-18.174 1070.08L-18.174 1042.58M-18.174 1070.08L-18.174 1015.08M-18.174 1070.08H34.7123M-18.174 1097.57V1124M-18.174 1097.57H8.26914M8.26914 1097.57V1124M8.26914 1097.57V1070.08M8.26914 1097.57H34.7123M8.26914 1070.08H34.7123M34.7123 1070.08L34.7123 1097.57M34.7123 1070.08L34.7123 1124V1097.57M34.7123 1070.08H87.5985M34.7123 1070.08V1015.08M87.5985 1070.08L87.5985 1124M87.5985 1070.08H140.481M87.5985 1070.08L87.5985 1015.08M140.481 1070.08V1124M140.481 1070.08H193.367M140.481 1070.08V1015.08M193.367 1070.08V1124M193.367 1070.08H299.136M193.367 1070.08V1015.08M193.367 1070.08H246.25M299.136 1070.08V1124M299.136 1070.08H352.019M299.136 1070.08V1042.58M299.136 1070.08H272.693M299.136 1070.08H325.58M352.019 1070.08L352.019 1124M352.019 1070.08H404.905M352.019 1070.08L352.019 1042.58M352.019 1070.08H325.58M352.019 1070.08L352.019 1015.08M404.905 1070.08L404.905 1124M404.905 1070.08H457.788M404.905 1070.08L404.905 1015.08M457.788 1070.08V1124M457.788 1070.08H510.674M457.788 1070.08V1015.08M510.674 1070.08V1124M510.674 1070.08H563.561M510.674 1070.08V1015.08M510.674 1070.08V960.093M510.674 1070.08H616.443M563.561 1070.08V1124M563.561 1070.08H616.443M616.443 1070.08V1124M616.443 1070.08H669.33M616.443 1070.08V960.093M616.443 1070.08H722.212M669.33 1070.08L669.33 1124M669.33 1070.08H722.212M722.212 1070.08L722.212 1124V1097.57M722.212 1070.08L722.212 1097.57M722.212 1070.08H748.655M722.212 1070.08L722.212 960.093M722.212 1070.08L722.212 1042.58M722.212 1097.57H748.655M748.655 1097.57L748.655 1124M748.655 1097.57V1070.08M748.655 1097.57H775.098M748.655 1070.08H775.098M748.655 1070.08V1042.58M775.098 1070.08V1097.57M775.098 1070.08V1124V1097.57M775.098 1070.08H827.981M775.098 1070.08V1042.58M775.098 1070.08V1015.08M827.981 1070.08V1124V1097.57M827.981 1070.08V1097.57M827.981 1070.08H854.424M827.981 1070.08V1015.08M827.981 1070.08V1042.58M827.981 1097.57H854.424M854.424 1097.57V1124M854.424 1097.57V1070.08M854.424 1097.57H880.867M854.424 1070.08H880.867M854.424 1070.08V1042.58M880.867 1070.08V1097.57M880.867 1070.08H907.311M880.867 1070.08V1042.58M880.867 1097.57V1124M880.867 1097.57H907.311M907.311 1097.57V1124M907.311 1097.57V1070.08M907.311 1097.57H933.75M907.311 1070.08H933.75M907.311 1070.08V1042.58M933.75 1070.08L933.75 1097.57M933.75 1070.08L933.75 1124V1097.57M933.75 1070.08H986.636M933.75 1070.08L933.75 1042.58M933.75 1070.08H960.193M986.636 1070.08L986.636 1124M986.636 1070.08H1039.52M986.636 1070.08L986.636 1042.58M986.636 1070.08H960.193M986.636 1070.08L986.636 1015.08M1039.52 1070.08L1039.52 1124M1039.52 1070.08H1092.41M1039.52 1070.08L1039.52 1015.08M1092.41 1070.08L1092.41 1124V1097.57M1092.41 1070.08L1092.41 1097.57M1092.41 1070.08H1118.85M1092.41 1070.08V1015.08M1092.41 1070.08L1092.41 1042.58M1092.41 1097.57H1118.85M1118.85 1097.57L1118.85 1124M1118.85 1097.57V1070.08M1118.85 1097.57H1145.29M1118.85 1070.08H1145.29M1118.85 1070.08V1042.58M1145.29 1070.08V1097.57M1145.29 1070.08V1124V1097.57M1145.29 1070.08H1251.06M1145.29 1070.08V1042.58M1145.29 1070.08V1015.08M1145.29 1070.08H1198.17M1251.06 1070.08V1124M1251.06 1070.08H1356.83M1251.06 1070.08V1015.08M1251.06 1070.08H1198.17M1251.06 1070.08V850.115M1251.06 1070.08H1382H1356.83M1356.83 1070.08V1124V1097.57M1356.83 1070.08V1097.57M1356.83 1097.57H1382M-229.712 850.115H-361L-335.481 850.115M-229.712 850.115V877.611M-229.712 850.115H-203.269M-229.712 850.115V740.137M-229.712 850.115L-335.481 850.115M-229.712 850.115V822.624M-229.712 960.093H-123.943M-229.712 960.093V932.602M-229.712 960.093H-203.269M-123.943 960.093V905.106M-123.943 960.093H-176.826M-123.943 960.093V850.115M-123.943 960.093H-18.174M-123.943 960.093V987.589M-123.943 960.093H-97.4998M-229.712 932.602H-203.269M-229.712 932.602V905.106M-203.269 932.602V960.093M-203.269 932.602V905.106M-203.269 932.602H-176.826M-203.269 960.093H-176.826M-229.712 905.106H-203.269M-229.712 905.106V877.611M-203.269 905.106H-176.826M-203.269 905.106V877.611M-176.826 905.106V932.602M-176.826 905.106V877.611M-176.826 905.106H-150.383M-176.826 905.106V960.093M-176.826 905.106H-123.943M-176.826 932.602V960.093M-229.712 877.611H-203.269M-203.269 877.611V850.115M-203.269 877.611H-176.826M-203.269 850.115H-176.826M-203.269 850.115V822.624M-176.826 850.115V877.611M-176.826 850.115H-150.383M-176.826 850.115V822.624M-176.826 877.611H-150.383M-150.383 877.611V905.106M-150.383 877.611V850.115M-150.383 877.611H-123.943M-150.383 905.106H-123.943M-150.383 850.115H-123.943M-150.383 850.115V822.624M-123.943 850.115V877.611M-123.943 850.115H-18.174M-123.943 850.115V822.624M-123.943 850.115V740.137M-123.943 877.611V905.106M-18.174 850.115V960.093M-18.174 850.115V905.106M-18.174 850.115H34.7123M-18.174 850.115V740.137M-18.174 850.115V795.128M-18.174 960.093H-44.6136M-18.174 960.093V987.589M-18.174 960.093V1015.08M-18.174 960.093H34.7123M-18.174 960.093V905.106M-123.943 1042.58H-97.4998M-123.943 1042.58V1015.08M-97.4998 1042.58V1015.08M-97.4998 1042.58H-71.0567M-123.943 1015.08H-97.4998M-123.943 1015.08V987.589M-97.4998 1015.08H-71.0567M-97.4998 1015.08V987.589M-71.0567 1015.08V1042.58M-71.0567 1015.08V987.589M-71.0567 1015.08H-44.6136M-71.0567 1042.58H-44.6136M-123.943 987.589H-97.4998M-97.4998 987.589V960.093M-97.4998 987.589H-71.0567M-97.4998 960.093H-71.0567M-71.0567 960.093V987.589M-71.0567 960.093H-44.6136M-71.0567 987.589H-44.6136M-44.6136 987.589V1015.08M-44.6136 987.589V960.093M-44.6136 987.589H-18.174M-44.6136 1015.08H-18.174M-44.6136 1015.08V1042.58M-18.174 987.589V1015.08M-18.174 1015.08V1042.58M-18.174 1015.08H34.7123M-44.6136 1042.58H-18.174M34.7123 1015.08V960.093M34.7123 1015.08H87.5985M34.7123 960.093H87.5985M34.7123 960.093V905.106M87.5985 960.093L87.5985 1015.08M87.5985 960.093L87.5985 905.106M87.5985 960.093H140.481M87.5985 1015.08H140.481M-18.174 905.106H34.7123M34.7123 905.106V850.115M34.7123 905.106L87.5985 905.106M34.7123 850.115H87.5985M34.7123 850.115V795.128M34.7123 850.115L34.7123 822.624M34.7123 850.115L61.1554 850.115M87.5985 850.115L87.5985 905.106M87.5985 850.115L87.5985 877.611M87.5985 850.115H114.038M87.5985 850.115L87.5985 822.624M87.5985 850.115L61.1554 850.115M87.5985 905.106L140.481 905.106M87.5985 905.106V877.611M87.5985 905.106L114.038 905.106M140.481 905.106V960.093M140.481 905.106V877.611M140.481 905.106H114.038M140.481 905.106V850.115M140.481 905.106L193.367 905.106M140.481 960.093H193.367M140.481 960.093V1015.08M87.5985 877.611H114.038M114.038 877.611V905.106M114.038 877.611V850.115M114.038 877.611H140.481M114.038 850.115H140.481M114.038 850.115V822.624M140.481 850.115V877.611M140.481 850.115H193.367M140.481 850.115V822.624M140.481 850.115V795.128M193.367 850.115V905.106M193.367 850.115H246.25M193.367 850.115V795.128M193.367 905.106V960.093M193.367 905.106L246.25 905.106M193.367 960.093V1015.08M193.367 960.093H246.25M140.481 1015.08H193.367M193.367 1015.08H246.25M246.25 1015.08V1070.08M246.25 1015.08V960.093M246.25 1015.08V987.589M246.25 1015.08H272.693M246.25 1015.08V1042.58M246.25 1070.08V1042.58M246.25 1070.08H272.693M246.25 960.093V987.589M246.25 960.093H272.693M246.25 960.093V905.106M246.25 960.093V932.602M246.25 987.589H272.693M272.693 987.589L272.693 1015.08M272.693 987.589V960.093M272.693 987.589H299.136M272.693 1015.08H299.136M272.693 1015.08L272.693 1042.58M272.693 960.093H299.136M272.693 960.093V932.602M299.136 960.093L299.136 987.589M299.136 960.093L299.136 932.602M299.136 960.093H325.58M299.136 987.589V1015.08M299.136 987.589H325.58M299.136 1015.08V1042.58M299.136 1015.08H325.58M246.25 1042.58H272.693M272.693 1042.58L272.693 1070.08M272.693 1042.58H299.136M299.136 1042.58H325.58M246.25 905.106V850.115M246.25 905.106L299.136 905.106M246.25 905.106V932.602M246.25 905.106H272.693M246.25 850.115H299.136M246.25 850.115V795.128M299.136 850.115V905.106M299.136 850.115H352.019M299.136 850.115V795.128M299.136 850.115V822.624M299.136 850.115L325.58 850.115M299.136 905.106L272.693 905.106M299.136 905.106V932.602M299.136 905.106L325.58 905.106M299.136 905.106L352.019 905.106M246.25 932.602H272.693M272.693 932.602V905.106M272.693 932.602H299.136M299.136 932.602H325.58M325.58 932.602L325.58 960.093M325.58 932.602V905.106M325.58 932.602H352.019M325.58 960.093H352.019M325.58 960.093L325.58 987.589M325.58 905.106H352.019M352.019 905.106V932.602M352.019 905.106L352.019 850.115M352.019 905.106V877.611M352.019 905.106H378.462M352.019 932.602V960.093M352.019 932.602H378.462M352.019 960.093H378.462M352.019 960.093V987.589M352.019 850.115L352.019 877.611M352.019 850.115H378.462M352.019 850.115L352.019 822.624M352.019 850.115L325.58 850.115M352.019 850.115L352.019 795.128M352.019 850.115H404.905M352.019 877.611H378.462M378.462 877.611L378.462 905.106M378.462 877.611V850.115M378.462 877.611H404.905M378.462 905.106H404.905M378.462 905.106L378.462 932.602M378.462 850.115H404.905M404.905 850.115V877.611M404.905 850.115H431.348M404.905 850.115V795.128M404.905 850.115H457.788M404.905 877.611V905.106M404.905 877.611H431.348M404.905 905.106V932.602M404.905 905.106H431.348M378.462 932.602L378.462 960.093M378.462 932.602H404.905M378.462 960.093H404.905M378.462 960.093L378.462 987.589M404.905 932.602V960.093M404.905 932.602H431.348M404.905 960.093V987.589M404.905 960.093V1015.08M404.905 960.093H457.788M404.905 960.093H431.348M325.58 1042.58L325.58 1070.08M325.58 1042.58V1015.08M325.58 1042.58H352.019M325.58 1015.08H352.019M325.58 1015.08V987.589M352.019 1015.08V1042.58M352.019 1015.08V987.589M352.019 1015.08H378.462M352.019 1015.08H404.905M325.58 987.589H352.019M352.019 987.589H378.462M378.462 987.589L378.462 1015.08M378.462 987.589H404.905M378.462 1015.08H404.905M404.905 987.589V1015.08M404.905 1015.08H457.788M457.788 1015.08V960.093M457.788 1015.08H510.674M457.788 960.093H510.674M457.788 960.093V932.602M457.788 960.093H431.348M457.788 960.093H484.231M510.674 960.093V1015.08M510.674 960.093V932.602M510.674 960.093H484.231M510.674 960.093V850.115M510.674 960.093H616.443M431.348 932.602V960.093M431.348 932.602V905.106M431.348 932.602H457.788M431.348 905.106H457.788M431.348 905.106V877.611M457.788 905.106V932.602M457.788 905.106V877.611M457.788 905.106H484.231M457.788 932.602H484.231M431.348 877.611V850.115M431.348 877.611H457.788M431.348 850.115H457.788M457.788 850.115V877.611M457.788 850.115H484.231M457.788 850.115V795.128M457.788 850.115V822.624M457.788 877.611H484.231M484.231 877.611V905.106M484.231 877.611V850.115M484.231 877.611H510.674M484.231 905.106H510.674M484.231 905.106V932.602M484.231 850.115H510.674M484.231 850.115V822.624M510.674 850.115V877.611M510.674 850.115H616.443M510.674 850.115V822.624M510.674 850.115L537.117 850.115M510.674 877.611V905.106M510.674 905.106V932.602M484.231 932.602V960.093M484.231 932.602H510.674M616.443 850.115V960.093M616.443 850.115H722.212M616.443 850.115V795.128M616.443 850.115L563.561 850.115M616.443 850.115L669.33 850.115M616.443 960.093H722.212M722.212 960.093V850.115M722.212 960.093V905.106M722.212 960.093H775.098M722.212 960.093V1015.08M722.212 850.115V877.611M722.212 850.115H748.655M722.212 850.115V822.624M722.212 850.115L695.769 850.115M722.212 905.106H775.099M722.212 905.106V877.611M722.212 905.106H748.655M775.099 905.106L775.098 960.093M775.099 905.106L775.098 877.611M775.099 905.106H748.655M775.099 905.106H801.542M775.099 905.106H827.981M775.098 960.093H827.981M775.098 960.093V1015.08M722.212 877.611H748.655M748.655 877.611L748.655 905.106M748.655 877.611V850.115M748.655 877.611H775.098M748.655 850.115H775.098M748.655 850.115V822.624M775.098 850.115V877.611M775.098 850.115H801.542M775.098 850.115V822.624M775.098 877.611H801.542M801.542 877.611V905.106M801.542 877.611V850.115M801.542 877.611H827.981M801.542 905.106H827.981M801.542 850.115H827.981M801.542 850.115V822.624M827.981 850.115V877.611M827.981 850.115V905.106M827.981 850.115H880.867M827.981 850.115V822.624M827.981 850.115L854.424 850.115M827.981 877.611V905.106M827.981 905.106V960.093M827.981 905.106H880.867M827.981 960.093V1015.08M827.981 960.093V987.589M827.981 960.093H854.424M827.981 960.093H880.867M722.212 1042.58H748.655M722.212 1042.58V1015.08M748.655 1042.58V1015.08M748.655 1042.58H775.098M722.212 1015.08H748.655M722.212 1015.08H775.098M748.655 1015.08H775.098M775.098 1015.08V1042.58M775.098 1015.08H827.981M827.981 1015.08V1042.58M827.981 1015.08H854.424M827.981 1015.08V987.589M827.981 1042.58H854.424M854.424 1042.58V1015.08M854.424 1042.58H880.867M854.424 1015.08H880.867M854.424 1015.08V987.589M880.867 1015.08V1042.58M880.867 1015.08V987.589M880.867 1015.08H907.311M880.867 1042.58H907.311M827.981 987.589H854.424M854.424 987.589V960.093M854.424 987.589H880.867M854.424 960.093H880.867M880.867 960.093V987.589M880.867 960.093H907.311M880.867 960.093V905.106M880.867 960.093V932.602M880.867 987.589H907.311M907.311 987.589V1015.08M907.311 987.589V960.093M907.311 987.589H933.75M907.311 1015.08H933.75M907.311 1015.08V1042.58M907.311 960.093H933.75M907.311 960.093V932.602M933.75 960.093L933.75 987.589M933.75 960.093L933.75 932.602M933.75 960.093H960.193M933.75 987.589V1015.08M933.75 987.589H960.193M933.75 1015.08V1042.58M933.75 1015.08H960.193M907.311 1042.58H933.75M933.75 1042.58H960.193M880.867 905.106V850.115M880.867 905.106V877.611M880.867 905.106H907.311M880.867 905.106V932.602M880.867 850.115V877.611M880.867 850.115H907.311M880.867 850.115V822.624M880.867 850.115L854.424 850.115M880.867 877.611H907.311M907.311 877.611V905.106M907.311 877.611V850.115M907.311 877.611H933.75M907.311 905.106H933.75M907.311 905.106V932.602M907.311 850.115H933.75M907.311 850.115V822.624M933.75 850.115L933.75 877.611M933.75 850.115H960.193M933.75 850.115L933.75 822.624M933.75 877.611V905.106M933.75 877.611H960.193M933.75 905.106V932.602M933.75 905.106H960.193M880.867 932.602H907.311M907.311 932.602H933.75M933.75 932.602H960.193M960.193 932.602V960.093M960.193 932.602V905.106M960.193 932.602H986.636M960.193 960.093H986.636M960.193 960.093V987.589M960.193 905.106H986.636M960.193 905.106V877.611M986.636 905.106V932.602M986.636 905.106V877.611M986.636 905.106H1013.08M986.636 905.106V960.093M986.636 905.106H1039.52M986.636 932.602V960.093M986.636 960.093H1039.52M986.636 960.093V987.589M986.636 960.093V1015.08M960.193 877.611V850.115M960.193 877.611H986.636M960.193 850.115H986.636M960.193 850.115V822.624M986.636 850.115V877.611M986.636 850.115H1013.08M986.636 850.115V822.624M986.636 850.115V795.128M986.636 850.115H1039.52M986.636 877.611H1013.08M1013.08 877.611V905.106M1013.08 877.611V850.115M1013.08 877.611H1039.52M1013.08 905.106H1039.52M1013.08 850.115H1039.52M1039.52 850.115L1039.52 877.611M1039.52 850.115L1039.52 960.093M1039.52 850.115H1145.29M1039.52 850.115L1039.52 795.128M1039.52 850.115L1092.41 850.115M1039.52 877.611V905.106M1039.52 905.106V960.093M1039.52 960.093V1015.08M1039.52 960.093H1092.41M1039.52 960.093H1145.29M960.193 1042.58V1070.08M960.193 1042.58V1015.08M960.193 1042.58H986.636M960.193 1015.08H986.636M960.193 1015.08V987.589M986.636 1015.08V1042.58M986.636 1015.08V987.589M986.636 1015.08H1039.52M960.193 987.589H986.636M1039.52 1015.08H1092.41M1092.41 1015.08V960.093M1092.41 1015.08H1145.29M1092.41 1015.08L1092.41 1042.58M1092.41 1015.08H1118.85M1092.41 960.093H1145.29M1145.29 960.093L1145.29 1015.08M1145.29 960.093L1145.29 850.115M1145.29 960.093L1145.29 905.106M1145.29 960.093H1198.17M1145.29 1015.08H1118.85M1145.29 1015.08V1042.58M1145.29 1015.08H1198.17M1092.41 1042.58H1118.85M1118.85 1042.58V1015.08M1118.85 1042.58H1145.29M1145.29 850.115V905.106M1145.29 850.115H1198.17M1145.29 850.115V795.128M1145.29 850.115L1092.41 850.115M1145.29 905.106H1198.17M1198.17 905.106L1198.17 960.093M1198.17 905.106V850.115M1198.17 905.106L1251.06 905.106M1198.17 905.106L1198.17 932.602M1198.17 905.106H1224.62M1198.17 960.093V932.602M1198.17 960.093H1224.62M1198.17 960.093L1198.17 1015.08M1198.17 960.093H1251.06M1198.17 850.115H1251.06M1198.17 850.115V795.128M1251.06 850.115V905.106M1251.06 850.115H1382L1356.83 850.115M1251.06 850.115V795.128M1251.06 850.115V740.137M1251.06 850.115L1356.83 850.115M1251.06 905.106L1224.62 905.106M1251.06 905.106V932.602M1198.17 932.602H1224.62M1224.62 932.602V960.093M1224.62 932.602V905.106M1224.62 932.602H1251.06M1224.62 960.093H1251.06M1251.06 932.602V960.093M1251.06 960.093V1015.08M1198.17 1015.08L1198.17 1070.08M1198.17 1015.08H1251.06M-361 740.137H-335.481M-335.481 740.137V850.115M-335.481 740.137V685.15M-335.481 740.137H-282.595M-335.481 740.137H-229.712M-361 630.159H-335.481M-335.481 630.159V685.15M-335.481 630.159V657.655M-335.481 630.159H-309.038M-335.481 630.159V602.664M-335.481 685.15L-361 685.15M-335.481 685.15L-282.595 685.15M-335.481 685.15V657.655M-335.481 685.15H-309.038M-282.595 685.15L-282.595 740.137M-282.595 685.15L-282.595 657.655M-282.595 685.15L-309.038 685.15M-282.595 685.15L-256.155 685.15M-282.595 685.15L-229.712 685.15M-282.595 740.137H-229.712M-335.481 657.655H-309.038M-309.038 657.655V685.15M-309.038 657.655V630.159M-309.038 657.655H-282.595M-309.038 630.159H-282.595M-309.038 630.159V602.664M-282.595 630.159L-282.595 657.655M-282.595 630.159H-256.155M-282.595 630.159L-282.595 602.664M-282.595 630.159V575.172M-282.595 630.159H-229.712M-282.595 657.655H-256.155M-256.155 657.655V685.15M-256.155 657.655V630.159M-256.155 657.655H-229.712M-256.155 685.15H-229.712M-256.155 630.159H-229.712M-229.712 630.159V657.655M-229.712 630.159V740.137M-229.712 630.159H-123.943M-229.712 630.159V575.172M-229.712 630.159V520.181M-229.712 657.655V685.15M-229.712 685.15V740.137M-229.712 740.137V795.128M-229.712 740.137H-176.826M-229.712 740.137H-123.943M-229.712 822.624H-203.269M-229.712 822.624V795.128M-203.269 822.624V795.128M-203.269 822.624H-176.826M-229.712 795.128H-203.269M-229.712 795.128H-176.826M-203.269 795.128H-176.826M-176.826 795.128V822.624M-176.826 795.128L-176.826 740.137M-176.826 795.128V767.633M-176.826 795.128H-150.383M-176.826 822.624H-150.383M-176.826 740.137L-176.826 767.633M-176.826 740.137H-150.383M-176.826 767.633H-150.383M-150.383 767.633V795.128M-150.383 767.633V740.137M-150.383 767.633H-123.943M-150.383 795.128H-123.943M-150.383 795.128V822.624M-150.383 740.137H-123.943M-123.943 740.137V767.633M-123.943 740.137V630.159M-123.943 740.137V685.15M-123.943 740.137H-71.0567M-123.943 740.137H-18.174M-123.943 767.633V795.128M-123.943 795.128V822.624M-150.383 822.624H-123.943M-123.943 630.159V685.15M-123.943 630.159H-71.0567M-123.943 630.159V520.181M-123.943 630.159V575.172M-123.943 685.15H-71.0567M-71.0567 685.15V740.137M-71.0567 685.15V630.159M-71.0567 685.15L-18.174 685.15M-71.0567 740.137H-18.174M-71.0567 630.159H-18.174M-71.0567 630.159V575.172M-71.0567 630.159V602.664M-71.0567 630.159H-44.6136M-18.174 630.159L-18.174 685.15M-18.174 630.159L-18.174 657.655M-18.174 630.159H8.26914M-18.174 630.159L-18.174 602.664M-18.174 630.159H-44.6136M-18.174 630.159L-18.174 520.181M-18.174 630.159H87.5985M-18.174 685.15V740.137M-18.174 685.15V712.642M-18.174 685.15L8.26914 685.15M-18.174 685.15V657.655M-18.174 740.137V795.128M-18.174 740.137H34.7123M-18.174 740.137V712.642M-18.174 740.137H8.26914M-18.174 795.128H34.7123M34.7123 795.128V740.137M34.7123 795.128H87.5985M34.7123 795.128L34.7123 822.624M34.7123 795.128H61.1554M34.7123 740.137H87.5985M34.7123 740.137L34.7123 712.642M34.7123 740.137H8.26914M34.7123 740.137H61.1554M87.5985 740.137L87.5985 795.128M87.5985 740.137L87.5985 712.642M87.5985 740.137H61.1554M87.5985 740.137L87.5985 685.15M87.5985 740.137H140.481M87.5985 740.137L87.5985 767.633M87.5985 740.137H114.038M87.5985 795.128H61.1554M87.5985 795.128V822.624M87.5985 795.128H114.038M87.5985 795.128V767.633M34.7123 822.624H61.1554M61.1554 822.624L61.1554 850.115M61.1554 822.624V795.128M61.1554 822.624H87.5985M87.5985 822.624H114.038M-18.174 712.642H8.26914M8.26914 712.642V740.137M8.26914 712.642V685.15M8.26914 712.642L34.7123 712.642M8.26914 685.15H34.7123M8.26914 685.15V657.655M34.7123 685.15L34.7123 712.642M34.7123 685.15L34.7123 657.655M34.7123 685.15V630.159M34.7123 685.15L87.5985 685.15M34.7123 685.15H61.1554M34.7123 712.642L61.1554 712.642M-18.174 657.655H8.26914M8.26914 657.655V630.159M8.26914 657.655H34.7123M8.26914 630.159H34.7123M34.7123 630.159L34.7123 657.655M34.7123 630.159H87.5985M87.5985 630.159L87.5985 685.15M87.5985 630.159H140.481M87.5985 630.159L87.5985 520.181M87.5985 630.159L87.5985 602.664M87.5985 630.159H114.038M87.5985 685.15L61.1554 685.15M87.5985 685.15V712.642M87.5985 685.15L140.481 685.15M61.1554 712.642L61.1554 740.137M61.1554 712.642V685.15M61.1554 712.642L87.5985 712.642M140.481 685.15V740.137M140.481 685.15V630.159M140.481 685.15L193.367 685.15M140.481 740.137H193.367M140.481 740.137H114.038M140.481 740.137V767.633M140.481 740.137H166.924M140.481 630.159H193.367M140.481 630.159V602.664M140.481 630.159H114.038M140.481 630.159V575.172M193.367 630.159V685.15M193.367 630.159H246.25M193.367 630.159V575.172M193.367 685.15V740.137M193.367 685.15L246.25 685.15M193.367 740.137H166.924M193.367 740.137V767.633M193.367 740.137V795.128M193.367 740.137H246.25M114.038 822.624V795.128M114.038 822.624H140.481M114.038 795.128H140.481M114.038 795.128V767.633M140.481 795.128V822.624M140.481 795.128V767.633M140.481 795.128H166.924M140.481 795.128H193.367M87.5985 767.633H114.038M114.038 767.633V740.137M114.038 767.633H140.481M140.481 767.633H166.924M166.924 767.633V795.128M166.924 767.633V740.137M166.924 767.633H193.367M166.924 795.128H193.367M193.367 767.633V795.128M193.367 795.128H246.25M246.25 795.128V740.137M246.25 795.128V767.633M246.25 795.128H272.693M246.25 795.128H299.136M246.25 740.137V767.633M246.25 740.137H272.693M246.25 740.137V685.15M246.25 740.137H299.136M246.25 767.633H272.693M272.693 767.633L272.693 795.128M272.693 767.633V740.137M272.693 767.633H299.136M272.693 795.128H299.136M272.693 740.137H299.136M299.136 740.137L299.136 767.633M299.136 740.137L299.136 685.15M299.136 740.137H352.019M299.136 740.137H325.58M299.136 767.633V795.128M299.136 767.633H325.58M299.136 795.128V822.624M299.136 795.128H325.58M246.25 685.15V630.159M246.25 685.15L299.136 685.15M246.25 630.159H299.136M246.25 630.159V575.172M299.136 630.159V685.15M299.136 630.159H352.019M299.136 630.159V575.172M299.136 685.15L352.019 685.15M352.019 685.15L352.019 740.137M352.019 685.15V630.159M352.019 685.15L404.905 685.15M352.019 740.137H404.905M352.019 740.137H325.58M352.019 740.137V767.633M352.019 740.137H378.462M352.019 630.159H404.905M352.019 630.159V575.172M404.905 630.159L404.905 685.15M404.905 630.159H457.788M404.905 630.159L404.905 575.172M404.905 630.159L404.905 410.203M404.905 630.159H616.443M404.905 685.15V740.137M404.905 685.15V712.642M404.905 685.15L431.348 685.15M404.905 685.15L457.788 685.15M404.905 740.137H378.462M404.905 740.137V767.633M404.905 740.137V795.128M404.905 740.137H457.788M404.905 740.137V712.642M404.905 740.137H431.348M299.136 822.624H325.58M325.58 822.624L325.58 850.115M325.58 822.624V795.128M325.58 822.624H352.019M325.58 795.128H352.019M325.58 795.128V767.633M352.019 795.128V822.624M352.019 795.128V767.633M352.019 795.128H378.462M352.019 795.128H404.905M325.58 767.633V740.137M325.58 767.633H352.019M352.019 767.633H378.462M378.462 767.633L378.462 795.128M378.462 767.633V740.137M378.462 767.633H404.905M378.462 795.128H404.905M404.905 767.633V795.128M404.905 795.128H457.788M457.788 795.128V740.137M457.788 795.128H510.674M457.788 795.128V822.624M457.788 795.128H484.231M457.788 740.137H510.674M457.788 740.137V712.642M457.788 740.137H431.348M457.788 740.137V685.15M510.674 740.137V795.128M510.674 740.137V685.15M510.674 740.137V712.642M510.674 740.137H537.117M510.674 740.137V767.633M510.674 795.128H484.231M510.674 795.128V822.624M510.674 795.128H537.117M510.674 795.128V767.633M457.788 822.624H484.231M484.231 822.624V795.128M484.231 822.624H510.674M510.674 822.624H537.117M404.905 712.642H431.348M431.348 712.642V740.137M431.348 712.642V685.15M431.348 712.642L457.788 712.642M431.348 685.15H457.788M457.788 685.15V712.642M457.788 685.15V630.159M457.788 685.15L510.674 685.15M457.788 630.159H510.674M510.674 630.159V685.15M510.674 630.159H563.561M510.674 685.15V712.642M510.674 685.15L537.117 685.15M510.674 685.15L563.561 685.15M510.674 712.642H537.117M537.117 712.642V740.137M537.117 712.642V685.15M537.117 712.642L563.561 712.642M537.117 740.137H563.561M537.117 740.137V767.633M537.117 685.15H563.561M563.561 685.15V712.642M563.561 685.15V630.159M563.561 685.15V657.655M563.561 685.15L590 685.15M563.561 712.642V740.137M563.561 712.642L590 712.642M563.561 740.137H590M563.561 740.137V767.633M563.561 630.159V657.655M563.561 630.159H590M563.561 657.655H590M590 657.655V685.15M590 657.655V630.159M590 657.655H616.443M590 685.15H616.443M590 685.15V712.642M590 630.159H616.443M616.443 630.159V657.655M616.443 630.159V685.15M616.443 630.159H669.33M616.443 630.159V410.203M616.443 630.159H827.981M616.443 657.655V685.15M616.443 685.15V712.642M616.443 685.15L642.886 685.15M616.443 685.15L669.33 685.15M590 712.642V740.137M590 712.642L616.443 712.642M590 740.137H616.443M590 740.137V767.633M616.443 712.642V740.137M616.443 712.642L642.886 712.642M616.443 740.137V767.633M616.443 740.137H642.886M537.117 822.624V850.115M537.117 822.624V795.128M537.117 822.624H563.561M537.117 850.115H563.561M537.117 795.128H563.561M537.117 795.128V767.633M563.561 795.128V822.624M563.561 795.128V767.633M563.561 795.128H590M563.561 795.128V850.115M563.561 795.128H616.443M563.561 822.624V850.115M510.674 767.633H537.117M537.117 767.633H563.561M563.561 767.633H590M590 767.633V795.128M590 767.633H616.443M590 795.128H616.443M616.443 767.633V795.128M616.443 767.633H642.886M616.443 795.128H669.33M616.443 795.128H642.886M669.33 795.128L669.33 850.115M669.33 795.128L669.33 767.633M669.33 795.128H642.886M669.33 795.128H695.769M669.33 795.128L669.33 822.624M669.33 850.115V822.624M669.33 850.115H695.769M642.886 767.633V795.128M642.886 767.633V740.137M642.886 767.633H669.33M642.886 740.137H669.33M642.886 740.137V712.642M669.33 740.137L669.33 767.633M669.33 740.137H695.769M669.33 740.137L669.33 712.642M669.33 767.633H695.769M695.769 767.633L695.769 795.128M695.769 767.633V740.137M695.769 767.633H722.212M695.769 795.128H722.212M695.769 795.128L695.769 822.624M695.769 740.137H722.212M695.769 740.137V712.642M722.212 740.137V767.633M722.212 740.137V712.642M722.212 740.137H748.655M722.212 740.137V795.128M722.212 740.137H775.098M722.212 767.633V795.128M722.212 795.128V822.624M722.212 795.128H748.655M722.212 795.128H775.098M669.33 822.624H695.769M695.769 822.624L695.769 850.115M695.769 822.624H722.212M722.212 822.624H748.655M642.886 712.642V685.15M642.886 712.642L669.33 712.642M642.886 685.15H669.33M669.33 685.15L669.33 712.642M669.33 685.15V630.159M669.33 685.15L722.212 685.15M669.33 685.15H695.769M669.33 712.642L695.769 712.642M669.33 630.159H722.212M722.212 630.159L722.212 685.15M722.212 630.159L722.212 657.655M722.212 630.159H748.655M722.212 685.15L695.769 685.15M722.212 685.15V712.642M722.212 685.15L748.655 685.15M722.212 685.15V657.655M695.769 712.642V685.15M695.769 712.642L722.212 712.642M722.212 712.642L748.655 712.642M748.655 712.642L748.655 740.137M748.655 712.642V685.15M748.655 712.642L775.098 712.642M748.655 740.137H775.098M748.655 685.15H775.098M748.655 685.15V657.655M775.098 685.15V712.642M775.098 685.15V657.655M775.098 685.15L801.542 685.15M775.098 712.642V740.137M775.098 712.642L801.542 712.642M775.098 740.137H801.542M775.098 740.137V795.128M775.098 740.137H827.981M722.212 657.655H748.655M748.655 657.655V630.159M748.655 657.655H775.098M748.655 630.159H775.098M775.098 630.159V657.655M775.098 630.159H801.542M775.098 657.655H801.542M801.542 657.655V685.15M801.542 657.655V630.159M801.542 657.655H827.981M801.542 685.15H827.981M801.542 685.15V712.642M801.542 630.159H827.981M827.981 630.159V657.655M827.981 630.159H854.424M827.981 630.159L827.981 410.203M827.981 630.159V520.181M827.981 630.159H933.75M827.981 657.655V685.15M827.981 657.655H854.424M827.981 685.15V712.642M827.981 685.15L854.424 685.15M801.542 712.642V740.137M801.542 712.642L827.981 712.642M801.542 740.137H827.981M827.981 712.642V740.137M827.981 712.642L854.424 712.642M827.981 740.137V795.128M827.981 740.137V767.633M827.981 740.137H854.424M748.655 822.624V795.128M748.655 822.624H775.098M748.655 795.128H775.098M775.098 795.128V822.624M775.098 795.128H827.981M775.098 795.128H801.542M775.098 822.624H801.542M827.981 795.128H801.542M827.981 795.128V822.624M827.981 795.128H854.424M827.981 795.128V767.633M801.542 822.624V795.128M801.542 822.624H827.981M827.981 822.624H854.424M854.424 822.624V850.115M854.424 822.624V795.128M854.424 822.624H880.867M854.424 795.128H880.867M854.424 795.128V767.633M880.867 795.128V822.624M880.867 795.128V767.633M880.867 795.128H907.311M880.867 822.624H907.311M827.981 767.633H854.424M854.424 767.633V740.137M854.424 767.633H880.867M854.424 740.137H880.867M854.424 740.137V712.642M880.867 740.137V767.633M880.867 740.137H907.311M880.867 740.137V712.642M880.867 740.137V685.15M880.867 740.137H933.75M880.867 767.633H907.311M907.311 767.633V795.128M907.311 767.633V740.137M907.311 767.633H933.75M907.311 795.128H933.75M907.311 795.128V822.624M907.311 740.137H933.75M933.75 740.137L933.75 767.633M933.75 740.137L933.75 685.15M933.75 740.137H986.636M933.75 740.137L933.75 795.128M933.75 767.633V795.128M933.75 795.128V822.624M933.75 795.128H960.193M933.75 795.128H986.636M907.311 822.624H933.75M933.75 822.624H960.193M854.424 712.642V685.15M854.424 712.642L880.867 712.642M854.424 685.15H880.867M854.424 685.15V657.655M880.867 685.15V712.642M880.867 685.15V657.655M880.867 685.15V630.159M880.867 685.15L933.75 685.15M854.424 657.655V630.159M854.424 657.655H880.867M854.424 630.159H880.867M880.867 630.159V657.655M880.867 630.159H933.75M933.75 630.159V685.15M933.75 630.159H986.636M933.75 630.159V520.181M933.75 630.159H1039.52M933.75 685.15L986.636 685.15M986.636 685.15L986.636 740.137M986.636 685.15V630.159M986.636 685.15L1039.52 685.15M986.636 740.137H1039.52M986.636 740.137V795.128M986.636 630.159H1039.52M1039.52 630.159L1039.52 685.15M1039.52 630.159H1092.41M1039.52 630.159L1039.52 520.181M1039.52 630.159H1145.29M1039.52 685.15V740.137M1039.52 685.15L1092.41 685.15M1039.52 740.137V795.128M1039.52 740.137H1092.41M960.193 822.624V795.128M960.193 822.624H986.636M960.193 795.128H986.636M986.636 795.128V822.624M986.636 795.128H1039.52M1039.52 795.128H1092.41M1092.41 795.128L1092.41 850.115M1092.41 795.128V740.137M1092.41 795.128H1145.29M1092.41 740.137H1145.29M1092.41 740.137V685.15M1145.29 740.137L1145.29 795.128M1145.29 740.137L1145.29 685.15M1145.29 740.137V630.159M1145.29 740.137L1251.06 740.137M1145.29 740.137H1198.17M1145.29 795.128H1198.17M1092.41 685.15V630.159M1092.41 685.15L1145.29 685.15M1092.41 630.159H1145.29M1145.29 630.159L1145.29 685.15M1145.29 630.159H1251.06M1145.29 630.159L1145.29 520.181M1251.06 630.159V740.137M1251.06 630.159H1356.83M1251.06 630.159V520.181M1251.06 740.137L1198.17 740.137M1251.06 740.137V795.128M1251.06 740.137L1356.83 740.137M1198.17 795.128V740.137M1198.17 795.128H1251.06M1356.83 740.137V850.115M1356.83 740.137V630.159M1356.83 740.137V685.15M1356.83 740.137H1382M1356.83 740.137V795.128M1356.83 850.115V822.624M1356.83 630.159V657.655M1356.83 630.159H1382M1356.83 630.159V520.181M1356.83 630.159V602.664M1356.83 685.15H1382M1356.83 685.15V657.655M1356.83 657.655H1382M1356.83 822.624H1382M1356.83 822.624V795.128M1356.83 795.128H1382M-361 520.181H-335.481M-335.481 520.181V547.677M-335.481 520.181V492.686M-335.481 520.181H-309.038M-335.481 547.677H-361M-335.481 547.677V575.172M-335.481 547.677H-309.038M-335.481 575.172H-361M-335.481 575.172V602.664M-335.481 575.172H-309.038M-335.481 602.664H-361M-335.481 602.664H-309.038M-361 410.203H-335.481M-335.481 410.203V437.699M-335.481 410.203H-309.038M-335.481 410.203V382.708M-335.481 437.699H-361M-335.481 437.699V465.19M-335.481 437.699H-309.038M-335.481 465.19H-361M-335.481 465.19V492.686M-335.481 465.19H-309.038M-335.481 492.686H-361M-335.481 492.686H-309.038M-309.038 492.686V520.181M-309.038 492.686V465.19M-309.038 492.686H-282.595M-309.038 520.181H-282.595M-309.038 520.181V547.677M-309.038 465.19H-282.595M-309.038 465.19V437.699M-282.595 465.19L-282.595 492.686M-282.595 465.19L-282.595 437.699M-282.595 465.19H-256.155M-282.595 465.19L-282.595 520.181M-282.595 465.19H-229.712M-282.595 492.686V520.181M-282.595 520.181H-229.712M-282.595 520.181V547.677M-282.595 520.181L-282.595 575.172M-309.038 437.699V410.203M-309.038 437.699H-282.595M-309.038 410.203H-282.595M-309.038 410.203V382.708M-282.595 410.203L-282.595 437.699M-282.595 410.203H-256.155M-282.595 410.203L-282.595 382.708M-282.595 437.699H-256.155M-256.155 437.699V465.19M-256.155 437.699V410.203M-256.155 437.699H-229.712M-256.155 465.19H-229.712M-256.155 410.203H-229.712M-256.155 410.203V382.708M-229.712 410.203V437.699M-229.712 410.203H-203.269M-229.712 410.203V382.708M-229.712 437.699V465.19M-229.712 437.699H-203.269M-229.712 465.19V520.181M-229.712 465.19H-176.826M-229.712 465.19H-203.269M-229.712 520.181V575.172M-229.712 520.181H-123.943M-229.712 520.181H-176.826M-309.038 602.664V575.172M-309.038 602.664H-282.595M-309.038 575.172H-282.595M-309.038 575.172V547.677M-282.595 575.172L-282.595 602.664M-282.595 575.172L-282.595 547.677M-282.595 575.172H-229.712M-309.038 547.677H-282.595M-123.943 520.181V492.686M-123.943 520.181H-150.383M-123.943 520.181H-97.4998M-123.943 520.181V547.677M-176.826 465.19L-176.826 520.181M-176.826 465.19L-176.826 437.699M-176.826 465.19H-203.269M-176.826 465.19H-150.383M-176.826 465.19L-176.826 492.686M-176.826 520.181V492.686M-176.826 520.181H-150.383M-203.269 437.699V465.19M-203.269 437.699V410.203M-203.269 437.699H-176.826M-203.269 410.203H-176.826M-203.269 410.203V382.708M-176.826 410.203V437.699M-176.826 410.203H-150.383M-176.826 410.203V382.708M-176.826 410.203V355.212M-176.826 410.203H-123.943M-176.826 437.699H-150.383M-150.383 437.699V465.19M-150.383 437.699V410.203M-150.383 437.699H-123.943M-150.383 465.19H-123.943M-150.383 465.19V492.686M-150.383 410.203H-123.943M-123.943 410.203V437.699M-123.943 410.203H-97.4998M-123.943 410.203V355.212M-123.943 410.203V382.708M-123.943 437.699V465.19M-123.943 437.699H-97.4998M-123.943 465.19V492.686M-123.943 465.19H-97.4998M-176.826 492.686H-150.383M-150.383 492.686V520.181M-150.383 492.686H-123.943M-123.943 492.686H-97.4998M-97.4998 492.686V520.181M-97.4998 492.686V465.19M-97.4998 492.686H-71.0567M-97.4998 520.181H-71.0567M-97.4998 520.181V547.677M-97.4998 465.19H-71.0567M-97.4998 465.19V437.699M-71.0567 465.19V492.686M-71.0567 465.19V437.699M-71.0567 465.19H-44.6136M-71.0567 492.686V520.181M-71.0567 492.686H-44.6136M-71.0567 520.181H-44.6136M-71.0567 520.181V547.677M-71.0567 520.181V575.172M-71.0567 520.181H-18.174M-97.4998 437.699V410.203M-97.4998 437.699H-71.0567M-97.4998 410.203H-71.0567M-97.4998 410.203V382.708M-71.0567 410.203V437.699M-71.0567 410.203H-44.6136M-71.0567 410.203V382.708M-71.0567 437.699H-44.6136M-44.6136 437.699V465.19M-44.6136 437.699V410.203M-44.6136 437.699H-18.174M-44.6136 465.19H-18.174M-44.6136 465.19V492.686M-44.6136 410.203H-18.174M-44.6136 410.203V382.708M-18.174 410.203L-18.174 437.699M-18.174 410.203L-18.174 465.19M-18.174 410.203H34.7123M-18.174 410.203L-18.174 382.708M-18.174 410.203L-18.174 300.225M-18.174 410.203H87.5985M-18.174 437.699V465.19M-18.174 465.19V492.686M-18.174 465.19V520.181M-18.174 465.19H34.7123M-44.6136 492.686V520.181M-44.6136 492.686H-18.174M-44.6136 520.181H-18.174M-18.174 492.686V520.181M-18.174 520.181V575.172M-18.174 520.181H87.5985M-18.174 520.181H34.7123M-123.943 575.172H-71.0567M-123.943 575.172V547.677M-123.943 575.172H-97.4998M-71.0567 575.172V547.677M-71.0567 575.172H-97.4998M-71.0567 575.172H-18.174M-71.0567 575.172V602.664M-71.0567 575.172H-44.6136M-123.943 547.677H-97.4998M-97.4998 547.677V575.172M-97.4998 547.677H-71.0567M-18.174 575.172H-44.6136M-18.174 575.172V602.664M-71.0567 602.664H-44.6136M-44.6136 602.664V630.159M-44.6136 602.664V575.172M-44.6136 602.664H-18.174M87.5985 520.181V465.19M87.5985 520.181H34.7123M87.5985 520.181H140.481M87.5985 520.181V547.677M87.5985 520.181H114.038M34.7123 465.19L34.7123 520.181M34.7123 465.19V410.203M34.7123 465.19H87.5985M34.7123 410.203H87.5985M87.5985 410.203L87.5985 465.19M87.5985 410.203L87.5985 437.699M87.5985 410.203H114.038M87.5985 410.203L87.5985 300.225M87.5985 410.203H193.367M87.5985 465.19H140.481M87.5985 465.19V437.699M87.5985 465.19H114.038M140.481 465.19V520.181M140.481 465.19V437.699M140.481 465.19H114.038M140.481 465.19H166.924M140.481 465.19V492.686M140.481 520.181V492.686M140.481 520.181H166.924M140.481 520.181H114.038M140.481 520.181V547.677M87.5985 437.699H114.038M114.038 437.699V465.19M114.038 437.699V410.203M114.038 437.699H140.481M114.038 410.203H140.481M140.481 410.203V437.699M140.481 410.203H166.924M140.481 437.699H166.924M166.924 437.699V465.19M166.924 437.699V410.203M166.924 437.699H193.367M166.924 465.19H193.367M166.924 465.19V492.686M166.924 410.203H193.367M193.367 410.203L193.367 437.699M193.367 410.203H219.807M193.367 410.203L193.367 300.225M193.367 410.203L193.367 382.708M193.367 437.699V465.19M193.367 437.699H219.807M193.367 465.19V492.686M193.367 465.19H219.807M140.481 492.686H166.924M166.924 492.686V520.181M166.924 492.686H193.367M166.924 520.181H193.367M166.924 520.181V547.677M193.367 492.686V520.181M193.367 492.686H219.807M193.367 520.181V547.677M193.367 520.181H219.807M87.5985 602.664H114.038M87.5985 602.664V575.172M114.038 602.664V630.159M114.038 602.664V575.172M114.038 602.664H140.481M87.5985 575.172H114.038M87.5985 575.172V547.677M114.038 575.172H140.481M114.038 575.172V547.677M140.481 575.172V602.664M140.481 575.172V547.677M140.481 575.172H166.924M140.481 575.172H193.367M87.5985 547.677H114.038M114.038 547.677V520.181M114.038 547.677H140.481M140.481 547.677H166.924M166.924 547.677V575.172M166.924 547.677H193.367M166.924 575.172H193.367M193.367 547.677V575.172M193.367 547.677H219.807M193.367 575.172H246.25M193.367 575.172H219.807M246.25 575.172V547.677M246.25 575.172H219.807M246.25 575.172H272.693M246.25 575.172H299.136M219.807 547.677V575.172M219.807 547.677V520.181M219.807 547.677H246.25M219.807 520.181H246.25M219.807 520.181V492.686M246.25 520.181V547.677M246.25 520.181H272.693M246.25 520.181V492.686M246.25 547.677H272.693M272.693 547.677L272.693 575.172M272.693 547.677V520.181M272.693 547.677H299.136M272.693 575.172H299.136M272.693 520.181H299.136M272.693 520.181V492.686M299.136 520.181L299.136 547.677M299.136 520.181L299.136 492.686M299.136 520.181H325.58M299.136 547.677V575.172M299.136 547.677H325.58M299.136 575.172H352.019M299.136 575.172H325.58M219.807 492.686V465.19M219.807 492.686H246.25M219.807 465.19H246.25M219.807 465.19V437.699M246.25 465.19V492.686M246.25 465.19V437.699M246.25 465.19H272.693M246.25 492.686H272.693M219.807 437.699V410.203M219.807 437.699H246.25M219.807 410.203H246.25M219.807 410.203V382.708M246.25 410.203V437.699M246.25 410.203H272.693M246.25 410.203V382.708M246.25 437.699H272.693M272.693 437.699L272.693 465.19M272.693 437.699V410.203M272.693 437.699H299.136M272.693 465.19H299.136M272.693 465.19L272.693 492.686M272.693 410.203H299.136M272.693 410.203V382.708M299.136 410.203L299.136 437.699M299.136 410.203H325.58M299.136 410.203L299.136 382.708M299.136 437.699V465.19M299.136 437.699H325.58M299.136 465.19V492.686M299.136 465.19H325.58M272.693 492.686H299.136M299.136 492.686H325.58M325.58 492.686L325.58 520.181M325.58 492.686V465.19M325.58 492.686H352.019M325.58 520.181H352.019M325.58 520.181L325.58 547.677M325.58 465.19H352.019M325.58 465.19V437.699M352.019 465.19V492.686M352.019 465.19V437.699M352.019 465.19H378.462M352.019 492.686V520.181M352.019 492.686H378.462M352.019 520.181H378.462M352.019 520.181V547.677M325.58 437.699V410.203M325.58 437.699H352.019M325.58 410.203H352.019M325.58 410.203V382.708M352.019 410.203V437.699M352.019 410.203H378.462M352.019 410.203V382.708M352.019 437.699H378.462M378.462 437.699L378.462 465.19M378.462 437.699V410.203M378.462 437.699H404.905M378.462 465.19H404.905M378.462 465.19L378.462 492.686M378.462 410.203H404.905M378.462 410.203V382.708M404.905 410.203V437.699M404.905 410.203H616.443M404.905 410.203V382.708M404.905 410.203V190.247M404.905 437.699V465.19M404.905 465.19V492.686M378.462 492.686L378.462 520.181M378.462 492.686H404.905M378.462 520.181H404.905M378.462 520.181L378.462 547.677M404.905 492.686V520.181M404.905 520.181V547.677M352.019 575.172L352.019 547.677M352.019 575.172H325.58M352.019 575.172H378.462M352.019 575.172H404.905M325.58 547.677L325.58 575.172M325.58 547.677H352.019M352.019 547.677H378.462M378.462 547.677L378.462 575.172M378.462 547.677H404.905M378.462 575.172H404.905M404.905 547.677V575.172M616.443 410.203H827.981M616.443 410.203V190.247M616.443 410.203V355.212M616.443 410.203H669.33M827.981 410.203L827.981 520.181M827.981 410.203H933.75M827.981 410.203L827.981 355.212M827.981 410.203H775.098M827.981 410.203L827.981 300.225M827.981 520.181H933.75M933.75 520.181V410.203M933.75 520.181H1039.52M933.75 410.203H1039.52M933.75 410.203V300.225M933.75 410.203V355.212M933.75 410.203H986.636M1039.52 410.203V520.181M1039.52 410.203V465.19M1039.52 410.203H1092.41M1039.52 410.203V355.212M1039.52 410.203H986.636M1039.52 520.181H1145.29M1039.52 520.181V465.19M1039.52 520.181H1092.41M1145.29 520.181V465.19M1145.29 520.181H1092.41M1145.29 520.181H1198.17M1145.29 520.181H1251.06M1039.52 465.19H1092.41M1092.41 465.19L1092.41 520.181M1092.41 465.19V410.203M1092.41 465.19H1145.29M1092.41 410.203H1145.29M1092.41 410.203V355.212M1145.29 410.203L1145.29 465.19M1145.29 410.203H1198.17M1145.29 410.203L1145.29 355.212M1145.29 465.19H1198.17M1198.17 465.19L1198.17 520.181M1198.17 465.19V410.203M1198.17 465.19H1251.06M1198.17 520.181H1251.06M1198.17 410.203H1251.06M1198.17 410.203V355.212M1251.06 410.203V465.19M1251.06 410.203V520.181M1251.06 410.203H1356.83M1251.06 410.203V355.212M1251.06 410.203V300.225M1251.06 465.19V520.181M1251.06 520.181H1356.83M1356.83 520.181V410.203M1356.83 520.181V465.19M1356.83 520.181H1382M1356.83 520.181V547.677M1356.83 410.203V465.19M1356.83 410.203H1382M1356.83 410.203V300.225M1356.83 410.203V355.212M1356.83 465.19H1382M1356.83 602.664H1382M1356.83 602.664V575.172M1356.83 575.172H1382M1356.83 575.172V547.677M1356.83 547.677H1382M-361 300.225H-335.481M-335.481 300.225V327.721M-335.481 300.225V190.247M-335.481 300.225V245.234M-335.481 300.225H-282.595M-335.481 300.225V355.212M-335.481 327.721H-361M-335.481 327.721V355.212M-335.481 355.212H-361M-335.481 355.212V382.708M-335.481 355.212H-309.038M-335.481 355.212H-282.595M-335.481 382.708H-361M-335.481 382.708H-309.038M-335.481 190.247H-361H-229.712M-335.481 190.247V217.739M-335.481 190.247H-309.038M-335.481 245.234H-282.595M-335.481 245.234V217.739M-335.481 245.234H-309.038M-282.595 245.234L-282.595 300.225M-282.595 245.234L-282.595 217.739M-282.595 245.234H-309.038M-282.595 245.234V190.247M-282.595 245.234H-229.712M-282.595 300.225H-229.712M-282.595 300.225L-282.595 355.212M-335.481 217.739H-309.038M-309.038 217.739V245.234M-309.038 217.739V190.247M-309.038 217.739H-282.595M-309.038 190.247H-282.595M-282.595 190.247L-282.595 217.739M-282.595 190.247H-229.712M-229.712 190.247V245.234M-229.712 190.247H-176.826M-229.712 190.247V-29.7125M-229.712 190.247V135.256M-229.712 245.234V300.225M-229.712 245.234H-176.826M-229.712 300.225V355.212M-229.712 300.225H-176.826M-309.038 382.708V355.212M-309.038 382.708H-282.595M-309.038 355.212H-282.595M-282.595 355.212L-282.595 382.708M-282.595 355.212H-229.712M-282.595 355.212H-256.155M-282.595 382.708H-256.155M-229.712 355.212H-256.155M-229.712 355.212V382.708M-229.712 355.212H-203.269M-229.712 355.212H-176.826M-256.155 382.708V355.212M-256.155 382.708H-229.712M-229.712 382.708H-203.269M-203.269 382.708V355.212M-203.269 382.708H-176.826M-203.269 355.212H-176.826M-176.826 355.212V382.708M-176.826 355.212L-176.826 300.225M-176.826 355.212H-123.943M-176.826 300.225H-123.943M-176.826 300.225V245.234M-123.943 300.225V355.212M-123.943 300.225V245.234M-123.943 300.225H-71.0567M-123.943 355.212V382.708M-123.943 355.212H-97.4998M-123.943 355.212H-71.0567M-176.826 245.234V190.247M-176.826 245.234H-123.943M-176.826 190.247H-123.943M-176.826 190.247V135.256M-123.943 190.247V245.234M-123.943 190.247V217.739M-123.943 190.247H-97.4998M-123.943 190.247V135.256M-123.943 190.247V162.752M-123.943 245.234H-71.0567M-123.943 245.234V217.739M-123.943 245.234H-97.4998M-71.0567 245.234V300.225M-71.0567 245.234V217.739M-71.0567 245.234H-97.4998M-71.0567 245.234H-44.6136M-71.0567 245.234V272.73M-71.0567 300.225V272.73M-71.0567 300.225H-44.6136M-71.0567 300.225V355.212M-71.0567 300.225V327.721M-123.943 217.739H-97.4998M-97.4998 217.739V245.234M-97.4998 217.739V190.247M-97.4998 217.739H-71.0567M-97.4998 190.247H-71.0567M-97.4998 190.247V162.752M-71.0567 190.247V217.739M-71.0567 190.247H-44.6136M-71.0567 190.247V162.752M-71.0567 217.739H-44.6136M-44.6136 217.739V245.234M-44.6136 217.739V190.247M-44.6136 217.739H-18.174M-44.6136 245.234H-18.174M-44.6136 245.234V272.73M-44.6136 190.247H-18.174M-44.6136 190.247V162.752M-18.174 190.247L-18.174 217.739M-18.174 190.247L-18.174 245.234M-18.174 190.247H34.7123M-18.174 190.247L-18.174 162.752M-18.174 190.247H8.26914M-18.174 217.739V245.234M-18.174 245.234V272.73M-18.174 245.234V300.225M-18.174 245.234H34.7123M-71.0567 272.73H-44.6136M-44.6136 272.73V300.225M-44.6136 272.73H-18.174M-44.6136 300.225H-18.174M-44.6136 300.225V327.721M-18.174 272.73V300.225M-18.174 300.225V327.721M-18.174 300.225H87.5985M-18.174 300.225H34.7123M-123.943 382.708H-97.4998M-97.4998 382.708V355.212M-97.4998 382.708H-71.0567M-97.4998 355.212H-71.0567M-71.0567 355.212V382.708M-71.0567 355.212V327.721M-71.0567 355.212H-44.6136M-71.0567 382.708H-44.6136M-71.0567 327.721H-44.6136M-44.6136 327.721V355.212M-44.6136 327.721H-18.174M-44.6136 355.212H-18.174M-44.6136 355.212V382.708M-18.174 327.721V355.212M-18.174 355.212V382.708M-44.6136 382.708H-18.174M87.5985 300.225V245.234M87.5985 300.225H34.7123M87.5985 300.225L87.5985 190.247M87.5985 300.225H193.367M34.7123 245.234L34.7123 300.225M34.7123 245.234V190.247M34.7123 245.234H87.5985M34.7123 190.247H87.5985M34.7123 190.247L34.7123 162.752M34.7123 190.247H8.26914M34.7123 190.247H61.1554M87.5985 190.247L87.5985 245.234M87.5985 190.247H193.367M87.5985 190.247L87.5985 162.752M87.5985 190.247H61.1554M87.5985 190.247L87.5985 135.256M87.5985 190.247L140.481 190.247M193.367 190.247V300.225M193.367 190.247V245.234M193.367 190.247H246.25M193.367 190.247V135.256M193.367 190.247L140.481 190.247M193.367 300.225V355.212M193.367 300.225H246.25M193.367 300.225V245.234M193.367 382.708H219.807M193.367 382.708V355.212M219.807 382.708V355.212M219.807 382.708H246.25M193.367 355.212H219.807M193.367 355.212H246.25M219.807 355.212H246.25M246.25 355.212V382.708M246.25 355.212V300.225M246.25 355.212V327.721M246.25 355.212H272.693M246.25 382.708H272.693M246.25 300.225V327.721M246.25 300.225H272.693M246.25 300.225V245.234M246.25 300.225H299.136M246.25 327.721H272.693M272.693 327.721L272.693 355.212M272.693 327.721V300.225M272.693 327.721H299.136M272.693 355.212H299.136M272.693 355.212L272.693 382.708M272.693 300.225H299.136M299.136 300.225L299.136 327.721M299.136 300.225L299.136 245.234M299.136 300.225L299.136 272.73M299.136 300.225H325.58M299.136 327.721V355.212M299.136 327.721H325.58M299.136 355.212V382.708M299.136 355.212H325.58M272.693 382.708H299.136M299.136 382.708H325.58M193.367 245.234H246.25M246.25 245.234V190.247M246.25 245.234H299.136M246.25 190.247H299.136M246.25 190.247V135.256M299.136 190.247V245.234M299.136 190.247V217.739M299.136 190.247H325.58M299.136 190.247V135.256M299.136 190.247H352.019M299.136 245.234V272.73M299.136 245.234H325.58M299.136 245.234V217.739M299.136 272.73H325.58M325.58 272.73L325.58 300.225M325.58 272.73V245.234M325.58 272.73H352.019M325.58 300.225H352.019M325.58 300.225L325.58 327.721M325.58 245.234H352.019M325.58 245.234V217.739M352.019 245.234V272.73M352.019 245.234V217.739M352.019 245.234H378.462M352.019 272.73V300.225M352.019 272.73H378.462M352.019 300.225H378.462M352.019 300.225V327.721M299.136 217.739H325.58M325.58 217.739V190.247M325.58 217.739H352.019M325.58 190.247H352.019M352.019 190.247V217.739M352.019 190.247H378.462M352.019 190.247L352.019 135.256M352.019 190.247H404.905M352.019 217.739H378.462M378.462 217.739L378.462 245.234M378.462 217.739V190.247M378.462 217.739H404.905M378.462 245.234H404.905M378.462 245.234L378.462 272.73M378.462 190.247H404.905M404.905 190.247V217.739M404.905 190.247H616.443M404.905 190.247V135.256M404.905 190.247V80.2692M404.905 190.247L510.674 190.247M404.905 217.739V245.234M404.905 245.234V272.73M378.462 272.73L378.462 300.225M378.462 272.73H404.905M378.462 300.225H404.905M378.462 300.225L378.462 327.721M404.905 272.73V300.225M404.905 300.225V327.721M325.58 382.708V355.212M325.58 382.708H352.019M325.58 355.212H352.019M325.58 355.212V327.721M352.019 355.212V382.708M352.019 355.212V327.721M352.019 355.212H378.462M352.019 382.708H378.462M325.58 327.721H352.019M352.019 327.721H378.462M378.462 327.721L378.462 355.212M378.462 327.721H404.905M378.462 355.212H404.905M378.462 355.212L378.462 382.708M404.905 327.721V355.212M404.905 355.212V382.708M378.462 382.708H404.905M616.443 190.247V245.234M616.443 190.247H669.33M616.443 190.247V135.256M616.443 190.247L563.561 190.247M616.443 355.212H669.33M616.443 355.212V300.225M669.33 355.212L669.33 410.203M669.33 355.212V300.225M669.33 355.212H722.212M669.33 410.203H722.212M616.443 300.225H669.33M616.443 300.225V245.234M669.33 300.225H722.212M669.33 300.225V245.234M722.212 300.225L722.212 355.212M722.212 300.225L722.212 245.234M722.212 300.225V190.247M722.212 300.225H827.981M722.212 300.225H775.099M722.212 355.212V410.203M722.212 355.212H775.099M722.212 410.203H775.098M616.443 245.234H669.33M669.33 245.234V190.247M669.33 245.234H722.212M669.33 190.247H722.212M669.33 190.247V135.256M722.212 190.247L722.212 245.234M722.212 190.247H827.981M722.212 190.247L722.212 135.256M722.212 190.247V80.2692M827.981 190.247L827.981 300.225M827.981 190.247H933.75M827.981 190.247L827.981 80.2691M827.981 190.247L827.981 135.256M827.981 190.247L880.867 190.247M827.981 300.225H775.099M827.981 300.225V355.212M827.981 300.225H933.75M775.099 355.212L775.098 410.203M775.099 355.212V300.225M775.099 355.212H827.981M933.75 300.225V190.247M933.75 300.225H1039.52M933.75 300.225V355.212M933.75 300.225H986.636M933.75 190.247H1039.52M933.75 190.247V162.752M933.75 190.247H907.311M933.75 190.247H960.193M1039.52 190.247V300.225M1039.52 190.247V245.234M1039.52 190.247H1092.41M1039.52 190.247V162.752M1039.52 190.247H1013.08M1039.52 190.247V135.256M1039.52 300.225H986.636M1039.52 300.225V355.212M1039.52 300.225H1092.41M1039.52 300.225V245.234M933.75 355.212H986.636M986.636 355.212L986.636 410.203M986.636 355.212V300.225M986.636 355.212H1039.52M1039.52 355.212H1092.41M1092.41 355.212V300.225M1092.41 355.212H1145.29M1092.41 300.225H1145.29M1092.41 300.225V245.234M1145.29 300.225L1145.29 355.212M1145.29 300.225L1145.29 245.234M1145.29 300.225L1145.29 190.247M1145.29 300.225H1251.06M1145.29 300.225H1198.17M1145.29 355.212H1198.17M1039.52 245.234H1092.41M1092.41 245.234V190.247M1092.41 245.234L1092.41 217.739M1092.41 245.234H1118.85M1092.41 245.234H1145.29M1092.41 190.247L1092.41 217.739M1092.41 190.247H1118.85M1092.41 190.247V135.256M1092.41 190.247L1092.41 162.752M1092.41 217.739H1118.85M1118.85 217.739L1118.85 245.234M1118.85 217.739V190.247M1118.85 217.739H1145.29M1118.85 245.234H1145.29M1118.85 190.247H1145.29M1118.85 190.247V162.752M1145.29 190.247V217.739M1145.29 190.247H1251.06M1145.29 190.247V162.752M1145.29 190.247H1171.73M1145.29 217.739V245.234M1251.06 190.247V300.225M1251.06 190.247V245.234M1251.06 190.247H1303.94M1251.06 190.247V162.752M1251.06 190.247H1224.62M1251.06 190.247H1277.5M1251.06 300.225H1198.17M1251.06 300.225V355.212M1251.06 300.225H1356.83M1251.06 300.225V245.234M1251.06 300.225H1303.94M1198.17 355.212V300.225M1198.17 355.212H1251.06M1356.83 300.225V272.73M1356.83 300.225H1330.39M1356.83 300.225H1382M1356.83 300.225V327.721M1251.06 245.234H1303.94M1303.94 245.234V300.225M1303.94 245.234V190.247M1303.94 245.234V217.739M1303.94 245.234H1330.39M1303.94 245.234V272.73M1303.94 300.225V272.73M1303.94 300.225H1330.39M1303.94 190.247V217.739M1303.94 190.247H1330.39M1303.94 190.247V162.752M1303.94 190.247H1277.5M1303.94 190.247V135.256M1303.94 190.247H1356.83M1303.94 217.739H1330.39M1330.39 217.739L1330.39 245.234M1330.39 217.739V190.247M1330.39 217.739H1356.83M1330.39 245.234H1356.83M1330.39 245.234L1330.39 272.73M1330.39 190.247H1356.83M1356.83 190.247V217.739M1356.83 190.247H1382M1356.83 190.247V135.256M1356.83 190.247V162.752M1356.83 217.739V245.234M1356.83 217.739H1382M1356.83 245.234V272.73M1356.83 245.234H1382M1303.94 272.73H1330.39M1330.39 272.73L1330.39 300.225M1330.39 272.73H1356.83M1356.83 272.73H1382M1356.83 355.212H1382M1356.83 355.212V327.721M1356.83 327.721H1382M-229.712 -29.7125H-361H-335.481M-229.712 -29.7125V-2.2171M-229.712 -29.7125H-203.269M-229.712 -29.7125V-84M-229.712 -29.7125H-282.595M-229.712 -29.7125H-176.826M-229.712 135.256H-176.826M-229.712 135.256V80.2692M-176.826 135.256V80.2692M-176.826 135.256L-176.826 107.761M-176.826 135.256H-150.383M-176.826 135.256H-123.943M-229.712 80.2692H-176.826M-229.712 80.2692V52.7737M-229.712 80.2692H-203.269M-176.826 80.2692L-176.826 107.761M-176.826 80.2692H-150.383M-176.826 80.2692L-176.826 52.7737M-176.826 80.2692H-203.269M-176.826 107.761H-150.383M-150.383 107.761V135.256M-150.383 107.761V80.2692M-150.383 107.761L-123.943 107.761M-150.383 135.256H-123.943M-150.383 80.2692H-123.943M-150.383 80.2692V52.7737M-123.943 80.2692V107.761M-123.943 80.2692V52.7737M-123.943 80.2692V-29.7125M-123.943 80.2692L-18.174 80.2691M-123.943 80.2692V135.256M-123.943 80.2692H-71.0567M-123.943 107.761V135.256M-123.943 135.256V162.752M-123.943 135.256H-97.4998M-123.943 135.256H-71.0567M-229.712 52.7737H-203.269M-229.712 52.7737V25.2783M-203.269 52.7737V80.2692M-203.269 52.7737V25.2783M-203.269 52.7737H-176.826M-229.712 25.2783H-203.269M-229.712 25.2783V-2.2171M-203.269 25.2783H-176.826M-203.269 25.2783V-2.2171M-176.826 25.2783V52.7737M-176.826 25.2783V-2.2171M-176.826 25.2783V-29.7125M-176.826 25.2783L-123.943 25.2783M-176.826 25.2783H-150.383M-176.826 52.7737H-150.383M-229.712 -2.2171H-203.269M-203.269 -2.2171V-29.7125M-203.269 -2.2171H-176.826M-203.269 -29.7125H-176.826M-176.826 -29.7125V-2.2171M-176.826 -29.7125H-123.943M-176.826 -29.7125V-84M-123.943 -29.7125V25.2783M-123.943 -29.7125H-18.174M-123.943 -29.7125V-84M-123.943 25.2783L-150.383 25.2783M-123.943 25.2783V52.7737M-150.383 52.7737V25.2783M-150.383 52.7737H-123.943M-18.174 -29.7125V80.2691M-18.174 -29.7125V25.2783M-18.174 -29.7125H34.7123M-18.174 -29.7125V-84M-18.174 -29.7125H87.5985M-18.174 80.2691L-71.0567 80.2692M-18.174 80.2691V135.256M-18.174 80.2691L34.7123 80.2692M-18.174 80.2691V25.2783M-123.943 162.752H-97.4998M-97.4998 162.752V135.256M-97.4998 162.752H-71.0567M-97.4998 135.256H-71.0567M-71.0567 135.256V162.752M-71.0567 135.256V80.2692M-71.0567 135.256H-18.174M-71.0567 135.256H-44.6136M-71.0567 162.752H-44.6136M-18.174 135.256H-44.6136M-18.174 135.256V162.752M-18.174 135.256H8.26914M-18.174 135.256H34.7123M-44.6136 162.752V135.256M-44.6136 162.752H-18.174M-18.174 162.752H8.26914M8.26914 162.752V190.247M8.26914 162.752V135.256M8.26914 162.752H34.7123M8.26914 135.256H34.7123M34.7123 135.256L34.7123 162.752M34.7123 135.256V80.2692M34.7123 135.256L34.7123 107.761M34.7123 135.256H61.1554M34.7123 162.752H61.1554M34.7123 80.2692L34.7123 107.761M34.7123 80.2692H61.1554M34.7123 80.2692V25.2783M34.7123 80.2692L34.7123 52.7737M34.7123 107.761H61.1554M61.1554 107.761L61.1554 135.256M61.1554 107.761V80.2692M61.1554 107.761L87.5985 107.761M61.1554 135.256H87.5985M61.1554 135.256L61.1554 162.752M61.1554 80.2692H87.5985M61.1554 80.2692V52.7737M87.5985 80.2692V107.761M87.5985 80.2692V52.7737M87.5985 80.2692H114.038M87.5985 80.2692V135.256M87.5985 80.2692H140.481M87.5985 107.761V135.256M87.5985 135.256V162.752M87.5985 135.256H140.481M61.1554 162.752L61.1554 190.247M61.1554 162.752H87.5985M-18.174 25.2783H34.7123M34.7123 25.2783V-29.7125M34.7123 25.2783L34.7123 -2.2171M34.7123 25.2783H61.1554M34.7123 25.2783L34.7123 52.7737M34.7123 -29.7125L34.7123 -2.2171M34.7123 -29.7125H61.1554M34.7123 -2.2171H61.1554M61.1554 -2.2171L61.1554 25.2783M61.1554 -2.2171V-29.7125M61.1554 -2.2171H87.5985M61.1554 25.2783H87.5985M61.1554 25.2783L61.1554 52.7737M61.1554 -29.7125H87.5985M87.5985 -29.7125V-2.2171M87.5985 -29.7125H114.038M87.5985 -29.7125V-84M87.5985 -29.7125H140.481M87.5985 -2.2171V25.2783M87.5985 -2.2171H114.038M87.5985 25.2783V52.7737M87.5985 25.2783H114.038M34.7123 52.7737H61.1554M61.1554 52.7737H87.5985M87.5985 52.7737H114.038M114.038 52.7737V80.2692M114.038 52.7737V25.2783M114.038 52.7737H140.481M114.038 80.2692H140.481M114.038 25.2783H140.481M114.038 25.2783V-2.2171M140.481 25.2783V52.7737M140.481 25.2783V-2.2171M140.481 25.2783V-29.7125M140.481 25.2783L193.367 25.2783M140.481 25.2783H166.924M140.481 52.7737V80.2692M140.481 52.7737H166.924M140.481 80.2692H166.924M140.481 80.2692V135.256M140.481 80.2692H193.367M114.038 -2.2171V-29.7125M114.038 -2.2171H140.481M114.038 -29.7125H140.481M140.481 -29.7125V-2.2171M140.481 -29.7125H193.367M140.481 -29.7125V-84M193.367 -29.7125V25.2783M193.367 -29.7125H246.25M193.367 -29.7125V-84M193.367 25.2783L166.924 25.2783M193.367 25.2783V52.7737M193.367 25.2783L219.807 25.2783M193.367 25.2783L246.25 25.2783M166.924 52.7737V80.2692M166.924 52.7737V25.2783M166.924 52.7737H193.367M166.924 80.2692H193.367M193.367 52.7737V80.2692M193.367 52.7737H219.807M193.367 80.2692V135.256M193.367 80.2692V107.761M193.367 80.2692H219.807M140.481 135.256V190.247M140.481 135.256H193.367M193.367 135.256H246.25M193.367 135.256V107.761M193.367 135.256H219.807M246.25 135.256V107.761M246.25 135.256H219.807M246.25 135.256V80.2692M246.25 135.256H299.136M193.367 107.761H219.807M219.807 107.761V135.256M219.807 107.761V80.2692M219.807 107.761L246.25 107.761M219.807 80.2692H246.25M219.807 80.2692V52.7737M246.25 80.2692V107.761M246.25 80.2692H299.136M246.25 80.2692V52.7737M246.25 80.2692H272.693M299.136 80.2692V135.256M299.136 80.2692V52.7737M299.136 80.2692H272.693M299.136 80.2692H325.58M299.136 80.2692H352.019M299.136 135.256H352.019M219.807 52.7737V25.2783M219.807 52.7737H246.25M219.807 25.2783H246.25M246.25 25.2783V52.7737M246.25 25.2783V-29.7125M246.25 25.2783L299.136 25.2783M246.25 25.2783H272.693M246.25 52.7737H272.693M246.25 -29.7125H299.136M246.25 -29.7125V-84M299.136 -29.7125V25.2783M299.136 -29.7125V-2.2171M299.136 -29.7125H325.58M299.136 -29.7125V-84V-57.2043M299.136 -29.7125V-57.2043M299.136 25.2783L272.693 25.2783M299.136 25.2783V52.7737M299.136 25.2783L325.58 25.2783M299.136 25.2783V-2.2171M272.693 52.7737L272.693 80.2692M272.693 52.7737V25.2783M272.693 52.7737H299.136M299.136 52.7737H325.58M325.58 52.7737L325.58 80.2692M325.58 52.7737V25.2783M325.58 52.7737H352.019M325.58 80.2692H352.019M325.58 25.2783H352.019M325.58 25.2783V-2.2171M352.019 25.2783V52.7737M352.019 25.2783V-2.2171M352.019 25.2783H378.462M352.019 25.2783V80.2692M352.019 25.2783H404.905M352.019 52.7737V80.2692M352.019 80.2692H404.905M352.019 80.2692L352.019 135.256M299.136 -2.2171H325.58M325.58 -2.2171V-29.7125M325.58 -2.2171H352.019M325.58 -29.7125H352.019M325.58 -29.7125V-57.2043M352.019 -29.7125V-2.2171M352.019 -29.7125H378.462M352.019 -29.7125V-57.2043M352.019 -2.2171H378.462M378.462 -2.2171L378.462 25.2783M378.462 -2.2171V-29.7125M378.462 -2.2171H404.905M378.462 25.2783H404.905M378.462 -29.7125H404.905M378.462 -29.7125V-57.2043M404.905 -29.7125V-2.2171M404.905 -29.7125V80.2692M404.905 -29.7125H510.674M404.905 -29.7125V-57.2043M404.905 -29.7125V-84V-57.2043M404.905 -2.2171V25.2783M404.905 25.2783V80.2692M404.905 80.2692V135.256M404.905 80.2692H510.674M352.019 135.256H404.905M510.674 80.2692L510.674 190.247M510.674 80.2692V-29.7125M510.674 80.2692L616.443 80.2691M510.674 80.2692L510.674 135.256M510.674 80.2692H563.561M510.674 190.247V135.256M510.674 190.247H563.561M510.674 -29.7125H616.443M510.674 -29.7125L510.674 -84M616.443 -29.7125V80.2691M616.443 -29.7125H722.212M616.443 -29.7125V-84M616.443 80.2691L563.561 80.2692M616.443 80.2691V135.256M616.443 80.2691L669.33 80.2692M616.443 80.2691L722.212 80.2692M510.674 135.256H563.561M563.561 135.256V190.247M563.561 135.256V80.2692M563.561 135.256H616.443M616.443 135.256H669.33M669.33 135.256V80.2692M669.33 135.256H722.212M669.33 80.2692H722.212M722.212 80.2692L722.212 135.256M722.212 80.2692L722.212 -29.7125M722.212 80.2692L827.981 80.2691M722.212 -29.7125H827.981M722.212 -29.7125V-84M722.212 -29.7125H775.098M827.981 -29.7125L827.981 80.2691M827.981 -29.7125L827.981 25.2783M827.981 -29.7125H880.867M827.981 -29.7125L827.981 -84M827.981 -29.7125H775.098M827.981 -29.7125H933.75M827.981 80.2691V135.256M827.981 80.2691L880.867 80.2692M827.981 80.2691V25.2783M827.981 135.256H880.867M880.867 135.256V190.247M880.867 135.256V80.2692M880.867 135.256V107.761M880.867 135.256H907.311M880.867 135.256V162.752M880.867 190.247V162.752M880.867 190.247L907.311 190.247M880.867 80.2692V107.761M880.867 80.2692H907.311M880.867 80.2692V25.2783M880.867 80.2692H933.75M880.867 107.761H907.311M907.311 107.761V135.256M907.311 107.761V80.2692M907.311 107.761L933.75 107.761M907.311 135.256H933.75M907.311 135.256V162.752M907.311 80.2692H933.75M933.75 80.2692L933.75 107.761M933.75 80.2692L933.75 25.2783M933.75 80.2692L933.75 52.7737M933.75 80.2692H960.193M933.75 107.761V135.256M933.75 107.761L960.193 107.761M933.75 135.256V162.752M933.75 135.256H960.193M880.867 162.752H907.311M907.311 162.752V190.247M907.311 162.752H933.75M933.75 162.752H960.193M827.981 25.2783H880.867M880.867 25.2783V-29.7125M880.867 25.2783L933.75 25.2783M880.867 -29.7125H933.75M933.75 -29.7125V25.2783M933.75 -29.7125H986.636M933.75 -29.7125V-84M933.75 -29.7125H1039.52M933.75 25.2783V52.7737M933.75 25.2783L960.193 25.2783M933.75 25.2783L986.636 25.2783M933.75 52.7737H960.193M960.193 52.7737V80.2692M960.193 52.7737V25.2783M960.193 52.7737H986.636M960.193 80.2692H986.636M960.193 80.2692V107.761M960.193 25.2783H986.636M986.636 25.2783V52.7737M986.636 25.2783L986.636 -29.7125M986.636 25.2783L1039.52 25.2783M986.636 25.2783V80.2692M986.636 52.7737V80.2692M986.636 80.2692H1039.52M986.636 80.2692V107.761M986.636 80.2692H1013.08M986.636 -29.7125H1039.52M1039.52 -29.7125L1039.52 25.2783M1039.52 -29.7125H1092.41M1039.52 -29.7125L1039.52 -84M1039.52 -29.7125H1145.29M1039.52 25.2783V80.2692M1039.52 25.2783L1092.41 25.2783M1039.52 80.2692H1013.08M1039.52 80.2692V107.761M1039.52 80.2692V135.256M1039.52 80.2692H1092.41M960.193 162.752V190.247M960.193 162.752V135.256M960.193 162.752H986.636M960.193 190.247H986.636M960.193 135.256H986.636M960.193 135.256V107.761M986.636 135.256V162.752M986.636 135.256V107.761M986.636 135.256H1013.08M986.636 162.752V190.247M986.636 162.752H1013.08M986.636 190.247H1013.08M960.193 107.761L986.636 107.761M986.636 107.761L1013.08 107.761M1013.08 107.761V135.256M1013.08 107.761V80.2692M1013.08 107.761L1039.52 107.761M1013.08 135.256H1039.52M1013.08 135.256V162.752M1039.52 107.761V135.256M1039.52 135.256V162.752M1039.52 135.256H1092.41M1013.08 162.752V190.247M1013.08 162.752H1039.52M1092.41 135.256V80.2692M1092.41 135.256L1092.41 107.761M1092.41 135.256H1118.85M1092.41 135.256L1092.41 162.752M1092.41 80.2692L1092.41 107.761M1092.41 80.2692H1118.85M1092.41 80.2692V25.2783M1092.41 80.2692L1092.41 52.7737M1092.41 107.761H1118.85M1118.85 107.761L1118.85 135.256M1118.85 107.761V80.2692M1118.85 107.761L1145.29 107.761M1118.85 135.256H1145.29M1118.85 135.256L1118.85 162.752M1118.85 80.2692H1145.29M1118.85 80.2692V52.7737M1145.29 80.2692V107.761M1145.29 80.2692V52.7737M1145.29 80.2692H1171.73M1145.29 107.761V135.256M1145.29 107.761L1171.73 107.761M1145.29 135.256V162.752M1145.29 135.256H1171.73M1092.41 162.752H1118.85M1118.85 162.752H1145.29M1145.29 162.752H1171.73M1092.41 25.2783V-29.7125M1092.41 25.2783L1145.29 25.2783M1092.41 25.2783L1092.41 52.7737M1092.41 25.2783H1118.85M1092.41 -29.7125H1145.29M1145.29 -29.7125L1145.29 25.2783M1145.29 -29.7125H1198.17M1145.29 -29.7125L1145.29 -84M1145.29 25.2783L1118.85 25.2783M1145.29 25.2783V52.7737M1145.29 25.2783L1171.73 25.2783M1145.29 25.2783L1198.17 25.2783M1092.41 52.7737H1118.85M1118.85 52.7737V25.2783M1118.85 52.7737H1145.29M1145.29 52.7737H1171.73M1171.73 52.7737L1171.73 80.2692M1171.73 52.7737V25.2783M1171.73 52.7737H1198.17M1171.73 80.2692H1198.17M1171.73 80.2692L1171.73 107.761M1171.73 25.2783H1198.17M1198.17 25.2783V52.7737M1198.17 25.2783L1198.17 -29.7125M1198.17 25.2783L1251.06 25.2783M1198.17 25.2783H1224.62M1198.17 52.7737V80.2692M1198.17 52.7737H1224.62M1198.17 80.2692H1224.62M1198.17 80.2692V107.761M1198.17 -29.7125H1251.06M1198.17 -29.7125L1198.17 -84M1251.06 -29.7125V25.2783M1251.06 -29.7125V-2.2171M1251.06 -29.7125H1277.5M1251.06 -29.7125V-84M1251.06 -29.7125H1356.83M1251.06 25.2783L1224.62 25.2783M1251.06 25.2783V52.7737M1251.06 25.2783L1277.5 25.2783M1251.06 25.2783V-2.2171M1224.62 52.7737V80.2692M1224.62 52.7737V25.2783M1224.62 52.7737H1251.06M1224.62 80.2692H1251.06M1224.62 80.2692V107.761M1251.06 52.7737V80.2692M1251.06 52.7737H1277.5M1251.06 80.2692V107.761M1251.06 80.2692H1277.5M1171.73 162.752L1171.73 190.247M1171.73 162.752V135.256M1171.73 162.752H1198.17M1171.73 190.247H1198.17M1171.73 135.256H1198.17M1171.73 135.256V107.761M1198.17 135.256V162.752M1198.17 135.256V107.761M1198.17 135.256H1224.62M1198.17 162.752V190.247M1198.17 162.752H1224.62M1198.17 190.247H1224.62M1171.73 107.761L1198.17 107.761M1198.17 107.761L1224.62 107.761M1224.62 107.761V135.256M1224.62 107.761L1251.06 107.761M1224.62 135.256H1251.06M1224.62 135.256V162.752M1251.06 107.761V135.256M1251.06 107.761L1277.5 107.761M1251.06 135.256V162.752M1251.06 135.256H1277.5M1224.62 162.752V190.247M1224.62 162.752H1251.06M1251.06 162.752H1277.5M1277.5 162.752V190.247M1277.5 162.752V135.256M1277.5 162.752H1303.94M1277.5 135.256H1303.94M1277.5 135.256V107.761M1303.94 135.256V162.752M1303.94 135.256V107.761M1303.94 135.256H1330.39M1303.94 135.256H1356.83M1277.5 107.761V80.2692M1277.5 107.761L1303.94 107.761M1277.5 80.2692H1303.94M1277.5 80.2692V52.7737M1303.94 80.2692V107.761M1303.94 80.2692H1330.39M1303.94 80.2692V52.7737M1303.94 107.761L1330.39 107.761M1330.39 107.761L1330.39 135.256M1330.39 107.761V80.2692M1330.39 107.761L1356.83 107.761M1330.39 135.256H1356.83M1330.39 80.2692H1356.83M1330.39 80.2692V52.7737M1356.83 80.2692V107.761M1356.83 80.2692V52.7737M1356.83 80.2692H1382M1356.83 107.761V135.256M1356.83 107.761L1382 107.761M1356.83 135.256V162.752M1356.83 135.256H1382M1277.5 52.7737V25.2783M1277.5 52.7737H1303.94M1277.5 25.2783H1303.94M1277.5 25.2783V-2.2171M1303.94 25.2783V52.7737M1303.94 25.2783V-2.2171M1303.94 25.2783H1330.39M1303.94 52.7737H1330.39M1251.06 -2.2171H1277.5M1277.5 -2.2171V-29.7125M1277.5 -2.2171H1303.94M1277.5 -29.7125H1303.94M1303.94 -29.7125V-2.2171M1303.94 -29.7125H1330.39M1303.94 -2.2171H1330.39M1330.39 -2.2171L1330.39 25.2783M1330.39 -2.2171V-29.7125M1330.39 -2.2171H1356.83M1330.39 25.2783H1356.83M1330.39 25.2783L1330.39 52.7737M1330.39 -29.7125H1356.83M1356.83 -29.7125V-2.2171M1356.83 -29.7125H1382M1356.83 -29.7125V-84M1356.83 -2.2171V25.2783M1356.83 -2.2171H1382M1356.83 25.2783V52.7737M1356.83 25.2783H1382M1330.39 52.7737H1356.83M1356.83 52.7737H1382M1356.83 162.752H1382M-335.481 -84V-29.7125M-335.481 -29.7125H-282.595M-282.595 -84V-29.7125M299.136 -57.2043H325.58M325.58 -57.2043L325.58 -84M325.58 -57.2043H352.019M352.019 -84V-57.2043M352.019 -57.2043H378.462M378.462 -57.2043L378.462 -84M378.462 -57.2043H404.905M775.098 -84V-29.7125" stroke="#38384D" stroke-width="2" stroke-linecap="round" stroke-linejoin="round"/>
</g>
<defs>
<clipPath id="clip0_4_897">
<rect width="1021" height="600" fill="white"/>
</clipPath>
</defs>
</svg>
