<svg width="1021" height="600" viewBox="0 0 1021 600" fill="none" xmlns="http://www.w3.org/2000/svg">
<g clip-path="url(#clip0_198_14312)">
<path d="M1064 330L975.227 376.061M975.227 376.061L850.209 440.927M975.227 376.061L1102.66 441.061M975.227 376.061L850.064 312.221M850.209 440.927L723.585 506.627M850.209 440.927L977.645 505.927M850.209 440.927L725.046 377.087M723.585 506.627L598.568 571.493M723.585 506.627L851.021 571.627M723.585 506.627L598.423 442.786M598.568 571.493L470.13 638.133M598.568 571.493L726.004 636.493M598.568 571.493L473.405 507.652M470.13 638.133L345.113 702.999M470.13 638.133L597.567 703.133M470.13 638.133L344.968 574.293M345.113 702.999L295 729M345.113 702.999L472.549 767.999M345.113 702.999L219.951 639.159M1203 389L1102.66 441.061M1102.66 441.061L977.645 505.927M1102.66 441.061L1217.59 499.683M977.645 505.927L851.021 571.627M977.645 505.927L1175.39 606.791M851.021 571.627L726.004 636.493M851.021 571.627L927.593 610.683M726.004 636.493L597.567 703.133M726.004 636.493L885.395 717.791M597.567 703.133L472.549 767.999M597.567 703.133L700.593 755.683M472.549 767.999L434 788M472.549 767.999L658.395 862.791M943 264L850.064 312.221M850.064 312.221L725.046 377.087M850.064 312.221L716.686 244.19M725.046 377.087L598.423 442.786M725.046 377.087L590.7 308.562M598.423 442.786L473.405 507.652M598.423 442.786L463.096 373.762M473.405 507.652L344.968 574.293M473.405 507.652L337.111 438.134M344.968 574.293L219.951 639.159M344.968 574.293L207.678 504.267M219.951 639.159L174 663M219.951 639.159L81.6929 568.639M948 126L850.45 175.843M850.45 175.843L716.686 244.19M850.45 175.843L1295.39 402.791M850.45 175.843L724.419 111.56M716.686 244.19L590.7 308.562M716.686 244.19L590.655 179.907M590.7 308.562L463.096 373.762M590.7 308.562L464.669 244.279M463.096 373.762L337.111 438.134M463.096 373.762L337.065 309.478M337.111 438.134L207.678 504.267M337.111 438.134L211.079 373.85M207.678 504.267L81.6929 568.639M207.678 504.267L81.6473 439.984M81.6929 568.639L-148 686M81.6929 568.639L-44.3383 504.356M886 29.0004L850.405 47.1878M850.405 47.1878L724.419 111.56M850.405 47.1878L1337.59 295.683M850.405 47.1878L597.142 -81.9916M724.419 111.56L590.655 179.907M724.419 111.56L597.187 46.664M590.655 179.907L464.669 244.279M590.655 179.907L463.423 115.011M464.669 244.279L337.065 309.478M464.669 244.279L337.437 179.383M337.065 309.478L211.079 373.85M337.065 309.478L209.833 244.582M211.079 373.85L81.6473 439.984M211.079 373.85L83.8472 308.954M81.6473 439.984L-44.3383 504.356M81.6473 439.984L-45.5849 375.088M-44.3383 504.356L-210 589M-44.3383 504.356L-171.57 439.46M712 -11.9996L597.187 46.664M597.187 46.664L463.423 115.011M597.187 46.664L471.156 -17.6194M463.423 115.011L337.437 179.383M463.423 115.011L337.392 50.7274M337.437 179.383L209.833 244.582M337.437 179.383L211.406 115.1M209.833 244.582L83.8472 308.954M209.833 244.582L83.8017 180.299M83.8472 308.954L-45.5849 375.088M83.8472 308.954L-42.184 244.671M-45.5849 375.088L-171.57 439.46M-45.5849 375.088L-171.616 310.804M-171.57 439.46L-384 548M-171.57 439.46L-297.602 375.176M650 -109L597.142 -81.9916M597.142 -81.9916L471.156 -17.6194M597.142 -81.9916L241.198 -263.544M471.156 -17.6194L337.392 50.7274M471.156 -17.6194L199 -156.435M337.392 50.7274L211.406 115.1M337.392 50.7274L121.199 -59.5439M211.406 115.1L83.8017 180.299M211.406 115.1L78.9999 47.5648M83.8017 180.299L-42.184 244.671M83.8017 180.299L-168.802 51.4561M-42.184 244.671L-171.616 310.804M-42.184 244.671L-211 158.565M-171.616 310.804L-297.602 375.176M-171.616 310.804L-395.802 196.456M-297.602 375.176L-446 451M-297.602 375.176L-438 303.565M1194 330.545L1105.23 376.605M1105.23 376.605L980.209 441.472M1105.23 376.605L1232.66 441.605M1105.23 376.605L980.064 312.765M980.209 441.472L853.585 507.171M980.209 441.472L1107.64 506.472M980.209 441.472L855.046 377.631M853.585 507.171L728.568 572.037M853.585 507.171L981.021 572.171M853.585 507.171L728.423 443.331M728.568 572.037L600.13 638.677M728.568 572.037L856.004 637.037M728.568 572.037L603.405 508.197M600.13 638.677L475.113 703.543M600.13 638.677L727.567 703.677M600.13 638.677L474.968 574.837M475.113 703.543L425 729.545M475.113 703.543L602.549 768.543M475.113 703.543L349.951 639.703M1333 389.545L1232.66 441.605M1232.66 441.605L1107.64 506.472M1232.66 441.605L1347.59 500.227M1107.64 506.472L981.021 572.171M1107.64 506.472L1305.39 607.336M981.021 572.171L856.004 637.037M981.021 572.171L1057.59 611.227M856.004 637.037L727.567 703.677M856.004 637.037L1015.39 718.336M727.567 703.677L602.549 768.543M727.567 703.677L830.593 756.227M602.549 768.543L564 788.545M602.549 768.543L788.395 863.336M1073 264.545L980.064 312.765M980.064 312.765L855.046 377.631M980.064 312.765L846.686 244.734M855.046 377.631L728.423 443.331M855.046 377.631L720.7 309.107M728.423 443.331L603.405 508.197M728.423 443.331L593.096 374.306M603.405 508.197L474.968 574.837M603.405 508.197L467.111 438.678M474.968 574.837L349.951 639.703M474.968 574.837L337.678 504.811M349.951 639.703L304 663.545M349.951 639.703L211.693 569.184M1078 126.545L980.45 176.388M980.45 176.388L846.686 244.734M980.45 176.388L1425.39 403.336M980.45 176.388L854.419 112.104M846.686 244.734L720.7 309.107M846.686 244.734L720.655 180.451M720.7 309.107L593.096 374.306M720.7 309.107L594.669 244.823M593.096 374.306L467.111 438.678M593.096 374.306L467.065 310.023M467.111 438.678L337.678 504.811M467.111 438.678L341.079 374.395M337.678 504.811L211.693 569.184M337.678 504.811L211.647 440.528M211.693 569.184L-17.9999 686.545M211.693 569.184L85.6617 504.9M1016 29.5448L980.405 47.7321M980.405 47.7321L854.419 112.104M980.405 47.7321L1467.59 296.227M980.405 47.7321L727.142 -81.4472M854.419 112.104L720.655 180.451M854.419 112.104L727.187 47.2084M720.655 180.451L594.669 244.823M720.655 180.451L593.423 115.555M594.669 244.823L467.065 310.023M594.669 244.823L467.437 179.927M467.065 310.023L341.079 374.395M467.065 310.023L339.833 245.127M341.079 374.395L211.647 440.528M341.079 374.395L213.847 309.499M211.647 440.528L85.6617 504.9M211.647 440.528L84.4152 375.632M85.6617 504.9L-79.9999 589.545M85.6617 504.9L-41.5705 440.004M842 -11.4552L727.187 47.2084M727.187 47.2084L593.423 115.555M727.187 47.2084L601.156 -17.075M593.423 115.555L467.437 179.927M593.423 115.555L467.392 51.2717M467.437 179.927L339.833 245.127M467.437 179.927L341.406 115.644M339.833 245.127L213.847 309.499M339.833 245.127L213.802 180.843M213.847 309.499L84.4152 375.632M213.847 309.499L87.816 245.215M84.4152 375.632L-41.5705 440.004M84.4152 375.632L-41.616 311.349M-41.5705 440.004L-254 548.545M-41.5705 440.004L-167.602 375.721M780 -108.455L727.142 -81.4472M727.142 -81.4472L601.156 -17.075M727.142 -81.4472L371.198 -263M601.156 -17.075L467.392 51.2717M601.156 -17.075L329 -155.891M467.392 51.2717L341.406 115.644M467.392 51.2717L251.199 -58.9996M341.406 115.644L213.802 180.843M341.406 115.644L209 48.1092M213.802 180.843L87.816 245.215M213.802 180.843L-38.8018 52.0004M87.816 245.215L-41.616 311.349M87.816 245.215L-81.0001 159.109M-41.616 311.349L-167.602 375.721M-41.616 311.349L-265.802 197M-167.602 375.721L-316 451.545M-167.602 375.721L-308 304.109" stroke="url(#paint0_radial_198_14312)" stroke-width="1.5"/>
</g>
<defs>
<radialGradient id="paint0_radial_198_14312" cx="0" cy="0" r="1" gradientUnits="userSpaceOnUse" gradientTransform="translate(521 347) rotate(6.23286) scale(589.484 314.119)">
<stop stop-color="#3F3F6A"/>
<stop offset="1" stop-color="#1A1A2C"/>
</radialGradient>
<clipPath id="clip0_198_14312">
<rect width="1021" height="600" fill="white"/>
</clipPath>
</defs>
</svg>
