<svg width="1021" height="600" viewBox="0 0 1021 600" fill="none" xmlns="http://www.w3.org/2000/svg">
<g clip-path="url(#clip0_198_13896)">
<mask id="path-1-inside-1_198_13896" fill="white">
<path d="M483.153 77.1631L633.705 55.3287L638.73 54.8474L643.74 54.8571L648.706 55.3269L653.604 56.2478L658.404 57.5982L663.078 59.3517L667.594 61.5005L670.51 63.1367L673.334 64.9369L677.384 67.9166L681.184 71.2231L684.706 74.8343L687.922 78.7373L690.804 82.9056L693.327 87.3215L695.456 91.9686L696.643 95.1887L697.638 98.4966L737.86 249.049L738.95 254.074L739.54 259.031L739.644 263.894L739.277 268.636L738.456 273.239L737.197 277.669L735.517 281.9L734.174 284.602L732.651 287.198L730.053 290.871L727.09 294.265L723.772 297.345L720.123 300.095L716.156 302.475L711.889 304.474L707.337 306.054L704.149 306.867L700.849 307.476L549.869 330.184L544.8 330.691L539.742 330.712L534.729 330.255L529.784 329.347L524.94 328L520.224 326.241L515.662 324.087L512.722 322.441L509.874 320.632L505.788 317.627L501.961 314.29L498.41 310.648L495.175 306.708L492.276 302.498L489.745 298.034L487.61 293.334L486.419 290.084L485.43 286.739L445.632 135.318L444.563 130.289L444 125.333L443.928 120.472L444.327 115.734L445.181 111.143L446.475 106.729L448.193 102.509L449.56 99.8204L451.108 97.2384L453.741 93.5811L456.739 90.2128L460.088 87.1583L463.77 84.4344L467.767 82.0797L472.062 80.1069L476.636 78.5501C476.636 78.5501 479.836 77.7572 483.153 77.1631Z"/>
<path d="M452.841 54.884L639.352 27.9333L645.572 27.347L651.773 27.3554L657.925 27.9459L663.986 29.0855L669.927 30.7571L675.711 32.9314L681.304 35.5921L684.912 37.6203L688.407 39.8433L693.417 43.5348L698.122 47.6298L702.482 52.0997L706.467 56.9276L710.036 62.0848L713.158 67.5542L715.798 73.3065L717.268 77.2914L718.502 81.3855L768.387 267.828L769.745 274.054L770.479 280.195L770.609 286.223L770.159 292.104L769.148 297.806L767.594 303.296L765.517 308.548L763.855 311.898L761.972 315.113L758.756 319.671L755.088 323.88L750.984 327.705L746.465 331.11L741.554 334.071L736.269 336.547L730.627 338.517L726.68 339.524L722.591 340.282L535.426 368.567L529.139 369.206L522.868 369.232L516.645 368.668L510.51 367.546L504.504 365.881L498.651 363.701L492.994 361.03L489.347 358.986L485.809 356.744L480.743 353.018L475.995 348.881L471.593 344.356L467.576 339.471L463.982 334.246L460.847 328.708L458.203 322.88L456.728 318.842L455.502 314.693L406.266 126.917L404.943 120.684L404.251 114.545L404.165 108.522L404.667 102.651L405.729 96.9613L407.341 91.4879L409.471 86.2627L411.172 82.9323L413.094 79.7329L416.366 75.2095L420.085 71.0366L424.241 67.2519L428.806 63.8826L433.765 60.9629L439.092 58.5244L444.766 56.6019C444.766 56.6019 448.734 55.6186 452.841 54.884Z"/>
<path d="M422.585 32.6443L644.983 0.630188L652.393 -0.0690002L659.782 -0.0523376L667.11 0.651581L674.331 2.01498L681.409 4.00858L688.302 6.60379L694.966 9.77277L699.261 12.1894L703.428 14.8394L709.401 19.2375L715.007 24.1132L720.201 29.4428L724.95 35.1919L729.2 41.3387L732.925 47.8521L736.069 54.7061L737.827 59.4507L739.298 64.3268L798.854 286.568L800.474 293.993L801.356 301.321L801.515 308.513L800.984 315.528L799.783 322.33L797.934 328.885L795.464 335.147L793.483 339.145L791.241 342.988L787.411 348.431L783.041 353.449L778.15 358.014L772.769 362.084L766.916 365.62L760.617 368.585L753.89 370.932L749.186 372.14L744.308 373.047L520.985 406.964L513.475 407.73L505.984 407.768L498.555 407.099L491.231 405.759L484.052 403.779L477.068 401.177L470.311 397.989L465.954 395.552L461.738 392.875L455.689 388.428L450.018 383.487L444.762 378.088L439.971 372.253L435.682 366.014L431.939 359.396L428.784 352.437L427.027 347.616L425.563 342.658L366.933 118.519L365.361 111.09L364.538 103.765L364.443 96.5792L365.044 89.5789L366.324 82.7938L368.25 76.27L370.798 70.039L372.833 66.067L375.124 62.2509L379.034 56.8571L383.485 51.8867L388.447 47.3719L393.897 43.3615L399.814 39.8819L406.173 36.9775L412.946 34.685C412.946 34.685 417.683 33.5158 422.585 32.6443Z"/>
<path d="M392.376 10.4411L650.594 -26.5886L659.194 -27.3963L667.767 -27.3707L676.266 -26.5526L684.642 -24.9689L692.856 -22.6533L700.85 -19.6401L708.581 -15.962L713.568 -13.1577L718.397 -10.0791L725.329 -4.97781L731.83 0.679138L737.861 6.85889L743.365 13.5308L748.305 20.6612L752.623 28.2161L756.276 36.1667L758.316 41.6717L760.025 47.3296L829.256 305.27L831.143 313.893L832.168 322.404L832.362 330.755L831.75 338.904L830.361 346.81L828.221 354.425L825.358 361.702L823.062 366.347L820.465 370.813L816.021 377.135L810.955 382.977L805.283 388.285L799.033 393.015L792.24 397.13L784.929 400.575L777.124 403.311L771.663 404.717L766.001 405.777L506.533 445.371L497.801 446.27L489.093 446.313L480.455 445.546L471.941 443.992L463.595 441.691L455.471 438.674L447.618 434.968L442.555 432.137L437.648 429.023L430.619 423.854L424.021 418.111L417.915 411.833L412.347 405.051L407.362 397.794L403.015 390.101L399.35 382.005L397.309 376.397L395.613 370.638L327.629 110.134L325.812 101.503L324.863 92.9913L324.756 84.6522L325.464 76.5174L326.953 68.6425L329.199 61.0676L332.172 53.8293L334.537 49.2207L337.208 44.7908L341.756 38.5309L346.93 32.7602L352.7 27.5239L359.038 22.8674L365.918 18.8357L373.306 15.4664L381.178 12.8082C381.178 12.8082 386.684 11.4531 392.376 10.4411Z"/>
<path d="M362.223 -11.7229L656.189 -53.7238L665.971 -54.6342L675.723 -54.6032L685.39 -53.6657L694.92 -51.8618L704.262 -49.2227L713.355 -45.7957L722.149 -41.6078L727.823 -38.415L733.318 -34.9173L741.199 -29.1113L748.597 -22.673L755.459 -15.6423L761.725 -8.05786L767.342 0.0542603L772.256 8.64523L776.417 17.6881L778.739 23.9492L780.685 30.3847L859.596 323.929L861.75 333.75L862.922 343.445L863.148 352.954L862.456 362.237L860.881 371.243L858.455 379.916L855.2 388.212L852.593 393.504L849.641 398.593L844.589 405.798L838.82 412.454L832.371 418.505L825.263 423.903L817.533 428.592L809.211 432.526L800.328 435.646L794.11 437.254L787.67 438.466L492.083 483.792L482.129 484.818L472.196 484.878L462.352 484.007L452.642 482.244L443.127 479.622L433.867 476.185L424.911 471.967L419.141 468.738L413.548 465.191L405.535 459.3L398.02 452.753L391.059 445.597L384.712 437.861L379.031 429.59L374.076 420.818L369.904 411.585L367.585 405.193L365.651 398.625L288.361 101.752L286.296 91.9243L285.223 82.234L285.11 72.7313L285.923 63.4716L287.63 54.5053L290.195 45.8792L293.586 37.6438L296.29 32.3928L299.336 27.3542L304.523 20.2281L310.424 13.6607L317.006 7.70224L324.23 2.40463L332.072 -2.18335L340.493 -6.0141L349.466 -9.03366C349.466 -9.03366 355.735 -10.5783 362.223 -11.7229Z"/>
<path d="M332.123 -33.8468L661.767 -80.7711L672.726 -81.7878L683.654 -81.7462L694.484 -80.693L705.165 -78.6636L715.63 -75.7046L725.819 -71.8588L735.673 -67.1697L742.025 -63.5913L748.188 -59.6657L757.017 -53.1595L765.309 -45.9485L772.998 -38.0705L780.019 -29.5719L786.315 -20.4875L791.825 -10.856L796.488 -0.728882L799.093 6.2883L801.278 13.492L889.872 342.555L892.292 353.569L893.616 364.442L893.874 375.115L893.109 385.53L891.349 395.631L888.632 405.368L884.992 414.673L882.071 420.617L878.763 426.324L873.107 434.416L866.646 441.889L859.42 448.684L851.454 454.745L842.792 460.016L833.464 464.434L823.503 467.942L816.532 469.75L809.308 471.115L477.625 522.218L466.445 523.382L455.297 523.456L444.24 522.487L433.336 520.511L422.65 517.574L412.249 513.716L402.193 508.982L395.713 505.359L389.433 501.379L380.436 494.763L371.999 487.417L364.187 479.377L357.062 470.691L350.689 461.401L345.126 451.55L340.447 441.18L337.845 434.001L335.678 426.624L249.122 93.3778L246.812 82.353L245.618 71.4793L245.502 60.8259L246.424 50.4405L248.345 40.3836L251.234 30.71L255.048 21.4723L258.086 15.5883L261.512 9.94016L267.343 1.9473L273.972 -5.41248L281.363 -12.0881L289.476 -18.0276L298.277 -23.1668L307.736 -27.4597L317.804 -30.8398C317.804 -30.8398 324.839 -32.5653 332.123 -33.8468Z"/>
<path d="M302.072 -55.9394L667.325 -107.734L679.458 -108.852L691.556 -108.799L703.55 -107.626L715.376 -105.379L726.96 -102.099L738.243 -97.8388L749.151 -92.6427L756.185 -88.6794L763.004 -84.3332L772.786 -77.1317L781.964 -69.1465L790.475 -60.4248L798.254 -51.0128L805.229 -40.9563L811.33 -30.2965L816.494 -19.085L819.384 -11.3212L821.802 -3.33908L920.087 361.138L922.772 373.345L924.248 385.396L924.541 397.227L923.7 408.772L921.759 419.975L918.756 430.771L914.732 441.089L911.5 447.68L907.843 454.014L901.582 462.988L894.433 471.278L886.426 478.82L877.61 485.543L868.012 491.393L857.681 496.297L846.653 500.198L838.929 502.207L830.922 503.724L463.165 560.659L450.76 561.959L438.387 562.049L426.116 560.979L414.019 558.794L402.167 555.544L390.625 551.267L379.466 546.017L372.279 542L365.309 537.586L355.327 530.246L345.968 522.096L337.3 513.173L329.397 503.537L322.328 493.229L316.165 482.298L310.975 470.791L308.093 462.819L305.693 454.633L209.915 85.0114L207.366 72.7885L206.048 60.7408L205.928 48.9281L206.959 37.4213L209.103 26.2766L212.317 15.5554L216.558 5.32339L219.931 -1.19788L223.733 -7.4548L230.208 -16.3058L237.565 -24.4579L245.768 -31.8557L254.772 -38.4284L264.537 -44.1196L275.025 -48.8689L286.193 -52.6147C286.193 -52.6147 293.997 -54.5218 302.072 -55.9394Z"/>
<path d="M272.07 -77.9868L672.867 -134.609L686.173 -135.828L699.438 -135.768L712.586 -134.477L725.548 -132.007L738.255 -128.407L750.621 -123.73L762.586 -118.032L770.297 -113.683L777.773 -108.92L788.498 -101.022L798.562 -92.2627L807.898 -82.7022L816.425 -72.384L824.073 -61.3589L830.769 -49.6716L836.435 -37.3801L839.605 -28.8689L842.262 -20.123L950.237 379.683L953.193 393.083L954.815 406.313L955.148 419.297L954.235 431.975L952.113 444.276L948.827 456.125L944.419 467.462L940.881 474.697L936.873 481.654L930.012 491.514L922.171 500.621L913.396 508.909L903.727 516.299L893.202 522.73L881.871 528.126L869.77 532.419L861.294 534.633L852.516 536.301L448.699 599.118L435.069 600.556L421.472 600.666L407.993 599.497L394.698 597.104L381.67 593.534L368.989 588.846L356.73 583.08L348.828 578.67L341.175 573.818L330.206 565.757L319.919 556.8L310.401 546.999L301.719 536.408L293.958 525.081L287.19 513.066L281.497 500.416L278.332 491.658L275.702 482.661L170.742 76.6613L167.949 63.2411L166.516 50.0179L166.397 37.0538L167.543 24.4249L169.906 12.1931L173.444 0.428711L178.109 -10.7969L181.827 -17.9526L186.004 -24.8183L193.124 -34.5275L201.213 -43.4727L210.226 -51.5833L220.12 -58.7891L230.849 -65.0324L242.371 -70.2387L254.636 -74.3408C254.636 -74.3408 263.205 -76.4286 272.072 -77.9781L272.07 -77.9868Z"/>
<path d="M242.123 -99.9993L678.393 -161.401L692.863 -162.724L707.29 -162.65L721.592 -161.238L735.692 -158.544L749.508 -154.627L762.964 -149.539L775.973 -143.332L784.36 -138.606L792.494 -133.423L804.158 -124.827L815.105 -115.307L825.258 -104.906L834.537 -93.6822L842.859 -81.6928L850.143 -68.9859L856.314 -55.6152L859.76 -46.3602L862.657 -36.8462L980.326 398.19L983.552 412.783L985.325 427.186L985.698 441.328L984.708 455.134L982.408 468.528L978.845 481.439L974.057 493.789L970.209 501.671L965.854 509.249L958.394 519.99L949.87 529.918L940.326 538.947L929.804 547.008L918.357 554.019L906.023 559.903L892.854 564.587L883.635 567.001L874.074 568.826L434.228 637.569L419.372 639.144L404.552 639.275L389.855 638.013L375.364 635.412L361.164 631.531L347.338 626.423L333.976 620.145L325.364 615.338L317.02 610.054L305.066 601.268L293.857 591.507L283.483 580.823L274.027 569.281L265.57 556.931L258.201 543.831L251.996 530.041L248.556 520.494L245.692 510.679L131.599 68.3015L128.571 53.6867L127.018 39.2844L126.897 25.1741L128.157 11.423L130.744 -1.89224L134.612 -14.7007L139.705 -26.9206L143.758 -34.705L148.32 -42.1766L156.085 -52.7439L164.903 -62.4772L174.73 -71.297L185.519 -79.1411L197.213 -85.9276L209.765 -91.5859L223.126 -96.0486C223.126 -96.0486 232.465 -98.3181 242.123 -99.9993Z"/>
<path d="M212.228 -121.976L683.897 -188.112L699.532 -189.53L715.117 -189.443L730.57 -187.909L745.802 -184.995L760.728 -180.76L775.26 -175.258L789.316 -168.553L798.377 -163.44L807.162 -157.84L819.765 -148.555L831.591 -138.268L842.561 -127.032L852.59 -114.912L861.58 -101.957L869.458 -88.2314L876.124 -73.7929L879.854 -63.7956L882.984 -53.5214L1010.35 416.659L1013.85 432.44L1015.77 448.017L1016.19 463.316L1015.13 478.249L1012.65 492.741L1008.81 506.71L1003.64 520.071L999.489 528.603L994.789 536.807L986.733 548.434L977.526 559.177L967.215 568.956L955.849 577.683L943.479 585.275L930.149 591.649L915.916 596.724L905.949 599.342L895.614 601.323L419.756 676.047L403.668 677.765L387.624 677.917L371.709 676.558L356.022 673.752L340.647 669.557L325.681 664.034L311.215 657.244L301.892 652.044L292.862 646.326L279.92 636.815L267.788 626.246L256.559 614.684L246.323 602.184L237.173 588.81L229.2 574.626L222.492 559.694L218.768 549.355L215.674 538.729L92.4916 59.9623L89.225 44.1581L87.5581 28.5847L87.4426 13.3222L88.8162 -1.55109L91.6269 -15.9497L95.8262 -29.7935L101.352 -43.0042L105.741 -51.4215L110.688 -59.4991L119.099 -70.9202L128.651 -81.438L139.291 -90.9713L150.967 -99.4434L163.626 -106.773L177.213 -112.889L191.675 -117.704C191.675 -117.704 201.775 -120.154 212.229 -121.967L212.228 -121.976Z"/>
<path d="M182.379 -143.916L689.385 -214.736L706.182 -216.248L722.921 -216.147L739.518 -214.498L755.879 -211.36L771.909 -206.805L787.518 -200.891L802.613 -193.684L812.346 -188.194L821.783 -182.177L835.318 -172.203L848.024 -161.154L859.808 -149.086L870.58 -136.067L880.242 -122.157L888.703 -107.42L895.868 -91.9098L899.878 -81.1694L903.245 -70.1401L1040.32 435.094L1044.08 452.059L1046.16 468.809L1046.61 485.257L1045.49 501.318L1042.84 516.901L1038.72 531.927L1033.18 546.301L1028.72 555.482L1023.67 564.308L1015.03 576.819L1005.14 588.382L994.063 598.906L981.852 608.302L968.56 616.479L954.243 623.347L938.947 628.817L928.233 631.64L917.128 633.775L405.277 714.527L387.964 716.391L370.688 716.564L353.561 715.112L336.672 712.099L320.121 707.588L304.011 701.651L288.441 694.345L278.407 688.747L268.681 682.593L254.754 672.357L241.696 660.986L229.615 648.536L218.6 635.081L208.757 620.683L200.179 605.411L192.967 589.337L188.964 578.205L185.64 566.765L53.4119 51.6047L49.9069 34.6111L48.1295 17.8614L48.0161 1.45184L49.5096 -14.5357L52.5493 -30.0143L57.0789 -44.8977L63.0334 -59.0983L67.7682 -68.1415L73.0957 -76.8242L82.1524 -89.0948L92.4384 -100.397L103.898 -110.64L116.466 -119.741L130.089 -127.619L144.706 -134.182L160.267 -139.349C160.267 -139.349 171.137 -141.976 182.378 -143.925L182.379 -143.916Z"/>
<path d="M152.583 -165.817L694.861 -241.277L712.81 -242.887L730.702 -242.771L748.437 -240.997L765.921 -237.637L783.052 -232.764L799.732 -226.439L815.866 -218.732L826.271 -212.864L836.354 -206.433L850.818 -195.773L864.398 -183.962L876.998 -171.066L888.51 -157.154L898.839 -142.291L907.888 -126.539L915.551 -109.966L919.839 -98.4918L923.44 -86.7022L1070.22 453.486L1074.26 471.634L1076.49 489.557L1076.98 507.158L1075.79 524.346L1072.97 541.026L1068.57 557.109L1062.66 572.498L1057.9 582.325L1052.52 591.771L1043.27 605.167L1032.71 617.549L1020.88 628.817L1007.82 638.883L993.612 647.644L978.303 655.006L961.949 660.87L950.492 663.901L938.614 666.197L390.796 753.024L372.25 755.031L353.75 755.23L335.402 753.686L317.312 750.47L299.587 745.648L282.332 739.296L265.655 731.479L254.906 725.489L244.494 718.901L229.578 707.941L215.597 695.762L202.66 682.429L190.87 668.015L180.33 652.595L171.152 636.238L163.436 619.016L159.157 607.092L155.602 594.833L14.3694 43.2808L10.6305 25.097L8.73965 7.18048L8.63272 -10.3769L10.2462 -27.4787L13.515 -44.0371L18.3756 -59.9559L24.7682 -75.1436L29.8428 -84.8206L35.5524 -94.0998L45.2634 -107.226L56.2841 -119.308L68.5548 -130.256L82.0183 -139.986L96.6076 -148.398L112.26 -155.414L128.918 -160.933C128.918 -160.933 140.549 -163.74 152.583 -165.817Z"/>
<path d="M122.838 -187.677L700.315 -267.738L719.412 -269.44L738.455 -269.304L757.327 -267.41L775.929 -263.833L794.161 -258.635L811.908 -251.9L829.075 -243.701L840.143 -237.453L850.878 -230.61L866.27 -219.263L880.719 -206.693L894.128 -192.974L906.381 -178.172L917.376 -162.357L927.007 -145.597L935.168 -127.962L939.739 -115.758L943.573 -103.213L1100.06 471.84L1104.37 491.176L1106.76 510.267L1107.3 529.02L1106.04 547.33L1103.05 565.103L1098.38 582.237L1092.1 598.637L1087.04 609.113L1081.3 619.185L1071.48 633.469L1060.24 646.67L1047.65 658.691L1033.76 669.424L1018.63 678.77L1002.33 686.626L984.922 692.888L972.723 696.127L960.075 698.578L376.312 791.532L356.534 793.686L336.802 793.911L317.238 792.278L297.948 788.859L279.042 783.728L260.644 776.961L242.858 768.629L231.399 762.245L220.295 755.221L204.391 743.536L189.482 730.55L175.689 716.33L163.12 700.961L151.891 684.512L142.111 667.067L133.887 648.699L129.333 635.982L125.548 622.908L-24.6463 34.9566L-28.6149 15.5818L-30.6147 -3.50235L-30.7101 -22.2039L-28.9767 -40.42L-25.4781 -58.054L-20.282 -75.0089L-13.4556 -91.183L-8.03473 -101.481L-1.94446 -111.366L8.41788 -125.338L20.1742 -138.196L33.2638 -149.853L47.6196 -160.208L63.1746 -169.159L79.8593 -176.618L97.6148 -182.489C97.6148 -182.489 110.016 -185.474 122.838 -187.677Z"/>
<path d="M93.1432 -209.506L705.754 -294.111L725.999 -295.905L746.182 -295.757L766.186 -293.742L785.908 -289.938L805.23 -284.424L824.045 -277.283L842.241 -268.585L853.976 -261.959L865.349 -254.7L881.669 -242.673L896.986 -229.351L911.2 -214.808L924.193 -199.116L935.854 -182.354L946.067 -164.591L954.719 -145.906L959.568 -132.968L963.638 -119.671L1129.84 490.155L1134.42 510.671L1136.97 530.93L1137.55 550.831L1136.23 570.267L1133.07 589.135L1128.13 607.326L1121.48 624.736L1116.12 635.857L1110.05 646.553L1099.64 661.721L1087.73 675.744L1074.38 688.514L1059.65 699.92L1043.61 709.853L1026.33 718.202L1007.86 724.862L994.928 728.309L981.511 730.923L361.821 830.053L340.812 832.36L319.853 832.61L299.063 830.886L278.572 827.264L258.492 821.822L238.944 814.641L220.047 805.799L207.876 799.018L196.083 791.561L179.189 779.151L163.357 765.357L148.708 750.255L135.36 733.928L123.439 716.455L113.053 697.921L104.333 678.401L99.4983 664.887L95.4882 650.998L-63.6241 26.6435L-67.8251 6.08734L-69.9304 -14.1696L-70.0186 -34.0147L-68.1602 -53.3414L-64.4274 -72.0517L-58.8944 -90.034L-51.6334 -107.19L-45.872 -118.118L-39.3909 -128.6L-28.3772 -143.418L-15.8817 -157.057L-1.97604 -169.415L13.2729 -180.39L29.7936 -189.88L47.514 -197.788L66.3677 -204.006C66.3677 -204.006 79.531 -207.162 93.1447 -209.497L93.1432 -209.506Z"/>
<path d="M63.5005 -231.295L711.171 -320.403L732.565 -322.29L753.884 -322.125L775.021 -319.984L795.852 -315.961L816.266 -310.13L836.139 -302.577L855.363 -293.386L867.756 -286.384L879.776 -278.716L897.013 -266.009L913.2 -251.933L928.218 -236.57L941.946 -219.997L954.268 -202.286L965.061 -183.525L974.21 -163.785L979.335 -150.121L983.642 -136.079L1159.56 508.437L1164.41 530.132L1167.12 551.558L1167.74 572.606L1166.36 593.165L1163.04 613.124L1157.83 632.37L1150.81 650.791L1145.16 662.56L1138.74 673.877L1127.75 689.931L1115.17 704.772L1101.07 718.29L1085.51 730.368L1068.57 740.887L1050.3 749.734L1030.78 756.792L1017.1 760.447L1002.92 763.219L347.327 868.576L325.081 871.035L302.892 871.316L280.886 869.504L259.185 865.68L237.925 859.928L217.23 852.333L197.229 842.98L184.339 835.807L171.854 827.912L153.972 814.778L137.212 800.173L121.706 784.184L107.583 766.897L94.968 748.396L83.9847 728.768L74.7565 708.103L69.6454 693.791L65.4089 679.082L-102.577 18.3172L-107.003 -3.42639L-109.217 -24.8466L-109.292 -45.8316L-107.309 -66.269L-103.341 -86.0513L-97.472 -105.065L-89.7721 -123.204L-83.66 -134.754L-76.7967 -145.833L-65.1315 -161.497L-51.8955 -175.908L-37.1694 -188.967L-21.0274 -200.563L-3.54089 -210.592L15.2166 -218.939L35.1643 -225.504C35.1643 -225.504 49.0935 -228.836 63.4998 -231.299L63.5005 -231.295Z"/>
<path d="M33.9091 -253.048L716.576 -346.618L739.109 -348.591L761.565 -348.404L783.825 -346.144L805.763 -341.897L827.263 -335.749L848.194 -327.788L868.442 -318.102L881.498 -310.726L894.155 -302.647L912.31 -289.262L929.359 -274.439L945.176 -258.259L959.639 -240.804L972.621 -222.154L983.994 -202.398L993.638 -181.609L999.041 -167.219L1003.58 -152.434L1189.21 526.68L1194.34 549.554L1197.21 572.147L1197.88 594.342L1196.44 616.023L1192.95 637.073L1187.48 657.374L1180.09 676.805L1174.14 689.218L1167.4 701.158L1155.82 718.096L1142.57 733.759L1127.72 748.027L1111.33 760.777L1093.48 771.884L1074.23 781.227L1053.66 788.682L1039.25 792.544L1024.31 795.474L332.828 907.103L309.347 909.715L285.922 910.027L262.692 908.128L239.791 904.106L217.348 898.049L195.504 890.04L174.395 880.172L160.79 872.606L147.615 864.279L128.739 850.422L111.056 835.008L94.6943 818.132L79.7955 799.886L66.4822 780.354L54.8969 759.632L45.1725 737.814L39.7854 722.705L35.3182 707.177L-141.495 10.0157L-146.149 -12.9101L-148.466 -35.4943L-148.525 -57.62L-146.417 -79.168L-142.214 -100.022L-135.999 -120.065L-127.864 -139.182L-121.406 -151.354L-114.151 -163.031L-101.829 -179.532L-87.8574 -194.719L-72.3109 -208.48L-55.2707 -220.692L-36.8169 -231.251L-17.0273 -240.041L4.01874 -246.954C4.01874 -246.954 18.7146 -250.458 33.9091 -253.048Z"/>
<path d="M4.36453 -274.764L721.963 -372.749L745.632 -374.811L769.221 -374.602L792.601 -372.219L815.644 -367.747L838.226 -361.285L860.21 -352.916L881.477 -342.74L895.186 -334.991L908.484 -326.502L927.553 -312.442L945.465 -296.872L962.081 -279.875L977.273 -261.542L990.914 -241.956L1002.87 -221.206L1013 -199.376L1018.68 -184.265L1023.46 -168.733L1218.81 544.885L1224.21 568.936L1227.23 592.694L1227.96 616.036L1226.46 638.838L1222.81 660.979L1217.07 682.334L1209.32 702.779L1203.08 715.839L1196 728.404L1183.85 746.228L1169.94 762.712L1154.34 777.727L1137.12 791.148L1118.36 802.846L1098.14 812.689L1076.53 820.546L1061.38 824.618L1045.67 827.711L318.328 945.667L293.61 948.431L268.956 948.779L244.501 946.797L220.392 942.578L196.77 936.211L173.777 927.793L151.552 917.415L137.236 909.452L123.365 900.689L103.5 886.106L84.8902 869.886L67.672 852.123L51.9927 832.913L37.9904 812.353L25.8075 790.537L15.5784 767.568L9.9151 751.661L5.22586 735.312L-180.38 1.71771L-185.258 -22.3912L-187.675 -46.1402L-187.721 -69.4015L-185.482 -92.0566L-181.044 -113.979L-174.488 -135.05L-165.909 -155.146L-159.104 -167.939L-151.463 -180.213L-138.483 -197.553L-123.771 -213.512L-107.403 -227.965L-89.4693 -240.797L-70.0482 -251.887L-49.2216 -261.117L-27.0764 -268.373C-27.0764 -268.373 -11.6181 -272.048 4.36453 -274.764Z"/>
<path d="M-25.1283 -296.441L727.334 -398.796L752.134 -400.948L776.85 -400.72L801.346 -398.208L825.494 -393.516L849.15 -386.734L872.187 -377.961L894.469 -367.293L908.835 -359.173L922.766 -350.277L942.751 -335.542L961.517 -319.228L978.927 -301.419L994.852 -282.212L1009.15 -261.695L1021.67 -239.954L1032.3 -217.087L1038.26 -201.251L1043.27 -184.981L1248.34 563.052L1254.02 588.277L1257.21 613.197L1257.98 637.681L1256.43 661.604L1252.61 684.831L1246.61 707.236L1238.51 728.69L1231.97 742.398L1224.55 755.587L1211.83 774.296L1197.25 791.602L1180.91 807.372L1162.87 821.468L1143.21 833.755L1122.02 844.099L1099.35 852.361L1083.48 856.644L1067 859.9L303.822 984.228L277.865 987.149L251.975 987.528L226.296 985.464L200.983 981.047L176.178 974.375L152.032 965.544L128.695 954.656L113.665 946.3L99.1027 937.104L78.2444 921.794L58.706 904.762L40.6306 886.108L24.1753 865.934L9.47885 844.342L-3.30612 821.432L-14.032 797.306L-19.9722 780.598L-24.8886 763.425L-219.238 -6.57193L-224.335 -31.8646L-226.855 -56.7733L-226.884 -81.1753L-224.51 -104.934L-219.832 -127.924L-212.934 -150.019L-203.91 -171.09L-196.758 -184.505L-188.725 -197.368L-175.093 -215.55L-159.635 -232.278L-142.445 -247.423L-123.613 -260.872L-103.224 -272.487L-81.3691 -282.156L-58.1248 -289.755C-58.1248 -289.755 -41.9043 -293.602 -25.1283 -296.441Z"/>
<path d="M-54.5699 -318.082L732.688 -424.765L758.615 -427L784.456 -426.748L810.065 -424.116L835.31 -419.202L860.043 -412.106L884.125 -402.927L907.416 -391.767L922.435 -383.275L937.002 -373.973L957.891 -358.565L977.515 -341.507L995.722 -322.895L1012.37 -302.814L1027.32 -281.364L1040.43 -258.642L1051.54 -234.738L1057.77 -218.188L1063.02 -201.182L1277.82 581.179L1283.77 607.579L1287.12 633.662L1287.95 659.288L1286.33 684.327L1282.36 708.643L1276.1 732.103L1267.64 754.565L1260.81 768.921L1253.06 782.732L1239.76 802.328L1224.53 820.458L1207.44 836.978L1188.58 851.749L1168.03 864.626L1145.86 875.47L1122.15 884.137L1105.54 888.631L1088.32 892.052L289.31 1022.8L262.117 1025.88L234.989 1026.3L208.086 1024.15L181.564 1019.54L155.576 1012.56L130.278 1003.32L105.829 991.921L90.0795 983.174L74.8262 973.541L52.9792 957.506L32.5091 939.667L13.5816 920.126L-3.65411 898.989L-19.0404 876.363L-32.4238 852.356L-43.6552 827.074L-49.8672 809.567L-55.0064 791.57L-258.059 -14.8592L-263.379 -41.3305L-265.993 -67.4005L-266 -92.9352L-263.496 -117.801L-258.577 -141.855L-251.331 -164.971L-241.863 -187.017L-234.364 -201.048L-225.939 -214.505L-211.645 -233.521L-195.446 -251.017L-177.438 -266.854L-157.707 -280.915L-136.351 -293.061L-113.458 -303.165L-89.1179 -311.102C-89.1179 -311.102 -72.1306 -315.121 -54.5656 -318.083L-54.5699 -318.082Z"/>
</mask>
<path d="M483.153 77.1631L633.705 55.3287L638.73 54.8474L643.74 54.8571L648.706 55.3269L653.604 56.2478L658.404 57.5982L663.078 59.3517L667.594 61.5005L670.51 63.1367L673.334 64.9369L677.384 67.9166L681.184 71.2231L684.706 74.8343L687.922 78.7373L690.804 82.9056L693.327 87.3215L695.456 91.9686L696.643 95.1887L697.638 98.4966L737.86 249.049L738.95 254.074L739.54 259.031L739.644 263.894L739.277 268.636L738.456 273.239L737.197 277.669L735.517 281.9L734.174 284.602L732.651 287.198L730.053 290.871L727.09 294.265L723.772 297.345L720.123 300.095L716.156 302.475L711.889 304.474L707.337 306.054L704.149 306.867L700.849 307.476L549.869 330.184L544.8 330.691L539.742 330.712L534.729 330.255L529.784 329.347L524.94 328L520.224 326.241L515.662 324.087L512.722 322.441L509.874 320.632L505.788 317.627L501.961 314.29L498.41 310.648L495.175 306.708L492.276 302.498L489.745 298.034L487.61 293.334L486.419 290.084L485.43 286.739L445.632 135.318L444.563 130.289L444 125.333L443.928 120.472L444.327 115.734L445.181 111.143L446.475 106.729L448.193 102.509L449.56 99.8204L451.108 97.2384L453.741 93.5811L456.739 90.2128L460.088 87.1583L463.77 84.4344L467.767 82.0797L472.062 80.1069L476.636 78.5501C476.636 78.5501 479.836 77.7572 483.153 77.1631Z" stroke="url(#paint0_radial_198_13896)" stroke-width="2" stroke-miterlimit="10" mask="url(#path-1-inside-1_198_13896)"/>
<path d="M452.841 54.884L639.352 27.9333L645.572 27.347L651.773 27.3554L657.925 27.9459L663.986 29.0855L669.927 30.7571L675.711 32.9314L681.304 35.5921L684.912 37.6203L688.407 39.8433L693.417 43.5348L698.122 47.6298L702.482 52.0997L706.467 56.9276L710.036 62.0848L713.158 67.5542L715.798 73.3065L717.268 77.2914L718.502 81.3855L768.387 267.828L769.745 274.054L770.479 280.195L770.609 286.223L770.159 292.104L769.148 297.806L767.594 303.296L765.517 308.548L763.855 311.898L761.972 315.113L758.756 319.671L755.088 323.88L750.984 327.705L746.465 331.11L741.554 334.071L736.269 336.547L730.627 338.517L726.68 339.524L722.591 340.282L535.426 368.567L529.139 369.206L522.868 369.232L516.645 368.668L510.51 367.546L504.504 365.881L498.651 363.701L492.994 361.03L489.347 358.986L485.809 356.744L480.743 353.018L475.995 348.881L471.593 344.356L467.576 339.471L463.982 334.246L460.847 328.708L458.203 322.88L456.728 318.842L455.502 314.693L406.266 126.917L404.943 120.684L404.251 114.545L404.165 108.522L404.667 102.651L405.729 96.9613L407.341 91.4879L409.471 86.2627L411.172 82.9323L413.094 79.7329L416.366 75.2095L420.085 71.0366L424.241 67.2519L428.806 63.8826L433.765 60.9629L439.092 58.5244L444.766 56.6019C444.766 56.6019 448.734 55.6186 452.841 54.884Z" stroke="url(#paint1_radial_198_13896)" stroke-width="2" stroke-miterlimit="10" mask="url(#path-1-inside-1_198_13896)"/>
<path d="M422.585 32.6443L644.983 0.630188L652.393 -0.0690002L659.782 -0.0523376L667.11 0.651581L674.331 2.01498L681.409 4.00858L688.302 6.60379L694.966 9.77277L699.261 12.1894L703.428 14.8394L709.401 19.2375L715.007 24.1132L720.201 29.4428L724.95 35.1919L729.2 41.3387L732.925 47.8521L736.069 54.7061L737.827 59.4507L739.298 64.3268L798.854 286.568L800.474 293.993L801.356 301.321L801.515 308.513L800.984 315.528L799.783 322.33L797.934 328.885L795.464 335.147L793.483 339.145L791.241 342.988L787.411 348.431L783.041 353.449L778.15 358.014L772.769 362.084L766.916 365.62L760.617 368.585L753.89 370.932L749.186 372.14L744.308 373.047L520.985 406.964L513.475 407.73L505.984 407.768L498.555 407.099L491.231 405.759L484.052 403.779L477.068 401.177L470.311 397.989L465.954 395.552L461.738 392.875L455.689 388.428L450.018 383.487L444.762 378.088L439.971 372.253L435.682 366.014L431.939 359.396L428.784 352.437L427.027 347.616L425.563 342.658L366.933 118.519L365.361 111.09L364.538 103.765L364.443 96.5792L365.044 89.5789L366.324 82.7938L368.25 76.27L370.798 70.039L372.833 66.067L375.124 62.2509L379.034 56.8571L383.485 51.8867L388.447 47.3719L393.897 43.3615L399.814 39.8819L406.173 36.9775L412.946 34.685C412.946 34.685 417.683 33.5158 422.585 32.6443Z" stroke="url(#paint2_radial_198_13896)" stroke-width="2" stroke-miterlimit="10" mask="url(#path-1-inside-1_198_13896)"/>
<path d="M392.376 10.4411L650.594 -26.5886L659.194 -27.3963L667.767 -27.3707L676.266 -26.5526L684.642 -24.9689L692.856 -22.6533L700.85 -19.6401L708.581 -15.962L713.568 -13.1577L718.397 -10.0791L725.329 -4.97781L731.83 0.679138L737.861 6.85889L743.365 13.5308L748.305 20.6612L752.623 28.2161L756.276 36.1667L758.316 41.6717L760.025 47.3296L829.256 305.27L831.143 313.893L832.168 322.404L832.362 330.755L831.75 338.904L830.361 346.81L828.221 354.425L825.358 361.702L823.062 366.347L820.465 370.813L816.021 377.135L810.955 382.977L805.283 388.285L799.033 393.015L792.24 397.13L784.929 400.575L777.124 403.311L771.663 404.717L766.001 405.777L506.533 445.371L497.801 446.27L489.093 446.313L480.455 445.546L471.941 443.992L463.595 441.691L455.471 438.674L447.618 434.968L442.555 432.137L437.648 429.023L430.619 423.854L424.021 418.111L417.915 411.833L412.347 405.051L407.362 397.794L403.015 390.101L399.35 382.005L397.309 376.397L395.613 370.638L327.629 110.134L325.812 101.503L324.863 92.9913L324.756 84.6522L325.464 76.5174L326.953 68.6425L329.199 61.0676L332.172 53.8293L334.537 49.2207L337.208 44.7908L341.756 38.5309L346.93 32.7602L352.7 27.5239L359.038 22.8674L365.918 18.8357L373.306 15.4664L381.178 12.8082C381.178 12.8082 386.684 11.4531 392.376 10.4411Z" stroke="url(#paint3_radial_198_13896)" stroke-width="2" stroke-miterlimit="10" mask="url(#path-1-inside-1_198_13896)"/>
<path d="M362.223 -11.7229L656.189 -53.7238L665.971 -54.6342L675.723 -54.6032L685.39 -53.6657L694.92 -51.8618L704.262 -49.2227L713.355 -45.7957L722.149 -41.6078L727.823 -38.415L733.318 -34.9173L741.199 -29.1113L748.597 -22.673L755.459 -15.6423L761.725 -8.05786L767.342 0.0542603L772.256 8.64523L776.417 17.6881L778.739 23.9492L780.685 30.3847L859.596 323.929L861.75 333.75L862.922 343.445L863.148 352.954L862.456 362.237L860.881 371.243L858.455 379.916L855.2 388.212L852.593 393.504L849.641 398.593L844.589 405.798L838.82 412.454L832.371 418.505L825.263 423.903L817.533 428.592L809.211 432.526L800.328 435.646L794.11 437.254L787.67 438.466L492.083 483.792L482.129 484.818L472.196 484.878L462.352 484.007L452.642 482.244L443.127 479.622L433.867 476.185L424.911 471.967L419.141 468.738L413.548 465.191L405.535 459.3L398.02 452.753L391.059 445.597L384.712 437.861L379.031 429.59L374.076 420.818L369.904 411.585L367.585 405.193L365.651 398.625L288.361 101.752L286.296 91.9243L285.223 82.234L285.11 72.7313L285.923 63.4716L287.63 54.5053L290.195 45.8792L293.586 37.6438L296.29 32.3928L299.336 27.3542L304.523 20.2281L310.424 13.6607L317.006 7.70224L324.23 2.40463L332.072 -2.18335L340.493 -6.0141L349.466 -9.03366C349.466 -9.03366 355.735 -10.5783 362.223 -11.7229Z" stroke="url(#paint4_radial_198_13896)" stroke-width="2" stroke-miterlimit="10" mask="url(#path-1-inside-1_198_13896)"/>
<path d="M332.123 -33.8468L661.767 -80.7711L672.726 -81.7878L683.654 -81.7462L694.484 -80.693L705.165 -78.6636L715.63 -75.7046L725.819 -71.8588L735.673 -67.1697L742.025 -63.5913L748.188 -59.6657L757.017 -53.1595L765.309 -45.9485L772.998 -38.0705L780.019 -29.5719L786.315 -20.4875L791.825 -10.856L796.488 -0.728882L799.093 6.2883L801.278 13.492L889.872 342.555L892.292 353.569L893.616 364.442L893.874 375.115L893.109 385.53L891.349 395.631L888.632 405.368L884.992 414.673L882.071 420.617L878.763 426.324L873.107 434.416L866.646 441.889L859.42 448.684L851.454 454.745L842.792 460.016L833.464 464.434L823.503 467.942L816.532 469.75L809.308 471.115L477.625 522.218L466.445 523.382L455.297 523.456L444.24 522.487L433.336 520.511L422.65 517.574L412.249 513.716L402.193 508.982L395.713 505.359L389.433 501.379L380.436 494.763L371.999 487.417L364.187 479.377L357.062 470.691L350.689 461.401L345.126 451.55L340.447 441.18L337.845 434.001L335.678 426.624L249.122 93.3778L246.812 82.353L245.618 71.4793L245.502 60.8259L246.424 50.4405L248.345 40.3836L251.234 30.71L255.048 21.4723L258.086 15.5883L261.512 9.94016L267.343 1.9473L273.972 -5.41248L281.363 -12.0881L289.476 -18.0276L298.277 -23.1668L307.736 -27.4597L317.804 -30.8398C317.804 -30.8398 324.839 -32.5653 332.123 -33.8468Z" stroke="url(#paint5_radial_198_13896)" stroke-width="2" stroke-miterlimit="10" mask="url(#path-1-inside-1_198_13896)"/>
<path d="M302.072 -55.9394L667.325 -107.734L679.458 -108.852L691.556 -108.799L703.55 -107.626L715.376 -105.379L726.96 -102.099L738.243 -97.8388L749.151 -92.6427L756.185 -88.6794L763.004 -84.3332L772.786 -77.1317L781.964 -69.1465L790.475 -60.4248L798.254 -51.0128L805.229 -40.9563L811.33 -30.2965L816.494 -19.085L819.384 -11.3212L821.802 -3.33908L920.087 361.138L922.772 373.345L924.248 385.396L924.541 397.227L923.7 408.772L921.759 419.975L918.756 430.771L914.732 441.089L911.5 447.68L907.843 454.014L901.582 462.988L894.433 471.278L886.426 478.82L877.61 485.543L868.012 491.393L857.681 496.297L846.653 500.198L838.929 502.207L830.922 503.724L463.165 560.659L450.76 561.959L438.387 562.049L426.116 560.979L414.019 558.794L402.167 555.544L390.625 551.267L379.466 546.017L372.279 542L365.309 537.586L355.327 530.246L345.968 522.096L337.3 513.173L329.397 503.537L322.328 493.229L316.165 482.298L310.975 470.791L308.093 462.819L305.693 454.633L209.915 85.0114L207.366 72.7885L206.048 60.7408L205.928 48.9281L206.959 37.4213L209.103 26.2766L212.317 15.5554L216.558 5.32339L219.931 -1.19788L223.733 -7.4548L230.208 -16.3058L237.565 -24.4579L245.768 -31.8557L254.772 -38.4284L264.537 -44.1196L275.025 -48.8689L286.193 -52.6147C286.193 -52.6147 293.997 -54.5218 302.072 -55.9394Z" stroke="url(#paint6_radial_198_13896)" stroke-width="2" stroke-miterlimit="10" mask="url(#path-1-inside-1_198_13896)"/>
<path d="M272.07 -77.9868L672.867 -134.609L686.173 -135.828L699.438 -135.768L712.586 -134.477L725.548 -132.007L738.255 -128.407L750.621 -123.73L762.586 -118.032L770.297 -113.683L777.773 -108.92L788.498 -101.022L798.562 -92.2627L807.898 -82.7022L816.425 -72.384L824.073 -61.3589L830.769 -49.6716L836.435 -37.3801L839.605 -28.8689L842.262 -20.123L950.237 379.683L953.193 393.083L954.815 406.313L955.148 419.297L954.235 431.975L952.113 444.276L948.827 456.125L944.419 467.462L940.881 474.697L936.873 481.654L930.012 491.514L922.171 500.621L913.396 508.909L903.727 516.299L893.202 522.73L881.871 528.126L869.77 532.419L861.294 534.633L852.516 536.301L448.699 599.118L435.069 600.556L421.472 600.666L407.993 599.497L394.698 597.104L381.67 593.534L368.989 588.846L356.73 583.08L348.828 578.67L341.175 573.818L330.206 565.757L319.919 556.8L310.401 546.999L301.719 536.408L293.958 525.081L287.19 513.066L281.497 500.416L278.332 491.658L275.702 482.661L170.742 76.6613L167.949 63.2411L166.516 50.0179L166.397 37.0538L167.543 24.4249L169.906 12.1931L173.444 0.428711L178.109 -10.7969L181.827 -17.9526L186.004 -24.8183L193.124 -34.5275L201.213 -43.4727L210.226 -51.5833L220.12 -58.7891L230.849 -65.0324L242.371 -70.2387L254.636 -74.3408C254.636 -74.3408 263.205 -76.4286 272.072 -77.9781L272.07 -77.9868Z" stroke="url(#paint7_radial_198_13896)" stroke-width="2" stroke-miterlimit="10" mask="url(#path-1-inside-1_198_13896)"/>
<path d="M242.123 -99.9993L678.393 -161.401L692.863 -162.724L707.29 -162.65L721.592 -161.238L735.692 -158.544L749.508 -154.627L762.964 -149.539L775.973 -143.332L784.36 -138.606L792.494 -133.423L804.158 -124.827L815.105 -115.307L825.258 -104.906L834.537 -93.6822L842.859 -81.6928L850.143 -68.9859L856.314 -55.6152L859.76 -46.3602L862.657 -36.8462L980.326 398.19L983.552 412.783L985.325 427.186L985.698 441.328L984.708 455.134L982.408 468.528L978.845 481.439L974.057 493.789L970.209 501.671L965.854 509.249L958.394 519.99L949.87 529.918L940.326 538.947L929.804 547.008L918.357 554.019L906.023 559.903L892.854 564.587L883.635 567.001L874.074 568.826L434.228 637.569L419.372 639.144L404.552 639.275L389.855 638.013L375.364 635.412L361.164 631.531L347.338 626.423L333.976 620.145L325.364 615.338L317.02 610.054L305.066 601.268L293.857 591.507L283.483 580.823L274.027 569.281L265.57 556.931L258.201 543.831L251.996 530.041L248.556 520.494L245.692 510.679L131.599 68.3015L128.571 53.6867L127.018 39.2844L126.897 25.1741L128.157 11.423L130.744 -1.89224L134.612 -14.7007L139.705 -26.9206L143.758 -34.705L148.32 -42.1766L156.085 -52.7439L164.903 -62.4772L174.73 -71.297L185.519 -79.1411L197.213 -85.9276L209.765 -91.5859L223.126 -96.0486C223.126 -96.0486 232.465 -98.3181 242.123 -99.9993Z" stroke="url(#paint8_radial_198_13896)" stroke-width="2" stroke-miterlimit="10" mask="url(#path-1-inside-1_198_13896)"/>
<path d="M212.228 -121.976L683.897 -188.112L699.532 -189.53L715.117 -189.443L730.57 -187.909L745.802 -184.995L760.728 -180.76L775.26 -175.258L789.316 -168.553L798.377 -163.44L807.162 -157.84L819.765 -148.555L831.591 -138.268L842.561 -127.032L852.59 -114.912L861.58 -101.957L869.458 -88.2314L876.124 -73.7929L879.854 -63.7956L882.984 -53.5214L1010.35 416.659L1013.85 432.44L1015.77 448.017L1016.19 463.316L1015.13 478.249L1012.65 492.741L1008.81 506.71L1003.64 520.071L999.489 528.603L994.789 536.807L986.733 548.434L977.526 559.177L967.215 568.956L955.849 577.683L943.479 585.275L930.149 591.649L915.916 596.724L905.949 599.342L895.614 601.323L419.756 676.047L403.668 677.765L387.624 677.917L371.709 676.558L356.022 673.752L340.647 669.557L325.681 664.034L311.215 657.244L301.892 652.044L292.862 646.326L279.92 636.815L267.788 626.246L256.559 614.684L246.323 602.184L237.173 588.81L229.2 574.626L222.492 559.694L218.768 549.355L215.674 538.729L92.4916 59.9623L89.225 44.1581L87.5581 28.5847L87.4426 13.3222L88.8162 -1.55109L91.6269 -15.9497L95.8262 -29.7935L101.352 -43.0042L105.741 -51.4215L110.688 -59.4991L119.099 -70.9202L128.651 -81.438L139.291 -90.9713L150.967 -99.4434L163.626 -106.773L177.213 -112.889L191.675 -117.704C191.675 -117.704 201.775 -120.154 212.229 -121.967L212.228 -121.976Z" stroke="url(#paint9_radial_198_13896)" stroke-width="2" stroke-miterlimit="10" mask="url(#path-1-inside-1_198_13896)"/>
<path d="M182.379 -143.916L689.385 -214.736L706.182 -216.248L722.921 -216.147L739.518 -214.498L755.879 -211.36L771.909 -206.805L787.518 -200.891L802.613 -193.684L812.346 -188.194L821.783 -182.177L835.318 -172.203L848.024 -161.154L859.808 -149.086L870.58 -136.067L880.242 -122.157L888.703 -107.42L895.868 -91.9098L899.878 -81.1694L903.245 -70.1401L1040.32 435.094L1044.08 452.059L1046.16 468.809L1046.61 485.257L1045.49 501.318L1042.84 516.901L1038.72 531.927L1033.18 546.301L1028.72 555.482L1023.67 564.308L1015.03 576.819L1005.14 588.382L994.063 598.906L981.852 608.302L968.56 616.479L954.243 623.347L938.947 628.817L928.233 631.64L917.128 633.775L405.277 714.527L387.964 716.391L370.688 716.564L353.561 715.112L336.672 712.099L320.121 707.588L304.011 701.651L288.441 694.345L278.407 688.747L268.681 682.593L254.754 672.357L241.696 660.986L229.615 648.536L218.6 635.081L208.757 620.683L200.179 605.411L192.967 589.337L188.964 578.205L185.64 566.765L53.4119 51.6047L49.9069 34.6111L48.1295 17.8614L48.0161 1.45184L49.5096 -14.5357L52.5493 -30.0143L57.0789 -44.8977L63.0334 -59.0983L67.7682 -68.1415L73.0957 -76.8242L82.1524 -89.0948L92.4384 -100.397L103.898 -110.64L116.466 -119.741L130.089 -127.619L144.706 -134.182L160.267 -139.349C160.267 -139.349 171.137 -141.976 182.378 -143.925L182.379 -143.916Z" stroke="url(#paint10_radial_198_13896)" stroke-width="2" stroke-miterlimit="10" mask="url(#path-1-inside-1_198_13896)"/>
<path d="M152.583 -165.817L694.861 -241.277L712.81 -242.887L730.702 -242.771L748.437 -240.997L765.921 -237.637L783.052 -232.764L799.732 -226.439L815.866 -218.732L826.271 -212.864L836.354 -206.433L850.818 -195.773L864.398 -183.962L876.998 -171.066L888.51 -157.154L898.839 -142.291L907.888 -126.539L915.551 -109.966L919.839 -98.4918L923.44 -86.7022L1070.22 453.486L1074.26 471.634L1076.49 489.557L1076.98 507.158L1075.79 524.346L1072.97 541.026L1068.57 557.109L1062.66 572.498L1057.9 582.325L1052.52 591.771L1043.27 605.167L1032.71 617.549L1020.88 628.817L1007.82 638.883L993.612 647.644L978.303 655.006L961.949 660.87L950.492 663.901L938.614 666.197L390.796 753.024L372.25 755.031L353.75 755.23L335.402 753.686L317.312 750.47L299.587 745.648L282.332 739.296L265.655 731.479L254.906 725.489L244.494 718.901L229.578 707.941L215.597 695.762L202.66 682.429L190.87 668.015L180.33 652.595L171.152 636.238L163.436 619.016L159.157 607.092L155.602 594.833L14.3694 43.2808L10.6305 25.097L8.73965 7.18048L8.63272 -10.3769L10.2462 -27.4787L13.515 -44.0371L18.3756 -59.9559L24.7682 -75.1436L29.8428 -84.8206L35.5524 -94.0998L45.2634 -107.226L56.2841 -119.308L68.5548 -130.256L82.0183 -139.986L96.6076 -148.398L112.26 -155.414L128.918 -160.933C128.918 -160.933 140.549 -163.74 152.583 -165.817Z" stroke="url(#paint11_radial_198_13896)" stroke-width="2" stroke-miterlimit="10" mask="url(#path-1-inside-1_198_13896)"/>
<path d="M122.838 -187.677L700.315 -267.738L719.412 -269.44L738.455 -269.304L757.327 -267.41L775.929 -263.833L794.161 -258.635L811.908 -251.9L829.075 -243.701L840.143 -237.453L850.878 -230.61L866.27 -219.263L880.719 -206.693L894.128 -192.974L906.381 -178.172L917.376 -162.357L927.007 -145.597L935.168 -127.962L939.739 -115.758L943.573 -103.213L1100.06 471.84L1104.37 491.176L1106.76 510.267L1107.3 529.02L1106.04 547.33L1103.05 565.103L1098.38 582.237L1092.1 598.637L1087.04 609.113L1081.3 619.185L1071.48 633.469L1060.24 646.67L1047.65 658.691L1033.76 669.424L1018.63 678.77L1002.33 686.626L984.922 692.888L972.723 696.127L960.075 698.578L376.312 791.532L356.534 793.686L336.802 793.911L317.238 792.278L297.948 788.859L279.042 783.728L260.644 776.961L242.858 768.629L231.399 762.245L220.295 755.221L204.391 743.536L189.482 730.55L175.689 716.33L163.12 700.961L151.891 684.512L142.111 667.067L133.887 648.699L129.333 635.982L125.548 622.908L-24.6463 34.9566L-28.6149 15.5818L-30.6147 -3.50235L-30.7101 -22.2039L-28.9767 -40.42L-25.4781 -58.054L-20.282 -75.0089L-13.4556 -91.183L-8.03473 -101.481L-1.94446 -111.366L8.41788 -125.338L20.1742 -138.196L33.2638 -149.853L47.6196 -160.208L63.1746 -169.159L79.8593 -176.618L97.6148 -182.489C97.6148 -182.489 110.016 -185.474 122.838 -187.677Z" stroke="url(#paint12_radial_198_13896)" stroke-width="2" stroke-miterlimit="10" mask="url(#path-1-inside-1_198_13896)"/>
<path d="M93.1432 -209.506L705.754 -294.111L725.999 -295.905L746.182 -295.757L766.186 -293.742L785.908 -289.938L805.23 -284.424L824.045 -277.283L842.241 -268.585L853.976 -261.959L865.349 -254.7L881.669 -242.673L896.986 -229.351L911.2 -214.808L924.193 -199.116L935.854 -182.354L946.067 -164.591L954.719 -145.906L959.568 -132.968L963.638 -119.671L1129.84 490.155L1134.42 510.671L1136.97 530.93L1137.55 550.831L1136.23 570.267L1133.07 589.135L1128.13 607.326L1121.48 624.736L1116.12 635.857L1110.05 646.553L1099.64 661.721L1087.73 675.744L1074.38 688.514L1059.65 699.92L1043.61 709.853L1026.33 718.202L1007.86 724.862L994.928 728.309L981.511 730.923L361.821 830.053L340.812 832.36L319.853 832.61L299.063 830.886L278.572 827.264L258.492 821.822L238.944 814.641L220.047 805.799L207.876 799.018L196.083 791.561L179.189 779.151L163.357 765.357L148.708 750.255L135.36 733.928L123.439 716.455L113.053 697.921L104.333 678.401L99.4983 664.887L95.4882 650.998L-63.6241 26.6435L-67.8251 6.08734L-69.9304 -14.1696L-70.0186 -34.0147L-68.1602 -53.3414L-64.4274 -72.0517L-58.8944 -90.034L-51.6334 -107.19L-45.872 -118.118L-39.3909 -128.6L-28.3772 -143.418L-15.8817 -157.057L-1.97604 -169.415L13.2729 -180.39L29.7936 -189.88L47.514 -197.788L66.3677 -204.006C66.3677 -204.006 79.531 -207.162 93.1447 -209.497L93.1432 -209.506Z" stroke="url(#paint13_radial_198_13896)" stroke-width="2" stroke-miterlimit="10" mask="url(#path-1-inside-1_198_13896)"/>
<path d="M63.5005 -231.295L711.171 -320.403L732.565 -322.29L753.884 -322.125L775.021 -319.984L795.852 -315.961L816.266 -310.13L836.139 -302.577L855.363 -293.386L867.756 -286.384L879.776 -278.716L897.013 -266.009L913.2 -251.933L928.218 -236.57L941.946 -219.997L954.268 -202.286L965.061 -183.525L974.21 -163.785L979.335 -150.121L983.642 -136.079L1159.56 508.437L1164.41 530.132L1167.12 551.558L1167.74 572.606L1166.36 593.165L1163.04 613.124L1157.83 632.37L1150.81 650.791L1145.16 662.56L1138.74 673.877L1127.75 689.931L1115.17 704.772L1101.07 718.29L1085.51 730.368L1068.57 740.887L1050.3 749.734L1030.78 756.792L1017.1 760.447L1002.92 763.219L347.327 868.576L325.081 871.035L302.892 871.316L280.886 869.504L259.185 865.68L237.925 859.928L217.23 852.333L197.229 842.98L184.339 835.807L171.854 827.912L153.972 814.778L137.212 800.173L121.706 784.184L107.583 766.897L94.968 748.396L83.9847 728.768L74.7565 708.103L69.6454 693.791L65.4089 679.082L-102.577 18.3172L-107.003 -3.42639L-109.217 -24.8466L-109.292 -45.8316L-107.309 -66.269L-103.341 -86.0513L-97.472 -105.065L-89.7721 -123.204L-83.66 -134.754L-76.7967 -145.833L-65.1315 -161.497L-51.8955 -175.908L-37.1694 -188.967L-21.0274 -200.563L-3.54089 -210.592L15.2166 -218.939L35.1643 -225.504C35.1643 -225.504 49.0935 -228.836 63.4998 -231.299L63.5005 -231.295Z" stroke="url(#paint14_radial_198_13896)" stroke-width="2" stroke-miterlimit="10" mask="url(#path-1-inside-1_198_13896)"/>
<path d="M33.9091 -253.048L716.576 -346.618L739.109 -348.591L761.565 -348.404L783.825 -346.144L805.763 -341.897L827.263 -335.749L848.194 -327.788L868.442 -318.102L881.498 -310.726L894.155 -302.647L912.31 -289.262L929.359 -274.439L945.176 -258.259L959.639 -240.804L972.621 -222.154L983.994 -202.398L993.638 -181.609L999.041 -167.219L1003.58 -152.434L1189.21 526.68L1194.34 549.554L1197.21 572.147L1197.88 594.342L1196.44 616.023L1192.95 637.073L1187.48 657.374L1180.09 676.805L1174.14 689.218L1167.4 701.158L1155.82 718.096L1142.57 733.759L1127.72 748.027L1111.33 760.777L1093.48 771.884L1074.23 781.227L1053.66 788.682L1039.25 792.544L1024.31 795.474L332.828 907.103L309.347 909.715L285.922 910.027L262.692 908.128L239.791 904.106L217.348 898.049L195.504 890.04L174.395 880.172L160.79 872.606L147.615 864.279L128.739 850.422L111.056 835.008L94.6943 818.132L79.7955 799.886L66.4822 780.354L54.8969 759.632L45.1725 737.814L39.7854 722.705L35.3182 707.177L-141.495 10.0157L-146.149 -12.9101L-148.466 -35.4943L-148.525 -57.62L-146.417 -79.168L-142.214 -100.022L-135.999 -120.065L-127.864 -139.182L-121.406 -151.354L-114.151 -163.031L-101.829 -179.532L-87.8574 -194.719L-72.3109 -208.48L-55.2707 -220.692L-36.8169 -231.251L-17.0273 -240.041L4.01874 -246.954C4.01874 -246.954 18.7146 -250.458 33.9091 -253.048Z" stroke="url(#paint15_radial_198_13896)" stroke-width="2" stroke-miterlimit="10" mask="url(#path-1-inside-1_198_13896)"/>
<path d="M4.36453 -274.764L721.963 -372.749L745.632 -374.811L769.221 -374.602L792.601 -372.219L815.644 -367.747L838.226 -361.285L860.21 -352.916L881.477 -342.74L895.186 -334.991L908.484 -326.502L927.553 -312.442L945.465 -296.872L962.081 -279.875L977.273 -261.542L990.914 -241.956L1002.87 -221.206L1013 -199.376L1018.68 -184.265L1023.46 -168.733L1218.81 544.885L1224.21 568.936L1227.23 592.694L1227.96 616.036L1226.46 638.838L1222.81 660.979L1217.07 682.334L1209.32 702.779L1203.08 715.839L1196 728.404L1183.85 746.228L1169.94 762.712L1154.34 777.727L1137.12 791.148L1118.36 802.846L1098.14 812.689L1076.53 820.546L1061.38 824.618L1045.67 827.711L318.328 945.667L293.61 948.431L268.956 948.779L244.501 946.797L220.392 942.578L196.77 936.211L173.777 927.793L151.552 917.415L137.236 909.452L123.365 900.689L103.5 886.106L84.8902 869.886L67.672 852.123L51.9927 832.913L37.9904 812.353L25.8075 790.537L15.5784 767.568L9.9151 751.661L5.22586 735.312L-180.38 1.71771L-185.258 -22.3912L-187.675 -46.1402L-187.721 -69.4015L-185.482 -92.0566L-181.044 -113.979L-174.488 -135.05L-165.909 -155.146L-159.104 -167.939L-151.463 -180.213L-138.483 -197.553L-123.771 -213.512L-107.403 -227.965L-89.4693 -240.797L-70.0482 -251.887L-49.2216 -261.117L-27.0764 -268.373C-27.0764 -268.373 -11.6181 -272.048 4.36453 -274.764Z" stroke="url(#paint16_radial_198_13896)" stroke-width="2" stroke-miterlimit="10" mask="url(#path-1-inside-1_198_13896)"/>
<path d="M-25.1283 -296.441L727.334 -398.796L752.134 -400.948L776.85 -400.72L801.346 -398.208L825.494 -393.516L849.15 -386.734L872.187 -377.961L894.469 -367.293L908.835 -359.173L922.766 -350.277L942.751 -335.542L961.517 -319.228L978.927 -301.419L994.852 -282.212L1009.15 -261.695L1021.67 -239.954L1032.3 -217.087L1038.26 -201.251L1043.27 -184.981L1248.34 563.052L1254.02 588.277L1257.21 613.197L1257.98 637.681L1256.43 661.604L1252.61 684.831L1246.61 707.236L1238.51 728.69L1231.97 742.398L1224.55 755.587L1211.83 774.296L1197.25 791.602L1180.91 807.372L1162.87 821.468L1143.21 833.755L1122.02 844.099L1099.35 852.361L1083.48 856.644L1067 859.9L303.822 984.228L277.865 987.149L251.975 987.528L226.296 985.464L200.983 981.047L176.178 974.375L152.032 965.544L128.695 954.656L113.665 946.3L99.1027 937.104L78.2444 921.794L58.706 904.762L40.6306 886.108L24.1753 865.934L9.47885 844.342L-3.30612 821.432L-14.032 797.306L-19.9722 780.598L-24.8886 763.425L-219.238 -6.57193L-224.335 -31.8646L-226.855 -56.7733L-226.884 -81.1753L-224.51 -104.934L-219.832 -127.924L-212.934 -150.019L-203.91 -171.09L-196.758 -184.505L-188.725 -197.368L-175.093 -215.55L-159.635 -232.278L-142.445 -247.423L-123.613 -260.872L-103.224 -272.487L-81.3691 -282.156L-58.1248 -289.755C-58.1248 -289.755 -41.9043 -293.602 -25.1283 -296.441Z" stroke="url(#paint17_radial_198_13896)" stroke-width="2" stroke-miterlimit="10" mask="url(#path-1-inside-1_198_13896)"/>
<path d="M-54.5699 -318.082L732.688 -424.765L758.615 -427L784.456 -426.748L810.065 -424.116L835.31 -419.202L860.043 -412.106L884.125 -402.927L907.416 -391.767L922.435 -383.275L937.002 -373.973L957.891 -358.565L977.515 -341.507L995.722 -322.895L1012.37 -302.814L1027.32 -281.364L1040.43 -258.642L1051.54 -234.738L1057.77 -218.188L1063.02 -201.182L1277.82 581.179L1283.77 607.579L1287.12 633.662L1287.95 659.288L1286.33 684.327L1282.36 708.643L1276.1 732.103L1267.64 754.565L1260.81 768.921L1253.06 782.732L1239.76 802.328L1224.53 820.458L1207.44 836.978L1188.58 851.749L1168.03 864.626L1145.86 875.47L1122.15 884.137L1105.54 888.631L1088.32 892.052L289.31 1022.8L262.117 1025.88L234.989 1026.3L208.086 1024.15L181.564 1019.54L155.576 1012.56L130.278 1003.32L105.829 991.921L90.0795 983.174L74.8262 973.541L52.9792 957.506L32.5091 939.667L13.5816 920.126L-3.65411 898.989L-19.0404 876.363L-32.4238 852.356L-43.6552 827.074L-49.8672 809.567L-55.0064 791.57L-258.059 -14.8592L-263.379 -41.3305L-265.993 -67.4005L-266 -92.9352L-263.496 -117.801L-258.577 -141.855L-251.331 -164.971L-241.863 -187.017L-234.364 -201.048L-225.939 -214.505L-211.645 -233.521L-195.446 -251.017L-177.438 -266.854L-157.707 -280.915L-136.351 -293.061L-113.458 -303.165L-89.1179 -311.102C-89.1179 -311.102 -72.1306 -315.121 -54.5656 -318.083L-54.5699 -318.082Z" stroke="url(#paint18_radial_198_13896)" stroke-width="2" stroke-miterlimit="10" mask="url(#path-1-inside-1_198_13896)"/>
</g>
<defs>
<radialGradient id="paint0_radial_198_13896" cx="0" cy="0" r="1" gradientUnits="userSpaceOnUse" gradientTransform="translate(582.321 175.616) rotate(-8.27228) scale(569.93 957.128)">
<stop stop-color="#2F2F51"/>
<stop offset="1" stop-color="#1A1A2C"/>
</radialGradient>
<radialGradient id="paint1_radial_198_13896" cx="0" cy="0" r="1" gradientUnits="userSpaceOnUse" gradientTransform="translate(582.321 175.616) rotate(-8.27228) scale(569.93 957.128)">
<stop stop-color="#2F2F51"/>
<stop offset="1" stop-color="#1A1A2C"/>
</radialGradient>
<radialGradient id="paint2_radial_198_13896" cx="0" cy="0" r="1" gradientUnits="userSpaceOnUse" gradientTransform="translate(582.321 175.616) rotate(-8.27228) scale(569.93 957.128)">
<stop stop-color="#2F2F51"/>
<stop offset="1" stop-color="#1A1A2C"/>
</radialGradient>
<radialGradient id="paint3_radial_198_13896" cx="0" cy="0" r="1" gradientUnits="userSpaceOnUse" gradientTransform="translate(582.321 175.616) rotate(-8.27228) scale(569.93 957.128)">
<stop stop-color="#2F2F51"/>
<stop offset="1" stop-color="#1A1A2C"/>
</radialGradient>
<radialGradient id="paint4_radial_198_13896" cx="0" cy="0" r="1" gradientUnits="userSpaceOnUse" gradientTransform="translate(582.321 175.616) rotate(-8.27228) scale(569.93 957.128)">
<stop stop-color="#2F2F51"/>
<stop offset="1" stop-color="#1A1A2C"/>
</radialGradient>
<radialGradient id="paint5_radial_198_13896" cx="0" cy="0" r="1" gradientUnits="userSpaceOnUse" gradientTransform="translate(582.321 175.616) rotate(-8.27228) scale(569.93 957.128)">
<stop stop-color="#2F2F51"/>
<stop offset="1" stop-color="#1A1A2C"/>
</radialGradient>
<radialGradient id="paint6_radial_198_13896" cx="0" cy="0" r="1" gradientUnits="userSpaceOnUse" gradientTransform="translate(582.321 175.616) rotate(-8.27228) scale(569.93 957.128)">
<stop stop-color="#2F2F51"/>
<stop offset="1" stop-color="#1A1A2C"/>
</radialGradient>
<radialGradient id="paint7_radial_198_13896" cx="0" cy="0" r="1" gradientUnits="userSpaceOnUse" gradientTransform="translate(582.321 175.616) rotate(-8.27228) scale(569.93 957.128)">
<stop stop-color="#2F2F51"/>
<stop offset="1" stop-color="#1A1A2C"/>
</radialGradient>
<radialGradient id="paint8_radial_198_13896" cx="0" cy="0" r="1" gradientUnits="userSpaceOnUse" gradientTransform="translate(582.321 175.616) rotate(-8.27228) scale(569.93 957.128)">
<stop stop-color="#2F2F51"/>
<stop offset="1" stop-color="#1A1A2C"/>
</radialGradient>
<radialGradient id="paint9_radial_198_13896" cx="0" cy="0" r="1" gradientUnits="userSpaceOnUse" gradientTransform="translate(582.321 175.616) rotate(-8.27228) scale(569.93 957.128)">
<stop stop-color="#2F2F51"/>
<stop offset="1" stop-color="#1A1A2C"/>
</radialGradient>
<radialGradient id="paint10_radial_198_13896" cx="0" cy="0" r="1" gradientUnits="userSpaceOnUse" gradientTransform="translate(582.321 175.616) rotate(-8.27228) scale(569.93 957.128)">
<stop stop-color="#2F2F51"/>
<stop offset="1" stop-color="#1A1A2C"/>
</radialGradient>
<radialGradient id="paint11_radial_198_13896" cx="0" cy="0" r="1" gradientUnits="userSpaceOnUse" gradientTransform="translate(582.321 175.616) rotate(-8.27228) scale(569.93 957.128)">
<stop stop-color="#2F2F51"/>
<stop offset="1" stop-color="#1A1A2C"/>
</radialGradient>
<radialGradient id="paint12_radial_198_13896" cx="0" cy="0" r="1" gradientUnits="userSpaceOnUse" gradientTransform="translate(582.321 175.616) rotate(-8.27228) scale(569.93 957.128)">
<stop stop-color="#2F2F51"/>
<stop offset="1" stop-color="#1A1A2C"/>
</radialGradient>
<radialGradient id="paint13_radial_198_13896" cx="0" cy="0" r="1" gradientUnits="userSpaceOnUse" gradientTransform="translate(582.321 175.616) rotate(-8.27228) scale(569.93 957.128)">
<stop stop-color="#2F2F51"/>
<stop offset="1" stop-color="#1A1A2C"/>
</radialGradient>
<radialGradient id="paint14_radial_198_13896" cx="0" cy="0" r="1" gradientUnits="userSpaceOnUse" gradientTransform="translate(582.321 175.616) rotate(-8.27228) scale(569.93 957.128)">
<stop stop-color="#2F2F51"/>
<stop offset="1" stop-color="#1A1A2C"/>
</radialGradient>
<radialGradient id="paint15_radial_198_13896" cx="0" cy="0" r="1" gradientUnits="userSpaceOnUse" gradientTransform="translate(582.321 175.616) rotate(-8.27228) scale(569.93 957.128)">
<stop stop-color="#2F2F51"/>
<stop offset="1" stop-color="#1A1A2C"/>
</radialGradient>
<radialGradient id="paint16_radial_198_13896" cx="0" cy="0" r="1" gradientUnits="userSpaceOnUse" gradientTransform="translate(582.321 175.616) rotate(-8.27228) scale(569.93 957.128)">
<stop stop-color="#2F2F51"/>
<stop offset="1" stop-color="#1A1A2C"/>
</radialGradient>
<radialGradient id="paint17_radial_198_13896" cx="0" cy="0" r="1" gradientUnits="userSpaceOnUse" gradientTransform="translate(582.321 175.616) rotate(-8.27228) scale(569.93 957.128)">
<stop stop-color="#2F2F51"/>
<stop offset="1" stop-color="#1A1A2C"/>
</radialGradient>
<radialGradient id="paint18_radial_198_13896" cx="0" cy="0" r="1" gradientUnits="userSpaceOnUse" gradientTransform="translate(582.321 175.616) rotate(-8.27228) scale(569.93 957.128)">
<stop stop-color="#2F2F51"/>
<stop offset="1" stop-color="#1A1A2C"/>
</radialGradient>
<clipPath id="clip0_198_13896">
<rect width="1021" height="600" fill="white"/>
</clipPath>
</defs>
</svg>
