<svg width="1021" height="600" viewBox="0 0 1021 600" fill="none" xmlns="http://www.w3.org/2000/svg">
<g clip-path="url(#clip0_4_168)">
<path d="M828.232 -569.791L965.454 -946.763M828.232 -569.791L888.554 -274.388M828.232 -569.791L1140 -657.735M828.232 -569.791L516.461 -481.847M828.232 -569.791L888.547 -274.417M965.454 -946.763L1051.9 -523.421M965.454 -946.763L1412.25 -1072.8M965.454 -946.763L518.663 -820.733M965.454 -946.763L1042.17 -1157.51M1051.9 -523.421L888.554 -274.388M1051.9 -523.421L1498.7 -649.453M1051.9 -523.421L605.11 -397.39M1051.9 -523.421L1138.35 -100.085M1051.9 -523.421L1486.38 -1185.8M1051.9 -523.421L1138.34 -100.123M888.554 -274.388L576.783 -186.444M888.554 -274.388L1200.32 -362.332M888.554 -274.388L948.875 21.0153M1412.25 -1072.8L1498.7 -649.453M1412.25 -1072.8L1140 -657.735M1412.25 -1072.8L1564.45 -1304.84M1498.7 -649.453L1200.32 -362.332M1498.7 -649.453L1585.15 -226.118M1498.7 -649.453L2242.05 -1364.78M1140 -657.735L1200.32 -362.332M1200.32 -362.332L888.585 -274.397M1200.32 -362.332L1260.65 -66.9287M576.783 -186.444L605.11 -397.39M576.783 -186.444L516.461 -481.847M576.783 -186.444L265.013 -98.4998M576.783 -186.444L605.103 -397.388M576.783 -186.444L637.105 108.959M605.11 -397.39L518.663 -820.733M605.11 -397.39L158.312 -271.357M605.11 -397.39L691.556 25.9451M605.11 -397.39L680.444 -958.463M518.663 -820.733L516.461 -481.847M518.663 -820.733L519.892 -1010.19M518.663 -820.733L71.8642 -694.7M516.461 -481.847L204.691 -393.903M265.013 -98.4998L158.312 -271.357M265.013 -98.4998L204.691 -393.903M265.013 -98.4998L-46.7658 -10.5535M265.013 -98.4998L325.335 196.903M158.312 -271.357L71.8642 -694.7M158.312 -271.357L-288.487 -145.325M158.312 -271.357L605.103 -397.388M158.312 -271.357L244.758 151.978M158.312 -271.357L-125.48 -731.129M158.312 -271.357L-288.479 -145.327M204.691 -393.903L71.8642 -694.7M204.691 -393.903L-107.088 -305.956M71.8642 -694.7L518.616 -820.72M71.8642 -694.7L-2.3898 -862.861M71.8642 -694.7L-374.927 -568.67M-46.7658 -10.5535L-288.487 -145.325M-46.7658 -10.5535L-107.088 -305.956M-46.7658 -10.5535L-358.528 77.3883M-46.7658 -10.5535L13.5562 284.85M-288.487 -145.325L-374.935 -568.667M-288.487 -145.325L-735.278 -19.2942M-288.487 -145.325L-202.041 278.011M-107.088 -305.956L-374.935 -568.667M-107.088 -305.956L-418.85 -218.015M-374.935 -568.667L71.8172 -694.687M-374.935 -568.667L-821.726 -442.637M-821.726 -442.637L-735.278 -19.2942M-821.726 -442.637L-418.85 -218.015M-821.726 -442.637L-374.927 -568.67M-821.726 -442.637L-1046.95 -568.211M-735.278 -19.2942L-358.528 77.3883M-735.278 -19.2942L-288.479 -145.327M-735.278 -19.2942L-1674.76 -260.396M-735.278 -19.2942L-648.832 404.041M-418.85 -218.015L-358.528 77.3883M-358.528 77.3883L-735.227 -19.2852M-358.528 77.3883L-298.206 372.791M1585.15 -226.118L1138.35 -100.085M1585.15 -226.118L1260.65 -66.9287M1585.15 -226.118L1671.59 197.224M1585.15 -226.118L2393.58 -622.705M1585.15 -226.118L1498.71 -649.416M1138.35 -100.085L948.875 21.0153M1138.35 -100.085L691.556 25.9451M1138.35 -100.085L1224.79 323.257M1138.35 -100.085L691.549 25.9473M1138.35 -100.085L1642.31 -422.178M1260.65 -66.9287L948.875 21.0153M1260.65 -66.9287L1320.97 228.474M948.875 21.0153L888.56 -274.358M948.875 21.0153L637.105 108.959M948.875 21.0153L1009.19 316.389M691.556 25.9451L637.105 108.959M691.556 25.9451L836.377 -194.842M691.556 25.9451L244.758 151.978M691.556 25.9451L778.004 449.288M637.105 108.959L576.789 -186.414M637.105 108.959L691.549 25.9473M637.105 108.959L325.335 196.903M637.105 108.959L697.427 404.362M605.103 -397.388L691.549 25.9473M691.549 25.9473L244.758 151.978M691.549 25.9473L777.996 449.29M244.758 151.978L325.335 196.903M244.758 151.978L-202.041 278.011M244.758 151.978L331.205 575.32M244.758 151.978L30.4527 32.4928M244.758 151.978L158.319 -271.32M244.758 151.978L-202.034 278.008M244.758 151.978L691.51 25.9583M325.335 196.903L265.019 -98.4701M325.335 196.903L13.5562 284.85M325.335 196.903L385.656 492.306M-202.041 278.011L13.5562 284.85M-202.041 278.011L-648.832 404.041M-202.041 278.011L-115.594 701.353M13.5562 284.85L-46.7595 -10.5239M13.5562 284.85L-298.206 372.791M13.5562 284.85L73.878 580.252L-115.594 701.353M-298.206 372.791L-648.832 404.041M-298.206 372.791L13.564 284.847M-298.206 372.791L-237.885 668.194M-648.832 404.041L-735.271 -19.2571M-648.832 404.041L-202.034 278.008M-648.832 404.041L-1523.17 481.972M-648.832 404.041L-562.385 827.384M1671.59 197.224L1224.79 323.257M1671.59 197.224L1320.97 228.474M1671.59 197.224L1758.04 620.559M1671.59 197.224L2545.11 119.366M1671.59 197.224L1585.16 -226.074M1224.79 323.257L1009.2 316.418M1224.79 323.257L777.996 449.29M1224.79 323.257L1311.24 746.592M1224.79 323.257L1798.24 341.436M1224.79 323.257L778.004 449.288M1224.79 323.257L1311.23 746.555M1320.97 228.474L1009.2 316.418M1320.97 228.474L1381.29 523.877M1009.2 316.418L948.881 21.0448M1009.2 316.418L697.427 404.362M1009.2 316.418L1069.52 611.821M697.427 404.362L777.996 449.29M697.427 404.362L385.688 492.297M697.427 404.362L385.656 492.306M697.427 404.362L757.749 699.765M777.996 449.29L331.205 575.32M777.996 449.29L864.442 872.625M331.205 575.32L385.656 492.306M331.205 575.32L-115.594 701.353M331.205 575.32L417.651 998.656M331.205 575.32L-115.586 701.351M331.205 575.32L778.004 449.288M331.205 575.32L186.384 796.107M331.205 575.32L417.643 998.618M385.656 492.306L73.9095 580.243M385.656 492.306L73.886 580.25M385.656 492.306L445.978 787.709M13.564 284.847L-202.034 278.008M13.564 284.847L73.886 580.25M-202.034 278.008L-115.586 701.351M-202.034 278.008L-775.471 259.827M-202.034 278.008L-288.472 -145.29M-202.034 278.008L-288.479 -145.327M-202.034 278.008L244.718 151.989M73.886 580.25L-115.586 701.351M73.886 580.25L-237.885 668.194M73.886 580.25L134.208 875.653M-115.586 701.351L-562.385 827.384M-115.586 701.351L-29.1401 1124.69M-115.586 701.351L-619.54 1023.44M-237.885 668.194L-562.385 827.384M-237.885 668.194L-177.563 963.597M-562.385 827.384L-648.823 404.086M-562.385 827.384L-1371.57 1224.34M-562.385 827.384L-475.939 1250.72M1758.04 620.559L1311.24 746.592M1758.04 620.559L1381.29 523.877M1758.04 620.559L1844.49 1043.9M1758.04 620.559L2696.65 861.437M1758.04 620.559L1671.6 197.261M1311.24 746.592L1069.52 611.821M1311.24 746.592L864.442 872.625M1311.24 746.592L1397.69 1169.93M1311.24 746.592L1954.17 1105.06M1311.24 746.592L864.45 872.623M1381.29 523.877L1069.52 611.821M1381.29 523.877L1441.61 819.28M1069.52 611.821L1009.2 316.448M1069.52 611.821L757.749 699.765M1069.52 611.821L1129.84 907.224M864.442 872.625L757.749 699.765M864.442 872.625L417.651 998.656M864.442 872.625L950.89 1295.97L818.071 995.168M757.749 699.765L697.433 404.392M757.749 699.765L445.978 787.709M757.749 699.765L818.071 995.168M757.749 699.765L864.45 872.623M417.651 998.656L445.978 787.709M417.651 998.656L-29.1401 1124.69M417.651 998.656L504.098 1422M417.651 998.656L864.45 872.623M417.651 998.656L342.318 1559.73M445.978 787.709L385.663 492.336M445.978 787.709L134.208 875.653M445.978 787.709L506.3 1083.11M445.978 787.709L757.717 699.774M-29.1401 1124.69L134.208 875.653M-29.1401 1124.69L-475.939 1250.72M-29.1401 1124.69L57.3073 1548.03M-29.1401 1124.69L-463.606 1787.06M134.208 875.653L73.8919 580.28M134.208 875.653L-177.563 963.597M134.208 875.653L194.53 1171.06M134.208 875.653L445.947 787.718M-177.563 963.597L-475.939 1250.72M-177.563 963.597L-117.241 1259M-475.939 1250.72L-562.377 827.421M-475.939 1250.72L-389.492 1674.06M-475.939 1250.72L-1219.98 1966.71M1129.84 907.224L1397.69 1169.93M1129.84 907.224L1441.61 819.28M1129.84 907.224L818.071 995.168M1397.69 1169.93L950.936 1295.95M1397.69 1169.93L1546.81 1316.19M1397.69 1169.93L1844.49 1043.9M1397.69 1169.93L950.897 1295.97M1441.61 819.28L1844.49 1043.9M1844.49 1043.9L1397.74 1169.92M1844.49 1043.9L2068.78 1168.96M818.071 995.168L950.897 1295.97M818.071 995.168L506.3 1083.11M950.897 1295.97L864.45 872.623M950.897 1295.97L504.098 1422M950.897 1295.97L1024.84 1463.43M864.45 872.623L1148.24 1332.39M864.45 872.623L778.004 449.288M504.098 1422L506.3 1083.11M504.098 1422L57.3073 1548.03M504.098 1422L502.875 1610.66M504.098 1422L950.85 1295.98M506.3 1083.11L194.53 1171.06M57.3073 1548.03L194.53 1171.06M57.3073 1548.03L-389.492 1674.06M57.3073 1548.03L-19.093 1757.9M57.3073 1548.03L504.059 1422.01M194.53 1171.06L-117.241 1259M194.53 1171.06L57.3217 1547.98M-389.492 1674.06L-117.241 1259M-389.492 1674.06L-541.061 1905.14M2235.45 -1397.1L1486.38 -1185.8M1486.38 -1185.8L1467.64 -1277.53M1486.38 -1185.8L680.444 -958.463M1486.38 -1185.8L1642.31 -422.178M1486.38 -1185.8L1564.45 -1304.84M1486.38 -1185.8L1642.29 -422.253M1564.45 -1304.84L836.377 -194.842M680.444 -958.463L661.713 -1050.19M680.444 -958.463L-125.48 -731.129M680.444 -958.463L836.377 -194.842M680.444 -958.463L693.985 -1059.29M-125.48 -731.129L-144.211 -822.856M-125.48 -731.129L-931.404 -503.794M-125.48 -731.129L30.4527 32.4928M-125.48 -731.129L-176.483 -813.753M-288.479 -145.327L-931.404 -503.794M-288.479 -145.327L-374.927 -568.67M-931.404 -503.794L-950.135 -595.521M-931.404 -503.794L-1681.27 -292.273M-931.404 -503.794L-775.471 259.827M-931.404 -503.794L-1046.95 -568.211M-374.927 -568.67L-524.671 -715.536M-1046.95 -568.211L30.4527 32.4928M1642.31 -422.178L2391.38 -633.477M1642.31 -422.178L836.377 -194.842M1642.31 -422.178L1798.24 341.436M1642.31 -422.178L2343.07 -870.062M836.377 -194.842L30.4527 32.4928M836.377 -194.842L992.309 568.773M30.4527 32.4928L-775.471 259.827M30.4527 32.4928L186.384 796.107M30.4527 32.4928L-125.464 -731.047M30.4527 32.4928L836.298 -194.82M-775.471 259.827L-1525.34 471.349M-775.471 259.827L-619.54 1023.44M-775.471 259.827L-1573.7 234.519M-775.471 259.827L-931.388 -503.713M-775.471 259.827L30.3744 32.5149M1798.24 341.436L2547.31 130.138M1798.24 341.436L992.309 568.773M1798.24 341.436L1954.17 1105.06M1798.24 341.436L2595.63 366.723M1798.24 341.436L1954.16 1104.98M778.004 449.288L992.309 568.773M778.004 449.288L691.565 25.9896M778.004 449.288L864.442 872.586M992.309 568.773L186.384 796.107M992.309 568.773L1148.24 1332.39M992.309 568.773L2068.78 1168.96M992.309 568.773L836.392 -194.768M992.309 568.773L1148.23 1332.31M186.384 796.107L-619.54 1023.44M186.384 796.107L342.318 1559.73M186.384 796.107L-541.061 1905.14M186.384 796.107L342.301 1559.65M-619.54 1023.44L-1369.4 1234.96M-619.54 1023.44L-463.606 1787.06M-619.54 1023.44L-1321.04 1471.79M1954.17 1105.06L2703.25 893.759M1954.17 1105.06L1148.24 1332.39M1954.17 1105.06L1972.75 1196.04M1954.17 1105.06L2068.78 1168.96M1148.24 1332.39L342.318 1559.73M1148.24 1332.39L1166.82 1423.38M1148.24 1332.39L1198.83 1414.35M342.318 1559.73L-463.606 1787.06M342.318 1559.73L360.897 1650.71M342.318 1559.73L328.883 1659.74M-463.606 1787.06L-1213.47 1998.58M-463.606 1787.06L-445.027 1878.05M-463.606 1787.06L-541.061 1905.14" stroke="#38384D" stroke-width="2" stroke-linejoin="round"/>
</g>
<defs>
<clipPath id="clip0_4_168">
<rect width="1021" height="600" fill="white"/>
</clipPath>
</defs>
</svg>
