<svg width="1012" height="506" viewBox="0 0 1012 506" fill="none" xmlns="http://www.w3.org/2000/svg">
<g clip-path="url(#clip0_4_113)">
<g opacity="0.7">
<path d="M344.539 49.7874L254.922 384.242L-80.0033 294.499L9.61345 -39.9556L344.539 49.7874ZM345.433 49.2722L9.10734 -40.8308L-80.8792 295.003L255.428 385.117L345.415 49.2825L345.433 49.2722Z" fill="url(#paint0_radial_4_113)"/>
<path d="M363.681 64.4254L240.297 403.34L-99.1177 279.868L24.2661 -59.0468L363.681 64.4254ZM364.622 63.9906L23.8147 -60.013L-100.095 280.3L240.721 404.299L364.63 63.9854L364.622 63.9906Z" fill="url(#paint1_radial_4_113)"/>
<path d="M382.209 81.3588L223.318 421.808L-117.659 262.871L41.2326 -77.5784L382.209 81.3588ZM383.196 81.0044L40.8244 -78.5934L-118.71 263.298L223.729 422.869L383.235 80.9697L383.196 81.0044Z" fill="url(#paint2_radial_4_113)"/>
<path d="M399.905 100.605L204.081 439.505L-135.37 243.681L60.4543 -95.2189L399.905 100.605ZM401.006 100.304L60.1609 -96.3238L-136.476 243.973L204.383 440.605L401.006 100.304Z" fill="url(#paint3_radial_4_113)"/>
<path d="M416.516 122.18L182.487 456.072L-151.972 222.101L82.0433 -111.795L416.516 122.18ZM417.683 121.972L81.8341 -112.96L-153.148 222.314L182.701 457.246L417.683 121.972Z" fill="url(#paint4_radial_4_113)"/>
<path d="M431.788 146.074L158.579 471.317L-167.243 198.23L105.938 -127.021L431.788 146.074ZM433.026 145.968L105.849 -128.268L-168.491 198.318L158.686 472.553L433.026 145.968Z" fill="url(#paint5_radial_4_113)"/>
<path d="M445.473 172.253L132.378 484.967L-180.938 172.033L132.157 -140.681L445.473 172.253ZM446.759 172.25L132.162 -141.97L-182.229 172.027L132.382 486.251L446.759 172.25Z" fill="url(#paint6_radial_4_113)"/>
<path d="M457.285 200.654L103.961 496.763L-192.773 143.633L160.594 -152.464L457.285 200.654ZM458.629 200.772L160.702 -153.801L-194.094 143.513L103.833 498.087L458.629 200.772Z" fill="url(#paint7_radial_4_113)"/>
<path d="M466.975 231.195L73.3733 506.392L-202.436 113.076L191.166 -162.12L466.975 231.195ZM468.323 231.466L191.406 -163.497L-203.815 112.835L73.1238 507.774L468.359 231.446L468.323 231.466Z" fill="url(#paint8_radial_4_113)"/>
<path d="M474.244 263.775L40.7642 513.638L-209.709 80.5107L223.771 -169.352L474.244 263.775ZM475.654 264.153L224.148 -170.761L-211.119 80.1328L40.3869 515.047L475.654 264.153Z" fill="url(#paint9_radial_4_113)"/>
</g>
<g opacity="0.7">
<path d="M756.41 6.92359L421.013 -82.9455L510.756 -417.871L846.153 -328.002L756.41 6.92359ZM756.927 7.81795L847.03 -328.507L510.25 -418.747L420.136 -82.4399L756.917 7.80002L756.927 7.81795Z" fill="url(#paint10_radial_4_113)"/>
<path d="M741.747 26.0595L401.854 -97.5863L525.412 -436.979L865.304 -313.333L741.747 26.0595ZM742.183 27.0002L866.273 -313.784L524.978 -437.957L400.893 -97.1636L742.189 27.0092L742.183 27.0002Z" fill="url(#paint11_radial_4_113)"/>
<path d="M724.782 44.5786L383.326 -114.582L542.441 -455.511L883.897 -296.35L724.782 44.5786ZM725.138 45.5657L884.914 -296.758L542.012 -456.563L382.263 -114.172L725.173 45.6053L725.138 45.5657Z" fill="url(#paint12_radial_4_113)"/>
<path d="M705.497 62.2647L365.569 -133.835L561.669 -473.212L901.597 -277.112L705.497 62.2647ZM705.8 63.366L902.705 -277.405L561.375 -474.319L364.467 -133.533L705.8 63.366Z" fill="url(#paint13_radial_4_113)"/>
<path d="M683.878 78.864L348.943 -155.445L583.294 -489.803L918.232 -255.508L683.878 78.864ZM684.087 80.031L919.4 -255.716L583.079 -490.979L347.766 -155.232L684.087 80.031Z" fill="url(#paint14_radial_4_113)"/>
<path d="M659.931 94.1219L333.641 -179.368L607.217 -505.059L933.515 -231.597L659.931 94.1219ZM660.039 95.3598L934.765 -231.686L607.128 -506.307L332.402 -179.262L660.039 95.3598Z" fill="url(#paint15_radial_4_113)"/>
<path d="M633.694 107.791L319.937 -205.584L633.473 -518.739L947.229 -205.364L633.694 107.791ZM633.697 109.077L948.522 -205.358L633.478 -520.029L318.65 -205.581L633.697 109.077Z" fill="url(#paint16_radial_4_113)"/>
<path d="M605.226 119.585L308.09 -234.014L661.939 -530.556L959.063 -176.914L605.226 119.585ZM605.108 120.929L960.404 -176.804L662.058 -531.877L306.763 -234.143L605.108 120.929Z" fill="url(#paint17_radial_4_113)"/>
<path d="M574.611 129.255L298.414 -264.615L692.569 -540.199L968.766 -146.329L574.611 129.255ZM574.341 130.603L970.147 -146.088L692.81 -541.578L297.028 -264.865L574.361 130.639L574.341 130.603Z" fill="url(#paint18_radial_4_113)"/>
<path d="M541.951 136.503L291.126 -297.235L725.215 -547.45L976.04 -113.713L541.951 136.503ZM541.573 137.913L977.453 -113.334L725.593 -548.86L289.714 -297.613L541.573 137.913Z" fill="url(#paint19_radial_4_113)"/>
</g>
<g opacity="0.7">
<path d="M1091.2 249.855L1001.58 584.309L666.657 494.566L756.274 160.112L1091.2 249.855ZM1092.09 249.339L755.768 159.236L665.781 495.071L1002.09 585.184L1092.07 249.35L1092.09 249.339Z" fill="url(#paint20_radial_4_113)"/>
<path d="M1110.34 264.493L986.958 603.407L647.542 479.935L770.926 141.02L1110.34 264.493ZM1111.28 264.058L770.475 140.054L646.565 480.368L987.381 604.366L1111.29 264.053L1111.28 264.058Z" fill="url(#paint21_radial_4_113)"/>
<path d="M1128.87 281.426L969.978 621.875L629.002 462.938L787.893 122.489L1128.87 281.426ZM1129.86 281.072L787.485 121.474L627.95 463.365L970.389 622.936L1129.9 281.037L1129.86 281.072Z" fill="url(#paint22_radial_4_113)"/>
<path d="M1146.57 300.672L950.741 639.572L611.29 443.748L807.114 104.848L1146.57 300.672ZM1147.67 300.371L806.821 103.743L610.184 444.04L951.043 640.672L1147.67 300.371Z" fill="url(#paint23_radial_4_113)"/>
<path d="M1163.18 322.247L929.147 656.139L594.688 422.168L828.703 88.2722L1163.18 322.247ZM1164.34 322.039L828.494 87.1068L593.512 422.382L929.361 657.313L1164.34 322.039Z" fill="url(#paint24_radial_4_113)"/>
<path d="M1178.45 346.141L905.239 671.384L579.417 398.297L852.599 73.0461L1178.45 346.141ZM1179.69 346.035L852.509 71.7996L578.169 398.385L905.346 672.62L1179.69 346.035Z" fill="url(#paint25_radial_4_113)"/>
<path d="M1192.13 372.32L879.038 685.034L565.722 372.1L878.817 59.386L1192.13 372.32ZM1193.42 372.317L878.823 58.0969L564.431 372.094L879.042 686.318L1193.42 372.317Z" fill="url(#paint26_radial_4_113)"/>
<path d="M1203.95 400.721L850.621 696.83L553.887 343.7L907.254 47.603L1203.95 400.721ZM1205.29 400.84L907.363 46.2662L552.566 343.581L850.493 698.154L1205.29 400.84Z" fill="url(#paint27_radial_4_113)"/>
<path d="M1213.63 431.263L820.033 706.459L544.224 313.143L937.826 37.9468L1213.63 431.263ZM1214.98 431.533L938.066 36.5698L542.845 312.902L819.784 707.841L1215.02 431.513L1214.98 431.533Z" fill="url(#paint28_radial_4_113)"/>
<path d="M1220.9 463.842L787.424 713.706L536.951 280.578L970.431 30.7147L1220.9 463.842ZM1222.31 464.22L970.809 29.3064L535.541 280.2L787.047 715.114L1222.31 464.22Z" fill="url(#paint29_radial_4_113)"/>
</g>
<g opacity="0.7">
<path d="M503.544 950.633L168.147 860.764L257.89 525.839L593.287 615.708L503.544 950.633ZM504.061 951.528L594.164 615.202L257.383 524.962L167.27 861.27L504.05 951.51L504.061 951.528Z" fill="url(#paint30_radial_4_113)"/>
<path d="M488.88 969.769L148.988 846.123L272.546 506.731L612.438 630.377L488.88 969.769ZM489.317 970.71L613.407 629.926L272.112 505.753L148.027 846.546L489.322 970.719L489.317 970.71Z" fill="url(#paint31_radial_4_113)"/>
<path d="M471.916 988.288L130.46 829.127L289.575 488.199L631.031 647.359L471.916 988.288ZM472.272 989.275L632.048 646.952L289.145 487.146L129.396 829.538L472.307 989.315L472.272 989.275Z" fill="url(#paint32_radial_4_113)"/>
<path d="M452.631 1005.97L112.703 809.874L308.803 470.498L648.731 666.597L452.631 1005.97ZM452.934 1007.08L649.839 666.305L308.509 469.391L111.6 810.176L452.934 1007.08Z" fill="url(#paint33_radial_4_113)"/>
<path d="M431.012 1022.57L96.077 788.264L330.427 453.907L665.366 688.202L431.012 1022.57ZM431.221 1023.74L666.534 687.994L330.213 452.731L94.8998 788.478L431.221 1023.74Z" fill="url(#paint34_radial_4_113)"/>
<path d="M407.065 1037.83L80.7749 764.341L354.351 438.651L680.649 712.112L407.065 1037.83ZM407.172 1039.07L681.898 712.024L354.262 437.402L79.5356 764.448L407.172 1039.07Z" fill="url(#paint35_radial_4_113)"/>
<path d="M380.827 1051.5L67.0707 738.126L380.607 424.971L694.363 738.346L380.827 1051.5ZM380.831 1052.79L695.656 738.352L380.612 423.68L65.7834 738.129L380.831 1052.79Z" fill="url(#paint36_radial_4_113)"/>
<path d="M352.36 1063.29L55.224 709.695L409.073 413.154L706.197 766.796L352.36 1063.29ZM352.242 1064.64L707.537 766.906L409.192 411.833L53.8964 709.566L352.242 1064.64Z" fill="url(#paint37_radial_4_113)"/>
<path d="M321.745 1072.96L45.5479 679.095L439.703 403.511L715.9 797.38L321.745 1072.96ZM321.474 1074.31L717.281 797.622L439.944 402.132L44.162 678.845L321.495 1074.35L321.474 1074.31Z" fill="url(#paint38_radial_4_113)"/>
<path d="M289.084 1080.21L38.2594 646.475L472.349 396.259L723.174 829.997L289.084 1080.21ZM288.707 1081.62L724.586 830.375L472.727 394.849L36.8473 646.096L288.707 1081.62Z" fill="url(#paint39_radial_4_113)"/>
</g>
<g opacity="0.924138">
<path d="M-6.56339 498.89L-16.2668 460.265L-24.1777 481.661L-6.56339 498.89Z" fill="white"/>
</g>
</g>
<defs>
<radialGradient id="paint0_radial_4_113" cx="0" cy="0" r="1" gradientUnits="userSpaceOnUse" gradientTransform="translate(94.0302 161.897) rotate(138.712) scale(801.35 765.838)">
<stop stop-color="#3C3C65"/>
<stop offset="1" stop-color="#181829"/>
</radialGradient>
<radialGradient id="paint1_radial_4_113" cx="0" cy="0" r="1" gradientUnits="userSpaceOnUse" gradientTransform="translate(94.0302 161.897) rotate(138.712) scale(801.35 765.838)">
<stop stop-color="#3C3C65"/>
<stop offset="1" stop-color="#181829"/>
</radialGradient>
<radialGradient id="paint2_radial_4_113" cx="0" cy="0" r="1" gradientUnits="userSpaceOnUse" gradientTransform="translate(94.0302 161.897) rotate(138.712) scale(801.35 765.838)">
<stop stop-color="#3C3C65"/>
<stop offset="1" stop-color="#181829"/>
</radialGradient>
<radialGradient id="paint3_radial_4_113" cx="0" cy="0" r="1" gradientUnits="userSpaceOnUse" gradientTransform="translate(94.0302 161.897) rotate(138.712) scale(801.35 765.838)">
<stop stop-color="#3C3C65"/>
<stop offset="1" stop-color="#181829"/>
</radialGradient>
<radialGradient id="paint4_radial_4_113" cx="0" cy="0" r="1" gradientUnits="userSpaceOnUse" gradientTransform="translate(94.0302 161.897) rotate(138.712) scale(801.35 765.838)">
<stop stop-color="#3C3C65"/>
<stop offset="1" stop-color="#181829"/>
</radialGradient>
<radialGradient id="paint5_radial_4_113" cx="0" cy="0" r="1" gradientUnits="userSpaceOnUse" gradientTransform="translate(94.0302 161.897) rotate(138.712) scale(801.35 765.838)">
<stop stop-color="#3C3C65"/>
<stop offset="1" stop-color="#181829"/>
</radialGradient>
<radialGradient id="paint6_radial_4_113" cx="0" cy="0" r="1" gradientUnits="userSpaceOnUse" gradientTransform="translate(94.0302 161.897) rotate(138.712) scale(801.35 765.838)">
<stop stop-color="#3C3C65"/>
<stop offset="1" stop-color="#181829"/>
</radialGradient>
<radialGradient id="paint7_radial_4_113" cx="0" cy="0" r="1" gradientUnits="userSpaceOnUse" gradientTransform="translate(94.0302 161.897) rotate(138.712) scale(801.35 765.838)">
<stop stop-color="#3C3C65"/>
<stop offset="1" stop-color="#181829"/>
</radialGradient>
<radialGradient id="paint8_radial_4_113" cx="0" cy="0" r="1" gradientUnits="userSpaceOnUse" gradientTransform="translate(94.0302 161.897) rotate(138.712) scale(801.35 765.838)">
<stop stop-color="#3C3C65"/>
<stop offset="1" stop-color="#181829"/>
</radialGradient>
<radialGradient id="paint9_radial_4_113" cx="0" cy="0" r="1" gradientUnits="userSpaceOnUse" gradientTransform="translate(94.0302 161.897) rotate(138.712) scale(801.35 765.838)">
<stop stop-color="#3C3C65"/>
<stop offset="1" stop-color="#181829"/>
</radialGradient>
<radialGradient id="paint10_radial_4_113" cx="0" cy="0" r="1" gradientUnits="userSpaceOnUse" gradientTransform="translate(643.829 -243.711) rotate(-131.362) scale(802.913 766.501)">
<stop stop-color="#3C3C65"/>
<stop offset="1" stop-color="#181829"/>
</radialGradient>
<radialGradient id="paint11_radial_4_113" cx="0" cy="0" r="1" gradientUnits="userSpaceOnUse" gradientTransform="translate(643.829 -243.711) rotate(-131.362) scale(802.913 766.501)">
<stop stop-color="#3C3C65"/>
<stop offset="1" stop-color="#181829"/>
</radialGradient>
<radialGradient id="paint12_radial_4_113" cx="0" cy="0" r="1" gradientUnits="userSpaceOnUse" gradientTransform="translate(643.829 -243.711) rotate(-131.362) scale(802.913 766.501)">
<stop stop-color="#3C3C65"/>
<stop offset="1" stop-color="#181829"/>
</radialGradient>
<radialGradient id="paint13_radial_4_113" cx="0" cy="0" r="1" gradientUnits="userSpaceOnUse" gradientTransform="translate(643.829 -243.711) rotate(-131.362) scale(802.913 766.501)">
<stop stop-color="#3C3C65"/>
<stop offset="1" stop-color="#181829"/>
</radialGradient>
<radialGradient id="paint14_radial_4_113" cx="0" cy="0" r="1" gradientUnits="userSpaceOnUse" gradientTransform="translate(643.829 -243.711) rotate(-131.362) scale(802.913 766.501)">
<stop stop-color="#3C3C65"/>
<stop offset="1" stop-color="#181829"/>
</radialGradient>
<radialGradient id="paint15_radial_4_113" cx="0" cy="0" r="1" gradientUnits="userSpaceOnUse" gradientTransform="translate(643.829 -243.711) rotate(-131.362) scale(802.913 766.501)">
<stop stop-color="#3C3C65"/>
<stop offset="1" stop-color="#181829"/>
</radialGradient>
<radialGradient id="paint16_radial_4_113" cx="0" cy="0" r="1" gradientUnits="userSpaceOnUse" gradientTransform="translate(643.829 -243.711) rotate(-131.362) scale(802.913 766.501)">
<stop stop-color="#3C3C65"/>
<stop offset="1" stop-color="#181829"/>
</radialGradient>
<radialGradient id="paint17_radial_4_113" cx="0" cy="0" r="1" gradientUnits="userSpaceOnUse" gradientTransform="translate(643.829 -243.711) rotate(-131.362) scale(802.913 766.501)">
<stop stop-color="#3C3C65"/>
<stop offset="1" stop-color="#181829"/>
</radialGradient>
<radialGradient id="paint18_radial_4_113" cx="0" cy="0" r="1" gradientUnits="userSpaceOnUse" gradientTransform="translate(643.829 -243.711) rotate(-131.362) scale(802.913 766.501)">
<stop stop-color="#3C3C65"/>
<stop offset="1" stop-color="#181829"/>
</radialGradient>
<radialGradient id="paint19_radial_4_113" cx="0" cy="0" r="1" gradientUnits="userSpaceOnUse" gradientTransform="translate(643.829 -243.711) rotate(-131.362) scale(802.913 766.501)">
<stop stop-color="#3C3C65"/>
<stop offset="1" stop-color="#181829"/>
</radialGradient>
<radialGradient id="paint20_radial_4_113" cx="0" cy="0" r="1" gradientUnits="userSpaceOnUse" gradientTransform="translate(840.69 361.964) rotate(138.712) scale(801.35 765.838)">
<stop stop-color="#3C3C65"/>
<stop offset="1" stop-color="#181829"/>
</radialGradient>
<radialGradient id="paint21_radial_4_113" cx="0" cy="0" r="1" gradientUnits="userSpaceOnUse" gradientTransform="translate(840.69 361.964) rotate(138.712) scale(801.35 765.838)">
<stop stop-color="#3C3C65"/>
<stop offset="1" stop-color="#181829"/>
</radialGradient>
<radialGradient id="paint22_radial_4_113" cx="0" cy="0" r="1" gradientUnits="userSpaceOnUse" gradientTransform="translate(840.69 361.964) rotate(138.712) scale(801.35 765.838)">
<stop stop-color="#3C3C65"/>
<stop offset="1" stop-color="#181829"/>
</radialGradient>
<radialGradient id="paint23_radial_4_113" cx="0" cy="0" r="1" gradientUnits="userSpaceOnUse" gradientTransform="translate(840.69 361.964) rotate(138.712) scale(801.35 765.838)">
<stop stop-color="#3C3C65"/>
<stop offset="1" stop-color="#181829"/>
</radialGradient>
<radialGradient id="paint24_radial_4_113" cx="0" cy="0" r="1" gradientUnits="userSpaceOnUse" gradientTransform="translate(840.69 361.964) rotate(138.712) scale(801.35 765.838)">
<stop stop-color="#3C3C65"/>
<stop offset="1" stop-color="#181829"/>
</radialGradient>
<radialGradient id="paint25_radial_4_113" cx="0" cy="0" r="1" gradientUnits="userSpaceOnUse" gradientTransform="translate(840.69 361.964) rotate(138.712) scale(801.35 765.838)">
<stop stop-color="#3C3C65"/>
<stop offset="1" stop-color="#181829"/>
</radialGradient>
<radialGradient id="paint26_radial_4_113" cx="0" cy="0" r="1" gradientUnits="userSpaceOnUse" gradientTransform="translate(840.69 361.964) rotate(138.712) scale(801.35 765.838)">
<stop stop-color="#3C3C65"/>
<stop offset="1" stop-color="#181829"/>
</radialGradient>
<radialGradient id="paint27_radial_4_113" cx="0" cy="0" r="1" gradientUnits="userSpaceOnUse" gradientTransform="translate(840.69 361.964) rotate(138.712) scale(801.35 765.838)">
<stop stop-color="#3C3C65"/>
<stop offset="1" stop-color="#181829"/>
</radialGradient>
<radialGradient id="paint28_radial_4_113" cx="0" cy="0" r="1" gradientUnits="userSpaceOnUse" gradientTransform="translate(840.69 361.964) rotate(138.712) scale(801.35 765.838)">
<stop stop-color="#3C3C65"/>
<stop offset="1" stop-color="#181829"/>
</radialGradient>
<radialGradient id="paint29_radial_4_113" cx="0" cy="0" r="1" gradientUnits="userSpaceOnUse" gradientTransform="translate(840.69 361.964) rotate(138.712) scale(801.35 765.838)">
<stop stop-color="#3C3C65"/>
<stop offset="1" stop-color="#181829"/>
</radialGradient>
<radialGradient id="paint30_radial_4_113" cx="0" cy="0" r="1" gradientUnits="userSpaceOnUse" gradientTransform="translate(390.963 699.998) rotate(-131.362) scale(802.913 766.501)">
<stop stop-color="#3C3C65"/>
<stop offset="1" stop-color="#181829"/>
</radialGradient>
<radialGradient id="paint31_radial_4_113" cx="0" cy="0" r="1" gradientUnits="userSpaceOnUse" gradientTransform="translate(390.963 699.998) rotate(-131.362) scale(802.913 766.501)">
<stop stop-color="#3C3C65"/>
<stop offset="1" stop-color="#181829"/>
</radialGradient>
<radialGradient id="paint32_radial_4_113" cx="0" cy="0" r="1" gradientUnits="userSpaceOnUse" gradientTransform="translate(390.963 699.998) rotate(-131.362) scale(802.913 766.501)">
<stop stop-color="#3C3C65"/>
<stop offset="1" stop-color="#181829"/>
</radialGradient>
<radialGradient id="paint33_radial_4_113" cx="0" cy="0" r="1" gradientUnits="userSpaceOnUse" gradientTransform="translate(390.963 699.998) rotate(-131.362) scale(802.913 766.501)">
<stop stop-color="#3C3C65"/>
<stop offset="1" stop-color="#181829"/>
</radialGradient>
<radialGradient id="paint34_radial_4_113" cx="0" cy="0" r="1" gradientUnits="userSpaceOnUse" gradientTransform="translate(390.963 699.998) rotate(-131.362) scale(802.913 766.501)">
<stop stop-color="#3C3C65"/>
<stop offset="1" stop-color="#181829"/>
</radialGradient>
<radialGradient id="paint35_radial_4_113" cx="0" cy="0" r="1" gradientUnits="userSpaceOnUse" gradientTransform="translate(390.963 699.998) rotate(-131.362) scale(802.913 766.501)">
<stop stop-color="#3C3C65"/>
<stop offset="1" stop-color="#181829"/>
</radialGradient>
<radialGradient id="paint36_radial_4_113" cx="0" cy="0" r="1" gradientUnits="userSpaceOnUse" gradientTransform="translate(390.963 699.998) rotate(-131.362) scale(802.913 766.501)">
<stop stop-color="#3C3C65"/>
<stop offset="1" stop-color="#181829"/>
</radialGradient>
<radialGradient id="paint37_radial_4_113" cx="0" cy="0" r="1" gradientUnits="userSpaceOnUse" gradientTransform="translate(390.963 699.998) rotate(-131.362) scale(802.913 766.501)">
<stop stop-color="#3C3C65"/>
<stop offset="1" stop-color="#181829"/>
</radialGradient>
<radialGradient id="paint38_radial_4_113" cx="0" cy="0" r="1" gradientUnits="userSpaceOnUse" gradientTransform="translate(390.963 699.998) rotate(-131.362) scale(802.913 766.501)">
<stop stop-color="#3C3C65"/>
<stop offset="1" stop-color="#181829"/>
</radialGradient>
<radialGradient id="paint39_radial_4_113" cx="0" cy="0" r="1" gradientUnits="userSpaceOnUse" gradientTransform="translate(390.963 699.998) rotate(-131.362) scale(802.913 766.501)">
<stop stop-color="#3C3C65"/>
<stop offset="1" stop-color="#181829"/>
</radialGradient>
<clipPath id="clip0_4_113">
<rect width="1012" height="506" fill="white"/>
</clipPath>
</defs>
</svg>
