<svg width="1021" height="600" viewBox="0 0 1021 600" fill="none" xmlns="http://www.w3.org/2000/svg">
<g clip-path="url(#clip0_4_155)">
<path d="M676.243 300L657.788 281.444L639.332 262.888L620.877 244.332L602.421 225.776L583.966 207.224L565.511 188.668L547.055 170.112L528.6 151.556L510.144 133L491.694 151.556L473.238 170.112L454.783 188.668L436.328 207.224L417.872 225.776L399.417 244.332L380.961 262.888L362.506 281.444L344.051 300L362.506 318.556L380.961 337.112L399.417 355.668L417.872 374.224L436.328 392.78L454.783 411.332L473.238 429.888L491.694 448.444L510.144 467L528.6 448.444L547.055 429.888L565.511 411.332L583.966 392.78L602.421 374.224L620.877 355.668L639.332 337.112C639.332 337.112 657.788 318.556 676.243 300Z" stroke="#38384D" stroke-width="2" stroke-linecap="round" stroke-linejoin="round"/>
<path d="M738.902 276.797L710.922 253.711L682.942 230.621L654.962 207.531L626.978 184.446L598.998 161.356L571.018 138.266L543.033 115.175L515.054 92.0901L487.074 69L464.109 97.1321L441.143 125.269L418.183 153.401L395.218 181.533L372.253 209.67L349.292 237.802L326.327 265.934L303.362 294.071L280.397 322.203L308.382 345.293L336.361 368.379L364.341 391.469L392.326 414.559L420.306 437.644L448.286 460.734L476.27 483.825L504.25 506.91L532.23 530L555.195 501.868L578.16 473.731L601.121 445.599L624.086 417.467L647.051 389.335L670.011 361.198L692.976 333.066C692.976 333.066 715.942 304.934 738.902 276.797Z" stroke="#38384D" stroke-width="2" stroke-linecap="round" stroke-linejoin="round"/>
<path d="M802.556 241.521L763.599 215.35L724.648 189.184L685.696 163.013L646.745 136.846L607.793 110.675L568.842 84.5039L529.886 58.3376L490.934 32.1664L451.983 6L425.958 45.1638L399.929 84.3275L373.904 123.491L347.875 162.66L321.846 201.824L295.821 240.987L269.792 280.151L243.767 319.315L217.738 358.479L256.694 384.65L295.646 410.816L334.597 436.987L373.549 463.159L412.5 489.325L451.452 515.496L490.408 541.662L529.359 567.834L568.311 594L594.335 554.836L620.365 515.672L646.389 476.509L672.418 437.345L698.448 398.176L724.472 359.013L750.502 319.849C750.502 319.849 776.526 280.685 802.556 241.521Z" stroke="#38384D" stroke-width="2" stroke-linecap="round" stroke-linejoin="round"/>
<path d="M868.198 190.794L816.346 162.929L764.494 135.064L712.642 107.199L660.79 79.3294L608.938 51.4645L557.086 23.5996L505.234 -4.27015L453.387 -32.1351L401.535 -60L373.816 -7.86546L346.102 44.2691L318.388 96.4036L290.674 148.533L262.955 200.668L235.242 252.802L207.528 304.937L179.814 357.072L152.095 409.206L203.947 437.071L255.799 464.936L307.651 492.806L359.503 520.671L411.355 548.536L463.207 576.4L515.059 604.27L566.907 632.135L618.759 660L646.477 607.865L674.191 555.731L701.905 503.601L729.619 451.467L757.338 399.332L785.052 347.198L812.766 295.063C812.766 295.063 840.48 242.928 868.198 190.794Z" stroke="#38384D" stroke-width="2" stroke-linecap="round" stroke-linejoin="round"/>
<path d="M935.83 122.719L868.938 94.8585L802.049 67.0023L735.161 39.1462L668.273 11.2853L601.38 -16.5708L534.492 -44.4269L467.604 -72.283L400.711 -100.144L333.823 -128L306.118 -60.7471L278.413 6.50577L250.703 73.7634L222.998 141.016L195.293 208.269L167.583 275.527L139.878 342.78L112.173 410.033L84.463 477.285L151.356 505.146L218.244 533.003L285.132 560.859L352.02 588.719L418.913 616.576L485.802 644.432L552.69 672.288L619.583 700.144L686.471 728L714.176 660.747L741.881 593.494L769.591 526.237L797.296 458.984L825.001 391.731L852.71 324.478L880.416 257.22C880.416 257.22 908.121 189.967 935.83 122.715V122.719Z" stroke="#38384D" stroke-width="2" stroke-linecap="round" stroke-linejoin="round"/>
<path d="M1005.45 32.2798L920.832 6.47092L836.213 -19.3379L751.593 -45.1468L666.974 -70.9557L582.354 -96.7645L497.735 -122.573L413.115 -148.382L328.491 -174.191L243.872 -200L218.202 -114.921L192.533 -29.841L166.864 55.2433L141.194 140.323L115.53 225.402L89.8606 310.482L64.1913 395.561L38.522 480.641L12.8527 565.72L97.4721 591.529L182.092 617.338L266.711 643.147L351.33 668.956L435.95 694.765L520.569 720.574L605.189 746.382L689.808 772.191L774.432 798L800.102 712.921L825.771 627.841L851.44 542.762L877.105 457.677L902.774 372.598L928.444 287.518L954.113 202.439C954.113 202.439 979.782 117.359 1005.45 32.2798Z" stroke="#38384D" stroke-width="2" stroke-linecap="round" stroke-linejoin="round"/>
<path d="M1078.06 -83.1988L972.607 -104.289L867.157 -125.379L761.712 -146.469L656.262 -167.554L550.818 -188.644L445.368 -209.735L339.918 -230.825L234.473 -251.91L129.023 -273L108.047 -166.977L87.0759 -60.9595L66.0998 45.0631L45.1237 151.081L24.1475 257.104L3.17617 363.126L-17.7999 469.144L-38.7761 575.167L-59.7522 681.189L45.6975 702.279L151.147 723.369L256.592 744.46L362.042 765.55L467.487 786.64L572.937 807.73L678.386 828.82L783.831 849.91L889.281 871L910.257 764.977L931.229 658.955L952.205 552.932L973.181 446.914L994.157 340.892L1015.13 234.869L1036.1 128.851C1036.1 128.851 1057.08 22.8286 1078.06 -83.1892V-83.1988Z" stroke="#38384D" stroke-width="2" stroke-linecap="round" stroke-linejoin="round"/>
<path d="M1151.66 -231.158L1021.68 -244.03L891.705 -256.901L761.727 -269.772L631.749 -282.643L501.771 -295.515L371.793 -308.386L241.815 -321.257L111.842 -334.129L-18.1365 -347L-30.9382 -216.315L-43.7398 -85.6304L-56.5415 45.0544L-69.3432 175.739L-82.1449 306.424L-94.9466 437.104L-107.748 567.789L-120.55 698.474L-133.352 829.158L-3.3737 842.03L126.6 854.901L256.578 867.772L386.556 880.644L516.534 893.515L646.512 906.386L776.49 919.257L906.463 932.129L1036.44 945L1049.24 814.315L1062.04 683.63L1074.85 552.946L1087.65 422.261L1100.45 291.581L1113.25 160.896L1126.05 30.2113C1126.05 30.2113 1138.85 -100.473 1151.66 -231.158Z" stroke="#38384D" stroke-width="2" stroke-linecap="round" stroke-linejoin="round"/>
<path d="M1218.29 -412H-198V1012H1218.29V-412Z" stroke="#38384D" stroke-width="2" stroke-linecap="round" stroke-linejoin="round"/>
</g>
<defs>
<clipPath id="clip0_4_155">
<rect width="1021" height="600" fill="white"/>
</clipPath>
</defs>
</svg>
