<svg width="1021" height="600" viewBox="0 0 1021 600" fill="none" xmlns="http://www.w3.org/2000/svg">
<g clip-path="url(#clip0_4_166)">
<path d="M532.109 279.676L553.07 258.704M553.07 258.704H574.031L577.637 255.096M553.07 258.704L605.473 206.273M605.473 206.273H617.282M605.473 206.273L678.839 132.867M678.839 132.867L681.882 129.822M678.839 132.867L720.761 90.9224M720.761 90.9224L725.154 86.5266M720.761 90.9224L877.968 -66.3696M877.968 -66.3696L887.487 -75.893M877.968 -66.3696L1004.53 -193M511.148 258.704L553.07 216.759M511.148 258.704L469.226 216.759M511.148 258.704V90.9224M553.07 216.759L636.914 132.867M553.07 216.759V132.867L563.55 122.381V101.409L594.992 69.9502V48.9779M636.914 132.867L647.397 122.381M636.914 132.867V90.9224L699.8 28.0057M647.397 122.381H668.358L689.319 101.409M647.397 122.381L720.761 48.9779M720.761 48.9779L732.402 37.3306M720.761 48.9779L762.683 7.03338M762.683 7.03338V-13.9389M762.683 7.03338L857.007 -87.3418M762.683 -13.9389V-20.4527M762.683 -13.9389V-34.9112M594.992 48.9779L636.914 7.03338M594.992 48.9779V-160.748M636.914 7.03338V-9.7563M636.914 7.03338L678.839 -34.9112V-118.803M678.839 -118.803V-125.498M678.839 -118.803V-193M678.839 -118.803L752.996 -193M469.226 216.759V174.814M469.226 216.759L353.938 101.409M353.938 101.409L343.457 90.9224M353.938 101.409L345.92 93.387M343.457 90.9224V69.9502M343.457 90.9224L301.535 48.9779M301.535 48.9779L280.574 28.0057M301.535 48.9779V-193M280.574 28.0057L276.015 23.4439M280.574 28.0057L259.613 7.03338M259.613 7.03338V-76.8557M259.613 7.03338L217.691 -34.9112M259.613 -76.8557V-103.305M259.613 -76.8557V-193M343.457 69.9502V60.643M343.457 69.9502V48.9779L353.938 38.4918M217.691 -34.9112L196.73 -55.8834M217.691 -34.9112V-193M196.73 -55.8834L175.769 -76.8557M196.73 -55.8834L195.875 -56.7395M175.769 -76.8557V-118.803M175.769 -76.8557L133.847 -118.803M133.847 -118.803V-160.748M133.847 -118.803V-153.162M133.847 -118.803V-152.785M133.847 -118.803L81.4417 -171.234M133.847 -160.748V-167.457M133.847 -160.748L102.406 -192.206L101.609 -193M133.847 -160.748V-193M81.4417 -171.234H60.4808L50.0003 -181.72M81.4417 -171.234L59.6873 -193M469.226 174.814V132.867M469.226 174.814L466.348 171.935M469.226 132.867L427.304 90.9224M469.226 132.867V69.9502M427.304 90.9224L385.382 48.9779M427.304 90.9224V7.03338M385.382 48.9779V7.03338M385.382 48.9779L343.457 7.03338M343.457 7.03338V-6.6223M343.457 7.03338V-34.9112M343.457 -34.9112V-54.8467M343.457 -34.9112V-118.803M343.457 -118.803V-139.775M343.457 -118.803V-120.785M343.457 -139.775V-158.63M343.457 -139.775V-193M511.148 90.9224V88.0758M511.148 90.9224L542.59 59.4641M511.148 90.9224V7.03338M542.59 59.4641L553.07 48.9779V-13.9389M542.59 59.4641L545.263 56.7892M553.07 -13.9389V-28.7794M553.07 -13.9389V-97.828M385.382 7.03338L374.902 -3.45275V-7.88714M385.382 7.03338V-97.828M385.382 -97.828V-108.699M385.382 -97.828V-193M427.304 7.03338L406.343 -13.9389M427.304 7.03338V-193M762.683 -34.9112V-76.8557M762.683 -34.9112L838.012 -110.281M594.992 -160.748V-193M594.992 -160.748L608.11 -173.87M762.683 -76.8557V-112.571M762.683 -76.8557L825.566 -139.775M825.566 -139.775L835.354 -149.565M825.566 -139.775L846.527 -160.748M825.566 -139.775L833.346 -147.557M857.007 -87.3418H877.968M857.007 -87.3418L962.609 -193M511.148 7.03338V-34.9112M511.148 7.03338L532.109 -13.9389M511.148 -34.9112L518.769 -42.5358M511.148 -34.9112V-193M846.527 -160.748V-193M846.527 -160.748L851.462 -165.686M846.527 -160.748L877.968 -192.206L878.765 -193M175.769 -118.803V-148.422M175.769 -118.803V-193M553.07 300.648H594.992M553.07 300.648L594.992 258.704M553.07 300.648L636.914 384.537M594.992 258.704H636.914M594.992 258.704L647.397 206.273M647.397 206.273H654.905M647.397 206.273L699.8 153.839M699.8 153.839L716.948 136.682M699.8 153.839L857.007 -3.45275M857.007 -3.45275H877.968M857.007 -3.45275L1014.22 -160.748M877.968 -3.45275L884.946 -10.4317M877.968 -3.45275L909.41 -34.9112H930.374M636.914 258.704H657.878M636.914 258.704L699.8 195.787M699.8 195.787H741.722L762.683 174.814M699.8 195.787L762.683 132.867M762.683 132.867L773.163 122.381M762.683 132.867H888.449L901.339 119.973M773.163 122.381H794.124L825.566 90.9224H1014.22M773.163 122.381L846.527 48.9779M846.527 48.9779L857.007 38.4918M846.527 48.9779H866.17M846.527 48.9779H1014.22M857.007 38.4918H877.968L898.929 17.5195H919.893L930.374 7.03338H1014.22M857.007 38.4918L867.488 28.0057M1014.22 7.03338L1024.7 -3.45275H1045.66M1014.22 7.03338H1056.14M1056.14 7.03338L1060.65 2.52493M1056.14 7.03338L1077.1 -13.9389M1014.22 48.9779H1014.99M1014.22 48.9779H1014.41M1014.22 48.9779L1024.7 38.4918H1045.66L1056.14 28.0057M1014.22 48.9779H1077.1M1077.1 48.9779H1077.64M1077.1 48.9779H1181.91L1251 -20.1506M594.992 300.648L636.914 342.593H678.839L720.761 384.537M594.992 300.648H678.839M720.761 384.537H888.449M720.761 384.537L762.683 426.482H804.605M636.914 384.537L699.8 447.457M636.914 384.537H678.839L692.011 397.716M699.8 447.457L720.761 468.429M699.8 447.457L713.712 461.376M720.761 468.429H762.683M720.761 468.429L898.929 646.693H919.893M762.683 468.429H846.527M762.683 468.429L804.605 510.374M846.527 468.429L888.449 510.374M846.527 468.429H1098.06M888.449 510.374L930.374 552.318M888.449 510.374L889.568 511.491M930.374 552.318H972.296L1014.22 594.263M930.374 552.318H955.104M930.374 552.318L961.815 583.777M1014.22 594.263H1040.87M1014.22 594.263L1056.14 636.207M961.815 583.777L965.741 587.705M961.815 583.777L1171.43 793.502L1171.93 794M1056.14 636.207H1098.06L1139.98 678.152M1056.14 636.207H1057.13M1139.98 678.152L1150.46 688.638M1139.98 678.152H1223.83M1223.83 678.152L1244.79 699.127M1223.83 678.152H1251M678.839 300.648L680.455 299.028M678.839 300.648L699.8 279.676M678.839 300.648H762.683M699.8 279.676L720.761 258.704M699.8 279.676L717.152 262.312M720.761 258.704L762.683 216.759H804.605M720.761 258.704H888.449L898.929 248.217H919.893L930.374 237.731M804.605 216.759H825.566M804.605 216.759L815.085 206.273H836.046L841.834 200.482M825.566 216.759H829.382M825.566 216.759H827.052M825.566 216.759H888.449M1098.06 468.429L1110.85 481.22M1098.06 468.429H1139.98L1150.46 478.915H1171.43L1244.79 552.318M1098.06 468.429H1127.83M804.605 510.374L810.781 516.55M804.605 510.374L888.449 594.263M888.449 594.263H930.374L1024.7 688.638H1045.66L1066.62 709.61M888.449 594.263L1088.08 794M1077.1 -13.9389L1098.06 -34.9112M1077.1 -13.9389L1078.42 -15.26M1098.06 -34.9112H1139.98L1213.35 -108.314M1098.06 -34.9112H1105.49M762.683 300.648H777.655M762.683 300.648H888.449M888.449 300.648H972.296M888.449 300.648L972.296 384.537H1223.83M972.296 300.648H1014.22M972.296 300.648L993.257 279.676M1014.22 300.648L1035.18 279.676H1059.8M1014.22 300.648H1056.14M1014.22 300.648L1022.41 292.455M1014.22 300.648L1045.66 332.106M1056.14 300.648H1089.18M1056.14 300.648H1139.47M1223.83 384.537H1250.02M1223.83 384.537L1251 411.724M930.374 -34.9112L943.794 -48.3417M930.374 -34.9112L972.296 -76.8557M972.296 -76.8557L1088.37 -193M972.296 -76.8557H1056.14M1014.22 90.9224L1035.18 69.9502M1014.22 90.9224H1129.5M1244.79 552.318H1251M1244.79 552.318L1251 558.53M1056.14 -76.8557H1073.94M1056.14 -76.8557H1119.02M762.683 174.814L773.163 164.328M762.683 174.814H888.449M888.449 174.814H893.227M888.449 174.814H891.489M888.449 174.814H947.492M1014.22 -160.748L1020.25 -166.788M1014.22 -160.748L1046.45 -193M888.449 216.759L898.929 206.273H919.893L930.374 195.787M888.449 216.759H930.374M930.374 216.759L934.853 212.274M930.374 216.759H1098.06L1117.05 197.76M511.148 342.593V384.537M511.148 342.593L469.226 384.537M511.148 342.593L762.683 594.263V636.207M469.226 384.537V426.482L427.304 468.429M469.226 384.537L301.535 552.318M301.535 552.318L280.574 573.291M301.535 552.318V594.263L280.574 615.235M280.574 573.291L270.094 583.777M280.574 573.291L272.205 581.665M270.094 583.777L268.898 584.973M270.094 583.777L217.691 636.207M217.691 636.207L196.73 657.18M217.691 636.207V676.751M217.691 636.207V720.099M196.73 657.18L189.518 664.395M196.73 657.18L133.847 720.099M133.847 720.099V762.044M133.847 720.099L127.89 726.056M133.847 720.099L59.9834 794M133.847 762.044L126.36 769.532M133.847 762.044L102.406 793.502L101.905 794M511.148 384.537L553.07 426.482M511.148 384.537V510.374M553.07 426.482V468.429M553.07 426.482L594.992 468.429M553.07 468.429V510.374M553.07 468.429V475.852M553.07 510.374V518.215M553.07 510.374L594.992 552.318M553.07 510.374V552.318M594.992 552.318L615.953 573.291V615.235L636.914 636.207V794M594.992 552.318V794M280.574 615.235L259.613 636.207V720.099M280.574 615.235L264.013 631.806M259.613 720.099V721.672M259.613 720.099V762.044M259.613 762.044V794M259.613 762.044L228.172 793.502M427.304 468.429L406.343 489.401M427.304 468.429L416.146 479.591M427.304 468.429L437.785 478.915M427.304 468.429V510.374M406.343 489.401L385.382 510.374M406.343 489.401V531.346L385.382 552.318V573.291M385.382 510.374L378.061 517.696M385.382 510.374L343.457 552.318M762.683 636.207V641.981M762.683 636.207V720.099M762.683 636.207V672.156M762.683 636.207V666.718M762.683 636.207L920.391 794M217.691 720.099L196.73 741.072M217.691 720.099V794M196.73 741.072L189.29 748.516M196.73 741.072L147.528 790.3M385.382 573.291V580.391M385.382 573.291V720.099M385.382 720.099L343.457 762.044V794M385.382 720.099V794M511.148 510.374V552.318M511.148 510.374V515.152M511.148 510.374L469.226 552.318V592.672M511.148 552.318L500.668 562.804V583.777L479.706 604.749V625.721M511.148 552.318V794M762.683 720.099L769.608 727.028M762.683 720.099L783.644 741.072M783.644 741.072L804.605 762.044M783.644 741.072V783.016L794.622 794M804.605 762.044L815.757 773.2M804.605 762.044L836.544 794M594.992 468.429V510.374L605.473 520.86M594.992 468.429L678.839 552.318M678.839 552.318V594.263M678.839 552.318L689.319 562.804V583.777L710.28 604.749V625.721L720.761 636.207V657.18M678.839 552.318L710.28 583.777M343.457 552.318L332.977 562.804V583.777L312.016 604.749V625.721L301.535 636.207V720.099L291.055 730.586V751.558M343.457 552.318V678.152M343.457 678.152L341.103 680.507M343.457 678.152V720.099L332.977 730.586V731.761M678.839 594.263V615.235L689.319 625.721M678.839 594.263V720.099M427.304 510.374V529.803M427.304 510.374V594.263M427.304 594.263V595.661M427.304 594.263V794M605.473 520.86V541.832L615.953 552.318M605.473 520.86L622.508 537.901M678.839 720.099V746.839M678.839 720.099V794M720.761 657.18V672.859M720.761 657.18V762.044M720.761 762.044V773.217M720.761 762.044V794M553.07 552.318L563.55 562.804V583.777L584.511 604.749V625.721M553.07 552.318V636.207L574.031 657.18V699.127M469.226 300.648L458.746 290.162M469.226 300.648L427.304 342.593M469.226 300.648H406.343M427.304 342.593L416.824 353.079M427.304 342.593H406.343M416.824 353.079V374.051L406.343 384.537L405.686 385.192M416.824 353.079L385.382 384.537M385.382 384.537L353.938 415.996M385.382 384.537H317.475M353.938 415.996L343.457 426.482M353.938 415.996L347.27 422.669M343.457 426.482L332.977 436.971M343.457 426.482H217.691M332.977 436.971H312.016L291.055 457.943H278.413M332.977 436.971L259.613 510.374M259.613 510.374L217.691 552.318M259.613 510.374H175.769M217.691 552.318H175.769M217.691 552.318L175.769 594.263M175.769 594.263L154.808 615.235M175.769 594.263H113.141M154.808 615.235L133.847 636.207M154.808 615.235L139.99 630.061M133.847 636.207L112.886 657.18M133.847 636.207L125.167 644.892M133.847 636.207H8.0783M112.886 657.18L91.9223 678.152M112.886 657.18L111.527 658.539M112.886 657.18L99.1727 670.9M91.9223 678.152L89.4798 680.596M91.9223 678.152L50.0003 720.099M91.9223 678.152H8.0783M50.0003 720.099L-23.8606 794M50.0003 720.099H-33.8437L-107.705 794M458.746 290.162H437.785L416.824 269.19H395.863L343.457 216.759M458.746 290.162L322.132 153.475M343.457 216.759H301.535M343.457 216.759L238.652 111.895M238.652 111.895L217.691 90.9224M238.652 111.895H196.73L175.769 90.9224M217.691 90.9224L175.769 48.9779M217.691 90.9224L191.055 64.2717M217.691 90.9224L190.83 64.0465M175.769 48.9779H91.9223M175.769 48.9779H106.524M175.769 48.9779H154.527M175.769 48.9779H106.254M175.769 48.9779H138.815M175.769 48.9779L-33.8437 -160.748M91.9223 48.9779L50.0003 7.03338M91.9223 48.9779H70.9613M91.9223 48.9779H77.5841M91.9223 48.9779L70.9613 28.0057H29.0393L8.0783 7.03338M91.9223 48.9779H8.0783M50.0003 7.03338L29.0393 -13.9389M50.0003 7.03338L47.1611 4.19264M29.0393 -13.9389L8.0783 -34.9112M29.0393 -13.9389L8.34475 -34.6475M8.0783 -34.9112L-2.40221 -45.3973M8.0783 -34.9112H3.9305M8.0783 -34.9112H-33.8437M-33.8437 -34.9112L-44.3242 -45.3973H-65.2852L-96.7267 -76.8557H-117.688L-229 -188.228M-33.8437 -34.9112H-75.7657L-86.2462 -45.3973H-107.207L-128.168 -66.3696M406.343 300.648H394.951M406.343 300.648H343.457M343.457 300.648H301.535M343.457 300.648H302.58M301.535 300.648L280.574 279.676M301.535 300.648H175.769M175.769 300.648H-54.8047M175.769 300.648L133.847 258.704H50.0003M-54.8047 300.648H-75.7657M-54.8047 300.648H-72.3758M-75.7657 300.648H-159.61M-75.7657 300.648H-118.215M-159.61 300.648H-201.535L-229 273.168M-159.61 300.648H-229M406.343 342.593H385.382M406.343 342.593H389.681M385.382 342.593L374.902 353.079H353.938L346.184 360.837M385.382 342.593H217.691L175.769 384.537H8.0783M8.0783 384.537H-22.549M8.0783 384.537H-75.7657M-75.7657 384.537H-159.61M-75.7657 384.537L-117.688 426.482H-159.61L-168.651 435.528M-159.61 384.537H-164.657M-159.61 384.537H-229M8.0783 678.152L-2.40221 688.638H-23.3632L-24.0116 689.287M8.0783 678.152H-54.8047L-86.2462 709.61M-86.2462 709.61L-96.7267 720.099M-86.2462 709.61L-90.388 713.754M-96.7267 720.099L-106.739 730.115M-96.7267 720.099L-138.649 762.044H-159.61L-170.093 772.53M301.535 216.759L238.652 153.839H196.73L175.769 132.867M301.535 216.759H91.9223L50.0003 174.814H-12.8827M175.769 132.867H161.549M175.769 132.867H50.0003M175.769 132.867L154.808 111.895M50.0003 132.867L29.0393 111.895L22.9434 117.997M50.0003 132.867V111.895M50.0003 132.867H-75.7657M-75.7657 132.867H-107.645M-75.7657 132.867H-159.61L-166.582 125.894M217.691 426.482H116.679M217.691 426.482L175.769 468.429H133.847M-2.40221 -45.3973H-23.3632L-44.3242 -66.3696H-65.2852M-2.40221 -45.3973L-12.8827 -55.8834M50.0003 258.704H49.1654M50.0003 258.704H-12.8827M-12.8827 258.704H-15.7071M-12.8827 258.704H-75.7657L-86.2462 248.217M175.769 510.374H169.537M175.769 510.374H-75.7657M133.847 468.429H133.797M133.847 468.429H-69.6491M-12.8827 -55.8834L-19.1976 -62.2047M-12.8827 -55.8834L-75.7657 -118.803H-76.8493M175.769 90.9224L165.289 101.409M175.769 90.9224H133.847M133.847 90.9224H122.123M133.847 90.9224H-54.8047M-54.8047 90.9224H-58.2538M-54.8047 90.9224H-117.688L-128.168 80.4363M-128.168 80.4363L-137.393 71.2062M-128.168 80.4363L-159.61 48.9779M-159.61 48.9779H-180.571L-222.496 7.03338H-229M-159.61 48.9779L-169.762 38.8206M-159.61 48.9779L-200.22 8.34562M175.769 552.318L156.362 571.735M175.769 552.318H-75.7657L-117.688 594.263M8.0783 636.207H-50.2335M8.0783 636.207H-33.8437L-75.7657 678.152H-117.688L-138.649 699.127M8.0783 636.207H-75.7657L-96.7267 657.18M-33.8437 -160.748H-75.7657L-108.001 -193M-33.8437 -160.748L-66.0786 -193M-170.093 772.53H-191.054M-170.093 772.53L-191.551 794M8.0783 48.9779L-2.40221 38.4918H-23.3632L-44.3242 17.5195M8.0783 48.9779H-54.8047M-54.8047 48.9779H-75.7657L-86.2462 38.4918H-107.207L-117.688 28.0057M-54.8047 48.9779H-60.9834M8.0783 7.03338L-2.10911 -3.15949M8.0783 7.03338H-47.0657M-75.7657 510.374H-117.688L-201.535 594.263H-229M-75.7657 510.374H-96.8836M532.109 321.62L741.722 531.346M741.722 531.346L751.61 541.24M741.722 531.346L846.527 636.207M846.527 636.207L850.891 640.574M846.527 636.207L930.374 720.099M930.374 720.099L972.296 762.044M930.374 720.099L959.855 749.597M972.296 762.044L993.257 741.072M972.296 762.044L1004.23 794M490.187 279.676L479.706 269.19M479.706 269.19L475.79 265.271M479.706 269.19L448.265 237.731M448.265 237.731L441.894 231.357M448.265 237.731L385.382 174.814M385.382 174.814L375.36 164.787M385.382 174.814L259.613 48.9779M259.613 48.9779H217.691L200.478 31.7558M259.613 48.9779L196.73 -13.9389M196.73 -13.9389L183.011 -27.6656M196.73 -13.9389L50.0003 -160.748M50.0003 -160.748L44.011 -166.74M50.0003 -160.748L17.7653 -193M490.187 321.62L469.226 342.593M469.226 342.593L459.243 352.581M469.226 342.593L427.304 384.537M427.304 384.537L416.824 395.023M427.304 384.537L424.192 387.65M416.824 395.023V415.996L395.863 436.971M416.824 395.023L50.0003 762.044M50.0003 762.044L45.9354 766.111M50.0003 762.044L39.5198 772.53H18.5588L-2.89958 794" stroke="#38384D" stroke-width="2" stroke-linecap="round" stroke-linejoin="round"/>
</g>
<defs>
<clipPath id="clip0_4_166">
<rect width="1021" height="600" fill="white"/>
</clipPath>
</defs>
</svg>
