<svg width="1920" height="293" viewBox="0 0 1920 293" fill="none" xmlns="http://www.w3.org/2000/svg">
<path opacity="0.5" d="M-277 256.222H2196M-277 207.92H2196M-277 159.617H2196M-277 111.315H2196M-277 63.0123H2196M-277 14.7099H2196M-230.667 -22V291M-182.404 -22V291M-134.141 -22V291M-85.8782 -22V291M-37.6151 -22V291M10.6479 -22V291M58.911 -22V291M107.174 -22V291M155.437 -22V291M203.7 -22V291M251.963 -22V291M300.226 -22V291M348.489 -22V291M396.753 -22V291M445.016 -22V291M493.279 -22V291M541.542 -22V291M589.805 -22V291M638.068 -22V291M686.331 -22V291M734.594 -22V291M782.857 -22V291M831.12 -22V291M879.383 -22V291M927.646 -22V291M975.909 -22V291M1024.17 -22V291M1072.44 -22V291M1120.7 -22V291M1168.96 -22V291M1217.22 -22V291M1265.49 -22V291M1313.75 -22V291M1362.01 -22V291M1410.28 -22V291M1458.54 -22V291M1506.8 -22V291M1555.07 -22V291M1603.33 -22V291M1651.59 -22V291M1699.86 -22V291M1748.12 -22V291M1796.38 -22V291M1844.64 -22V291M1892.91 -22V291M1941.17 -22V291M1989.43 -22V291M2037.7 -22V291M2085.96 -22V291M2134.22 -22V291M-277 -22H2196V291H-277V-22Z" stroke="url(#paint0_radial_3093_28554)" stroke-width="2.07921"/>
<defs>
<radialGradient id="paint0_radial_3093_28554" cx="0" cy="0" r="1" gradientUnits="userSpaceOnUse" gradientTransform="translate(959.5 134.5) rotate(90.2906) scale(190.314 1503.66)">
<stop stop-color="#38384D"/>
<stop offset="1" stop-color="#38384D" stop-opacity="0"/>
</radialGradient>
</defs>
</svg>
