<svg width="1012" height="506" viewBox="0 0 1012 506" fill="none" xmlns="http://www.w3.org/2000/svg">
<g clip-path="url(#clip0_4_111)">
<path opacity="0.5" d="M-659.482 298.916C-122.411 270.267 -137.778 270.775 97.2363 316.76C918.322 477.369 1105.32 932.558 1401.34 769.987M-658.758 288.693C-227.89 269.022 -154.444 264.523 -19.0817 285.422C14.4727 290.682 51.4146 297.9 98.0431 307.099C278.572 342.69 427.325 395.322 555.479 450.472C1001.58 641.393 1171.88 881.968 1401.94 760.698M-658.033 278.456C-226.324 262.054 -155.199 256.997 -18.3589 276.296C15.4603 281.064 52.4228 288.206 98.8345 297.437C278.496 333.155 425.521 388.528 554.479 444.442C997.024 634.429 1173.1 867.3 1402.69 751.404M-657.309 268.233C-224.771 255.069 -156.089 249.646 -17.6514 267.169C16.4305 271.476 53.4313 278.512 99.6403 287.792C278.421 323.605 423.585 382.095 553.343 438.404C991.84 628.612 1174.24 852.626 1403.31 742.117M-656.584 257.995C-223.221 248.115 -156.916 242.269 -16.9287 258.043C17.4147 261.904 54.3632 268.814 100.447 278.131C278.346 314.054 421.738 375.484 552.253 432.368C986.984 622.075 1175.38 837.953 1403.97 732.817M-655.86 247.773C-221.7 241.144 -157.757 234.876 -16.22 248.901C18.385 252.316 55.4467 259.141 101.254 268.47C278.275 304.443 419.9 368.749 551.163 426.333C982.225 615.452 1176.54 823.28 1404.63 723.517M-655.136 237.535C-220.103 234.177 -158.62 227.589 -15.5014 239.837C19.3498 242.805 56.4659 249.51 102.056 258.871C278.192 295.015 418.053 362.137 550.067 420.374C977.43 608.904 1177.7 808.685 1405.28 714.371M-654.412 227.312C-218.553 227.223 -159.314 218.337 -14.7874 230.618C20.2621 233.599 57.4806 239.724 102.868 249.133C278.137 285.389 416.219 355.357 548.969 414.23C972.589 602.137 1178.85 793.889 1405.95 704.901M-653.687 217.074C-216.987 220.27 -160.326 212.925 -14.0667 221.522C21.2922 223.598 58.4868 230.061 103.657 239.502C278.03 275.867 414.375 348.699 547.876 408.225C967.877 595.502 1180.02 779.201 1406.6 695.632M-652.963 206.852C-215.435 213.285 -161.188 205.607 -13.344 212.397C22.2613 214.026 59.4929 220.398 104.464 229.841C277.959 266.255 412.534 342.01 546.786 402.19C963.108 588.817 1181.16 764.574 1407.26 686.347M-652.238 196.614C-213.888 206.377 -162.05 198.289 -12.6353 203.254C23.2304 204.453 60.5035 210.674 105.271 220.18C277.88 256.766 410.692 335.322 545.68 396.153C958.34 582.101 1182.32 749.902 1407.92 677.047M-651.514 186.392C-212.333 199.346 -162.958 190.984 -11.9125 194.128C24.1995 194.88 61.5271 200.981 106.076 210.535C277.801 247.262 408.862 328.696 544.59 390.117C953.588 575.386 1183.48 735.23 1408.58 667.716M-650.789 176.154C-210.766 192.378 -163.806 183.683 -11.2049 185.001C25.1675 185.323 62.5354 191.288 106.883 200.874C277.729 237.681 407.025 321.946 543.497 384.113C948.834 568.686 1184.63 720.587 1409.23 658.493M-650.066 165.931C-209.215 185.409 -164.653 176.382 -10.482 175.875C26.1366 175.75 63.5438 181.594 107.675 191.212C277.654 228.131 405.185 315.242 542.407 378.077C944.085 561.925 1185.79 705.915 1409.89 649.193M-649.341 155.694C-207.664 178.455 -165.517 169.095 -9.7734 166.733C27.0632 166.129 64.552 171.9 108.48 181.567C277.563 218.579 403.36 308.539 541.303 372.01C939.354 555.134 1186.94 691.196 1410.55 639.877M-648.617 145.471C-206.113 171.485 -166.396 161.807 -9.05062 157.607C28.0584 156.619 65.5593 162.222 109.287 171.906C277.504 209.03 401.519 301.835 540.213 365.974C934.607 548.343 1188.18 676.529 1411.21 630.577M-647.892 135.233C-204.547 164.517 -167.26 154.521 -8.34301 148.48C29.0264 147.062 66.5675 152.529 110.093 162.245C277.428 199.495 399.633 295.128 539.153 359.941C929.921 541.555 1189.26 661.852 1411.9 621.294M-647.168 125.011C-202.995 157.547 -168.14 147.248 -7.62015 139.354C29.9944 137.505 67.5877 142.882 110.9 152.584C277.352 189.944 397.854 288.428 538.032 353.903C925.161 534.731 1190.41 647.178 1412.53 611.992M-646.443 114.773C-201.49 150.575 -169.005 139.977 -6.88211 130.23C30.9929 127.95 68.63 133.145 111.803 142.868C277.377 180.292 396.112 281.638 537.024 347.796C920.544 527.84 1191.67 632.436 1413.28 602.621M-645.718 104.535C-199.877 143.609 -169.886 132.72 -6.18867 121.086C31.9304 118.39 69.6077 123.449 112.528 133.279C277.203 170.843 394.191 274.99 535.832 341.893C915.734 521.075 1192.71 617.879 1413.84 593.407M-644.995 94.3126C-198.326 136.64 -170.752 125.464 -5.42014 111.963C32.9594 108.837 70.6771 113.76 113.334 123.618C277.158 161.295 392.398 268.274 534.773 335.844C911.064 514.273 1193.9 603.209 1414.53 584.155M-644.27 84.0747C-196.777 129.701 -171.633 118.207 -4.77365 102.832C33.8064 99.2561 71.6091 104.061 114.096 113.939C276.993 151.723 390.515 261.521 533.627 329.727C906.313 507.326 1195.03 588.457 1415.15 574.79M-643.55 73.9138C-195.214 122.779 -172.459 111.031 -4.05512 93.7679C34.8148 89.7787 72.6435 94.4307 114.912 104.371C276.963 142.176 388.705 254.819 532.551 323.708C901.631 500.477 1196.19 573.8 1415.82 565.537M-642.821 63.6143C-193.658 115.748 -173.367 103.725 -3.32788 84.5805C35.7861 80.1754 73.6563 84.6756 115.723 94.6487C276.886 132.656 386.942 248.105 531.46 317.673C896.953 493.582 1197.35 559.128 1416.48 556.222M-642.097 53.3919C-192.107 108.779 -174.25 96.4837 -2.60402 75.4393C36.754 70.6181 74.6635 74.9975 116.512 85.0176C276.809 123.137 385.056 241.398 530.368 311.668C892.259 486.701 1198.49 544.486 1417.13 546.968M-641.373 43.1694C-190.557 101.825 -175.118 89.2583 -1.89758 66.3276C37.7209 61.0761 75.6664 65.3807 117.319 75.3567C276.735 113.571 383.235 234.649 529.263 305.616C887.583 479.775 1199.65 529.798 1417.79 537.653M-640.648 32.9316C-188.989 94.8408 -175.985 82.0176 -1.17359 57.1863C38.689 51.5188 76.6801 55.6103 118.127 65.6805C276.66 104.02 381.414 227.885 528.174 299.565C882.908 472.833 1200.8 515.11 1418.45 528.337M-639.923 22.6937C-187.439 87.8867 -176.868 74.7913 -0.465936 48.0594C39.656 41.9769 77.6883 45.9167 118.933 56.0196C276.586 94.4545 379.591 221.151 527.078 293.606C878.212 465.967 1201.96 500.514 1419.1 519.129M-639.196 12.4251C-185.884 80.8712 -177.734 67.5354 0.261182 38.8721C40.5847 32.3244 78.7152 36.1779 119.742 46.328C276.453 84.8692 377.773 214.356 525.996 287.448C873.593 458.891 1203.13 485.75 1419.77 509.752M-638.475 2.23339C-184.321 73.9489 -178.607 60.3715 0.965459 29.7912C41.5908 22.8777 79.7203 26.5305 120.546 36.7133C276.435 75.3691 375.964 207.639 524.887 281.458C868.931 451.981 1204.27 471.092 1420.42 500.467M-637.751 -7.98914C-182.77 66.9794 -179.461 53.1625 1.68832 20.6652C42.5578 13.3357 80.7286 16.8368 121.337 27.0513C276.359 65.8339 374.142 200.89 523.812 275.423C864.289 444.996 1205.48 456.407 1421.1 491.168M-637.026 -18.2269C-181.279 60.006 -180.284 45.9557 2.39593 11.5383C43.4637 3.7897 81.737 7.14337 122.217 17.4418C276.357 56.3349 372.41 194.178 522.78 269.438C859.706 438.06 1206.59 441.778 1421.81 481.918M-636.302 -28.4495C-179.667 53.0405 -181.14 38.7622 3.11867 2.41241C44.4915 -5.74811 82.7451 -2.55028 122.949 7.74505C276.209 46.7332 370.532 187.363 521.601 263.35C854.992 431.024 1207.74 427.013 1422.4 472.582M-635.577 -38.6873C-178.1 46.0721 -182.07 31.5482 3.82737 -6.72986C45.4585 -15.29 83.7677 -12.2274 123.756 -1.91577C276.134 37.1828 368.711 180.599 520.511 257.314C850.353 424.007 1208.9 412.387 1423.06 463.282M-634.853 -48.9098C-176.568 39.1478 -182.925 24.3546 4.55019 -15.8559C46.4254 -24.832 84.776 -21.9211 124.563 -11.5767C276.059 27.6323 366.907 173.82 519.42 251.279C845.734 416.931 1210.05 397.714 1423.71 453.997M-634.129 -59.1476C-174.999 32.1487 -183.781 17.1766 5.25768 -24.9826C47.3922 -34.3738 85.7844 -31.6146 125.368 -21.2221C275.968 18.0963 365.102 167.041 518.33 245.243C841.091 409.961 1211.21 383.103 1424.37 444.697M-633.404 -69.3854C-173.432 25.1803 -184.651 9.98198 5.9805 -34.1086C48.3591 -43.9158 86.7926 -41.3082 126.16 -30.884C275.892 8.56121 363.313 160.263 517.224 239.207C836.469 402.93 1212.36 368.368 1425.03 435.397M-632.68 -79.6079C-171.881 18.2108 -185.512 2.86532 6.70336 -43.2346C49.3413 -53.4567 87.801 -51.0018 126.966 -40.5448C275.818 -1.00453 361.585 153.49 516.134 233.171C831.862 395.885 1213.52 353.696 1425.69 426.112M-631.955 -89.8458C-170.33 11.2413 -186.364 -4.37435 7.41206 -52.3769C50.3083 -62.9986 88.8093 -60.6954 127.773 -50.2057C275.743 -10.555 359.706 146.69 515.043 227.136C827.242 388.824 1214.68 339.009 1426.35 416.797M-631.231 -100.068C-168.763 4.27288 -187.22 -11.5525 8.13484 -61.5028C51.2719 -72.4945 89.8328 -70.388 128.579 -59.8512C275.667 -20.0901 357.917 139.913 513.953 221.1C822.637 381.763 1215.83 324.335 1427.01 407.512M-630.506 -110.306C-167.212 -2.69655 -188.079 -18.6845 8.84237 -70.6297C52.241 -82.0671 90.7648 -80.0867 129.385 -69.512C275.592 -29.6404 356.131 133.089 512.847 215.064C818.05 374.658 1216.99 309.663 1427.66 398.227M-629.782 -120.529C-165.613 -9.6936 -188.917 -25.9077 9.51836 -79.7433C53.161 -91.5967 91.8026 -89.7628 130.13 -79.1616C275.517 -39.1908 354.344 126.281 511.76 208.982C813.448 367.552 1218.14 294.944 1428.32 388.881M-629.058 -130.766C-164.11 -16.62 -189.774 -33.0704 10.335 -88.8937C54.2512 -101.146 92.9178 -99.4491 131.044 -88.8151C275.442 -48.7411 352.618 119.476 510.743 202.998C808.929 360.574 1219.37 280.323 1429.06 379.647M-628.334 -140.989C-162.544 -23.5884 -190.616 -40.2322 10.9815 -98.0248C55.1407 -110.677 93.8498 -109.148 131.774 -98.4812C275.367 -58.2916 350.772 112.648 509.638 196.961C804.347 353.407 1220.53 265.651 1429.71 370.347M-627.609 -151.227C-160.993 -30.5579 -191.458 -47.394 11.7043 -107.151C56.1228 -120.218 94.8886 -118.839 132.596 -108.141C275.292 -67.842 348.94 105.821 508.487 190.906C799.699 346.298 1221.62 250.974 1430.31 361.043M-626.885 -161.449C-159.441 -37.5273 -192.316 -54.5568 12.4271 -116.277C57.1039 -129.744 95.897 -128.533 133.403 -117.802C275.214 -77.3463 347.234 98.9567 507.381 184.87C795.113 339.177 1222.75 236.299 1430.95 351.757M-626.16 -171.687C-157.875 -44.4956 -193.158 -61.7185 13.1401 -125.48C58.0817 -139.439 96.915 -138.365 134.214 -127.524C275.147 -87.0044 345.462 92.1494 506.296 178.757C790.549 331.965 1223.92 221.535 1431.62 342.38M-625.436 -181.91C-156.357 -51.4212 -194.001 -68.8649 13.8586 -134.545C59.0519 -148.811 97.9136 -147.92 135.005 -137.186C275.066 -96.4779 343.692 85.3111 505.216 172.799C786.004 324.924 1225.11 206.942 1432.3 333.174M-624.711 -192.147C-154.773 -58.4191 -194.827 -76.0256 14.5661 -143.672C60.0646 -158.35 98.9218 -157.614 135.806 -146.77C275.068 -106.023 341.924 78.4576 504.11 166.763C781.421 317.773 1226.23 192.298 1432.94 323.873M-623.988 -202.37C-153.222 -65.3887 -195.67 -83.172 15.289 -152.798C60.9999 -167.879 99.9454 -167.306 136.658 -156.413C274.9 -115.564 340.171 71.6052 503.005 160.727C776.853 310.622 1227.38 177.594 1433.58 314.618M-623.263 -212.608C-151.655 -72.3571 -196.529 -90.3194 15.9966 -161.925C61.9625 -177.359 100.954 -177 137.404 -166.093C274.89 -125.172 338.419 64.7372 501.899 154.69C772.284 303.472 1228.53 162.921 1434.23 305.286M-622.543 -222.769C-150.108 -79.265 -197.346 -97.4022 16.7161 -171.005C62.9435 -186.885 101.958 -186.632 138.16 -175.68C274.761 -134.603 336.602 57.9267 500.743 148.712C767.683 296.365 1229.63 148.306 1434.84 296.044M-621.814 -233.068C-148.553 -86.2959 -198.173 -104.563 17.4433 -180.192C63.9137 -196.473 102.908 -196.376 139.017 -185.399C274.706 -144.214 334.916 50.9861 499.688 142.617C763.182 289.127 1230.82 133.575 1435.53 286.685M-621.09 -243.291C-146.986 -93.2643 -199.012 -111.755 18.1541 -189.365C64.8991 -206.06 103.981 -206.112 139.823 -195.06C274.6 -153.766 333.181 44.1038 498.582 136.58C758.631 281.947 1231.95 118.9 1436.17 277.399M-620.366 -253.513C-145.437 -100.203 -199.841 -118.885 18.8726 -198.429C65.8606 -215.525 104.988 -215.79 140.628 -204.69C274.524 -163.301 331.446 37.2063 497.476 130.544C754.096 274.767 1233.12 104.213 1436.84 268.037M-619.64 -263.766C-143.885 -107.188 -200.669 -126.031 19.5813 -207.572C66.8123 -225.068 106.01 -225.452 141.436 -214.366C274.449 -172.852 329.713 30.2933 496.369 124.538C749.544 267.603 1234.26 89.5703 1437.47 258.844M-618.916 -273.989C-142.318 -114.156 -201.497 -133.176 20.3051 -216.713C67.8249 -234.607 107.018 -235.145 142.242 -224.027C274.34 -182.358 327.979 23.3804 495.341 118.476C745.085 260.429 1235.47 74.8706 1438.19 249.517M-618.189 -284.257C-140.688 -121.151 -202.306 -140.366 21.0149 -225.871C68.7886 -244.102 108.026 -244.839 143.063 -233.672C274.314 -191.951 326.271 16.5464 494.266 112.441C740.585 253.175 1236.65 60.1995 1438.87 240.218M-617.468 -294.449C-139.215 -128.095 -203.139 -147.45 21.7323 -234.92C69.7686 -253.613 108.97 -254.49 143.836 -243.288C274.163 -201.507 324.564 9.46532 493.145 106.404C736.067 245.966 1237.78 45.5252 1439.51 230.932M-616.743 -304.687C-137.664 -135.065 -203.967 -154.58 22.4465 -244.139C70.7574 -263.246 110.046 -264.272 144.65 -253.041C274.151 -211.084 322.787 2.53393 492.058 100.322C731.554 238.695 1238.99 30.8101 1440.11 221.582M-616.019 -314.909C-136.147 -141.99 -204.613 -161.265 23.1691 -253.265C71.7623 -272.677 111.07 -273.965 145.455 -262.687C274.076 -220.634 321.146 -4.40368 490.971 94.2403C727.054 231.441 1240.04 16.0845 1440.79 212.252M-615.294 -325.147C-134.547 -148.987 -205.452 -168.473 23.8746 -262.361C72.7303 -282.234 112.073 -283.597 146.258 -272.302C273.998 -230.139 319.413 -11.3166 489.874 88.297C722.471 224.29 1241.25 1.50776 1441.45 203.045M-614.57 -335.37C-132.996 -155.957 -206.305 -175.698 24.6281 -271.485C73.7399 -291.727 113.114 -293.319 147.096 -281.961C273.923 -239.689 317.76 -18.2859 488.764 82.322C718.056 217.134 1242.4 -13.1183 1442.11 193.806M-613.845 -345.608C-131.43 -162.925 -207.158 -182.922 25.2746 -280.616C74.6763 -301.271 114.09 -302.984 147.857 -291.624C273.832 -249.225 316.032 -25.2757 487.678 76.225C713.575 209.835 1243.55 -27.853 1442.78 184.461M-613.122 -355.83C-129.878 -169.894 -208.024 -190.178 26.0278 -289.74C75.6431 -310.813 115.037 -312.681 148.662 -301.27C273.757 -258.775 314.549 -32.4807 486.588 70.1893C709.249 202.299 1244.72 -42.5252 1443.46 175.162M-612.397 -366.068C-128.327 -176.864 -208.88 -197.356 26.7365 -298.882C262.353 -400.408 266.345 -67.0555 485.483 64.1374C704.622 195.33 1245.88 -57.1974 1444.12 165.862" stroke="url(#paint0_radial_4_111)" stroke-miterlimit="10"/>
</g>
<defs>
<radialGradient id="paint0_radial_4_111" cx="0" cy="0" r="1" gradientUnits="userSpaceOnUse" gradientTransform="translate(1720.13 -1593.53) rotate(100.771) scale(2458.18 4922.24)">
<stop stop-color="#363659"/>
<stop offset="1" stop-color="#3B3B5A"/>
</radialGradient>
<clipPath id="clip0_4_111">
<rect width="1012" height="506" fill="white"/>
</clipPath>
</defs>
</svg>
