<svg width="285" height="135" viewBox="0 0 285 135" fill="none" xmlns="http://www.w3.org/2000/svg">
<path d="M84.4 26H60.6001L90.1999 63H115.23L84.4 26Z" fill="#1FDCC9"/>
<path d="M84.4 108H60.6001L90.1999 71H115.23L84.4 108Z" fill="#1FDCC9"/>
<path d="M51.3999 29L63.3999 44L44.9999 67H21L51.3999 29Z" fill="#1EB0FF"/>
<path d="M51.3999 105L63.3999 90L44.9999 67H21L51.3999 105Z" fill="#1EB0FF"/>
<path d="M68.445 51.7925L73.1997 57.7358L65.9092 66.8489H56.3999L68.445 51.7925Z" fill="#1FDCC9"/>
<path d="M68.445 81.9054L73.1997 75.9621L65.9092 66.8489H56.3999L68.445 81.9054Z" fill="#1FDCC9"/>
<path d="M162.395 91C157.754 91 153.748 90.0055 150.377 88.0166C147.049 85.9834 144.488 83.1768 142.693 79.5967C140.898 75.9724 140 71.7956 140 67.0663C140 62.337 140.898 58.1602 142.693 54.5359C144.488 50.9116 147.049 48.0829 150.377 46.0497C153.748 44.0166 157.754 43 162.395 43C167.999 43 172.596 44.4144 176.186 47.2431C179.777 50.0718 181.988 54.0497 182.82 59.1768H172.706C172.18 56.7017 171.02 54.8011 169.225 53.4751C167.474 52.105 165.153 51.4199 162.264 51.4199C159.549 51.4199 157.229 52.0608 155.302 53.3425C153.376 54.5801 151.887 56.3702 150.836 58.7127C149.829 61.0552 149.326 63.8398 149.326 67.0663C149.326 70.2928 149.829 73.0773 150.836 75.4199C151.887 77.7182 153.376 79.5083 155.302 80.7901C157.229 82.0276 159.549 82.6464 162.264 82.6464C165.153 82.6464 167.474 82.0276 169.225 80.7901C170.976 79.5083 172.115 77.6961 172.64 75.3536H182.754C181.922 80.2597 179.711 84.105 176.121 86.8895C172.574 89.6298 167.999 91 162.395 91Z" fill="#807E98"/>
<path d="M187.553 90.2044V43.7956H196.748V82.9779H216.844V90.2044H187.553Z" fill="#807E98"/>
<path d="M240.575 91C235.934 91 231.928 90.0055 228.557 88.0166C225.229 85.9834 222.668 83.1768 220.873 79.5967C219.078 75.9724 218.18 71.7956 218.18 67.0663C218.18 62.337 219.078 58.1602 220.873 54.5359C222.668 50.9116 225.229 48.0829 228.557 46.0497C231.928 44.0166 235.934 43 240.575 43C246.18 43 250.777 44.4144 254.367 47.2431C257.957 50.0718 260.168 54.0497 261 59.1768H250.886C250.361 56.7017 249.201 54.8011 247.405 53.4751C245.654 52.105 243.334 51.4199 240.444 51.4199C237.729 51.4199 235.409 52.0608 233.483 53.3425C231.556 54.5801 230.067 56.3702 229.017 58.7127C228.01 61.0552 227.506 63.8398 227.506 67.0663C227.506 70.2928 228.01 73.0773 229.017 75.4199C230.067 77.7182 231.556 79.5083 233.483 80.7901C235.409 82.0276 237.729 82.6464 240.444 82.6464C243.334 82.6464 245.654 82.0276 247.405 80.7901C249.157 79.5083 250.295 77.6961 250.821 75.3536H260.934C260.102 80.2597 257.891 84.105 254.301 86.8895C250.755 89.6298 246.18 91 240.575 91Z" fill="#807E98"/>
</svg>
