<svg width="135" height="56" viewBox="0 0 135 56" fill="none" xmlns="http://www.w3.org/2000/svg">
<path d="M63.9887 10L49.1094 30.8125H53.6777L68.6342 10H63.9887Z" fill="#FAFAFD"/>
<path d="M54.1537 10L58.5316 16.1327L56.2475 19.4779L49.4902 10H54.1537Z" fill="url(#paint0_linear_7014_4254)"/>
<path d="M64.4317 30.8145L59.5779 24.0313L61.8621 20.7791L69 30.8145H64.4317Z" fill="url(#paint1_linear_7014_4254)"/>
<path fill-rule="evenodd" clip-rule="evenodd" d="M43.7788 10H47.7761V30.8125H43.7788V30.0351C42.6244 30.6502 41.299 31 39.8896 31C35.4147 31 31.7871 27.4742 31.7871 23.125C31.7871 18.7758 35.4147 15.25 39.8896 15.25C41.299 15.25 42.6244 15.5998 43.7788 16.2149V10ZM39.8469 27.5437C42.3813 27.5437 44.4359 25.5468 44.4359 23.0835C44.4359 20.6202 42.3813 18.6233 39.8469 18.6233C37.3125 18.6233 35.2579 20.6202 35.2579 23.0835C35.2579 25.5468 37.3125 27.5437 39.8469 27.5437Z" fill="#FAFAFD"/>
<path d="M32.1851 10L17.3213 30.8125H21.9812L36.8306 10H32.1851Z" fill="#FAFAFD"/>
<path d="M21.9847 10L26.6481 16.3186L24.0784 19.8496L17.1309 10H21.9847Z" fill="url(#paint2_linear_7014_4254)"/>
<path fill-rule="evenodd" clip-rule="evenodd" d="M11.9917 10H15.989V30.8125H11.9917V30.0351C10.8373 30.6502 9.51189 31 8.10246 31C3.6276 31 0 27.4742 0 23.125C0 18.7758 3.6276 15.25 8.10246 15.25C9.51189 15.25 10.8373 15.5998 11.9917 16.2149V10ZM8.05979 27.5437C10.5942 27.5437 12.6488 25.5468 12.6488 23.0835C12.6488 20.6202 10.5942 18.6233 8.05979 18.6233C5.52535 18.6233 3.47078 20.6202 3.47078 23.0835C3.47078 25.5468 5.52535 27.5437 8.05979 27.5437Z" fill="#FAFAFD"/>
<path d="M55.6963 36.0498C57.9642 36.0498 59.6999 37.3751 59.9434 39.4102H57.8213C57.5535 38.3849 56.65 37.9424 55.6445 37.9424C54.7582 37.9424 54.0812 38.2552 53.627 38.8105C53.1739 39.3646 52.9473 40.1543 52.9473 41.0986C52.9473 42.084 53.2239 42.828 53.7012 43.3262C54.1786 43.8245 54.851 44.0712 55.6309 44.0713C56.4353 44.0713 57.0224 43.8522 57.4199 43.5C57.8174 43.1477 58.0208 42.6662 58.0674 42.1514L58.0723 42.0967H55.5117V40.3359H59.9502V45.8057H58.2314L58.1191 44.9707L58.1045 44.8594L58.0322 44.9453C57.5232 45.5464 56.4959 45.9502 55.3574 45.9502C54.0206 45.9502 52.8869 45.4567 52.0869 44.5977C51.2867 43.7384 50.8175 42.5099 50.8174 41.0332C50.8174 39.5831 51.2995 38.3374 52.1484 37.4551C52.9971 36.5731 54.2156 36.0499 55.6963 36.0498ZM30.6543 36.207C32.0571 36.207 33.2443 36.7008 34.0801 37.5488C34.9158 38.3969 35.4033 39.6033 35.4033 41.0332C35.4032 42.4369 34.9282 43.6293 34.1152 44.4707C33.3022 45.3121 32.1484 45.8056 30.7852 45.8057H27.0527V36.207H30.6543ZM43.1094 36.207L47.1631 42.3574L47.2549 42.4971V36.207H49.2422V45.8057H47.2324L43.1787 39.668L43.0869 39.5293V45.8057H41.0996V36.207H43.1094ZM38.9863 36.207V45.8057H36.9736V36.207H38.9863ZM22.415 36.207L25.8096 45.8057H23.6729L23.0068 43.7959L22.9951 43.7617H19.8066L19.7949 43.7949L19.1152 45.8057H17.0176L20.4248 36.207H22.415ZM12.585 36.207C13.751 36.207 14.6575 36.4904 15.2715 37.0156C15.8843 37.5401 16.2129 38.3118 16.2129 39.3027C16.2129 39.9246 16.0802 40.4529 15.8184 40.8926C15.5565 41.3321 15.1633 41.6864 14.6357 41.958L14.5938 41.9795L14.6133 42.0225L16.2773 45.8057H14.0791L12.6445 42.4414L12.6309 42.4111H10.918V45.8057H8.90527V36.207H12.585ZM7.54004 36.207V38.0732H4.80078V45.8057H2.78809V38.0732H0.0498047V36.207H7.54004ZM29.0654 43.9395H30.5762C31.4216 43.9395 32.098 43.6709 32.5625 43.1689C33.0264 42.6675 33.2734 41.9395 33.2734 41.0332C33.2734 40.1067 33.0134 39.3652 32.5264 38.8555C32.039 38.3455 31.3303 38.0733 30.4463 38.0732H29.0654V43.9395ZM21.3574 39.0059C21.3189 39.2249 21.2158 39.5891 21.0986 39.9424L20.4072 42.0127L20.3857 42.0791H22.4287L22.4062 42.0127L21.7148 39.9434H21.7158C21.6111 39.6145 21.4945 39.2374 21.4561 39.0059H21.3574ZM10.918 40.6504H12.5723C13.043 40.6504 13.4213 40.5304 13.6826 40.2988C13.9448 40.0663 14.083 39.7268 14.083 39.3027C14.083 38.8857 13.9521 38.5557 13.6943 38.3311C13.4376 38.1074 13.0616 37.9941 12.585 37.9941H10.918V40.6504Z" fill="#FAFAFD" stroke="#101018" stroke-width="0.1"/>
<path d="M106.811 36.0498L110.23 45.9502H108.078L107.405 43.877L107.395 43.8418H104.183L104.172 43.876L103.487 45.9502H101.374L104.807 36.0498H106.811ZM93.749 36.0498L97.832 42.3916L97.9238 42.5352V36.0498H99.9248V45.9502H97.9014L93.8184 39.6211L93.7256 39.4785V45.9502H91.7246V36.0498H93.749ZM89.6865 36.0498V37.9766H85.6416V40.0361H89.2275V41.8555H85.6416V44.0234H89.6865V45.9502H83.6143V36.0498H89.6865ZM78.0811 36.0498C79.2553 36.0498 80.1677 36.3421 80.7861 36.8838C81.4036 37.4248 81.7344 38.2207 81.7344 39.2432C81.7344 39.8848 81.6018 40.43 81.3379 40.8838C81.074 41.3374 80.6769 41.7024 80.1455 41.9824L80.1055 42.0039L80.123 42.0469L81.8008 45.9502H79.585L78.1406 42.4805L78.1279 42.4502H76.4023V45.9502H74.375V36.0498H78.0811ZM69.5068 36.0498L72.9268 45.9502H70.7744L70.1025 43.877L70.0908 43.8418H66.8799L66.8682 43.876L66.1836 45.9502H64.0703L67.5029 36.0498H69.5068ZM68.4424 38.9375C68.4036 39.1635 68.2997 39.539 68.1816 39.9033L67.4854 42.0381L67.4639 42.1045H69.5195L69.498 42.0381L68.8018 39.9033C68.6964 39.5645 68.5797 39.1763 68.541 38.9375H68.4424ZM105.746 38.9375C105.707 39.1635 105.603 39.539 105.485 39.9033L104.789 42.0381L104.768 42.1045H106.823L106.802 42.0381L106.105 39.9033C106 39.5645 105.883 39.1763 105.845 38.9375H105.746ZM76.4023 40.6309H78.0674C78.5418 40.6309 78.9234 40.5073 79.1865 40.2686C79.4503 40.0291 79.5889 39.6797 79.5889 39.2432C79.5889 38.814 79.4575 38.4745 79.1982 38.2432C78.9397 38.0127 78.5612 37.8955 78.0811 37.8955H76.4023V40.6309Z" fill="#706EFF" stroke="#101018" stroke-width="0.1"/>
<defs>
<linearGradient id="paint0_linear_7014_4254" x1="53.1068" y1="11.3009" x2="59.1968" y2="18.831" gradientUnits="userSpaceOnUse">
<stop stop-color="white"/>
<stop offset="1" stop-color="white" stop-opacity="0.55"/>
</linearGradient>
<linearGradient id="paint1_linear_7014_4254" x1="65.4786" y1="29.2348" x2="58.0148" y2="18.9289" gradientUnits="userSpaceOnUse">
<stop stop-color="#6966FF"/>
<stop offset="1" stop-color="#6966FF" stop-opacity="0.36"/>
</linearGradient>
<linearGradient id="paint2_linear_7014_4254" x1="20.9378" y1="11.3519" x2="27.2491" y2="19.2565" gradientUnits="userSpaceOnUse">
<stop stop-color="white"/>
<stop offset="1" stop-color="white" stop-opacity="0.55"/>
</linearGradient>
</defs>
</svg>
